<svg height="36" preserveAspectRatio="xMidYMid meet" viewBox="0 0 36 36" width="36" xmlns="http://www.w3.org/2000/svg"><path d="m14.77 31.94a7.31 7.31 0 0 1 -5.7-11.88l-1.42-1.42a9.3 9.3 0 0 0 13.1 13.11l-1.42-1.42a7.29 7.29 0 0 1 -4.56 1.61z"/><path d="m26.65 2.1a3.12 3.12 0 1 0 3.11 3.12 3.12 3.12 0 0 0 -3.11-3.12z"/><path d="m26.81 18.18h-5.34q-.31-.33-.66-.63l4.38-4.86a2.14 2.14 0 0 0 -.53-3.27l-3.76-2.19-3.85-2.16a1 1 0 0 0 -1.11.08l-4.79 3.75a1 1 0 0 0 1.23 1.58l4.27-3.34 2.87 1.63-5.92 6.62a9.33 9.33 0 0 0 -4.44 1.82l1.42 1.43a7.3 7.3 0 0 1 10.17 10.17l1.43 1.43a9.27 9.27 0 0 0 .82-10.06h2.74l-.77 6.51a1 1 0 0 0 .87 1.11h.12a1 1 0 0 0 1-.88l.9-7.62a1 1 0 0 0 -.25-.78 1 1 0 0 0 -.8-.34z"/><path d="m0 0h36v36h-36z" fill="none"/></svg>