<svg height="36" preserveAspectRatio="xMidYMid meet" viewBox="0 0 36 36" width="36" xmlns="http://www.w3.org/2000/svg"><path d="m14.68 14.81a6.76 6.76 0 1 1 6.76-6.75 6.77 6.77 0 0 1 -6.76 6.75zm0-11.51a4.76 4.76 0 1 0 4.76 4.76 4.76 4.76 0 0 0 -4.76-4.76z"/><path d="m16.42 31.68a2.14 2.14 0 0 1 -.62-1.68h-11.8v-5.78a14.81 14.81 0 0 1 11.09-4.68h.72a2.2 2.2 0 0 1 .62-1.85l.12-.11c-.47 0-1-.06-1.46-.06a16.47 16.47 0 0 0 -12.89 5.74 1 1 0 0 0 -.2.6v6.14a2 2 0 0 0 2 2h12.7z"/><path d="m26.87 16.29a.37.37 0 0 1 .15 0 .42.42 0 0 0 -.15 0z"/><path d="m33.68 23.32-2-.61a7.21 7.21 0 0 0 -.58-1.41l1-1.86a.38.38 0 0 0 -.1-.44l-1.45-1.45a.36.36 0 0 0 -.44-.07l-1.84 1a7.15 7.15 0 0 0 -1.43-.61l-.61-2a.36.36 0 0 0 -.36-.24h-2.05a.36.36 0 0 0 -.35.26l-.61 2a7 7 0 0 0 -1.44.6l-1.82-1a.35.35 0 0 0 -.43.07l-1.48 1.44a.38.38 0 0 0 -.06.44l1 1.82a6.77 6.77 0 0 0 -.63 1.43l-2 .6a.36.36 0 0 0 -.26.35v2.05a.35.35 0 0 0 .26.31l2 .61a7 7 0 0 0 .6 1.41l-1 1.91a.36.36 0 0 0 .06.43l1.45 1.45a.38.38 0 0 0 .44.07l1.87-1a7.09 7.09 0 0 0 1.4.57l.6 2a.38.38 0 0 0 .35.26h2.05a.37.37 0 0 0 .35-.26l.61-2.05a6.92 6.92 0 0 0 1.38-.57l1.89 1a.36.36 0 0 0 .43-.07l1.52-1.36a.35.35 0 0 0 0-.4l-1-1.88a7 7 0 0 0 .58-1.39l2-.61a.36.36 0 0 0 .26-.35v-2.1a.36.36 0 0 0 -.16-.35zm-8.83 4.68a3.34 3.34 0 1 1 3.33-3.33 3.34 3.34 0 0 1 -3.33 3.33z"/><path d="m0 0h36v36h-36z" fill="none"/></svg>