<svg height="36" preserveAspectRatio="xMidYMid meet" viewBox="0 0 36 36" width="36" xmlns="http://www.w3.org/2000/svg"><path d="m6.25 11.5 5.75 1.66 6.32-4.59-9.07.26a.52.52 0 0 0 -.25.08l-2.87 1.65a.51.51 0 0 0 .12.94z"/><path d="m34.52 6.36-6.3-1.36a3.78 3.78 0 0 0 -3.07.67l-19.03 13.83-4.57-.2a1.25 1.25 0 0 0 -.83 2.22l4.45 3.53a.55.55 0 0 0 .53.09c1.27-.49 6-3 11.59-6.07l1.12 11.51a.55.55 0 0 0 .9.37l2.5-2.08a.76.76 0 0 0 .26-.45l2.37-13.29c4-2.22 7.82-4.37 10.51-5.89a1.55 1.55 0 0 0 -.43-2.88z"/><path d="m0 0h36v36h-36z" fill="none"/></svg>