<svg height="36" preserveAspectRatio="xMidYMid meet" viewBox="0 0 36 36" width="36" xmlns="http://www.w3.org/2000/svg"><path d="m31.47 3.84a5.78 5.78 0 0 0 -7.37-.63 16.08 16.08 0 0 1 8.2 7.65 5.73 5.73 0 0 0 -.83-7.02z"/><path d="m11.42 3.43a5.77 5.77 0 0 0 -7.64.41 5.72 5.72 0 0 0 -.38 7.64 16.08 16.08 0 0 1 8.02-8.05z"/><path d="m16.4 4.09a14 14 0 0 0 -8.29 23.79l-2.55 2.55a1 1 0 1 0 1.44 1.41l2.66-2.66a13.9 13.9 0 0 0 16.88-.08l2.74 2.74a1 1 0 0 0 1.41-1.41l-2.69-2.65a14 14 0 0 0 -11.6-23.69zm3.18 25.81a12 12 0 1 1 10.34-10.34 12 12 0 0 1 -10.34 10.34z"/><path d="m24.92 20.34-6.06-3v-7.84a.9.9 0 0 0 -1.8 0v9l7.06 3.5a.9.9 0 1 0 .79-1.62z"/><path d="m0 0h36v36h-36z" fill="none"/></svg>