<svg height="36" preserveAspectRatio="xMidYMid meet" viewBox="0 0 36 36" width="36" xmlns="http://www.w3.org/2000/svg"><path d="m31.47 3.84a5.78 5.78 0 0 0 -7.37-.63 16.08 16.08 0 0 1 8.2 7.65 5.73 5.73 0 0 0 -.83-7.02z"/><path d="m11.42 3.43a5.8 5.8 0 0 0 -5.77-.82l2.68 2.69a16 16 0 0 1 3.09-1.87z"/><path d="m24.92 21.94 4.34 4.36a14 14 0 0 0 -19.51-19.57l7.25 7.27v-4.31a1 1 0 0 1 2 0v6.31l2.33 2.34 3.67 1.76a1 1 0 0 1 .47 1.33 1 1 0 0 1 -.55.51z"/><path d="m1.61 4.21 1.12 1.13a5.73 5.73 0 0 0 .67 6.15 15.88 15.88 0 0 1 2.08-3.39l1.43 1.42a13.94 13.94 0 0 0 1.2 18.36l-2.55 2.55a1 1 0 1 0 1.44 1.41l2.66-2.66a13.89 13.89 0 0 0 16.83 0l4.16 4.17 1.35-1.45-29-29.1z"/><path d="m0 0h36v36h-36z" fill="none"/></svg>