<svg height="36" preserveAspectRatio="xMidYMid meet" viewBox="0 0 36 36" width="36" xmlns="http://www.w3.org/2000/svg"><path d="m29 32h-22v-10h-2v10a2 2 0 0 0 2 2h22a2 2 0 0 0 2-2v-10h-2z"/><path d="m14 24a1 1 0 0 0 1 1h6a1 1 0 0 0 0-2h-6a1 1 0 0 0 -1 1z"/><path d="m14 18h-8v-4h4a3 3 0 0 1 -.68-1.87s0-.09 0-.13h-3.82a1.5 1.5 0 0 0 -1.5 1.5v6.5h12z"/><path d="m30.5 12h-3.84s0 .09 0 .13a3 3 0 0 1 -.66 1.87h4v4h-8l-2 2h12v-6.5a1.5 1.5 0 0 0 -1.5-1.5z"/><path d="m18 19.18 6.38-6.35a1 1 0 1 0 -1.38-1.42l-4 3.95v-12.36a1 1 0 1 0 -2 0v12.4l-4-3.95a1 1 0 0 0 -1.41 1.42z"/><path d="m0 0h36v36h-36z" fill="none"/></svg>