<svg height="36" preserveAspectRatio="xMidYMid meet" viewBox="0 0 36 36" width="36" xmlns="http://www.w3.org/2000/svg"><path d="m6 22h24v2h-24z"/><path d="m26 26h4v2h-4z"/><path d="m13 9.92 4-3.92v13a1 1 0 1 0 2 0v-13l4 3.95a1 1 0 1 0 1.38-1.45l-6.38-6.34-6.39 6.34a1 1 0 0 0 1.39 1.42z"/><path d="m30.84 13.37a1.94 1.94 0 0 0 -1.91-1.37h-7.93v2h7.95c1.05 2.94 2.77 7.65 3.05 8.48v7.52h-28v-7.52c.28-.83 3.05-8.48 3.05-8.48h7.95v-2h-7.93a1.92 1.92 0 0 0 -1.9 1.32c-3.17 8.68-3.17 8.78-3.17 9.01v7.67a2 2 0 0 0 2 2h28a2 2 0 0 0 2-2v-7.67c0-.23 0-.33-3.16-8.96z"/><path d="m0 0h36v36h-36z" fill="none"/></svg>