<svg height="36" preserveAspectRatio="xMidYMid meet" viewBox="0 0 36 36" width="36" xmlns="http://www.w3.org/2000/svg"><path d="m3.5 13.56 1.5-.88v3.32h26v-3.29l1.48.85a1 1 0 0 0 1-1.73l-15.48-8.91-15.5 8.91a1 1 0 1 0 1 1.73zm14.35-6.45a.8.8 0 0 1 .8 0l6.72 3.89h-3.22l-3.9-2.24-3.9 2.24h-3.21z"/><path d="m32.85 27h-.85v-.85a1.15 1.15 0 0 0 -1.15-1.15h-2.85v-7.37h-4v7.37h-4v-7.37h-4v7.37h-4v-7.37h-4v7.37h-2.85a1.15 1.15 0 0 0 -1.15 1.15v.85h-.85a1.15 1.15 0 0 0 -1.15 1.15v2.85h32v-2.85a1.15 1.15 0 0 0 -1.15-1.15z"/><path d="m0 0h36v36h-36z" fill="none"/></svg>