<svg height="36" preserveAspectRatio="xMidYMid meet" viewBox="0 0 36 36" width="36" xmlns="http://www.w3.org/2000/svg"><path d="m24.11 16.88a5.49 5.49 0 0 0 -3.11-9.88v-3a1 1 0 0 0 -2 0v3h-3v-3a1 1 0 0 0 -2 0v3h-3a1 1 0 0 0 -1 1v20a1 1 0 0 0 1 1h3v3a1 1 0 0 0 2 0v-3h3v3a1 1 0 0 0 2 0v-3h.08a6.07 6.07 0 0 0 5.92-6.19v-.62a6.25 6.25 0 0 0 -2.89-5.31zm-12.11-7.88h8.69a3.59 3.59 0 0 1 3.43 2.36 3.51 3.51 0 0 1 -3.33 4.64h-8.79zm13 13.81a4.08 4.08 0 0 1 -3.94 4.19h-9.06v-9h9.06a4.08 4.08 0 0 1 3.94 4.19z"/><path d="m0 0h36v36h-36z" fill="none"/></svg>