<svg height="36" preserveAspectRatio="xMidYMid meet" viewBox="0 0 36 36" width="36" xmlns="http://www.w3.org/2000/svg"><path d="m33.53 18.76-6.93-3.19v-9.14a1 1 0 0 0 -.6-.9l-7.5-3.45a1 1 0 0 0 -.84 0l-7.5 3.45a1 1 0 0 0 -.58.91v9.14l-6.9 3.18a1 1 0 0 0 -.58.91v9.78a1 1 0 0 0 .58.91l7.5 3.45a1 1 0 0 0 .84 0l7.08-3.26 7.08 3.26a1 1 0 0 0 .84 0l7.5-3.45a1 1 0 0 0 .58-.91v-9.78a1 1 0 0 0 -.57-.91zm-2.81.91-5.11 2.33-5.11-2.33 5.11-2.35zm-12.62-15.59 5.11 2.35-5.11 2.35-5.1-2.35zm-7.5 13.23 5.11 2.35-5.11 2.34-5.11-2.33zm6.5 11.49-6.5 3-6.5-3v-7.57l6.08 2.77a1 1 0 0 0 .82 0l6.08-2.8zm-5.5-13.23v-7.57l6.08 2.8a1 1 0 0 0 .84 0l6.08-2.8v7.58l-6.5 3zm20.51 13.24-6.5 3-6.51-3v-7.59l6.09 2.78a1 1 0 0 0 .81 0l6.08-2.8z"/><path d="m0 0h36v36h-36z" fill="none"/></svg>