<svg height="36" preserveAspectRatio="xMidYMid meet" viewBox="0 0 36 36" width="36" xmlns="http://www.w3.org/2000/svg"><path d="m19 3 6.22 6.4-5.66 5.8 1.44 1.43 5.68-5.83a2 2 0 0 0 0-2.78l-6.2-6.32a2 2 0 0 0 -1.63-.7 2 2 0 0 0 -1.85 2v11.4l2 2z"/><path d="m4.77 5-1.41 1.42 12.53 12.58-6.83 7a1 1 0 0 0 .71 1.7 1 1 0 0 0 .72-.31l6.51-6.71v12.26a2.08 2.08 0 0 0 .71 1.63 2 2 0 0 0 1.29.43 2 2 0 0 0 1.42-.6l5.41-5.54 3.54 3.53 1.4-1.39zm14.23 28.05v-11l5.41 5.41z"/><path d="m0 0h36v36h-36z" fill="none"/></svg>