<svg height="36" preserveAspectRatio="xMidYMid meet" viewBox="0 0 36 36" width="36" xmlns="http://www.w3.org/2000/svg"><path d="m26.64 25.27-7.64-7.74v-14.53l6.21 6.4-5.65 5.79 1.44 1.43 5.68-5.82a2 2 0 0 0 0-2.78l-6.2-6.32a2.08 2.08 0 0 0 -1.63-.7 2 2 0 0 0 -1.85 2v12.38l-6.95-7.11a1 1 0 0 0 -1.43 1.39l8.17 8.34-7.73 8a1 1 0 0 0 0 1.41 1 1 0 0 0 .7.29 1 1 0 0 0 .72-.31l6.52-6.71v12.32a2.07 2.07 0 0 0 .71 1.62 2 2 0 0 0 1.29.38 1.94 1.94 0 0 0 1.42-.6l6.23-6.38a2 2 0 0 0 -.01-2.75zm-7.64 7.78v-12.76l6.21 6.36z"/><path d="m0 0h36v36h-36z" fill="none"/></svg>