<svg height="36" preserveAspectRatio="xMidYMid meet" viewBox="0 0 36 36" width="36" xmlns="http://www.w3.org/2000/svg"><path d="m34 31c-1.1-.1-2.1-.5-3-1.2-.5-.5-1.2-.8-2-.8-.7 0-1.5.3-2 .8-.9.8-2 1.1-3.1 1.1-1.2 0-2.4-.4-3.3-1.1-1.2-1.1-3-1.1-4.1 0-.9.8-2.1 1.2-3.4 1.2-1.2 0-2.3-.4-3.2-1.2-.6-.5-1.3-.8-2-.8-.8 0-1.7.3-2.3.8-1 .8-2.3 1.2-3.5 1.1v-1.9c.8 0 1.7-.3 2.3-.9 1-.8 2.2-1.2 3.4-1.1 1.2 0 2.4.4 3.3 1.2 1.2 1.1 3 1.1 4.2 0 1.9-1.6 4.7-1.6 6.5 0 1.2 1.1 3 1.1 4.1 0 .9-.8 2.1-1.2 3.3-1.2 1.1 0 2.2.4 3 1.2.6.5.8.8 1.8.8z"/><path d="m4.1 26.2c.6-.5 1.2-.8 1.9-1v-2.2c0-.6.4-1.1 1-1.1h25l-3.6 3.1h.2c.8 0 1.6.2 2.2.5l2.5-2.2.2-.2c.7-.9.5-2.1-.4-2.8-.2-.2-.7-.3-1.1-.3h-25c-1.7 0-3 1.3-3 3z"/><path d="m14.9 18.9h-6c-1.1 0-2-.9-2-2 0-.4.1-.8.4-1.2l4.1-5.8c.6-.9 1.9-1.1 2.8-.5.5.4.8 1 .8 1.6v7.9z"/><path d="m24.3 18.9h-8.3v-12.5c0-1.1.9-2 2-2 .7 0 1.3.4 1.7 1l6.3 10.4c.6 1 .2 2.2-.7 2.7-.3.2-.7.3-1 .4z"/><path d="m0 0h36v36h-36z" fill="none"/></svg>