<svg height="36" preserveAspectRatio="xMidYMid meet" viewBox="0 0 36 36" width="36" xmlns="http://www.w3.org/2000/svg"><path d="m22.43 17.54a4.67 4.67 0 0 0 2.8-4.37v-.06a4.43 4.43 0 0 0 -1.31-3.25 7.09 7.09 0 0 0 -5.13-1.73h-7a1.71 1.71 0 0 0 -1.79 1.73v16.14a1.72 1.72 0 0 0 1.74 1.74h7.33c4.37 0 7.25-1.88 7.25-5.38v-.06c0-2.66-1.59-3.98-3.89-4.76zm-8.75-6.14h4.54c2 0 3.15.89 3.15 2.33v.06c0 1.68-1.36 2.49-3.38 2.49h-4.31zm8.69 10.6c0 1.59-1.31 2.43-3.46 2.43h-5.23v-4.81h5c2.49 0 3.69.88 3.69 2.37z"/><path d="m0 0h36v36h-36z" fill="none"/></svg>