<svg height="36" preserveAspectRatio="xMidYMid meet" viewBox="0 0 36 36" width="36" xmlns="http://www.w3.org/2000/svg"><path d="m10 5.2h18v1.55h-18z"/><path d="m29 8h-19.14a1.89 1.89 0 0 1 -1.86-2 2 2 0 0 1 1.86-2h19.14a1 1 0 0 0 0-2h-19.14a4 4 0 0 0 -3.86 4 4.14 4.14 0 0 0 0 .49 1 1 0 0 0 0 .24v23.27a4 4 0 0 0 3.86 4h19.14a1 1 0 0 0 1-1v-23.75s0-.06 0-.09 0-.06 0-.09a1.07 1.07 0 0 0 -1-1.07zm-1 24h-18.14a2 2 0 0 1 -1.86-2v-20.45a3.63 3.63 0 0 0 1.86.45h18.14z"/><path d="m0 0h36v36h-36z" fill="none"/></svg>