<svg height="36" preserveAspectRatio="xMidYMid meet" viewBox="0 0 36 36" width="36" xmlns="http://www.w3.org/2000/svg"><path d="m30 18a4.06 4.06 0 0 0 4-4v-8h-10v-1.57a2.44 2.44 0 0 0 -2.45-2.43h-7.1a2.44 2.44 0 0 0 -2.45 2.43v1.57h-10v8a4.06 4.06 0 0 0 4.05 4h4v-2.08h2v5.7a1 1 0 1 1 -2 0v-1.56h-3.99a6.06 6.06 0 0 1 -4.06-1.57v9.45a2 2 0 0 0 2 2h28a2 2 0 0 0 2-2v-9.45a6 6 0 0 1 -4.06 1.57h-1.94v-2.06zm-16-13.57a.45.45 0 0 1 .45-.43h7.1a.45.45 0 0 1 .45.43v1.57h-8zm12 17.19a1 1 0 1 1 -2 0v-1.56h-10v-2.06h10v-2.08h2z"/><path d="m0 0h36v36h-36z" fill="none"/></svg>