<svg height="36" preserveAspectRatio="xMidYMid meet" viewBox="0 0 36 36" width="36" xmlns="http://www.w3.org/2000/svg"><path d="m32 5h-28c-1.105 0-2 .895-2 2v22c0 1.105.895 2 2 2h28c1.105 0 2-.895 2-2v-22c0-1.105-.895-2-2-2zm-28 24v-22h28v22z"/><path d="m29 18c0 1.657-1.343 3-3 3s-3-1.343-3-3 1.343-3 3-3 3 1.343 3 3zm-3-1.4c-.773 0-1.4.627-1.4 1.4s.627 1.4 1.4 1.4 1.4-.627 1.4-1.4-.627-1.4-1.4-1.4z" rx="3"/><path d="m15 14c0 2.209-1.791 4-4 4s-4-1.791-4-4 1.791-4 4-4 4 1.791 4 4zm-4-2.4c-1.325 0-2.4 1.075-2.4 2.4s1.075 2.4 2.4 2.4 2.4-1.075 2.4-2.4-1.075-2.4-2.4-2.4z" rx="3"/><path d="m21 23c0 1.657-1.343 3-3 3s-3-1.343-3-3 1.343-3 3-3 3 1.343 3 3zm-3-1.4c-.773 0-1.4.627-1.4 1.4s.627 1.4 1.4 1.4 1.4-.627 1.4-1.4-.627-1.4-1.4-1.4z" rx="3"/><path d="m0 0h36v36h-36z" fill="none"/></svg>