<svg height="36" preserveAspectRatio="xMidYMid meet" viewBox="0 0 36 36" width="36" xmlns="http://www.w3.org/2000/svg"><path d="m31 8h-9v25h11v-23a2 2 0 0 0 -2-2zm-5 17h-2v-2h2zm0-5h-2v-2h2zm0-5h-2v-2h2zm4 10h-2v-2h2zm0-5h-2v-2h2zm0-5h-2v-2h2z"/><path d="m17.88 3h-11.76a2.12 2.12 0 0 0 -2.12 2.12v27.88h5v-3h6v3h5v-27.88a2.12 2.12 0 0 0 -2.12-2.12zm-8.88 22h-2v-2h2zm0-5h-2v-2h2zm0-5h-2v-2h2zm0-5h-2v-2h2zm4 15h-2v-2h2zm0-5h-2v-2h2zm0-5h-2v-2h2zm0-5h-2v-2h2zm4 15h-2v-2h2zm0-5h-2v-2h2zm0-5h-2v-2h2zm0-5h-2v-2h2z"/><path d="m0 0h36v36h-36z" fill="none"/></svg>