<svg height="36" preserveAspectRatio="xMidYMid meet" viewBox="0 0 36 36" width="36" xmlns="http://www.w3.org/2000/svg"><path d="m32.25 6h-3.25v2h3v22h-28v-22h3v-2h-3.25a1.78 1.78 0 0 0 -1.75 1.81v22.38a1.78 1.78 0 0 0 1.75 1.81h28.5a1.78 1.78 0 0 0 1.75-1.81v-22.38a1.78 1.78 0 0 0 -1.75-1.81z"/><path d="m8 14h2v2h-2z"/><path d="m14 14h2v2h-2z"/><path d="m20 14h2v2h-2z"/><path d="m26 14h2v2h-2z"/><path d="m8 19h2v2h-2z"/><path d="m14 19h2v2h-2z"/><path d="m20 19h2v2h-2z"/><path d="m26 19h2v2h-2z"/><path d="m8 24h2v2h-2z"/><path d="m14 24h2v2h-2z"/><path d="m20 24h2v2h-2z"/><path d="m26 24h2v2h-2z"/><path d="m10 10a1 1 0 0 0 1-1v-6a1 1 0 0 0 -2 0v6a1 1 0 0 0 1 1z"/><path d="m26 10a1 1 0 0 0 1-1v-6a1 1 0 0 0 -2 0v6a1 1 0 0 0 1 1z"/><path d="m13 6h10v2h-10z"/><path d="m0 0h36v36h-36z" fill="none"/></svg>