<svg height="36" preserveAspectRatio="xMidYMid meet" viewBox="0 0 36 36" width="36" xmlns="http://www.w3.org/2000/svg"><path d="m32.25 6h-4v3a2.2 2.2 0 1 1 -4.4 0v-3h-11.65v3a2.2 2.2 0 0 1 -4.4 0v-3h-4a1.78 1.78 0 0 0 -1.8 1.81v22.38a1.78 1.78 0 0 0 1.75 1.81h28.5a1.78 1.78 0 0 0 1.75-1.81v-22.38a1.78 1.78 0 0 0 -1.75-1.81zm-22.25 20h-2v-2h2zm0-5h-2v-2h2zm0-5h-2v-2h2zm6 10h-2v-2h2zm0-5h-2v-2h2zm0-5h-2v-2h2zm6 10h-2v-2h2zm0-5h-2v-2h2zm0-5h-2v-2h2zm6 10h-2v-2h2zm0-5h-2v-2h2zm0-5h-2v-2h2z"/><path d="m10 10a1 1 0 0 0 1-1v-6a1 1 0 0 0 -2 0v6a1 1 0 0 0 1 1z"/><path d="m26 10a1 1 0 0 0 1-1v-6a1 1 0 0 0 -2 0v6a1 1 0 0 0 1 1z"/><path d="m0 0h36v36h-36z" fill="none"/></svg>