<svg height="36" preserveAspectRatio="xMidYMid meet" viewBox="0 0 36 36" width="36" xmlns="http://www.w3.org/2000/svg"><path d="m32 8h-7.3l-1.06-2.72a2 2 0 0 0 -1.86-1.28h-7.56a2 2 0 0 0 -1.87 1.28l-1.05 2.72h-7.3a2 2 0 0 0 -2 2v20a2 2 0 0 0 2 2h28a2 2 0 0 0 2-2v-20a2 2 0 0 0 -2-2zm0 22h-28v-20h8.67l1.55-4h7.56l1.55 4h8.67z"/><path d="m9 19a9 9 0 1 0 9-9 9 9 0 0 0 -9 9zm16.4 0a7.4 7.4 0 1 1 -7.4-7.4 7.41 7.41 0 0 1 7.4 7.4z"/><path d="m9.37 12.83a.8.8 0 0 0 -.8-.8h-2.4a.8.8 0 0 0 0 1.6h2.4a.8.8 0 0 0 .8-.8z"/><path d="m12.34 19a5.57 5.57 0 0 0 3.24 5l.85-1.37a4 4 0 1 1 4.11-6.61l.86-1.38a5.56 5.56 0 0 0 -9.06 4.36z"/><path d="m0 0h36v36h-36z" fill="none"/></svg>