<svg height="36" preserveAspectRatio="xMidYMid meet" viewBox="0 0 36 36" width="36" xmlns="http://www.w3.org/2000/svg"><path d="m9.5 24c-1.9 0-3.5 1.6-3.5 3.5s1.6 3.5 3.5 3.5c1.9 0 3.5-1.6 3.5-3.5v-.1c0-1.9-1.6-3.4-3.5-3.4z"/><circle cx="23.5" cy="27.5" r="3.5"/><path d="m29.5 14.5c1.5-.9 2.5-2.5 2.5-4.3v-.5s0 0 0-.1c0-2.6-2.1-4.6-4.7-4.6h-8.5c-1.9 0-3.7 1.2-4.4 3h-9.4c-1.7 0-3 1.3-3 3v17h2v-17c0-.6.4-1 1-1h10.9l.1-.8c.3-1.3 1.4-2.2 2.7-2.2h8.5c1.6 0 2.8 1.2 2.8 2.7v.5c0 1.5-1.2 2.7-2.7 2.7h-.3-3v9h7.8l.2.3v2.8c0 .6-.4 1-1 1h-2v2h2c1.7 0 3-1.3 3-3v-3.3z"/><path d="m19 9h7.9v2h-7.9z"/><path d="m20 22h1.9v-9h-6.9v15h1.9v-13h3.1z"/><path d="m6 13h6.9v7h-6.9z"/><path d="m0 0h36v36h-36z" fill="none"/></svg>