<svg height="36" preserveAspectRatio="xMidYMid meet" viewBox="0 0 36 36" width="36" xmlns="http://www.w3.org/2000/svg"><path d="m13.5 30c-2.5 0-4.5-2-4.5-4.5s2-4.5 4.5-4.5 4.5 2 4.5 4.5-2 4.5-4.5 4.5z"/><path d="m33 24h-2v-7.5c0-.5-.1-1-.4-1.5l-4.2-7.5c-.5-1-1.5-1.5-2.6-1.5h-18.8c-1.7 0-3 1.3-3 3v14c0 1.7 1.3 3 3 3h2v-2h-2c-.6 0-1-.4-1-1v-14c0-.6.4-1 1-1h18.8c.4 0 .7.2.9.5l4.2 7.5c.1.1.1.3.1.5v7.5h-4v-12h-7v8h2v-6h3v10h-3v2h13c.6 0 1-.4 1-1s-.4-1-1-1z"/><path d="m16 18h-9v-6h9z"/><path d="m0 0h36v36h-36z" fill="none"/></svg>