<svg height="36" viewBox="0 0 36 36" width="36" xmlns="http://www.w3.org/2000/svg"><path d="m23.53 19.81a7.45 7.45 0 0 1 -1.65-.18 10.48 10.48 0 0 1 .72 2.13h.93a9.52 9.52 0 0 0 3-.49l-.93-1.81a7.67 7.67 0 0 1 -2.07.35z"/><path d="m18.36 17.87-.36-.38a7.4 7.4 0 0 1 -2.2-5.92 7.31 7.31 0 0 1 1.54-4l-.08 1.43a1 1 0 0 0 .91 1h.09a1 1 0 0 0 1-.91l.34-4.09a1 1 0 0 0 -.29-.79 1 1 0 0 0 -.79-.21l-4.09.35a1 1 0 0 0 .17 2l1.29-.11a9.45 9.45 0 0 0 -2.05 5.32 9.28 9.28 0 0 0 2.67 7.26l.31.37a7.33 7.33 0 0 1 2.06 4.91 7.39 7.39 0 0 1 -.26 2.47l1.8.91a8.76 8.76 0 0 0 .45-3.51 9.28 9.28 0 0 0 -2.51-6.1z"/><path d="m32.4 17.91-1.21.09a9.65 9.65 0 0 0 -7.66-15.55 9.33 9.33 0 0 0 -3 .49l.91 1.8a7.67 7.67 0 0 1 9.76 7.39 7.58 7.58 0 0 1 -1.65 4.72l.1-1.54a1 1 0 1 0 -2-.13l-.28 4.08a1 1 0 0 0 .31.78.94.94 0 0 0 .69.28h.1l4.08-.42a1 1 0 0 0 .9-1.1 1 1 0 0 0 -1.05-.89z"/><path d="m4.07 20.44h.08l4.09-.35a1 1 0 1 0 -.17-2l-1.39.12a7.63 7.63 0 0 1 4.52-1.49 7.9 7.9 0 0 1 1.63.18 10.23 10.23 0 0 1 -.71-2.13c-.3 0-.61 0-.92 0a9.66 9.66 0 0 0 -5.9 2l.12-1.31a1 1 0 0 0 -.92-1.08 1 1 0 0 0 -1.08.91l-.35 4.08a1 1 0 0 0 1 1.08z"/><path d="m18.42 28.23-4.09.27a1 1 0 0 0 .13 2l1.54-.11a7.71 7.71 0 0 1 -12.54-6 7.6 7.6 0 0 1 .29-2l-1.75-.93a9.59 9.59 0 0 0 -.47 2.95 9.7 9.7 0 0 0 15.66 7.59l-.12 1.18a1 1 0 0 0 .89 1.1h.11a1 1 0 0 0 1-.9l.42-4.06a1 1 0 0 0 -1.06-1.1z"/></svg>