<svg height="36" preserveAspectRatio="xMidYMid meet" viewBox="0 0 36 36" width="36" xmlns="http://www.w3.org/2000/svg"><path d="m29.29 5h-7.12a4.45 4.45 0 0 0 -4.11-3 4.46 4.46 0 0 0 -4.06 3h-7a1.75 1.75 0 0 0 -2 1.69v25.62a1.7 1.7 0 0 0 1.71 1.69h22.58a1.7 1.7 0 0 0 1.71-1.69v-25.62a1.7 1.7 0 0 0 -1.71-1.69zm-18 3a1 1 0 0 1 1-1h3.44v-.69a2.31 2.31 0 1 1 4.63 0v.69h3.44a1 1 0 0 1 1 1v2h-13.49zm13.71 20h-14v-2h14zm0-4h-14v-2h14zm0-4h-14v-2h14zm0-4h-14v-2h14z"/><path d="m0 0h36v36h-36z" fill="none"/></svg>