<svg height="36" preserveAspectRatio="xMidYMid meet" viewBox="0 0 36 36" width="36" xmlns="http://www.w3.org/2000/svg"><path d="m26.54 20.82a.88.88 0 0 0 -.88-.88h-4.91l1.1-1.1a.88.88 0 0 0 -1.25-1.24l-3.21 3.22 3.21 3.18a.88.88 0 1 0 1.25-1.24l-1.09-1.06h4.9a.88.88 0 0 0 .88-.88z"/><path d="m29.27 21.7a.88.88 0 1 0 0-1.76h-.58a.88.88 0 1 0 0 1.76z"/><path d="m32.21 20h-.06a.85.85 0 0 0 -.85.88.91.91 0 0 0 .91.88.88.88 0 1 0 0-1.76z"/><path d="m32.59 11a.88.88 0 0 0 -1.25 1.24l1.1 1.1h-4.91a.88.88 0 1 0 0 1.76h4.9l-1.09 1.09a.88.88 0 0 0 1.25 1.24l3.21-3.22z"/><path d="m24.5 15.07a.88.88 0 1 0 0-1.76h-.58a.88.88 0 1 0 0 1.76z"/><path d="m21.9 14.27a.85.85 0 0 0 -.85-.88h-.05a.88.88 0 1 0 0 1.76.91.91 0 0 0 .9-.88z"/><path d="m30.36 23.65v.39a3.77 3.77 0 0 1 -3.62 3.89h-19.46a5.32 5.32 0 0 1 -5.13-5.48 5.32 5.32 0 0 1 5.13-5.45h1.63l.09-.88a8.92 8.92 0 0 1 8.62-8h.08a8.49 8.49 0 0 1 6.56 3.29h2.37a10.55 10.55 0 0 0 -8.91-5.25h-.11a10.82 10.82 0 0 0 -10.39 8.84 7.28 7.28 0 0 0 -7 7.43 7.27 7.27 0 0 0 7.08 7.43h19.47a5.72 5.72 0 0 0 5.58-5.86 3.77 3.77 0 0 0 0-.39z"/><path d="m0 0h36v36h-36z" fill="none"/></svg>