<svg height="36" preserveAspectRatio="xMidYMid meet" viewBox="0 0 36 36" width="36" xmlns="http://www.w3.org/2000/svg"><path d="m32 5h-28a2 2 0 0 0 -2 2v22a2 2 0 0 0 2 2h28a2 2 0 0 0 2-2v-22a2 2 0 0 0 -2-2zm-28 24v-22h28v22z"/><path d="m20.971 11.243c2.343 2.343 1.393 7.092-2.122 10.606-3.515 3.515-8.263 4.465-10.606 2.121-2.344-2.343-1.394-7.092 2.121-10.606 3.515-3.515 8.264-4.464 10.607-2.121zm-9.335 3.394c-2.812 2.812-3.761 6.421-2.121 8.061s5.249.691 8.061-2.121 3.762-6.421 2.121-8.061c-1.64-1.64-5.249-.691-8.061 2.121z"/><path d="m28 22c0 1.657-1.343 3-3 3s-3-1.343-3-3 1.343-3 3-3 3 1.343 3 3zm-3-1.4c-.773 0-1.4.627-1.4 1.4s.627 1.4 1.4 1.4 1.4-.627 1.4-1.4-.627-1.4-1.4-1.4z" x="7"/><path d="m0 0h36v36h-36z" fill="none"/></svg>