<svg height="36" preserveAspectRatio="xMidYMid meet" viewBox="0 0 36 36" width="36" xmlns="http://www.w3.org/2000/svg"><path d="m13.71 12.59a1 1 0 0 0 -1.39-.26l-6.53 4.45a1 1 0 0 0 0 1.65l6.53 4.45a1 1 0 1 0 1.13-1.65l-5.32-3.62 5.32-3.61a1 1 0 0 0 .26-1.41z"/><path d="m30.21 16.78-6.53-4.45a1 1 0 1 0 -1.13 1.67l5.32 3.63-5.32 3.63a1 1 0 0 0 1.13 1.65l6.53-4.45a1 1 0 0 0 0-1.65z"/><path d="m19.94 9.83a.9.9 0 0 0 -1.09.66l-3.44 13.8a.9.9 0 0 0 .66 1.09h.22a.9.9 0 0 0 .87-.68l3.44-13.81a.9.9 0 0 0 -.66-1.06z"/><path d="m0 0h36v36h-36z" fill="none"/></svg>