<svg height="36" preserveAspectRatio="xMidYMid meet" viewBox="0 0 36 36" width="36" xmlns="http://www.w3.org/2000/svg"><path d="m24.89 26h7.86c-.66-8.71-4.41-14.12-9.22-17.32l2.19-4.78a1 1 0 0 0 -.91-1.4h-13.71a1 1 0 0 0 -.91 1.4l1.2 2.6h10.12l-.9 2h-1.85a24.9 24.9 0 0 1 1.24 4.69 24.49 24.49 0 0 1 .32 3l-1.58 1.11a22.54 22.54 0 0 0 -.32-3.86 21.74 21.74 0 0 0 -1.42-4.94h-1a28.22 28.22 0 0 0 -2.48 3.7 23.91 23.91 0 0 0 -1.49 3.46l-1.37-.91a22.78 22.78 0 0 1 1.47-3.34 30.81 30.81 0 0 1 1.92-2.91h-1.75l.08.17c-5.3 3.53-9.33 9.73-9.33 20.08a1.65 1.65 0 0 0 1.56 1.75h8a2.67 2.67 0 0 1 1.6-4.5 2.67 2.67 0 0 1 -.37-1.34 2.7 2.7 0 0 1 2.7-2.7h6a2.7 2.7 0 0 1 2.7 2.7 2.63 2.63 0 0 1 -.35 1.34z"/><path d="m21.6 28.5a1 1 0 0 0 -1-1h-6a1 1 0 0 0 0 2h6a1 1 0 0 0 1-1z"/><path d="m22.54 23.5h-6a1 1 0 0 0 0 2h6a1 1 0 0 0 0-2z"/><path d="m22 31.5h-6a1 1 0 0 0 0 2h6a1 1 0 0 0 0-2z"/><path d="m32.7 31.5h-7a1 1 0 0 0 0 2h7a1 1 0 0 0 0-2z"/><path d="m33.7 27.5h-7a1 1 0 0 0 0 2h7a1 1 0 0 0 0-2z"/><path d="m0 0h36v36h-36z" fill="none"/></svg>