<svg height="36" preserveAspectRatio="xMidYMid meet" viewBox="0 0 36 36" width="36" xmlns="http://www.w3.org/2000/svg"><path d="m33 10.05a5.07 5.07 0 0 0 .1-7.17 5.06 5.06 0 0 0 -7.1.12l-5.22 5.15a2.13 2.13 0 0 1 -3 0l-.67-.67-1.39 1.44 11.36 11.36 1.42-1.42-.67-.67a2.13 2.13 0 0 1 0-3zm-6.56 3.75a4.07 4.07 0 0 0 -1.08 1.92l-5.08-5.08a4.07 4.07 0 0 0 1.92-1.08l5.16-5.17a3.09 3.09 0 0 1 4.35-.1 3.09 3.09 0 0 1 -.1 4.35z"/><path d="m7.3 31.51a2 2 0 1 1 -2.83-2.83l14.11-14.11-1.42-1.41-14.11 14.11a4 4 0 0 0 -.68 4.8l-1.48 1.48a1 1 0 0 0 0 1.45 1 1 0 0 0 1.42 0l1.43-1.44a3.93 3.93 0 0 0 2.09.6 4.06 4.06 0 0 0 2.88-1.2l14.11-14.15-1.41-1.41z"/><path d="m0 0h36v36h-36z" fill="none"/></svg>