<svg height="36" preserveAspectRatio="xMidYMid meet" viewBox="0 0 36 36" width="36" xmlns="http://www.w3.org/2000/svg"><path d="m34.4863 13.8608-.4325-.4325a3.1693 3.1693 0 0 0 -.5626-3.5631 3.0111 3.0111 0 0 0 -2.3266-.87 3.4385 3.4385 0 0 0 -1.1646.2772v-7.2724h-28v32h28v-16.1807l3.0906-3.09.2639.2639a.3711.3711 0 0 1 0 .5249l-2.354 2.354a.8.8 0 0 0 1.1318 1.1318l2.354-2.354a1.9745 1.9745 0 0 0 0-2.7891zm-26.4863-5.6608h16.0015v1.6h-16.0015zm0 4h16.0015v1.6h-16.0015zm0 4h10.5v1.6h-10.5zm14.7915 13.696h-7.8032c-.9027 0-1.7461-.0855-2.1948-.8237-.4585-.7549-.0025-1.6328.3305-2.2744.0586-.1128-.0722-.2525-.2221-.0982-.439.4522-1.14 1.2666-1.7032 1.9209-.5947.6909-.831.9624-.9565 1.0767a.9192.9192 0 0 1 -1.106.2236.8686.8686 0 0 1 -.4072-.9688c.042-.25.7564-3.0322 1.4033-5.5332-.8608 1.5269-3.5908 6.1006-3.7187 6.315a.7.7 0 0 1 -1.2022-.7178c.0347-.0576 3.4546-5.7881 3.8858-6.62a1.4247 1.4247 0 0 1 1.7754-.793 1.3154 1.3154 0 0 1 .7553 1.6255c-.36 1.3887-.7265 2.812-1.01 3.9209.4575-.5283.9355-1.0713 1.28-1.4258a1.8989 1.8989 0 0 1 2.24-.5171 1.1827 1.1827 0 0 1 .6157 1.3213 4.5566 4.5566 0 0 1 -.3872.9151c-.2673.5549-.1411 1.0522.6216 1.0522h7.8032a.7.7 0 0 1 0 1.4zm-2.0806-5.0508-2.6035.688a.2181.2181 0 0 1 -.2168-.0581.2152.2152 0 0 1 -.0586-.2158l.6636-2.5991 6.59-6.59 2.2 2.2zm11.4659-11.4663-3.7593 3.7593-2.2-2.2 3.7591-3.759a1.9488 1.9488 0 0 1 1.271-.5864c.03-.0015.059-.0025.0888-.0025a1.423 1.423 0 0 1 1.023.4063 1.7007 1.7007 0 0 1 -.1826 2.3823z"/></svg>