<svg height="36" preserveAspectRatio="xMidYMid meet" viewBox="0 0 36 36" width="36" xmlns="http://www.w3.org/2000/svg"><path d="m32 6h-28a2 2 0 0 0 -2 2v20a2 2 0 0 0 2 2h28a2 2 0 0 0 2-2v-20a2 2 0 0 0 -2-2zm-22.37 18.23a.79.79 0 0 1 -.81.77.79.79 0 0 1 -.82-.77v-12.46a.79.79 0 0 1 .82-.77.79.79 0 0 1 .81.77zm6 0a.79.79 0 0 1 -.82.77.79.79 0 0 1 -.81-.77v-12.46a.79.79 0 0 1 .81-.77.79.79 0 0 1 .82.77zm6.21 0a.79.79 0 0 1 -.82.77.79.79 0 0 1 -.81-.77v-12.46a.79.79 0 0 1 .81-.77.79.79 0 0 1 .82.77zm6.12 0a.79.79 0 0 1 -.82.77.79.79 0 0 1 -.81-.77v-12.46a.79.79 0 0 1 .81-.77.79.79 0 0 1 .82.77z"/><path d="m0 0h36v36h-36z" fill="none"/></svg>