<svg height="36" preserveAspectRatio="xMidYMid meet" viewBox="0 0 36 36" width="36" xmlns="http://www.w3.org/2000/svg"><path d="m32 18h-14a2 2 0 0 0 -2 2v12a2 2 0 0 0 2 2h14a2 2 0 0 0 2-2v-12a2 2 0 0 0 -2-2zm-14 14v-12h14v12z"/><path d="m21 21.7a.7.7 0 0 0 -.7.7v7.49a.7.7 0 0 0 1.4 0v-7.49a.7.7 0 0 0 -.7-.7z"/><path d="m25 21.82a.7.7 0 0 0 -.7.7v7.48a.7.7 0 1 0 1.4 0v-7.48a.7.7 0 0 0 -.7-.7z"/><path d="m29 21.7a.7.7 0 0 0 -.7.7v7.49a.7.7 0 1 0 1.4 0v-7.49a.7.7 0 0 0 -.7-.7z"/><path d="m18 16h10v-7.88c0-1.68-5.38-3-12-3s-12 1.32-12 3v19.88c0 1.5 4.33 2.75 10 3v-5.78a29.17 29.17 0 0 1 -8-1.29v-1.49l.24.1a26.63 26.63 0 0 0 7.76 1.28v-3.82a4 4 0 0 1 .29-1.47 29.19 29.19 0 0 1 -8.29-1.3v-1.48l.24.09a29 29 0 0 0 9 1.32 4 4 0 0 1 2.76-1.16zm-12-5.46v-1.49l.24.09a30.12 30.12 0 0 0 9.76 1.33 28.33 28.33 0 0 0 10-1.42v1.5a32.53 32.53 0 0 1 -10 1.32 32.44 32.44 0 0 1 -10-1.33z"/><path d="m0 0h36v36h-36z" fill="none"/></svg>