<svg height="36" viewBox="0 0 36 36" width="36" xmlns="http://www.w3.org/2000/svg"><path d="m16.11 27a1 1 0 1 0 1 1 1 1 0 0 0 -1-1z"/><path d="m32.09 21h-.09v-3.68c-1.9 2.93-10.46 3.3-14 3.3a42.43 42.43 0 0 1 -10-1.06v-1.68a40.59 40.59 0 0 0 10 1.12c5 0 13.2-.82 14-3.82v-4.46c-2.21 3.36-10.49 3.46-14 3.46a42.12 42.12 0 0 1 -10-1.07v-2.11a40.59 40.59 0 0 0 10 1.14c5 0 13.28-.83 14-3.88v-.43c-.19-3.27-8.84-4.15-14-4.15s-13.79.88-14 4.15v19.7c0 2.16 3.64 3.3 7.63 3.84l2.84 3 .59.62h17a3 3 0 0 0 3-3v-8.06a3 3 0 0 0 -2.97-2.93zm-24.09 5.08v-1.68a25.79 25.79 0 0 0 3.46.7l-1.24 1.44c-.76-.12-1.51-.27-2.22-.46zm25.09 5.92a1 1 0 0 1 -1 1h-16.17l-4.52-4.77 4.52-5.23h16.17a1 1 0 0 1 1 1z"/></svg>