<svg height="36" preserveAspectRatio="xMidYMid meet" viewBox="0 0 36 36" width="36" xmlns="http://www.w3.org/2000/svg"><path d="m22.6 4h-1.05a3.89 3.89 0 0 0 -7.31 0h-.84a2.41 2.41 0 0 0 -2.4 2.4v3.6h14v-3.6a2.41 2.41 0 0 0 -2.4-2.4zm.4 4h-10v-1.75a.25.25 0 0 1 .25-.25h2.69l.12-1.11a1.24 1.24 0 0 1 .55-.89 2 2 0 0 1 3.15 1.18l.09.84h2.9a.25.25 0 0 1 .25.25z"/><path d="m33.25 18.06h-11.92l2.84-2.83a1 1 0 1 0 -1.42-1.42l-5.25 5.25 5.25 5.25a1 1 0 0 0 .71.29 1 1 0 0 0 .71-1.7l-2.84-2.84h11.92a1 1 0 0 0 0-2z"/><path d="m29 16h2v-9.32a1.66 1.66 0 0 0 -1.65-1.68h-2.27v2h1.92z"/><path d="m29 31h-22v-24h2v-2h-2.36a1.66 1.66 0 0 0 -1.64 1.67v24.65a1.66 1.66 0 0 0 1.65 1.68h22.71a1.66 1.66 0 0 0 1.64-1.67v-9.27h-2z"/><path d="m0 0h36v36h-36z" fill="none"/></svg>