<svg height="36" preserveAspectRatio="xMidYMid meet" viewBox="0 0 36 36" width="36" xmlns="http://www.w3.org/2000/svg"><path d="m34 7v22c0 1.105-.895 2-2 2h-28c-1.104 0-2-.895-2-2v-22c0-1.104.896-2 2-2h28c1.105 0 2 .896 2 2zm-21 5c1.817 0 2.674 1.499 4.039 6.275.774 2.709 1.162 3.843 1.843 5.034.988 1.729 2.323 2.691 4.118 2.691h6c.552 0 1-.448 1-1s-.448-1-1-1h-6c-1.817 0-2.674-1.499-4.038-6.275-.774-2.709-1.163-3.843-1.844-5.034-.988-1.729-2.323-2.691-4.118-2.691h-6c-.552 0-1 .448-1 1s.448 1 1 1z"/><path d="m0 0h36v36h-36z" fill="none"/></svg>