<svg height="36" preserveAspectRatio="xMidYMid meet" viewBox="0 0 36 36" width="36" xmlns="http://www.w3.org/2000/svg"><path d="m32 5h-28c-1.105 0-2 .895-2 2v22c0 1.105.895 2 2 2h28c1.105 0 2-.895 2-2v-22c0-1.105-.895-2-2-2zm-28 24v-22h28v22z"/><path d="m7 11.8c-.442 0-.8-.358-.8-.8s.358-.8.8-.8h6c2.404 0 3.368 1.707 4.653 6.278.042.15.091.325.182.651.074.263.129.459.184.651 1.313 4.595 2.53 6.42 4.981 6.42h6c.442 0 .8.358.8.8s-.358.8-.8.8h-6c-3.465 0-5.019-2.331-6.519-7.58-.056-.195-.112-.394-.186-.66-.092-.326-.141-.5-.182-.649-1.07-3.806-1.808-5.111-3.113-5.111z"/><path d="m0 0h36v36h-36z" fill="none"/></svg>