<svg height="36" preserveAspectRatio="xMidYMid meet" viewBox="0 0 36 36" width="36" xmlns="http://www.w3.org/2000/svg"><path d="m33 2h-10.9a1 1 0 0 0 0 2h8.53l-8.82 9a1 1 0 1 0 1.43 1.4l8.76-8.94v8.44a1 1 0 0 0 2 0v-10.9a1 1 0 0 0 -1-1z"/><path d="m11.54 10.73-9 5.17a1 1 0 0 0 -.5.87v11a1 1 0 0 0 .5.87l9 5.15a1 1 0 0 0 1 0l9-5.15a1 1 0 0 0 .5-.87v-11a1 1 0 0 0 -.5-.87l-9-5.17a1 1 0 0 0 -1 0zm-.54 20.35-7-4v-8.64l7 4zm1-10.08-7.19-4.13 7.19-4.09 7.21 4.12zm8 6.09-7 4v-8.65l7-4z"/><path d="m0 0h36v36h-36z" fill="none"/></svg>