<svg height="36" preserveAspectRatio="xMidYMid meet" viewBox="0 0 36 36" width="36" xmlns="http://www.w3.org/2000/svg"><path d="m26 21.15a6.91 6.91 0 0 0 -4.38-3.32 26 26 0 0 0 -2.62-.64v-9.07a10.05 10.05 0 0 1 4.86 1.88 1 1 0 0 0 1.33-1.5 11.75 11.75 0 0 0 -6.19-2.4v-3.1a1 1 0 0 0 -2 0v3c-4.4.1-6.83 2.29-7.57 4.18a5.56 5.56 0 0 0 2.23 6.82 13.2 13.2 0 0 0 5.34 1.84v9.16a12.3 12.3 0 0 1 -7.14-2.74 1 1 0 1 0 -1.37 1.44 14.09 14.09 0 0 0 8.51 3.3v3a1 1 0 0 0 2 0v-3c2.82-.19 6.07-1.09 7.3-4.76a5.33 5.33 0 0 0 -.3-4.09zm-13.21-5.83a3.57 3.57 0 0 1 -1.49-4.39c.11-.3 1.23-2.81 5.7-2.93v8.8a10.7 10.7 0 0 1 -4.21-1.48zm11.61 9.24c-.72 2.14-2.32 3.17-5.4 3.4v-8.73c.64.14 1.3.3 2 .51a5 5 0 0 1 3.19 2.32 3.34 3.34 0 0 1 .21 2.5z"/><path d="m0 0h36v36h-36z" fill="none"/></svg>