<svg height="36" preserveAspectRatio="xMidYMid meet" viewBox="0 0 36 36" width="36" xmlns="http://www.w3.org/2000/svg"><path d="m32 8h-28a2 2 0 0 0 -2 2v16a2 2 0 0 0 2 2h28a2 2 0 0 0 2-2v-16a2 2 0 0 0 -2-2zm-28 18v-4.85a5.18 5.18 0 0 1 4.79 4.85zm0-11.15v-4.85h4.79a5.18 5.18 0 0 1 -4.79 4.85zm14 10.3c-3.47 0-6.3-3.21-6.3-7.15s2.83-7.15 6.3-7.15 6.3 3.21 6.3 7.15-2.83 7.15-6.3 7.15zm14 .85h-4.75a5.18 5.18 0 0 1 4.75-4.85zm0-11.15a5.18 5.18 0 0 1 -4.75-4.85h4.75z"/><ellipse cx="18" cy="18" rx="4" ry="4.72"/><path d="m0 0h36v36h-36z" fill="none"/></svg>