<svg height="36" preserveAspectRatio="xMidYMid meet" viewBox="0 0 36 36" width="36" xmlns="http://www.w3.org/2000/svg"><path d="m30.31 13c0-.1 0-.21 0-.32a10.26 10.26 0 0 0 -10.45-10 10.47 10.47 0 0 0 -9.6 6.1 9.65 9.65 0 0 0 .63 19.22 3 3 0 0 1 0-2 7.65 7.65 0 0 1 .11-15.26h.67l.23-.63a8.43 8.43 0 0 1 8-5.4 8.26 8.26 0 0 1 8.45 8 7.75 7.75 0 0 1 0 .8l-.08.72.65.3a6 6 0 0 1 -2.54 11.47h-1.29a3 3 0 0 1 0 2h1.28a8 8 0 0 0 3.93-15z"/><path d="m22.28 26.07a1 1 0 0 0 -.71.29l-2.57 2.58v-12.26a1 1 0 1 0 -2 0v12.26l-2.57-2.57a1 1 0 0 0 -1.43 1.41l5 5 5-5a1 1 0 0 0 -.71-1.71z"/><path d="m0 0h36v36h-36z" fill="none"/></svg>