<svg height="36" preserveAspectRatio="xMidYMid meet" viewBox="0 0 36 36" width="36" xmlns="http://www.w3.org/2000/svg"><path d="m34 8h-21.09a8.61 8.61 0 0 1 1.2 4.39 8 8 0 0 1 -7.78 8.27 7.51 7.51 0 0 1 -5.33-2.25v8.59a1 1 0 0 0 1 1h32a1 1 0 0 0 1-1v-18a1 1 0 0 0 -1-1zm-3 15h-11v-2h11zm0-5h-15v-2h15z"/><path d="m6.57 18.68a6 6 0 0 1 -6.17-6.24 6 6 0 0 1 5.87-6.3 5.68 5.68 0 0 1 5.73 5.92 1.29 1.29 0 0 1 -1.3 1.32h-7.55a3.35 3.35 0 0 0 3.46 3 4.32 4.32 0 0 0 2.84-1 1 1 0 0 1 .71-.25 1.08 1.08 0 0 1 1.09 1.11 1.2 1.2 0 0 1 -.36.84 6.17 6.17 0 0 1 -4.32 1.6zm2.73-7.13c-.18-1.77-1.23-3.16-3-3.16s-2.87 1.3-3.12 3.16z"/><path d="m0 0h36v36h-36z" fill="none"/></svg>