<svg height="36" viewBox="0 0 36 36" width="36" xmlns="http://www.w3.org/2000/svg"><ellipse cx="18" cy="11.28" rx="4.76" ry="4.7"/><path d="m10.78 11.75h.48c0-.15 0-.28 0-.43a6.7 6.7 0 0 1 3.75-6 4.62 4.62 0 1 0 -4.21 6.46z"/><path d="m24.76 11.28v.43h.48a4.58 4.58 0 1 0 -4.24-6.42 6.7 6.7 0 0 1 3.76 5.99z"/><path d="m22.29 16.45a21.45 21.45 0 0 1 5.71 2 2.71 2.71 0 0 1 .68.53h5.32v-3.42a.72.72 0 0 0 -.38-.64 18 18 0 0 0 -8.4-2.05h-.66a6.66 6.66 0 0 1 -2.27 3.58z"/><path d="m6.53 20.92a2.76 2.76 0 0 1 1.47-2.45 21.45 21.45 0 0 1 5.71-2 6.66 6.66 0 0 1 -2.27-3.55h-.66a18 18 0 0 0 -8.4 2.05.72.72 0 0 0 -.38.64v6.39h4.53z"/><path d="m21.46 26.69h5.96v1.4h-5.96z"/><path d="m32.81 21.26h-6.87v-1a1 1 0 0 0 -2 0v1h-1.94v-2.83a20.17 20.17 0 0 0 -4-.43 19.27 19.27 0 0 0 -9.06 2.22.76.76 0 0 0 -.41.68v5.61h7.11v6.09a1 1 0 0 0 1 1h16.17a1 1 0 0 0 1-1v-10.34a1 1 0 0 0 -1-1zm-1 10.36h-14.17v-8.36h6.3v.91a1 1 0 0 0 2 0v-.91h5.87z"/></svg>