<svg height="36" preserveAspectRatio="xMidYMid meet" viewBox="0 0 36 36" width="36" xmlns="http://www.w3.org/2000/svg"><path d="m18 2a16 16 0 1 0 16 16 16 16 0 0 0 -16-16zm7.42 25.16a10.88 10.88 0 0 1 -16.19-6.16h-3.39a1 1 0 0 1 0-2h3c0-.35-.05-.71-.05-1.07s0-.63 0-.93h-3a1 1 0 0 1 0-2h3.4a10.86 10.86 0 0 1 16.19-6.31 1.25 1.25 0 0 1 -1.32 2.12 8.36 8.36 0 0 0 -12.24 4.19h9.36a1 1 0 0 1 0 2h-9.85a7.72 7.72 0 0 0 0 2h9.82a1 1 0 0 1 0 2h-9.28a8.36 8.36 0 0 0 12.22 4 1.25 1.25 0 1 1 1.33 2.12z"/><path d="m0 0h36v36h-36z" fill="none"/></svg>