<svg height="36" preserveAspectRatio="xMidYMid meet" viewBox="0 0 36 36" width="36" xmlns="http://www.w3.org/2000/svg"><path d="m31.48 28.49a1 1 0 0 0 -1.38-.32 12 12 0 0 1 -17.65-6.17h11.71a1 1 0 0 0 0-2h-12.23a11.16 11.16 0 0 1 0-4h12.23a1 1 0 0 0 0-2h-11.71a12 12 0 0 1 17.61-6.2 1 1 0 0 0 1.06-1.7 14 14 0 0 0 -20.78 7.9h-6.8a1 1 0 1 0 0 2h6.37a14 14 0 0 0 -.16 2 14 14 0 0 0 .16 2h-6.37a1 1 0 1 0 0 2h6.8a14 14 0 0 0 20.83 7.87 1 1 0 0 0 .31-1.38z"/><path d="m0 0h36v36h-36z" fill="none"/></svg>