<svg height="36" preserveAspectRatio="xMidYMid meet" viewBox="0 0 36 36" width="36" xmlns="http://www.w3.org/2000/svg"><path d="m10 10a1 1 0 0 0 1-1v-6a1 1 0 0 0 -2 0v6a1 1 0 0 0 1 1z"/><path d="m26 10a1 1 0 0 0 1-1v-6a1 1 0 0 0 -2 0v6a1 1 0 0 0 1 1z"/><path d="m32.25 6h-4v3a2.2 2.2 0 0 1 -4.4 0v-3h-11.65v3a2.2 2.2 0 0 1 -4.4 0v-3h-4a1.78 1.78 0 0 0 -1.8 1.81v22.38a1.78 1.78 0 0 0 1.75 1.81h28.5a1.78 1.78 0 0 0 1.75-1.81v-22.38a1.78 1.78 0 0 0 -1.75-1.81zm-6.31 10.58-9.67 9.67-5.27-5.31a1.36 1.36 0 0 1 1.9-1.94l3.38 3.38 7.72-7.72a1.36 1.36 0 1 1 1.93 1.93z"/><path d="m0 0h36v36h-36z" fill="none"/></svg>