<svg height="36" preserveAspectRatio="xMidYMid meet" viewBox="0 0 36 36" width="36" xmlns="http://www.w3.org/2000/svg"><path d="m18 21.32a1.3 1.3 0 0 0 1.3-1.3v-6.02a1.3 1.3 0 1 0 -2.6 0v6a1.3 1.3 0 0 0 1.3 1.32z"/><circle cx="17.95" cy="24.27" r="1.5"/><path d="m30.33 25.54-9.74-17.94a3 3 0 0 0 -5.27 0l-9.75 17.94a3 3 0 0 0 2.64 4.46h19.48a3 3 0 0 0 2.64-4.43zm-1.78 1.94a1 1 0 0 1 -.86.49h-19.48a1 1 0 0 1 -.88-1.48l9.74-17.94a1 1 0 0 1 1.76 0l9.74 17.94a1 1 0 0 1 -.02.99z"/><path d="m0 0h36v36h-36z" fill="none"/></svg>