<svg height="36" preserveAspectRatio="xMidYMid meet" viewBox="0 0 36 36" width="36" xmlns="http://www.w3.org/2000/svg"><path d="m33 6h-30a1 1 0 0 0 -1 1v22a1 1 0 0 0 1 1h30a1 1 0 0 0 1-1v-22a1 1 0 0 0 -1-1zm-1 22h-28v-20h28z"/><path d="m13.48 15.86 4.52-4.52 4.52 4.52a.77.77 0 0 0 .56.24.81.81 0 0 0 .57-1.37l-5.65-5.65-5.65 5.65a.8.8 0 1 0 1.13 1.13z"/><path d="m13.48 21.86 4.52-4.52 4.52 4.52a.77.77 0 0 0 .56.24.81.81 0 0 0 .57-1.37l-5.65-5.65-5.65 5.65a.8.8 0 1 0 1.13 1.13z"/><path d="m0 0h36v36h-36z" fill="none"/></svg>