<svg height="36" preserveAspectRatio="xMidYMid meet" viewBox="0 0 36 36" width="36" xmlns="http://www.w3.org/2000/svg"><path d="m33.62 17.53c-3.37-6.23-9.28-10-15.82-10s-12.46 3.77-15.8 10l-.28.47.26.48c3.37 6.23 9.28 10 15.82 10s12.46-3.72 15.82-10l.26-.48zm-15.82 8.9c-5.63 0-10.8-3.14-13.8-8.43 3-5.29 8.17-8.43 13.8-8.43s10.74 3.15 13.79 8.43c-3.05 5.29-8.17 8.43-13.79 8.43z"/><path d="m18.09 11.17a6.86 6.86 0 1 0 6.91 6.83 6.86 6.86 0 0 0 -6.91-6.83zm0 11.72a4.86 4.86 0 1 1 4.91-4.89 4.87 4.87 0 0 1 -4.91 4.89z"/><path d="m0 0h36v36h-36z" fill="none"/></svg>