<svg height="36" preserveAspectRatio="xMidYMid meet" viewBox="0 0 36 36" width="36" xmlns="http://www.w3.org/2000/svg"><path d="m17.77 31.92a2 2 0 0 1 -.86-.2 1.81 1.81 0 0 1 -.91-1.79v-6.7l-10.76 8.27a1.94 1.94 0 0 1 -2.06.22 2 2 0 0 1 -1.11-1.79v-24a2 2 0 0 1 1.11-1.81 1.93 1.93 0 0 1 2.06.22l10.76 8.27v-6.7a1.81 1.81 0 0 1 .91-1.79 1.93 1.93 0 0 1 2.09.22l15.32 12a2 2 0 0 1 0 3.15l-15.32 12.01a2 2 0 0 1 -1.23.42zm0-12.8v10.81l15.26-12-15.32-12 .06 10.81-13.77-10.83v24z"/><path d="m0 0h36v36h-36z" fill="none"/></svg>