<svg height="36" preserveAspectRatio="xMidYMid meet" viewBox="0 0 36 36" width="36" xmlns="http://www.w3.org/2000/svg"><path d="m29 25.1c-1.2 0-2.3.4-3.3 1.1-1.1 1.1-3 1.1-4.1 0-.9-.8-2.1-1.2-3.3-1.2s-2.3.4-3.2 1.2c-1.2 1.1-3 1.1-4.2 0-.9-.8-2.1-1.2-3.3-1.2s-2.4.4-3.4 1.1c-.6.6-1.4.9-2.2.9v2c1.3.1 2.5-.4 3.4-1.2.7-.5 1.5-.8 2.3-.8s1.5.3 2.1.8c1.9 1.6 4.7 1.6 6.5 0 .6-.5 1.3-.8 2.1-.8s1.5.3 2.1.8c1.9 1.6 4.6 1.6 6.5 0 .5-.5 1.3-.8 2-.8s1.5.3 2 .8c.9.7 2 1.1 3.1 1.2v-1.9c-.7 0-1.4-.3-1.9-.9-.9-.8-2.1-1.2-3.2-1.1z"/><path d="m5.9 23.2v-3.2h26.1l-3.5 3h.2c.8 0 1.6.2 2.2.5l2.5-2.2.2-.2c.5-.6.5-1.4.2-2.1-.4-.7-1-1-1.8-1h-4.4l-5.1-7h-5.5c-1.7 0-3 1.3-3 3h-2v-5.9h-6v6.1c-1.2.4-2 1.5-2 2.8v1.1 1.9 4.3l.1-.1c.5-.5 1.1-.8 1.8-1zm2.1-13.2h2v4h-2zm-2 7c0-.6.4-1 1-1h9v-2c0-.6.4-1 1-1h5l.6 1h-4.6v2h5.8l1.2 2.1h-19z"/><path d="m0 0h36v36h-36z" fill="none"/></svg>