<svg height="36" preserveAspectRatio="xMidYMid meet" viewBox="0 0 36 36" width="36" xmlns="http://www.w3.org/2000/svg"><path d="m28.2 25c-1.2 0-2.4.4-3.3 1.2-1.2 1.1-3 1.1-4.1 0-1.9-1.6-4.6-1.6-6.5 0-1.2 1.1-2.9 1.1-4.1 0-.9-.8-2-1.2-3.2-1.2s-2.3.4-3.2 1.2c-.4.5-1.1.8-1.8.8v2c1.1-.1 2.2-.5 3.1-1.2.5-.5 1.2-.8 1.9-.8s1.5.3 2 .8c1.9 1.6 4.7 1.6 6.6 0 .6-.5 1.3-.8 2.1-.8s1.5.3 2.1.8c1.9 1.6 4.7 1.6 6.5 0 .6-.5 1.3-.8 2.1-.8s1.6.3 2.1.8c.9.8 2.2 1.3 3.4 1.2v-2c-.8 0-1.6-.3-2.2-.8-1-.8-2.2-1.2-3.5-1.2z"/><path d="m5.8 23.2v-3.3h26.1l-3.5 3.1h.2c.8 0 1.6.2 2.2.5l2.5-2.2.1-.2c.7-.9.5-2.1-.4-2.8-.3-.3-.8-.4-1.2-.4h-4.1l-5.4-7h-5.5c-1.7 0-3 1.3-3 3h-2v-5.9h-5.8v6.2c-1.2.4-2.1 1.5-2.1 2.8v7.2h.1c.5-.5 1.1-.8 1.8-1zm12.1-9.2h4.2l1.4 2h-5.7v-2zm-10-4h2v4h-2z"/><path d="m0 0h36v36h-36z" fill="none"/></svg>