<svg height="36" preserveAspectRatio="xMidYMid meet" viewBox="0 0 36 36" width="36" xmlns="http://www.w3.org/2000/svg"><path d="m30 9h-13.58l-2.31-3.18a2 2 0 0 0 -1.62-.82h-6.49a2 2 0 0 0 -2 2v22a2 2 0 0 0 2 2h24a2 2 0 0 0 2-2v-18a2 2 0 0 0 -2-2zm0 20h-24v-16h7.31a2 2 0 0 0 2-2h-9.31v-4h6.49l2.61 3.59a1 1 0 0 0 .81.41h14.09z"/><path d="m21.91 22.48a2.06 2.06 0 0 0 -1.44.62l-5.72-2.66v-.44l5.66-2.65a2.08 2.08 0 1 0 .06-2.94 2.12 2.12 0 0 0 -.64 1.48v.23l-5.64 2.66a2.08 2.08 0 1 0 -.08 2.95l.08-.08 5.67 2.66v.3a2.09 2.09 0 1 0 2.08-2.1z"/><path d="m0 0h36v36h-36z" fill="none"/></svg>