<svg height="36" preserveAspectRatio="xMidYMid meet" viewBox="0 0 36 36" width="36" xmlns="http://www.w3.org/2000/svg"><path d="m15 25.6c.9 0 1.6-.7 1.6-1.6v-2.6h-3.2v2.6c0 .9.7 1.6 1.6 1.6z"/><path d="m21.9 4h-14.1c-1 0-1.8.9-1.8 1.9v24.2c0 1 .8 1.9 1.8 1.9h20.3c1 0 1.8-.9 1.8-1.9v-18.2zm-3.9 20c0 1.7-1.3 3-3 3s-3-1.3-3-3v-4h6zm-.8-12c.6 0 1 .4 1 1s-.4 1-1 1h-2.2v2h2.2c.6 0 1 .4 1 1s-.4 1-1 1h-2.2v-2h-2.2c-.6 0-1-.4-1-1s.4-1 1-1h2.2v-2h-2.2c-.6 0-1-.4-1-1s.4-1 1-1h2.2v-2h2.2c.6 0 1 .4 1 1s-.4 1-1 1h-2.2v2zm4.7 0v-5.5l5.7 5.5z"/><path d="m0 0h36v36h-36z" fill="none"/></svg>