<svg height="36" preserveAspectRatio="xMidYMid meet" viewBox="0 0 36 36" width="36" xmlns="http://www.w3.org/2000/svg"><path d="m15.55 31h-9.55v-26h20v8.78a2.37 2.37 0 0 1 2 1.57v-10.35a2 2 0 0 0 -2-2h-20a2 2 0 0 0 -2 2v26a2 2 0 0 0 2 2h11.16l-1-1a2.38 2.38 0 0 1 -.61-1z"/><path d="m33.54 23.47-2-.61a7.06 7.06 0 0 0 -.58-1.41l1-1.86a.37.37 0 0 0 -.07-.44l-1.48-1.45a.37.37 0 0 0 -.44-.07l-1.85 1a7 7 0 0 0 -1.43-.63l-.61-2a.37.37 0 0 0 -.36-.25h-2a.37.37 0 0 0 -.35.26l-.61 2a7 7 0 0 0 -1.44.61l-1.82-1a.37.37 0 0 0 -.44.07l-1.47 1.44a.37.37 0 0 0 -.07.44l1 1.82a7 7 0 0 0 -.61 1.44l-2 .61a.37.37 0 0 0 -.26.35v2a.37.37 0 0 0 .26.35l2 .61a7 7 0 0 0 .61 1.41l-1 1.9a.37.37 0 0 0 .07.44l1.41 1.5a.37.37 0 0 0 .44.07l1.87-1a7.06 7.06 0 0 0 1.39.57l.61 2a.37.37 0 0 0 .35.26h2a.37.37 0 0 0 .35-.26l.61-2a7 7 0 0 0 1.38-.57l1.89 1a.37.37 0 0 0 .44-.07l1.45-1.45a.37.37 0 0 0 .07-.44l-1-1.88a7.06 7.06 0 0 0 .58-1.39l2-.61a.37.37 0 0 0 .26-.35v-2.05a.37.37 0 0 0 -.15-.36zm-8.84 4.72a3.33 3.33 0 1 1 3.3-3.33 3.33 3.33 0 0 1 -3.3 3.33z"/><path d="m0 0h36v36h-36z" fill="none"/></svg>