<svg height="36" preserveAspectRatio="xMidYMid meet" viewBox="0 0 36 36" width="36" xmlns="http://www.w3.org/2000/svg"><path d="m6 34a1 1 0 0 1 -1-1v-30a1 1 0 0 1 2 0v30a1 1 0 0 1 -1 1z"/><path d="m30.55 3.82a1 1 0 0 0 -1 0 14.9 14.9 0 0 1 -6.13 1.16 13.11 13.11 0 0 1 -5.18-1.49 12.78 12.78 0 0 0 -5-1.45 10.86 10.86 0 0 0 -4.24.81v2.23a8.8 8.8 0 0 1 4.25-1.08 11.22 11.22 0 0 1 4.2 1.28 14.84 14.84 0 0 0 6 1.66 18.75 18.75 0 0 0 5.55-.82v12.83a16.16 16.16 0 0 1 -5.58.93 13.11 13.11 0 0 1 -5.18-1.49 12.78 12.78 0 0 0 -5-1.45 10.86 10.86 0 0 0 -4.24.85v2.21a8.8 8.8 0 0 1 4.25-1.08 11.22 11.22 0 0 1 4.2 1.28 14.84 14.84 0 0 0 6 1.66 16.79 16.79 0 0 0 7-1.37 1 1 0 0 0 .55-.89v-14.93a1 1 0 0 0 -.45-.85z"/><path d="m0 0h36v36h-36z" fill="none"/></svg>