<svg height="36" preserveAspectRatio="xMidYMid meet" viewBox="0 0 36 36" width="36" xmlns="http://www.w3.org/2000/svg"><path d="m31.3 16.66c-1.19-2.09-7.94-14.15-7.94-14.15a1 1 0 0 0 -1.75 0l-6 10.64-3-5.28a1 1 0 0 0 -1.75 0s-5.46 9.91-6.44 11.63a9.3 9.3 0 0 0 -1.42 5.11c0 5.11 2.86 9.39 8.67 9.39h10.81c5.8 0 10.52-5 10.52-11.22a11.13 11.13 0 0 0 -1.7-6.12zm-8.82 15.34h-10.71c-3.64 0-6.77-3.34-6.77-7.39a7.43 7.43 0 0 1 1.16-4.13c.73-1.29 4.05-7.21 5.65-10.07l3 5.28a1 1 0 0 0 .87.51 1 1 0 0 0 .87-.51l5.94-10.69c1.86 3.33 6.15 11 7.07 12.6a9.24 9.24 0 0 1 1.44 5.18c0 5.09-3.82 9.22-8.52 9.22z"/><path d="m25.75 21.73c-.65-1.16-4.38-7.81-4.38-7.81a.8.8 0 0 0 -1.4 0l-4.2 7.48-1.59-2.49a.8.8 0 0 0 -1.35 0l-3.46 5.44a4.35 4.35 0 0 0 -.82 2.6 4.49 4.49 0 0 0 .5 2h1.95a3 3 0 0 1 -.83-2 2.78 2.78 0 0 1 .56-1.73l2.8-4.38 1.66 2.6a.8.8 0 0 0 1.41-.12 7.82 7.82 0 0 1 .4-.8l3.67-6.52 3.69 6.57a4.83 4.83 0 0 1 .77 2.71 5 5 0 0 1 -1.67 3.72h2.13a6.68 6.68 0 0 0 1.14-3.74 6.45 6.45 0 0 0 -1-3.5z"/><path d="m0 0h36v36h-36z" fill="none"/></svg>