<svg height="36" preserveAspectRatio="xMidYMid meet" viewBox="0 0 36 36" width="36" xmlns="http://www.w3.org/2000/svg"><path d="m31.3 16.32c-1.19-2.09-7.94-14.15-7.94-14.15a1 1 0 0 0 -1.75 0l-6 10.64-3-5.28a1 1 0 0 0 -1.75 0s-5.46 9.9-6.44 11.62a9.3 9.3 0 0 0 -1.42 5.11c0 5.11 3.88 9.65 8.67 9.74h10.81c5.8 0 10.52-5.38 10.52-11.56a11.13 11.13 0 0 0 -1.7-6.12zm-9.82 15.68h-6.94a4.68 4.68 0 0 1 -4.54-4.59 3.91 3.91 0 0 1 .75-2.34l3.35-5.21a.5.5 0 0 1 .84 0l1.78 2.77v-.08c.63-1.11 4.23-7.48 4.23-7.48a.5.5 0 0 1 .87 0s3.6 6.38 4.23 7.48a5.83 5.83 0 0 1 .95 3.21c0 6.24-4.9 6.24-5.52 6.24z"/><path d="m0 0h36v36h-36z" fill="none"/></svg>