<svg height="36" preserveAspectRatio="xMidYMid meet" viewBox="0 0 36 36" width="36" xmlns="http://www.w3.org/2000/svg"><path d="m31.43 27.28-8.43-12.44v-10.84h1a1 1 0 0 0 0-2h-12a1 1 0 0 0 0 2h1v10.84l-8.49 12.52a4.29 4.29 0 0 0 .49 5.44 4.38 4.38 0 0 0 3.15 1.2h19.85a4.24 4.24 0 0 0 3.42-6.72zm-1.58 3.72a2.62 2.62 0 0 1 -2 1h-19.85a2.2 2.2 0 0 1 -2.06-1.41 2.68 2.68 0 0 1 .29-2.17l3-4.44h14l-1.31-2h-11.35l4.43-6.52v-11.46h6v11.46l8.84 13.05a2.23 2.23 0 0 1 .01 2.49z"/><path d="m0 0h36v36h-36z" fill="none"/></svg>