<svg height="36" preserveAspectRatio="xMidYMid meet" viewBox="0 0 36 36" width="36" xmlns="http://www.w3.org/2000/svg"><path d="m23.7 10.41a1 1 0 0 1 -.71-.29l-7.43-7.43a1 1 0 0 1 1.44-1.41l7.44 7.43a1 1 0 0 1 -.71 1.7z"/><path d="m11.86 22.25a1 1 0 0 0 -.29-.71l-7.43-7.43a1 1 0 0 0 -1.42 1.42l7.43 7.47a1 1 0 0 0 1.42 0 1 1 0 0 0 .29-.75z"/><path d="m21.93 34h-18.93a1 1 0 0 1 -1-1.27l1.13-4a1 1 0 0 1 1-.73h16.67a1 1 0 0 1 1 .73l1.13 4a1 1 0 0 1 -.17.87 1 1 0 0 1 -.83.4zm-17.62-2h16.29l-.6-2h-15.13z"/><path d="m33.11 27.44-14-14 2.36-2.36-6.95-6.95-8.94 8.94 6.93 6.93 2.35-2.34 14 14a3 3 0 0 0 4.24 0 3 3 0 0 0 .01-4.22zm-24.71-14.37 6.12-6.07 4.11 4.11-6.12 6.11zm23.29 17.2a1 1 0 0 1 -1.41 0l-14-14 1.41-1.41 14 14a1 1 0 0 1 0 1.41z"/><path d="m0 0h36v36h-36z" fill="none"/></svg>