<svg height="36" preserveAspectRatio="xMidYMid meet" viewBox="0 0 36 36" width="36" xmlns="http://www.w3.org/2000/svg"><path d="m23.7 10.79a1 1 0 0 1 -.71-.3l-7.43-7.43a1 1 0 0 1 1.44-1.41l7.44 7.43a1 1 0 0 1 0 1.41 1 1 0 0 1 -.74.3z"/><path d="m10.69 23.79a1 1 0 0 1 -.7-.29l-7.44-7.43a1 1 0 1 1 1.45-1.42l7.43 7.43a1 1 0 0 1 -.71 1.71z"/><path d="m20.64 31 .5 1.77a.89.89 0 0 1 -.85 1.12h-16.62a.89.89 0 0 1 -.85-1.12l.51-1.77a1.51 1.51 0 0 1 1.47-1.08h14.36a1.53 1.53 0 0 1 1.48 1.08z"/><path d="m32.19 28.08-13.76-13.62 3-3-6.91-6.96-8.94 8.94 6.93 6.94 3.21-3.2 13.74 13.6a1.89 1.89 0 0 0 1.36.56 1.91 1.91 0 0 0 1.37-3.26z"/><path d="m0 0h36v36h-36z" fill="none"/></svg>