<svg height="36" preserveAspectRatio="xMidYMid meet" viewBox="0 0 36 36" width="36" xmlns="http://www.w3.org/2000/svg"><path d="m14 4h-8a2 2 0 0 0 -2 2v8a2 2 0 0 0 2 2h8a2 2 0 0 0 2-2v-8a2 2 0 0 0 -2-2zm-8 10v-8h8v8z"/><path d="m30 4h-8a2 2 0 0 0 -2 2v8a2 2 0 0 0 2 2h8a2 2 0 0 0 2-2v-8a2 2 0 0 0 -2-2zm-8 10v-8h8v8z"/><path d="m14 20h-8a2 2 0 0 0 -2 2v8a2 2 0 0 0 2 2h8a2 2 0 0 0 2-2v-8a2 2 0 0 0 -2-2zm-8 10v-8h8v8z"/><path d="m30 20h-8a2 2 0 0 0 -2 2v8a2 2 0 0 0 2 2h8a2 2 0 0 0 2-2v-8a2 2 0 0 0 -2-2zm-8 10v-8h8v8z"/><path d="m0 0h36v36h-36z" fill="none"/></svg>