<svg height="36" preserveAspectRatio="xMidYMid meet" viewBox="0 0 36 36" width="36" xmlns="http://www.w3.org/2000/svg"><path d="m15 17h-11c-1.105 0-2-.895-2-2v-7c0-1.105.895-2 2-2h11c1.105 0 2 .895 2 2v7c0 1.105-.895 2-2 2z"/><path d="m32 17h-11c-1.105 0-2-.895-2-2v-7c0-1.105.895-2 2-2h11c1.105 0 2 .895 2 2v7c0 1.105-.895 2-2 2z"/><path d="m15 30h-11c-1.105 0-2-.895-2-2v-7c0-1.105.895-2 2-2h11c1.105 0 2 .895 2 2v7c0 1.105-.895 2-2 2z"/><path d="m32 30h-11c-1.105 0-2-.895-2-2v-7c0-1.105.895-2 2-2h11c1.105 0 2 .895 2 2v7c0 1.105-.895 2-2 2z"/><path d="m0 0h36v36h-36z" fill="none"/></svg>