<svg height="36" preserveAspectRatio="xMidYMid meet" viewBox="0 0 36 36" width="36" xmlns="http://www.w3.org/2000/svg"><path d="m34 16.78a2.22 2.22 0 0 0 -1.29-4l-9-.34a.23.23 0 0 1 -.2-.15l-3.11-8.4a2.22 2.22 0 0 0 -4.17 0l-3.1 8.43a.23.23 0 0 1 -.2.15l-9 .34a2.22 2.22 0 0 0 -1.29 4l7.06 5.55a.22.22 0 0 1 .08.24l-2.43 8.61a2.23 2.23 0 0 0 2.14 2.79 2.22 2.22 0 0 0 1.24-.38l7.46-5a.22.22 0 0 1 .25 0l7.46 5a2.22 2.22 0 0 0 3.38-2.45l-2.45-8.64a.23.23 0 0 1 .08-.24zm-15.67 9.84a2.21 2.21 0 0 0 -1.24.38l-7.47 5a.22.22 0 0 1 -.34-.25l2.45-8.64a2.21 2.21 0 0 0 -.73-2.35l-7.1-5.55a.22.22 0 0 1 .13-.4l9-.34a2.22 2.22 0 0 0 1.97-1.47l3.1-8.43a.2.2 0 0 1 .21-.15z"/><path d="m0 0h36v36h-36z" fill="none"/></svg>