<svg height="36" preserveAspectRatio="xMidYMid meet" viewBox="0 0 36 36" width="36" xmlns="http://www.w3.org/2000/svg"><path d="m34 16.78a2.22 2.22 0 0 0 -1.29-4l-9-.34a.23.23 0 0 1 -.2-.15l-3.11-8.4a2.22 2.22 0 0 0 -4.17 0l-3.1 8.43a.23.23 0 0 1 -.2.15l-9 .34a2.22 2.22 0 0 0 -1.29 4l7.06 5.55a.23.23 0 0 1 .08.24l-2.43 8.61a2.22 2.22 0 0 0 3.38 2.45l7.46-5a.22.22 0 0 1 .25 0l7.46 5a2.2 2.2 0 0 0 2.55 0 2.2 2.2 0 0 0 .83-2.4l-2.45-8.64a.22.22 0 0 1 .08-.24zm-9.1 6.33 2.45 8.64a.22.22 0 0 1 -.35.25l-7.46-5a2.21 2.21 0 0 0 -1.24-.38v-22.18a.2.2 0 0 1 .21.15l3.11 8.41a2.22 2.22 0 0 0 2 1.46l9 .34a.22.22 0 0 1 .13.4l-7.06 5.55a2.21 2.21 0 0 0 -.79 2.36z"/><path d="m0 0h36v36h-36z" fill="none"/></svg>