<svg height="36" preserveAspectRatio="xMidYMid meet" viewBox="0 0 36 36" width="36" xmlns="http://www.w3.org/2000/svg"><path d="m32 6h-28a2 2 0 0 0 -2 2v20a2 2 0 0 0 2 2h28a2 2 0 0 0 2-2v-20a2 2 0 0 0 -2-2zm-20 11.16 1.54.42a1.64 1.64 0 0 0 -.08.5 2 2 0 1 0 2-2 2.08 2.08 0 0 0 -.5.07l-.41-1.54a3.84 3.84 0 0 1 .91-.13 3.59 3.59 0 1 1 -3.59 3.59 3.53 3.53 0 0 1 .13-.91zm-6.69-9.16a1.25 1.25 0 1 1 -1.25 1.25 1.25 1.25 0 0 1 1.25-1.25zm0 20.06a1.25 1.25 0 1 1 1.25-1.25 1.25 1.25 0 0 1 -1.25 1.25zm10.16-.73a9.22 9.22 0 0 1 -8.93-11.63l1.55.41a7.55 7.55 0 0 0 -.27 2 7.64 7.64 0 0 0 14.84 2.57h1.68a9.25 9.25 0 0 1 -8.87 6.65zm12-8.7h-6.5a.8.8 0 0 1 0-1.6h2.03a7.66 7.66 0 0 0 -7.57-6.6 7.86 7.86 0 0 0 -2 .26l-.42-1.54a9.36 9.36 0 0 1 2.38-.32 9.26 9.26 0 0 1 9.27 8.17h2.76a.8.8 0 0 1 0 1.6zm3.39 9.43a1.25 1.25 0 1 1 1.25-1.25 1.25 1.25 0 0 1 -1.3 1.25zm0-17.56a1.25 1.25 0 1 1 1.25-1.25 1.25 1.25 0 0 1 -1.3 1.25z"/><path d="m0 0h36v36h-36z" fill="none"/></svg>