<svg height="36" preserveAspectRatio="xMidYMid meet" viewBox="0 0 36 36" width="36" xmlns="http://www.w3.org/2000/svg"><path d="m18 32.43a1 1 0 0 1 -.61-.21c-5.56-4.32-9.39-8.04-12.07-11.71-3.42-4.69-4.2-9.02-2.32-12.87 1.34-2.75 5.19-5 9.69-3.69a9.87 9.87 0 0 1 5.31 3.77 9.87 9.87 0 0 1 5.31-3.77c4.49-1.29 8.35.94 9.69 3.69 1.88 3.85 1.1 8.18-2.32 12.87-2.68 3.67-6.51 7.39-12.07 11.71a1 1 0 0 1 -.61.21zm-7.87-26.85a5.9 5.9 0 0 0 -5.33 2.93c-1.55 3.18-.85 6.72 2.14 10.81a57.13 57.13 0 0 0 11.06 10.84 57.13 57.13 0 0 0 11.06-10.83c3-4.1 3.69-7.64 2.14-10.81-1-2-4-3.59-7.34-2.65a8 8 0 0 0 -4.94 4.2 1 1 0 0 1 -1.85 0 7.93 7.93 0 0 0 -4.94-4.2 7.31 7.31 0 0 0 -2-.29z"/><path d="m0 0h36v36h-36z" fill="none"/></svg>