<svg height="36" preserveAspectRatio="xMidYMid meet" viewBox="0 0 36 36" width="36" xmlns="http://www.w3.org/2000/svg"><path d="m33 7.64c-1.34-2.75-5.2-5-9.69-3.69a11.55 11.55 0 0 0 -5.12 3.55 16.89 16.89 0 0 0 -2.48 4.56l6.56 2.94-5.57 5.26 2.3 2.74-1.57 1.34-3.6-4.22 4.74-4.51-5.44-2.41a19.49 19.49 0 0 1 2.3-5.5 14.77 14.77 0 0 1 1.06-1.54h.06a9.66 9.66 0 0 0 -3.89-2.18c-4.47-1.32-8.32.91-9.66 3.66-1.88 3.85-1.1 8.18 2.32 12.87 2.68 3.67 6.51 7.39 12.07 11.71a1 1 0 0 0 1.23 0c5.55-4.31 9.39-8 12.07-11.71 3.41-4.69 4.19-9.02 2.31-12.87z"/><path d="m0 0h36v36h-36z" fill="none"/></svg>