<svg height="36" preserveAspectRatio="xMidYMid meet" viewBox="0 0 36 36" width="36" xmlns="http://www.w3.org/2000/svg"><path d="m32.16 19.63a5.55 5.55 0 0 0 -4.74-2.63h-17.36a4.36 4.36 0 0 1 -3.67-2 4.07 4.07 0 0 1 -.19-4.13l3.62-7 1.42 1.63-2.74 5.3 8.84-5.66a.91.91 0 0 1 1 1.53l-10.5 6.71a2.13 2.13 0 0 0 .24.52 2.28 2.28 0 0 0 1.65 1l8.38-5.4a.91.91 0 0 1 1 1.52l-6.11 3.92h7.8l2.41-4.82a5.6 5.6 0 0 0 -5-8.12h-9.21a1 1 0 0 0 -.9.56l-4.22 8.33a5.6 5.6 0 0 0 5 8.12h7.65l-3.43 6.87a5.6 5.6 0 0 0 5 8.12h9.28a1 1 0 0 0 .93-.65l4.14-8.24a5.58 5.58 0 0 0 -.29-5.48zm-14.41 5.94a.91.91 0 0 1 .25-1.26l6-3.88a.91.91 0 1 1 1 1.57l-6 3.88a.91.91 0 0 1 -1.26-.27zm11.25-1.23-9 5.78a.91.91 0 1 1 -1-1.53l9-5.78a.91.91 0 1 1 1 1.53z"/><path d="m0 0h36v36h-36z" fill="none"/></svg>