<svg height="36" preserveAspectRatio="xMidYMid meet" viewBox="0 0 36 36" width="36" xmlns="http://www.w3.org/2000/svg"><path d="m12.23 13.09a1 1 0 0 0 0 1.41l5.77 5.8 5.79-5.79a1 1 0 0 0 -1.41-1.41l-3.38 3.37v-14.47a1 1 0 0 0 -1-1 1 1 0 0 0 -1 1v14.5l-3.38-3.38a1 1 0 0 0 -1.39-.03z"/><path d="m29.5 5h-7.5v2h7v14h-5.39l-.1.89a5.42 5.42 0 0 1 -10.77 0l-.1-.89h-5.64v-14h7v-2h-7.5a1.5 1.5 0 0 0 -1.5 1.5v25a1.5 1.5 0 0 0 1.5 1.5h23a1.5 1.5 0 0 0 1.5-1.5v-25a1.5 1.5 0 0 0 -1.5-1.5zm-.5 26h-22v-8h3.91a7.42 7.42 0 0 0 14.44 0h3.65z"/><path d="m0 0h36v36h-36z" fill="none"/></svg>