<svg height="36" preserveAspectRatio="xMidYMid meet" viewBox="0 0 36 36" width="36" xmlns="http://www.w3.org/2000/svg"><path d="m24.31 25.81c-1.75 0-3-2.49-3-6a12.79 12.79 0 0 1 1.72-6.7 2.57 2.57 0 0 0 -3.79 0 12.79 12.79 0 0 1 1.76 6.65c0 3.56-1.23 6-3 6s-3-2.49-3-6a12.79 12.79 0 0 1 1.72-6.7 2.57 2.57 0 0 0 -3.79 0 12.79 12.79 0 0 1 1.72 6.7c0 3.56-1.23 6-3 6s-3-2.49-3-6a12.88 12.88 0 0 1 1.71-6.7 2.7 2.7 0 0 0 -1.89-.87c-1.37 0-2.78 1.51-3.47 3.81l-.23.7h-2.77a1 1 0 0 1 0-2h1.29c1.1-2.83 3.06-4.55 5.24-4.55a4.67 4.67 0 0 1 3.16 1.32 4.62 4.62 0 0 1 3.15-1.32 4.65 4.65 0 0 1 3.16 1.36 4.43 4.43 0 0 1 6.31 0 4.67 4.67 0 0 1 3.16-1.32c2.18 0 4.14 1.72 5.24 4.55h1.29a1 1 0 0 1 0 2h-2.72l-.23-.7c-.74-2.34-2.15-3.85-3.58-3.85a2.7 2.7 0 0 0 -1.89.87 12.88 12.88 0 0 1 1.71 6.7c0 3.56-1.22 6.05-2.98 6.05zm-6.31-10.88a11.71 11.71 0 0 0 -1 4.83c0 2.54.66 3.75 1 4 .32-.27 1-1.48 1-4a11.71 11.71 0 0 0 -1-4.83zm6.31 0a11.71 11.71 0 0 0 -1 4.83c0 2.54.66 3.75 1 4 .32-.27 1-1.48 1-4a11.71 11.71 0 0 0 -1-4.83zm-12.62 0a11.71 11.71 0 0 0 -1 4.83c0 2.54.66 3.75 1 4 .32-.27 1-1.48 1-4a11.71 11.71 0 0 0 -1-4.83z"/><path d="m0 0h36v36h-36z" fill="none"/></svg>