<svg height="36" preserveAspectRatio="xMidYMid meet" viewBox="0 0 36 36" width="36" xmlns="http://www.w3.org/2000/svg"><path d="m23.38 16.77.6-.6a5 5 0 0 0 .02-7.07l-5.29-5.26a5 5 0 0 0 -7.07 0l-8.55 8.55a5 5 0 0 0 0 7.07l5.26 5.26a5 5 0 0 0 7.07 0l.45-.45 2.1 2.2h3.44v3h3.69v1.63l2.9 2.9h6v-6.55zm-8.56-6.59-5.45 5.46a1 1 0 0 1 -1.41 0l-.4-.4a1 1 0 0 1 0-1.41l5.44-5.47a1 1 0 0 1 1.41 0l.4.4a1 1 0 0 1 .01 1.42zm17.18 21.82h-3.14l-1.77-1.76v-2.8h-3.68v-3h-4.61l-1.52-1.61 4.72-4.65 10 10.1z"/><path d="m0 0h36v36h-36z" fill="none"/></svg>