<svg height="36" preserveAspectRatio="xMidYMid meet" viewBox="0 0 36 36" width="36" xmlns="http://www.w3.org/2000/svg"><path d="m32 6h-28a2 2 0 0 0 -2 2v20a2 2 0 0 0 2 2h28a2 2 0 0 0 2-2v-20a2 2 0 0 0 -2-2zm-4.23 15.88a1 1 0 0 1 -.73.32 1 1 0 0 1 -.68-.27 1 1 0 0 1 -.06-1.41l1.41-1.52h-19.42l1.41 1.52a1 1 0 0 1 -.06 1.41 1 1 0 0 1 -.64.27 1 1 0 0 1 -.73-.32l-3.63-3.88 3.59-3.88a1 1 0 0 1 1.47 1.36l-1.41 1.52h19.42l-1.41-1.52a1 1 0 0 1 1.47-1.36l3.59 3.88z"/><path d="m0 0h36v36h-36z" fill="none"/></svg>