<svg height="36" preserveAspectRatio="xMidYMid meet" viewBox="0 0 36 36" width="36" xmlns="http://www.w3.org/2000/svg"><path d="m30 3h-16v5h2v-3h14c.6 0 1 .4 1 1v11c0 .6-.4 1-1 1h-13v7h-5.3l-3.7 2.9v-2.9h-3c-.6 0-1-.4-1-1v-11c0-.6.4-1 1-1h13v-2h-13c-1.7 0-3 1.3-3 3v11c0 1.7 1.3 3 3 3h1v5.1l6.3-5.1h6.7v-7h11c1.7 0 3-1.3 3-3v-11c0-1.7-1.3-3-3-3z"/><path d="m6.2 22.9h2.4l.6-1.6h3.1l.6 1.6h2.4l-3.4-8.9h-2.4zm4.5-6.4 1 3.1h-2z"/><path d="m20 17c1.1 0 2.6-.3 4-1 1.4.7 3 1 4 1v-2s-1 0-2.1-.4c1.2-1.2 2.1-3 2.1-5.6v-1h-3v-2h-2v2h-3v2h5.9c-.2 1.8-1 2.9-1.9 3.6-.6-.5-1.2-1.2-1.6-2.1h-2.1c.4 1.3 1 2.3 1.8 3.1-1 .4-1.9.4-2.1.4z"/><path d="m0 0h36v36h-36z" fill="none"/></svg>