<svg height="36" preserveAspectRatio="xMidYMid meet" viewBox="0 0 36 36" width="36" xmlns="http://www.w3.org/2000/svg"><path d="m11 16.5-1 3.1h2z"/><path d="m30.3 3h-16v5h4v2h-13c-1.7 0-3 1.3-3 3v11c0 1.7 1.3 3 3 3h1v5.1l6.3-5.1h6.7v-7h11c1.7 0 3-1.3 3-3v-11c0-1.7-1.3-3-3-3zm-17.2 19.9-.5-1.6h-3.1l-.6 1.6h-2.4l3.3-8.9h2.4l3.3 8.9zm15.2-7.9v2c-1.3 0-2.7-.4-3.9-1-1.2.6-2.6.9-4 1l-.1-2c.7 0 1.4-.1 2.1-.3-.9-.9-1.5-2-1.8-3.2h2.1c.3.9.9 1.6 1.6 2.2 1.1-.9 1.8-2.2 1.9-3.7h-6v-2h3v-2h2v2h3.3l.1 1c.1 2.1-.7 4.2-2.2 5.7.7.2 1.3.3 1.9.3z"/><path d="m0 0h36v36h-36z" fill="none"/></svg>