<svg height="36" viewBox="0 0 36 36" width="36" xmlns="http://www.w3.org/2000/svg"><path d="m18 15.54a3.29 3.29 0 0 1 0-6.54v1.6a1.69 1.69 0 1 0 0 3.38z"/><path d="m28 34h-20a1 1 0 0 0 0 2h20a1 1 0 0 0 0-2z"/><path d="m17.94 10.56v3.38a1.69 1.69 0 0 0 0-3.38z"/><path d="m28.75 22.45a15.46 15.46 0 0 0 -2.85-5.52l-.38-.47c0-.3 0-.61 0-.91-.73-11.19-6.82-14.95-7.08-15.11a1 1 0 0 0 -1 0c-.26.16-6.35 3.92-7 15.1 0 .36 0 .73-.05 1.1l-.23.29a15.6 15.6 0 0 0 -3.44 11.16 1 1 0 0 0 1 .91h4.34a15.5 15.5 0 0 0 1 2.5 1 1 0 0 0 .94.5h7.92a1 1 0 0 0 .87-.51 15.11 15.11 0 0 0 1-2.5h4.49a1 1 0 0 0 1-.91 15.55 15.55 0 0 0 -.53-5.63zm-10.81-6.91v14.46h-3.36a25 25 0 0 1 -1.58-5.22l-2 .4c.13.65.27 1.25.42 1.82h-2.76a13.23 13.23 0 0 1 1.71-6.86c0 .5.08 1 .13 1.51l2-.21a31.94 31.94 0 0 1 -.11-5.77c.51-8.32 4.17-12 5.55-13.14v6.47a3.29 3.29 0 0 1 0 6.58zm6.45 11.46a36.15 36.15 0 0 0 1.11-7.1 13.34 13.34 0 0 1 1.84 7.1z"/></svg>