<svg height="36" preserveAspectRatio="xMidYMid meet" viewBox="0 0 36 36" width="36" xmlns="http://www.w3.org/2000/svg"><path d="m18 20.25a1 1 0 0 1 -.43-.1l-15-7.09a1 1 0 0 1 0-1.81l15-7.09a1 1 0 0 1 .85 0l15 7.09a1 1 0 0 1 0 1.81l-15 7.09a1 1 0 0 1 -.42.1zm-12.66-8.09 12.66 6 12.66-6-12.66-5.98z"/><path d="m18 26.16a1 1 0 0 1 -.43-.1l-15-7.06a1 1 0 1 1 .85-1.81l14.58 6.87 14.57-6.89a1 1 0 1 1 .86 1.83l-15 7.09a1 1 0 0 1 -.43.07z"/><path d="m18 32.07a1 1 0 0 1 -.43-.1l-15-7.09a1 1 0 0 1 .85-1.81l14.58 6.93 14.57-6.89a1 1 0 1 1 .85 1.81l-14.99 7.08a1 1 0 0 1 -.43.07z"/><path d="m0 0h36v36h-36z" fill="none"/></svg>