<svg height="36" preserveAspectRatio="xMidYMid meet" viewBox="0 0 36 36" width="36" xmlns="http://www.w3.org/2000/svg"><path d="m18 2.25a11 11 0 0 0 -11 11 10.68 10.68 0 0 0 1 4.63 16.36 16.36 0 0 0 1.12 1.78 17 17 0 0 1 2 3.47 16.19 16.19 0 0 1 .59 4h2a18.17 18.17 0 0 0 -.71-4.69 18.46 18.46 0 0 0 -2.22-3.92 15.79 15.79 0 0 1 -1-1.54 8.64 8.64 0 0 1 -.78-3.75 9 9 0 0 1 18.07 0 8.64 8.64 0 0 1 -.86 3.77 15.79 15.79 0 0 1 -1 1.54 18.46 18.46 0 0 0 -2.21 3.9 18.17 18.17 0 0 0 -.71 4.71h2a16.19 16.19 0 0 1 .59-4 17 17 0 0 1 2-3.47 16.31 16.31 0 0 0 1.12-1.82 10.68 10.68 0 0 0 1-4.63 11 11 0 0 0 -11-10.98z"/><path d="m18.63 15.51a.8.8 0 0 0 -1.13 0l-3 3 2.86 3.13v5.54h1.64v-6.18l-2.24-2.45 1.89-1.89a.8.8 0 0 0 -.02-1.15z"/><path d="m23.86 29.15h-11.75a.8.8 0 1 0 0 1.6h11.75a.8.8 0 0 0 0-1.6z"/><path d="m22 32.15h-8a.8.8 0 1 0 0 1.6h8a.8.8 0 1 0 0-1.6z"/><path d="m17.32 10.89-2.73 2.73a.8.8 0 0 0 1.13 1.13l2.73-2.75a.8.8 0 1 0 -1.13-1.13z"/><path d="m0 0h36v36h-36z" fill="none"/></svg>