<svg height="36" preserveAspectRatio="xMidYMid meet" viewBox="0 0 36 36" width="36" xmlns="http://www.w3.org/2000/svg"><path d="m33.59 6.19a1 1 0 0 0 -.89-.19l-9.61 3-9.63-4.89a1 1 0 0 0 -.84 0l-10 4.09a1 1 0 0 0 -.62.93v20.48a1 1 0 0 0 1.38.92l9.62-3.95 9.59 4.92a1 1 0 0 0 .46.11 1 1 0 0 0 .3 0l10-3.12a1 1 0 0 0 .7-1v-20.49a1 1 0 0 0 -.46-.81zm-1.59 20.56-8.32 2.6v-2.29h-1.6v2l-8.4-4.31v-1.69h-1.6v1.72l-8.08 3.33v-18.32l8.08-3.33v2.35h1.6v-2.34l8.4 4.3v2.1h1.6v-1.87l8.32-2.64z"/><path d="m22.08 15.06h1.6v3.81h-1.6z"/><path d="m22.08 21.06h1.6v3.81h-1.6z"/><path d="m12.08 11.06h1.6v3.81h-1.6z"/><path d="m12.08 17.13h1.6v3.75h-1.6z"/><path d="m0 0h36v36h-36z" fill="none"/></svg>