<svg height="36" viewBox="0 0 36 36" width="36" xmlns="http://www.w3.org/2000/svg"><path d="m30 4h-24a2 2 0 0 0 -2 2v24a2 2 0 0 0 2 2h1.88v1.57a1 1 0 0 0 2 0v-1.57h16v1.57a1 1 0 0 0 2 0v-1.57h2.12a2 2 0 0 0 2-2v-24a2 2 0 0 0 -2-2zm-24 26v-24h24v24z"/><path d="m20 18h2v2h-2z"/><path d="m24 18h2v2h-2z"/><path d="m20 22h2v2h-2z"/><path d="m24 22h2v2h-2z"/><path d="m27.22 10h-7.22v4a.8.8 0 1 0 1.59 0v-2.4h5.63a.8.8 0 1 0 0-1.6z"/><path d="m8.81 10h8.14v2h-8.14z"/><path d="m8.81 14h8.14v2h-8.14z"/><path d="m8.81 18h8.14v2h-8.14z"/><path d="m8.81 22h8.14v2h-8.14z"/><path d="m8.81 26h8.14v2h-8.14z"/></svg>