<svg height="36" preserveAspectRatio="xMidYMid meet" viewBox="0 0 36 36" width="36" xmlns="http://www.w3.org/2000/svg"><path d="m31.68 6.16c-1.92-3.3-10.6-4-11.58-4.09l-1.1-.07v20.34a5.89 5.89 0 0 0 -.82-.56 8.33 8.33 0 0 0 -6.53-.41c-4.08 1.33-6.73 5.13-5.87 8.47a5.33 5.33 0 0 0 2.66 3.32 7.48 7.48 0 0 0 3.61.88 9.54 9.54 0 0 0 2.95-.47c3.67-1.18 6.17-4.33 6.06-7.36v-16.87a29.14 29.14 0 0 1 6.55 1.43 1 1 0 1 0 .72-1.87 31.37 31.37 0 0 0 -7.33-1.57v-3.16c3.33.36 8 1.38 8.92 3 2 3.41-2.33 7.36-2.37 7.4a1 1 0 0 0 1.33 1.49c.27-.21 5.62-5.06 2.8-9.9zm-17.33 25.51a6.43 6.43 0 0 1 -5-.26 3.31 3.31 0 0 1 -1.69-2.07c-.6-2.33 1.45-5.05 4.58-6.06a7.52 7.52 0 0 1 2.3-.37 5.52 5.52 0 0 1 2.65.62 3.31 3.31 0 0 1 1.69 2.07c.66 2.34-1.39 5.06-4.53 6.07z"/><path d="m0 0h36v36h-36z" fill="none"/></svg>