<svg height="36" preserveAspectRatio="xMidYMid meet" viewBox="0 0 36 36" width="36" xmlns="http://www.w3.org/2000/svg"><path d="m27 4.18a1 1 0 1 0 -1 1.73l6 3.47v17.24l-6 3.47a1 1 0 0 0 -.37 1.36 1 1 0 0 0 1.37.37l7-4.05v-19.54z"/><path d="m9.68 29.9-5.68-3.28v-17.24l5.68-3.28a1 1 0 1 0 -1-1.73l-6.68 3.86v19.54l6.68 3.86a1 1 0 0 0 1.37-.37 1 1 0 0 0 -.37-1.36z"/><path d="m10 12v12a2 2 0 0 0 2 2h12a2 2 0 0 0 2-2v-12a2 2 0 0 0 -2-2h-12a2 2 0 0 0 -2 2zm7 0v5h-5v-5zm-5 7h5v5h-5zm7 5v-5h5v5zm5-7h-5v-5h5z"/></svg>