<svg height="36" preserveAspectRatio="xMidYMid meet" viewBox="0 0 36 36" width="36" xmlns="http://www.w3.org/2000/svg"><path d="m34 23.63-2-.63a7.06 7.06 0 0 0 -.58-1.41l1-1.86a.37.37 0 0 0 -.07-.44l-1.45-1.43a.37.37 0 0 0 -.44-.07l-1.85 1a7 7 0 0 0 -1.43-.61l-.61-2a.37.37 0 0 0 -.36-.25h-2a.37.37 0 0 0 -.35.26l-.61 2a7 7 0 0 0 -1.44.61l-1.81-1a.37.37 0 0 0 -.44.07l-1.56 1.44a.37.37 0 0 0 -.07.44l1 1.82a7 7 0 0 0 -.58 1.43l-2 .61a.37.37 0 0 0 -.26.35v2a.37.37 0 0 0 .26.35l2 .61a7 7 0 0 0 .65 1.45l-1 1.9a.37.37 0 0 0 .07.44l1.45 1.45a.37.37 0 0 0 .44.07l1.87-1a7.06 7.06 0 0 0 1.39.57l.61 2a.37.37 0 0 0 .35.26h2a.37.37 0 0 0 .35-.26l.61-2a7 7 0 0 0 1.38-.57l1.89 1a.37.37 0 0 0 .44-.07l1.45-1.45a.37.37 0 0 0 .07-.44l-1-1.88a7 7 0 0 0 .58-1.39l2-.61a.37.37 0 0 0 .26-.35v-2.04a.37.37 0 0 0 -.21-.37zm-8.83 4.72a3.33 3.33 0 1 1 3.36-3.35 3.33 3.33 0 0 1 -3.34 3.34z"/><path d="m10.85 27.44a2.29 2.29 0 0 0 1.74-1.68 19.71 19.71 0 0 0 1.89-.6v-1.21a2 2 0 0 1 .09-.55 17.42 17.42 0 0 1 -2.17.78 2.28 2.28 0 0 0 -4.28.63h-.45a11.93 11.93 0 0 1 -2.88-7.27 17.79 17.79 0 0 1 5-4.72 2.23 2.23 0 0 0 2.29.56 18.52 18.52 0 0 0 4.65 5.09 1.93 1.93 0 0 1 .23-.32l.89-.87a16.89 16.89 0 0 1 -4.49-4.89 2.27 2.27 0 0 0 .35-1.2c0-.07 0-.14 0-.22a17.69 17.69 0 0 1 11.29.03 17.49 17.49 0 0 1 -1.15 3.35 1.94 1.94 0 0 1 .31-.05h1.45a19.06 19.06 0 0 0 .9-2.7c.43.19.84.41 1.26.64a11.93 11.93 0 0 1 1 4.63l1-.51a2 2 0 0 1 .92-.23h.08a14 14 0 1 0 -14.33 14.87 1.94 1.94 0 0 1 .12-1.46l.28-.53h-.07a11.91 11.91 0 0 1 -5.92-1.57zm5.91-22.44a12 12 0 0 1 8.61 3.66c0 .25 0 .51-.08.76a19.21 19.21 0 0 0 -12.35.11 2.28 2.28 0 0 0 -1.2-.53 17 17 0 0 1 -.61-2.53 11.92 11.92 0 0 1 5.63-1.47zm-7.1 2.36a18.72 18.72 0 0 0 .49 1.92 2.28 2.28 0 0 0 -1.07 1.93s0 .1 0 .15a19.45 19.45 0 0 0 -4.08 3.43 12 12 0 0 1 4.66-7.43z"/><path d="m0 0h36v36h-36z" fill="none"/></svg>