<svg height="36" preserveAspectRatio="xMidYMid meet" viewBox="0 0 36 36" width="36" xmlns="http://www.w3.org/2000/svg"><path d="m33.91 18.47-3.13-10.06a2 2 0 0 0 -1.91-1.41h-21.74a2 2 0 0 0 -1.91 1.41l-3.13 10.07a2 2 0 0 0 -.09.59v7.93a2 2 0 0 0 2 2h28a2 2 0 0 0 2-2v-7.94a2 2 0 0 0 -.09-.59zm-1.91 8.53h-28v-7.94l3.13-10.06h21.74l3.13 10.06z"/><path d="m7.12 22h1.8v3h-1.8z"/><path d="m12.12 22h1.8v3h-1.8z"/><path d="m17.11 22h1.8v3h-1.8z"/><path d="m22.1 22h1.8v3h-1.8z"/><path d="m27.1 22h1.8v3h-1.8z"/><path d="m6.23 18h23.69v1.4h-23.69z"/><path d="m0 0h36v36h-36z" fill="none"/></svg>