<svg height="36" preserveAspectRatio="xMidYMid meet" viewBox="0 0 36 36" width="36" xmlns="http://www.w3.org/2000/svg"><path d="m34.11 24.49-3.92-6.62 3.88-6.35a1 1 0 0 0 -.85-1.52h-31.22a2 2 0 0 0 -2 2v12a2 2 0 0 0 2 2h31.25a1 1 0 0 0 .86-1.51zm-23.6-3.31h-1.12l-3.26-4.34v4.35h-1.13v-6.19h1.13l3.27 4.35v-4.35h1.12zm6.33-5.18h-3.53v1.49h3.2v1h-3.2v1.61h3.53v1h-4.66v-6.1h4.65zm8.29 5.16h-1.13l-1.55-4.59-1.55 4.61h-1.12l-2-6.18h1.22l1.32 4.43 1.52-4.43h1.22l1.46 4.43 1.33-4.43h1.23z"/><path d="m0 0h36v36h-36z" fill="none"/></svg>