<svg height="36" preserveAspectRatio="xMidYMid meet" viewBox="0 0 36 36" width="36" xmlns="http://www.w3.org/2000/svg"><path d="m18 2a16 16 0 1 0 16 16 16 16 0 0 0 -16-16zm0 30a14 14 0 1 1 14-14 14 14 0 0 1 -14 14z"/><path d="m27.15 15h-18.3a1.85 1.85 0 0 0 -1.85 1.85v2.29a1.85 1.85 0 0 0 1.85 1.86h18.3a1.85 1.85 0 0 0 1.85-1.85v-2.3a1.85 1.85 0 0 0 -1.85-1.85zm.25 4.15a.25.25 0 0 1 -.25.25h-18.3a.25.25 0 0 1 -.25-.25v-2.3a.25.25 0 0 1 .25-.25h18.3a.25.25 0 0 1 .25.25z"/><path d="m0 0h36v36h-36z" fill="none"/></svg>