<svg height="36" preserveAspectRatio="xMidYMid meet" viewBox="0 0 36 36" width="36" xmlns="http://www.w3.org/2000/svg"><path d="m18 24.42a4 4 0 1 0 4 4 4 4 0 0 0 -4-4zm0 6a2 2 0 1 1 2-2 2 2 0 0 1 -2 2z"/><path d="m26.21 21.85a1 1 0 0 0 -.23-1.4 13.56 13.56 0 0 0 -5-2.23l3.87 3.87a1 1 0 0 0 1.36-.24z"/><path d="m18.05 10.72a20.88 20.88 0 0 0 -4.16.43l1.74 1.74a19 19 0 0 1 2.42-.17 18.76 18.76 0 0 1 10.59 3.28 1 1 0 0 0 1.12-1.65 20.75 20.75 0 0 0 -11.71-3.63z"/><path d="m33.55 8.2a28.11 28.11 0 0 0 -25.44-2.84l1.58 1.57a26 26 0 0 1 22.76 2.94 1 1 0 0 0 1.1-1.67z"/><path d="m1.84 4.75 2.43 2.43c-.62.34-1.23.7-1.83 1.1a1 1 0 1 0 1.12 1.66c.7-.47 1.44-.94 2.18-1.29l3.87 3.87a20.59 20.59 0 0 0 -3.38 1.88 1 1 0 0 0 1.13 1.6 18.82 18.82 0 0 1 3.77-2l4.16 4.16a13.51 13.51 0 0 0 -5.29 2.39 1 1 0 0 0 1.18 1.61 11.52 11.52 0 0 1 5.82-2.16l10.8 10.8 1.41-1.41-26-26z"/><path d="m0 0h36v36h-36z" fill="none"/></svg>