<svg height="36" preserveAspectRatio="xMidYMid meet" viewBox="0 0 36 36" width="36" xmlns="http://www.w3.org/2000/svg"><circle cx="18" cy="29.54" r="3"/><path d="m29.18 17.71.11-.17a1.51 1.51 0 0 0 -.47-2.1 20.57 20.57 0 0 0 -10.82-3.07c-.56 0-1.11 0-1.65.07l3.21 3.21a17.41 17.41 0 0 1 7.6 2.52 1.49 1.49 0 0 0 2.02-.46z"/><path d="m32.76 9.38a27.9 27.9 0 0 0 -22.58-3.11l2.63 2.63a24.68 24.68 0 0 1 18.29 3.22 1.49 1.49 0 0 0 2-.46l.11-.17a1.51 1.51 0 0 0 -.45-2.11z"/><path d="m3 4.75 3.1 3.1a27.28 27.28 0 0 0 -2.92 1.57 1.51 1.51 0 0 0 -.48 2.11l.11.17a1.49 1.49 0 0 0 2 .46 24.69 24.69 0 0 1 3.67-1.9l3.14 3.14a20.63 20.63 0 0 0 -4.53 2.09 1.51 1.51 0 0 0 -.46 2.1l.11.17a1.49 1.49 0 0 0 2 .46 17.46 17.46 0 0 1 5.51-2.22l3.6 3.6a13.39 13.39 0 0 0 -6.79 1.93 1.5 1.5 0 0 0 -.46 2.09l.1.16a1.52 1.52 0 0 0 2.06.44 10.2 10.2 0 0 1 9-.7l7.24 7.23 1.41-1.41-26-26z"/><path d="m0 0h36v36h-36z" fill="none"/></svg>