<svg height="36" preserveAspectRatio="xMidYMid meet" viewBox="0 0 36 36" width="36" xmlns="http://www.w3.org/2000/svg"><path d="m32.51 27.83a14.4 14.4 0 0 1 -2.51-2.93 12.63 12.63 0 0 1 -1.35-4.81v-4.94a10.81 10.81 0 0 0 -9.44-10.75v-1.29a1.33 1.33 0 1 0 -2.67 0v1.31a10.81 10.81 0 0 0 -9.33 10.73v4.94a12.63 12.63 0 0 1 -1.35 4.81 14.4 14.4 0 0 1 -2.47 2.93 1 1 0 0 0 -.34.75v1.36a1 1 0 0 0 1 1h27.8a1 1 0 0 0 1-1v-1.36a1 1 0 0 0 -.34-.75zm-27.38 1.11a16.17 16.17 0 0 0 2.44-3 14.24 14.24 0 0 0 1.65-5.85v-4.94a8.74 8.74 0 1 1 17.47 0v4.94a14.24 14.24 0 0 0 1.65 5.85 16.17 16.17 0 0 0 2.44 3z"/><path d="m18 34.28a2.67 2.67 0 0 0 2.58-2.28h-5.26a2.67 2.67 0 0 0 2.68 2.28z"/><path d="m0 0h36v36h-36z" fill="none"/></svg>