<svg height="36" preserveAspectRatio="xMidYMid meet" viewBox="0 0 36 36" width="36" xmlns="http://www.w3.org/2000/svg"><path d="m31.06 9h-26a1 1 0 1 1 0-2h26a1 1 0 1 1 0 2z"/><path d="m31.06 14h-17a1 1 0 0 1 0-2h17a1 1 0 1 1 0 2z"/><path d="m31.06 19h-17a1 1 0 0 1 0-2h17a1 1 0 1 1 0 2z"/><path d="m31.06 24h-17a1 1 0 0 1 0-2h17a1 1 0 1 1 0 2z"/><path d="m31.06 29h-26a1 1 0 0 1 0-2h26a1 1 0 1 1 0 2z"/><path d="m9.56 22.54a1 1 0 0 1 -.7-.3l-4.25-4.24 4.25-4.24a1 1 0 0 1 1.41 1.41l-2.83 2.83 2.83 2.83a1 1 0 0 1 -.71 1.71z"/><path d="m0 0h36v36h-36z" fill="none"/></svg>