<svg height="36" preserveAspectRatio="xMidYMid meet" viewBox="0 0 36 36" width="36" xmlns="http://www.w3.org/2000/svg"><path d="m32 5h-28c-1.105 0-2 .895-2 2v22c0 1.105.895 2 2 2h28c1.105 0 2-.895 2-2v-22c0-1.105-.895-2-2-2zm-28 24v-22h28v22z"/><path d="m17 27c-4.418 0-8-3.582-8-8s3.582-8 8-8v8h8c0 4.418-3.582 8-8 8zm6.247-6.6h-7.847v-7.598c-2.76.711-4.799 3.216-4.8 6.198 0 3.535 2.865 6.4 6.4 6.4 3.054.001 5.608-2.139 6.247-5z"/><path d="m19 9c4.418 0 8 3.582 8 8h-8zm6.198 6.4c-.578-2.25-2.349-4.02-4.598-4.599v4.599z"/><path d="m0 0h36v36h-36z" fill="none"/></svg>