<svg height="36" preserveAspectRatio="xMidYMid meet" viewBox="0 0 36 36" width="36" xmlns="http://www.w3.org/2000/svg"><path d="m30 30h-24v-24h16v-2h-16a2 2 0 0 0 -2 2v24a2 2 0 0 0 2 2h24a2 2 0 0 0 2-2v-16h-2z"/><path d="m33.57 9.33-7-7a1 1 0 0 0 -1.41 1.41l7 7a1 1 0 1 0 1.41-1.41z"/><path d="m22.1 11.19.7.5 3.66-3.69-1.46-1.44-2.49 2.57c-2-.87-4.35.14-5.92 1.68l-.72.71 3.54 3.54-3.67 3.67 1.41 1.41 3.67-3.67 3.55 3.53.71-.72c1.54-1.57 2.55-3.92 1.68-5.93l2.54-2.57-1.42-1.4-3.67 3.72.49.69c.76 1 .25 2.37-.41 3.33l-5.52-5.52c1.07-.74 2.38-1.1 3.33-.41z"/><path d="m0 0h36v36h-36z" fill="none"/></svg>