<svg height="36" preserveAspectRatio="xMidYMid meet" viewBox="0 0 36 36" width="36" xmlns="http://www.w3.org/2000/svg"><path d="m35.77 8.16a2.43 2.43 0 0 0 -1.9-2l-5.87-1.29a4.5 4.5 0 0 0 -3.65.79l-17.35 12.64-4.86-.2a1.86 1.86 0 0 0 -1.23 3.31l5 3.93c.6.73 1 .59 10.93-4.82l.93 9.42a1.36 1.36 0 0 0 .85 1.18 1.43 1.43 0 0 0 .54.1 1.54 1.54 0 0 0 1-.41l2.39-2.18a1.52 1.52 0 0 0 .46-.83l2.19-11.9c3.57-2 6.95-3.88 9.36-5.25a2.43 2.43 0 0 0 1.21-2.49zm-2.2.75c-2.5 1.42-6 3.41-9.76 5.47l-.41.23-2.33 12.67-1.47 1.34-1.1-11.3-1.33.68c-7.17 4-9.56 5.16-10.38 5.52l-4.3-3.41 5.08.22 18-13.06a2.51 2.51 0 0 1 2-.45l5.85 1.26a.43.43 0 0 1 .35.37.42.42 0 0 1 -.2.46z"/><path d="m7 12.54 3.56 1 1.64-1.19-4-1.16 1.8-1.1 5.47-.16 2.3-1.67-7.77.24a1.25 1.25 0 0 0 -.7.17l-2.63 1.53a1.28 1.28 0 0 0 .33 2.34z"/><path d="m0 0h36v36h-36z" fill="none"/></svg>