<svg height="36" preserveAspectRatio="xMidYMid meet" viewBox="0 0 36 36" width="36" xmlns="http://www.w3.org/2000/svg"><path d="m29.81 16h-.81v-7.17a2 2 0 0 0 -2-2h-6a5.14 5.14 0 0 0 -4.49-4.83 5 5 0 0 0 -5.51 4.83h-7a2 2 0 0 0 -2 2v8.17h2.81a3.13 3.13 0 0 1 3.19 2.69 3 3 0 0 1 -.78 2.31 3 3 0 0 1 -2.22 1h-3v8.83a2 2 0 0 0 2 2h23a2 2 0 0 0 2-2v-5.83h1a5 5 0 0 0 5-5.51 5.15 5.15 0 0 0 -5.19-4.49zm2.41 7a3 3 0 0 1 -2.22 1h-3v7.83h-23v-6.83h1a5 5 0 0 0 5-5.51 5.15 5.15 0 0 0 -5.19-4.49h-.81v-6.17h9v-1.83a3 3 0 0 1 1-2.22 3 3 0 0 1 2.31-.78 3.13 3.13 0 0 1 2.69 3.19v1.64h8v9.17h2.81a3.13 3.13 0 0 1 3.19 2.69 3 3 0 0 1 -.78 2.31z"/><path d="m0 0h36v36h-36z" fill="none"/></svg>