<svg height="36" preserveAspectRatio="xMidYMid meet" viewBox="0 0 36 36" width="36" xmlns="http://www.w3.org/2000/svg"><path d="m15.34 26.45a.8.8 0 0 0 -1.13 0 .79.79 0 0 0 0 1.13l3.79 3.51 3.74-3.47a.79.79 0 0 0 .05-1.13.8.8 0 0 0 -1.13 0l-1.86 1.68v-20.34l1.86 1.72a.8.8 0 1 0 1.08-1.17l-3.74-3.47-3.74 3.47a.79.79 0 0 0 0 1.13.8.8 0 0 0 1.13 0l1.81-1.68v20.34z"/><path d="m28 2h-20a2 2 0 0 0 -2 2v28a2 2 0 0 0 2 2h20a2 2 0 0 0 2-2v-28a2 2 0 0 0 -2-2zm0 30h-20v-28h20z"/><path d="m0 0h36v36h-36z" fill="none"/></svg>