<svg height="36" preserveAspectRatio="xMidYMid meet" viewBox="0 0 36 36" width="36" xmlns="http://www.w3.org/2000/svg"><path d="m18 2a16 16 0 1 0 16 16 16 16 0 0 0 -16-16zm.06 17.68a1.28 1.28 0 0 1 -1.29-1.28v-9.75a1.29 1.29 0 0 1 2.58 0v9.75a1.28 1.28 0 0 1 -1.29 1.28zm-.06 8.11a9.88 9.88 0 0 1 -5.83-17.94 1.4 1.4 0 0 1 1.94.31 1.37 1.37 0 0 1 -.31 1.92 7.18 7.18 0 1 0 11.43 5.8 7.07 7.07 0 0 0 -3-5.76 1.37 1.37 0 0 1 -.23-1.92 1.4 1.4 0 0 1 1.94-.29 9.88 9.88 0 0 1 -5.94 17.88z"/><path d="m0 0h36v36h-36z" fill="none"/></svg>