<svg height="36" preserveAspectRatio="xMidYMid meet" viewBox="0 0 36 36" width="36" xmlns="http://www.w3.org/2000/svg"><path d="m32 18c0 7.7-6.2 14-14 14s-14-6.2-14-14c0-7.4 5.7-13.5 13.1-14v3.7c-5.7.5-9.8 5.5-9.3 11.2s5.5 9.8 11.2 9.3c5.3-.5 9.3-4.9 9.3-10.2h-2c0 4.6-3.7 8.3-8.3 8.3s-8.3-3.7-8.3-8.3c0-4.2 3.2-7.8 7.3-8.2v4.4c-2.1.6-3.4 2.7-2.9 4.9.6 2.1 2.7 3.4 4.9 2.9 2.1-.6 3.4-2.7 2.9-4.9-.4-1.4-1.5-2.5-2.9-2.9v-12.2c-.4 0-.7 0-1.1 0-8.8 0-16 7.2-16 16s7.2 16 16 16 16-7.2 16-16z"/><path d="m0 0h36v36h-36z" fill="none"/></svg>