<svg height="36" preserveAspectRatio="xMidYMid meet" viewBox="0 0 36 36" width="36" xmlns="http://www.w3.org/2000/svg"><path d="m32 18c0 7.7-6.3 14-14 14s-14-6.3-14-14c0-7.4 5.7-13.5 13.1-14v3.7c-5.7.5-9.9 5.5-9.4 11.2s5.5 9.9 11.2 9.4c5.3-.5 9.4-4.9 9.4-10.3h-2c0 4.6-3.7 8.3-8.3 8.3s-8.3-3.7-8.3-8.3c0-4.2 3.1-7.8 7.3-8.3v4.4c-1.8.4-3.1 2-3.1 3.9 0 2.2 1.8 4 4 4s4-1.8 4-4c0-1.8-1.3-3.4-3-3.8v-12.1c-.3-.1-.6-.1-.9-.1-8.8 0-16 7.2-16 16s7.2 16 16 16 16-7.2 16-16zm-12 0c0 1.1-.9 2-2 2s-2-.9-2-2 .9-2 2-2 2 .9 2 2z"/><path d="m0 0h36v36h-36z" fill="none"/></svg>