<svg height="36" preserveAspectRatio="xMidYMid meet" viewBox="0 0 36 36" width="36" xmlns="http://www.w3.org/2000/svg"><path d="m6.4 17.4c.2.1.3.1.5.1s.4-.1.5-.1l7-4.1c.3-.2.5-.5.5-.9s-.2-.7-.5-.9l-2.5-1.5 2.1-3.8c.4-.7 1-1.3 1.7-1.7 2-1.1 4.5-.3 5.6 1.7.3.5.9.6 1.4.3h.1c.4-.3.5-.9.3-1.3-.6-1-1.4-1.9-2.4-2.4-3-1.6-6.7-.6-8.3 2.4l-2.8 4.7c-.3.5-.1 1.1.3 1.4l2 1.2-4 2.4v-6.7c0-.6-.4-1-1-1-.5.1-.9.5-.9 1.1v8.3c0 .3.2.6.4.8z"/><path d="m32.1 21-3.5-6.2c-.1-.2-.4-.4-.6-.5-.3-.1-.5 0-.8.1l-2.2 1.3v-4.7l5.5 3.3c.1 0 .1.1.2.1.5.2 1.1 0 1.3-.5s0-1.1-.5-1.3l-7-4.2c-.3-.2-.7-.2-1 0-.4.1-.5.4-.5.8v8.3c0 .4.1.8.4 1s.7.2 1 0l2.9-1.7 3 5.3c.7 1.3.7 2.8 0 4.1-.6 1.2-1.9 1.9-3.2 1.9h-.9c-.5 0-1.2.4-1.2 1 .1.6.6 1 1.2 1h.9c2.1 0 4-1.1 5-2.9 1.1-2 1.1-4.3 0-6.2z"/><path d="m22.4 28.2-7-4.2c-.3-.2-.7-.2-1 0s-.4.5-.4.9v3.3h-4.9c-1.5-.1-2.9-.9-3.6-2.3-.8-1.4-.8-3.2 0-4.6.3-.5.1-1.1-.4-1.4s-1.1-.1-1.4.4c-1.2 2.1-1.1 4.6.1 6.6 1.1 1.9 3.2 3.1 5.4 3.1h5.8c.6 0 1-.4 1-1v-2.4l4 2.4-5.6 3.3c-.3.2-.5.5-.5.9 0 .6.5 1 1 1 .2 0 .3-.1.5-.2l7-4.2c.2-.1.3-.2.4-.4.3-.4.1-1-.4-1.2z"/><path d="m0 0h36v36h-36z" fill="none"/></svg>