<svg height="36" preserveAspectRatio="xMidYMid meet" viewBox="0 0 36 36" width="36" xmlns="http://www.w3.org/2000/svg"><path d="m17.46 26.22a1.4 1.4 0 0 0 1-.42l5.59-5.56a1.43 1.43 0 0 0 .42-1 1.46 1.46 0 0 0 -.42-1l-5.59-5.56a1.43 1.43 0 0 0 -2.44 1v11.11a1.41 1.41 0 0 0 .88 1.32 1.54 1.54 0 0 0 .56.11zm.16-12.16 5.19 5.16-5.19 5.17z"/><path d="m18.06 5h-6.7l2.92-2.64a1 1 0 0 0 -1.34-1.48l-5.62 5.12 5.62 5a1 1 0 0 0 .67.26 1 1 0 0 0 .74-.33 1 1 0 0 0 -.07-1.42l-2.82-2.51h6.6a11.78 11.78 0 1 1 -10.35 17.41 1 1 0 0 0 -1.71.95 13.78 13.78 0 1 0 12.06-20.36z"/><path d="m0 0h36v36h-36z" fill="none"/></svg>