<svg height="36" preserveAspectRatio="xMidYMid meet" viewBox="0 0 36 36" width="36" xmlns="http://www.w3.org/2000/svg"><path d="m29.43 26.34a1.47 1.47 0 0 1 -1.43-1.12l-3.14-12.07-3.12 12.07a1.49 1.49 0 0 1 -1.45 1.12 1.49 1.49 0 0 1 -1.46-1.12l-3.12-12.07-3.11 12.07a1.51 1.51 0 0 1 -2.91 0l-3.12-12.07-1.35 5.22h-3.22a1 1 0 0 1 0-2h1.67l1.45-5.59a1.48 1.48 0 0 1 1.45-1.12 1.47 1.47 0 0 1 1.43 1.12l3.12 12.07 3.12-12.07a1.49 1.49 0 0 1 1.45-1.12 1.49 1.49 0 0 1 1.46 1.12l3.12 12.07 3.12-12.07a1.5 1.5 0 0 1 2.9 0l3.12 12.07 1.35-5.22h3.24a1 1 0 0 1 0 2h-1.67l-1.45 5.59a1.48 1.48 0 0 1 -1.45 1.12z"/><path d="m0 0h36v36h-36z" fill="none"/></svg>