<svg height="36" preserveAspectRatio="xMidYMid meet" viewBox="0 0 36 36" width="36" xmlns="http://www.w3.org/2000/svg"><path d="m17.09 31.58-15.32-12a2 2 0 0 1 0-3.15l15.32-12a1.93 1.93 0 0 1 2.06-.22 1.77 1.77 0 0 1 .85 1.79v6.7l10.83-8.28a1.93 1.93 0 0 1 2.06-.22 2 2 0 0 1 1.11 1.8v24a2 2 0 0 1 -1.11 1.79 1.94 1.94 0 0 1 -2.06-.22l-10.83-8.26v6.69a1.77 1.77 0 0 1 -.85 1.79 1.94 1.94 0 0 1 -2.06-.22zm14.91-1.58.06-24-14.06 10.8v-10.8l-15 12 15 12v-10.8z"/><path d="m0 0h36v36h-36z" fill="none"/></svg>