<svg height="36" preserveAspectRatio="xMidYMid meet" viewBox="0 0 36 36" width="36" xmlns="http://www.w3.org/2000/svg"><path d="m18 14.87 5.11-5.14a1 1 0 1 0 -1.42-1.41l-2.69 2.68v-7.67a1 1 0 0 0 -2 0v7.67l-2.69-2.68a1 1 0 1 0 -1.42 1.41z"/><path d="m18 21.13-5.11 5.14a1 1 0 0 0 1.42 1.41l2.69-2.68v7.69a1 1 0 0 0 2 0v-7.69l2.69 2.71a1 1 0 0 0 1.42-1.41z"/><path d="m28.85 12.89a1 1 0 0 0 -1.41 1.42l2.71 2.69h-7.69a1 1 0 1 0 0 2h7.69l-2.71 2.69a1 1 0 0 0 1.41 1.42l5.15-5.11z"/><path d="m5.85 19h7.69a1 1 0 0 0 0-2h-7.69l2.71-2.69a1 1 0 1 0 -1.41-1.42l-5.15 5.11 5.14 5.11a1 1 0 1 0 1.41-1.42z"/><path d="m0 0h36v36h-36z" fill="none"/></svg>