<svg height="36" preserveAspectRatio="xMidYMid meet" viewBox="0 0 36 36" width="36" xmlns="http://www.w3.org/2000/svg"><path d="m18 2a16 16 0 1 0 16 16 16 16 0 0 0 -16-16zm5.88 9h2.12a1 1 0 0 1 0 2h-1.74v.19a6.09 6.09 0 0 1 -6 6.2h-2l6.82 8.06a1.25 1.25 0 0 1 -1.91 1.62l-8.54-10.13a1.25 1.25 0 0 1 1-2.06h4.71a3.59 3.59 0 0 0 3.48-3.69c0-.07 0-.13 0-.2h-9a1 1 0 0 1 0-2h8.32a3.41 3.41 0 0 0 -2.78-1.5h-5.61a1.25 1.25 0 0 1 0-2.5h13.25a1 1 0 0 1 0 2h-3.32a6.23 6.23 0 0 1 1.2 2.01z"/><path d="m0 0h36v36h-36z" fill="none"/></svg>