<svg height="36" preserveAspectRatio="xMidYMid meet" viewBox="0 0 36 36" width="36" xmlns="http://www.w3.org/2000/svg"><path d="m24.06 18.18 9.61-8.77a1 1 0 0 0 -.09-1.55l-2.24-1.6a3.57 3.57 0 0 0 -4.28.12l-11.18 8.92-3.26-2.52a5.45 5.45 0 1 0 -1 1.77l2.62 2-4.24 3.45a5.48 5.48 0 1 0 1.59 1.29l16.71-13.35a1.57 1.57 0 0 1 1.88-.05l1.23.88-10.31 9.42 10.31 9.4-1.23.88a1.57 1.57 0 0 1 -1.88-.05l-9.81-7.85-1.49 1.36 10.06 8a3.57 3.57 0 0 0 4.29.12l2.24-1.6a1 1 0 0 0 .09-1.55zm-16.61-3.64a3.46 3.46 0 1 1 3.45-3.46 3.46 3.46 0 0 1 -3.45 3.46zm0 13.72a3.46 3.46 0 1 1 3.45-3.46 3.46 3.46 0 0 1 -3.45 3.46z"/><path d="m0 0h36v36h-36z" fill="none"/></svg>