<svg height="36" preserveAspectRatio="xMidYMid meet" viewBox="0 0 36 36" width="36" xmlns="http://www.w3.org/2000/svg"><path d="m34 11.12v-4.54a4.5 4.5 0 0 0 -4.5-4.5h-16a4.5 4.5 0 0 0 -4.5 4.5v23a2.5 2.5 0 1 1 -5 0v-3.58h3.19v-2h-5.19v5.5a4.5 4.5 0 0 0 4.5 4.5h19.08a4.5 4.5 0 0 0 4.5-4.5v-16.37h-2v16.41a2.5 2.5 0 0 1 -2.5 2.5h-15.34a4.47 4.47 0 0 0 .76-2.5v-23a2.5 2.5 0 0 1 5 0v4.54zm-4.5-7a2.5 2.5 0 0 1 2.5 2.46v2.54h-14v-2.54a4.48 4.48 0 0 0 -.76-2.5z"/><path d="m0 0h36v36h-36z" fill="none"/></svg>