<svg height="36" preserveAspectRatio="xMidYMid meet" viewBox="0 0 36 36" width="36" xmlns="http://www.w3.org/2000/svg"><path d="m31.25 7.4a43.79 43.79 0 0 1 -6.62-2.35 45 45 0 0 1 -6.08-3.21l-.55-.34-.54.35a45 45 0 0 1 -6.08 3.21 43.79 43.79 0 0 1 -6.63 2.34l-.75.19v8.34c0 13.39 13.53 18.4 13.66 18.45l.34.12.34-.12c.14 0 13.66-5.05 13.66-18.45v-8.34zm-6.74 14.15a1.4 1.4 0 0 1 -2 2l-4.51-4.55-4.53 4.53a1.43 1.43 0 0 1 -2 0 1.4 1.4 0 0 1 0-2l4.53-4.53-4.53-4.53a1.4 1.4 0 1 1 2-2l4.53 4.53 4.53-4.53a1.4 1.4 0 0 1 2 2l-4.53 4.53z"/><path d="m0 0h36v36h-36z" fill="none"/></svg>