<svg height="36" preserveAspectRatio="xMidYMid meet" viewBox="0 0 36 36" width="36" xmlns="http://www.w3.org/2000/svg"><path d="m31.25 7.4a43.79 43.79 0 0 1 -6.62-2.35 45 45 0 0 1 -6.08-3.21l-.55-.34-.54.35a45 45 0 0 1 -6.08 3.21 43.79 43.79 0 0 1 -6.63 2.34l-.75.19v8.34c0 13.39 13.53 18.4 13.66 18.45l.34.12.34-.12c.14 0 13.66-5.05 13.66-18.45v-8.34zm-1.25 8.53c0 11-10 15.61-12 16.43-2-.82-12-5.44-12-16.43v-6.79a47.54 47.54 0 0 0 6.18-2.25 48.23 48.23 0 0 0 5.82-3 48.23 48.23 0 0 0 5.82 3 47.54 47.54 0 0 0 6.18 2.25z"/><path d="m10.88 16.87a1 1 0 0 0 -1.41 1.41l6 6 10.93-10.51a1 1 0 0 0 -1.4-1.44l-9.47 9.19z"/><path d="m0 0h36v36h-36z" fill="none"/></svg>