<svg height="36" preserveAspectRatio="xMidYMid meet" viewBox="0 0 36 36" width="36" xmlns="http://www.w3.org/2000/svg"><path d="m18.05 33.61a1 1 0 0 1 -1-1v-29.24a1 1 0 1 1 1.95 0v29.26a1 1 0 0 1 -.95.98z"/><path d="m18.06 10.07-3.54-3.53a1 1 0 0 1 0-1.41 1 1 0 0 1 1.41 0l2.13 2.12 2.12-2.12a1 1 0 0 1 1.41 0 1 1 0 0 1 0 1.41z"/><path d="m20.85 31.17a1 1 0 0 1 -.7-.29l-2.15-2.12-2.1 2.12a1 1 0 0 1 -1.41 0 1 1 0 0 1 0-1.42l3.51-3.53 3.54 3.53a1 1 0 0 1 0 1.42 1 1 0 0 1 -.69.29z"/><path d="m30.92 26.5a1 1 0 0 1 -.5-.13l-26-15a1 1 0 0 1 -.35-1.37 1 1 0 0 1 1.37-.36l26 15a1 1 0 0 1 -.5 1.87z"/><path d="m6 15.37a1 1 0 0 1 -.26-2l2.9-.78-.8-2.86a1 1 0 1 1 1.93-.52l1.3 4.79-4.83 1.33a.82.82 0 0 1 -.24.04z"/><path d="m27.05 27.54a1 1 0 0 1 -1-.75l-1.25-4.79 4.82-1.3a1 1 0 1 1 .52 1.93l-2.9.78.78 2.9a1 1 0 0 1 -.71 1.22.75.75 0 0 1 -.26.01z"/><path d="m4.94 26.5a1 1 0 0 1 -.5-1.87l26-15a1 1 0 0 1 1.36.36 1 1 0 0 1 -.36 1.37l-26 15a1 1 0 0 1 -.5.14z"/><path d="m8.81 27.54a.75.75 0 0 1 -.26 0 1 1 0 0 1 -.71-1.22l.78-2.9-2.9-.78a1 1 0 0 1 -.72-1.26 1 1 0 0 1 1.23-.71l4.84 1.33-1.3 4.82a1 1 0 0 1 -.96.72z"/><path d="m29.88 15.37a.82.82 0 0 1 -.26 0l-4.82-1.37 1.29-4.83a1 1 0 1 1 1.91.56l-.78 2.89 2.9.78a1 1 0 0 1 -.26 2z"/><path d="m0 0h36v36h-36z" fill="none"/></svg>