<svg height="36" preserveAspectRatio="xMidYMid meet" viewBox="0 0 36 36" width="36" xmlns="http://www.w3.org/2000/svg"><path d="m32 6h-28a2 2 0 0 0 -2 2v20a2 2 0 0 0 2 2h28a2 2 0 0 0 2-2v-20a2 2 0 0 0 -2-2zm-26.79 2a1.25 1.25 0 1 1 -1.21 1.25 1.25 1.25 0 0 1 1.21-1.25zm0 20a1.25 1.25 0 1 1 1.25-1.25 1.25 1.25 0 0 1 -1.25 1.25zm5.06-5.78a5 5 0 0 1 -3.52-1.34l.86-1.06a4 4 0 0 0 2.71 1.11c1 0 1.55-.5 1.55-1.09s-.59-.91-1.91-1.22c-1.7-.4-2.89-.89-2.89-2.44s1.22-2.49 3-2.49a4.58 4.58 0 0 1 3.12 1.15l-.81 1.1a3.68 3.68 0 0 0 -2.38-.94 1.25 1.25 0 0 0 -1.39 1.08c0 .67.61.91 1.92 1.21 1.72.39 2.87.94 2.87 2.44s-1.16 2.49-3.13 2.49zm7.51 0a5 5 0 0 1 -3.52-1.34l.86-1.06a4 4 0 0 0 2.71 1.11c1 0 1.55-.5 1.55-1.09s-.59-.91-1.91-1.22c-1.7-.4-2.89-.89-2.89-2.44s1.23-2.49 3-2.49a4.56 4.56 0 0 1 3.12 1.15l-.81 1.1a3.68 3.68 0 0 0 -2.37-1 1.25 1.25 0 0 0 -1.39 1.08c0 .67.61.91 1.92 1.21 1.72.39 2.87.94 2.87 2.44s-1.17 2.55-3.14 2.55zm4.58-.14v-8.24h2.9c2.72 0 4.64 1.71 4.64 4.12s-1.9 4.12-4.64 4.12zm8.33 5.92a1.25 1.25 0 1 1 1.25-1.25 1.25 1.25 0 0 1 -1.25 1.25zm0-17.5a1.25 1.25 0 1 1 1.25-1.25 1.25 1.25 0 0 1 -1.25 1.25z"/><path d="m23.86 15.2h1.56a2.77 2.77 0 1 1 0 5.53h-1.56z"/><path d="m0 0h36v36h-36z" fill="none"/></svg>