<svg height="36" preserveAspectRatio="xMidYMid meet" viewBox="0 0 36 36" width="36" xmlns="http://www.w3.org/2000/svg"><path d="m32.88 19.92h-30a1 1 0 1 1 0-2h30a1 1 0 0 1 0 2z"/><path d="m7.27 15.86a12.9 12.9 0 0 1 1.29-.52 5.69 5.69 0 0 1 1.83-.34 3.18 3.18 0 0 1 2.75 1.11 4.44 4.44 0 0 1 .86 2.74v.49a13.83 13.83 0 0 0 -4.29-.74 6.19 6.19 0 0 0 -2.59.54 5 5 0 0 0 -1.31.86h10.07v-1.15a5.67 5.67 0 0 0 -1.37-4 5.16 5.16 0 0 0 -4-1.49 10 10 0 0 0 -3.91.88.87.87 0 0 0 -.44 1.18.84.84 0 0 0 1.11.44z"/><path d="m21 20a5.94 5.94 0 0 1 .54-2.31 4.35 4.35 0 0 1 1.58-1.83 4.27 4.27 0 0 1 4.59 0 4.47 4.47 0 0 1 1.57 1.83 6.12 6.12 0 0 1 .57 2.31h2a7.73 7.73 0 0 0 -.78-3.19 6 6 0 0 0 -2.18-2.45 5.74 5.74 0 0 0 -3.1-.88 5.39 5.39 0 0 0 -2.8.73 5.55 5.55 0 0 0 -2 2.05v-6.26a.87.87 0 0 0 -.86-.86h-.13a.87.87 0 0 0 -.86.86v10z"/><path d="m29.67 22a5.61 5.61 0 0 1 -.36 1.07 4.47 4.47 0 0 1 -1.57 1.85 4.32 4.32 0 0 1 -4.59 0 4.35 4.35 0 0 1 -1.58-1.85 5.64 5.64 0 0 1 -.37-1.07h-2.11v4.13a.87.87 0 0 0 .91.87h.2a.87.87 0 0 0 .86-.86v-1.63a5.58 5.58 0 0 0 2 2.06 5.48 5.48 0 0 0 2.8.72 5.66 5.66 0 0 0 3.1-.88 5.88 5.88 0 0 0 2.13-2.41 7.09 7.09 0 0 0 .64-2z"/><path d="m14 22v.76a3.34 3.34 0 0 1 -1.62 2 5.34 5.34 0 0 1 -2.69.72 3.78 3.78 0 0 1 -2.36-.7 2.24 2.24 0 0 1 -.94-1.9 2.29 2.29 0 0 1 .2-.91h-1.97a4 4 0 0 0 -.13 1 3.83 3.83 0 0 0 1.35 3.06 5.15 5.15 0 0 0 3.47 1.17 6 6 0 0 0 2.69-.63 4.62 4.62 0 0 0 2-1.74v1.17a.86.86 0 0 0 .86.86h.14a.86.86 0 0 0 .86-.86v-4z"/><path d="m0 0h36v36h-36z" fill="none"/></svg>