<svg height="36" preserveAspectRatio="xMidYMid meet" viewBox="0 0 36 36" width="36" xmlns="http://www.w3.org/2000/svg"><path d="m14.43 18 6.79 8.6a1.17 1.17 0 0 1 -.92 1.9 1.17 1.17 0 0 1 -.92-.44l-6.44-8.13-6.47 8.07a1.17 1.17 0 0 1 -.92.44 1.17 1.17 0 0 1 -.92-1.9l6.8-8.54-6.8-8.6a1.17 1.17 0 0 1 .92-1.9 1.2 1.2 0 0 1 .96.5l6.43 8.13 6.44-8.13a1.17 1.17 0 0 1 .92-.44 1.17 1.17 0 0 1 .92 1.9z"/><path d="m22.85 14.47 4.51-3.85a9.37 9.37 0 0 0 1.88-2 3.43 3.43 0 0 0 .59-1.86 2.27 2.27 0 0 0 -.36-1.27 2.38 2.38 0 0 0 -.95-.83 2.77 2.77 0 0 0 -1.26-.29 3.39 3.39 0 0 0 -1.83.5 5.83 5.83 0 0 0 -1.49 1.42l-1-.81a5.12 5.12 0 0 1 4.36-2.37 4.36 4.36 0 0 1 2 .45 3.47 3.47 0 0 1 2 3.18 4.44 4.44 0 0 1 -.72 2.26 11.14 11.14 0 0 1 -2.24 2.46l-3.24 2.85h6.28v1.33h-8.53z"/><path d="m0 0h36v36h-36z" fill="none"/></svg>