<svg height="36" preserveAspectRatio="xMidYMid meet" viewBox="0 0 36 36" width="36" xmlns="http://www.w3.org/2000/svg"><path d="m23 26a1 1 0 0 1 -1 1h-14c-.22 0-.43.2-.61.33l-3.39 2.67v-16a1 1 0 0 1 1-1h3.86v-2h-3.86a3 3 0 0 0 -3 3v18a1 1 0 0 0 .56.89 1 1 0 0 0 1-.1l5.15-3.79h13.44a2.77 2.77 0 0 0 2.85-2.87v-1.13h-2z"/><path d="m31 4h-17a3 3 0 0 0 -3 3v12a3 3 0 0 0 3 3h13.55l4.78 3.71a1 1 0 0 0 1 .11 1 1 0 0 0 .57-.9v-17.92a3 3 0 0 0 -2.9-3zm1 18.94-3.5-2.73a1 1 0 0 0 -.61-.21h-13.89a1 1 0 0 1 -1-1v-12a1 1 0 0 1 1-1h17a1.1 1.1 0 0 1 1 1.06z"/><path d="m0 0h36v36h-36z" fill="none"/></svg>