<svg height="36" viewBox="0 0 36 36" width="36" xmlns="http://www.w3.org/2000/svg"><path d="m32 6h-28a2 2 0 0 0 -2 2v20a2 2 0 0 0 2 2h28a2 2 0 0 0 2-2v-20a2 2 0 0 0 -2-2zm-28 22v-20h28v20z"/><path d="m13.33 13.35a4.52 4.52 0 1 0 4.53 4.52 4.53 4.53 0 0 0 -4.53-4.52zm0 7.44a2.92 2.92 0 1 1 2.93-2.92 2.92 2.92 0 0 1 -2.93 2.92z"/><path d="m23.62 13.35a4.52 4.52 0 1 0 4.52 4.52 4.53 4.53 0 0 0 -4.52-4.52zm0 7.44a2.92 2.92 0 1 1 2.92-2.92 2.92 2.92 0 0 1 -2.92 2.92z"/><path d="m6 11v12.55h2v-11.55h21.34v-2h-22.34a1 1 0 0 0 -1 1z"/></svg>