<svg height="36" preserveAspectRatio="xMidYMid meet" viewBox="0 0 36 36" width="36" xmlns="http://www.w3.org/2000/svg"><path d="m18 2a16 16 0 1 0 16 16 16 16 0 0 0 -16-16zm0 30a14 14 0 1 1 14-14 14 14 0 0 1 -14 14z"/><path d="m18 7.2a10.8 10.8 0 1 0 10.8 10.8 10.81 10.81 0 0 0 -10.8-10.8zm0 20a9.2 9.2 0 1 1 9.2-9.2 9.21 9.21 0 0 1 -9.2 9.2z"/><path d="m18 12.31a5.69 5.69 0 1 0 5.69 5.69 5.69 5.69 0 0 0 -5.69-5.69zm0 9.77a4.09 4.09 0 1 1 4.09-4.08 4.09 4.09 0 0 1 -4.09 4.09z"/><path d="m0 0h36v36h-36z" fill="none"/></svg>