<svg height="36" preserveAspectRatio="xMidYMid meet" viewBox="0 0 36 36" width="36" xmlns="http://www.w3.org/2000/svg"><path d="m29.29 4.95h-7.2a4.31 4.31 0 0 0 -8.17 0h-6.92a1.75 1.75 0 0 0 -2 1.69v25.62a1.7 1.7 0 0 0 1.71 1.69h22.58a1.7 1.7 0 0 0 1.71-1.69v-25.62a1.7 1.7 0 0 0 -1.71-1.69zm-18 3a1 1 0 0 1 1-1h3.44v-.63a2.31 2.31 0 0 1 4.63 0v.68h3.44a1 1 0 0 1 1 1v1.8h-13.55zm14.52 9.23-9.12 9.12-5.24-5.24a1.4 1.4 0 0 1 2-2l3.26 3.26 7.14-7.14a1.4 1.4 0 1 1 2 2z"/><path d="m0 0h36v36h-36z" fill="none"/></svg>