<svg height="36" preserveAspectRatio="xMidYMid meet" viewBox="0 0 36 36" width="36" xmlns="http://www.w3.org/2000/svg"><path d="m29.29 34h-22.58a1.7 1.7 0 0 1 -1.71-1.69v-25.62a1.75 1.75 0 0 1 2-1.69h2v2h-2v25h22v-25h-2v-2h2.25a1.7 1.7 0 0 1 1.75 1.69v25.62a1.7 1.7 0 0 1 -1.71 1.69z"/><path d="m16.66 25.76-5.36-5.36a1 1 0 0 1 1.42-1.4l3.94 3.94 8.64-8.64a1 1 0 0 1 1.41 1.41z"/><path d="m26 11h-16v-3.67a2.34 2.34 0 0 1 2.33-2.33h1.79a4 4 0 0 1 7.75 0h1.79a2.34 2.34 0 0 1 2.34 2.33zm-14-2h12v-1.67a.33.33 0 0 0 -.33-.33h-3.67v-1a2 2 0 0 0 -4 0v1h-3.67a.33.33 0 0 0 -.33.33z"/><path d="m0 0h36v36h-36z" fill="none"/></svg>