<svg height="36" preserveAspectRatio="xMidYMid meet" viewBox="0 0 36 36" width="36" xmlns="http://www.w3.org/2000/svg"><path d="m15 32h-12a1 1 0 0 0 0 2h12a1 1 0 0 0 0-2z"/><path d="m5 30h8a1 1 0 0 0 1-1v-25a2 2 0 0 0 -2-2h-6a2 2 0 0 0 -2 2v25a1 1 0 0 0 1 1zm4-24.08a1.5 1.5 0 1 1 -1.5 1.5 1.5 1.5 0 0 1 1.5-1.5zm-3 6.28h5.84v1.6h-5.84zm0 3h5.84v1.6h-5.84zm0 3h6v1.6h-6z"/><path d="m16 8h2v1.6h-2z"/><path d="m20 8h2v1.6h-2z"/><path d="m33 4.2h-8a.8.8 0 0 0 -.8.8v6a.8.8 0 0 0 .8.8h8a.8.8 0 0 0 .8-.8v-6a.8.8 0 0 0 -.8-.8zm-.8 6h-6.4v-4.4h6.4z"/><path d="m16 20h2v1.6h-2z"/><path d="m20 20h2v1.6h-2z"/><path d="m33 16.2h-8a.8.8 0 0 0 -.8.8v6a.8.8 0 0 0 .8.8h8a.8.8 0 0 0 .8-.8v-6a.8.8 0 0 0 -.8-.8zm-.8 6h-6.4v-4.4h6.4z"/><path d="m0 0h36v36h-36z" fill="none"/></svg>