<svg height="36" preserveAspectRatio="xMidYMid meet" viewBox="0 0 36 36" width="36" xmlns="http://www.w3.org/2000/svg"><path d="m24 26c-2.92 1.82-7.3 4-9.37 4h-6a16.68 16.68 0 0 1 -3.31-6.08 26.71 26.71 0 0 1 -1.32-7.92h9v-10a2.05 2.05 0 0 1 1.26-1.69c.77 2 2.62 6.57 4.23 8.72a11.39 11.39 0 0 0 5.51 3.88v-2.13a9.13 9.13 0 0 1 -3.91-3c-1.88-2.51-4.29-9.11-4.31-9.17a1 1 0 0 0 -1.19-.61c-1.34.38-3.59 1.6-3.59 4v8h-8a1 1 0 0 0 -1 1 29 29 0 0 0 1.4 9.62c1.89 5.4 4.1 7.14 4.2 7.22a1 1 0 0 0 .61.21h6.42c2.43 0 6.55-2 9.37-3.63z"/><path d="m34 31h-7a1 1 0 0 1 -1-1v-16a1 1 0 0 1 1-1h7zm-6-2h4v-14h-4z"/><path d="m0 0h36v36h-36z" fill="none"/></svg>