<svg height="36" preserveAspectRatio="xMidYMid meet" viewBox="0 0 36 36" width="36" xmlns="http://www.w3.org/2000/svg"><path d="m20 14h-4a1 1 0 0 0 -1 1v6a1 1 0 0 0 1 1h4a1 1 0 0 0 1-1v-6a1 1 0 0 0 -1-1zm-.4 6.6h-3.2v-5.2h3.2z"/><path d="m33.71 12.38-4.09-4.09a1 1 0 0 0 -.7-.29h-5v-1.95a2 2 0 0 0 -1.92-2.05h-8.16a1.92 1.92 0 0 0 -1.84 2.05v1.95h-4.92a1 1 0 0 0 -.71.29l-4.08 4.09a1 1 0 0 0 -.29.71v14.91a2 2 0 0 0 2 2h28a2 2 0 0 0 2-2v-14.92a1 1 0 0 0 -.29-.7zm-19.71-6.38h8v2h-8zm18 11h-10v1.93h10v9.07h-28v-9.07h10v-1.93h-10v-3.5l3.5-3.5h21l3.5 3.5z"/><path d="m0 0h36v36h-36z" fill="none"/></svg>