<svg height="36" preserveAspectRatio="xMidYMid meet" viewBox="0 0 36 36" width="36" xmlns="http://www.w3.org/2000/svg"><path d="m27.14 34h-18.28a2.93 2.93 0 0 1 -2.86-3v-19.77h2v19.77a.93.93 0 0 0 .86 1h18.28a.93.93 0 0 0 .86-1v-19.77h2v19.77a2.93 2.93 0 0 1 -2.86 3z"/><path d="m30.78 9h-25.78a1 1 0 0 1 0-2h25.78a1 1 0 0 1 0 2z"/><path d="m21 13h2v15h-2z"/><path d="m13 13h2v15h-2z"/><path d="m23 5.86h-1.9v-1.86h-6.2v1.86h-1.9v-1.86a2 2 0 0 1 1.9-2h6.2a2 2 0 0 1 1.9 2z"/><path d="m0 0h36v36h-36z" fill="none"/></svg>