<svg height="36" preserveAspectRatio="xMidYMid meet" viewBox="0 0 36 36" width="36" xmlns="http://www.w3.org/2000/svg"><path d="m30.6 11.7c-1.4-5.9-6.6-10-12.6-10-7.2 0-13 5.8-13 13 0 6.8 5.3 12.4 12 12.9v5c0 .6.4 1 1 1s1-.4 1-1v-5-2-3.6s0 0 0-.1v-3.6l4.7-4.7c.4-.4.4-1 0-1.4s-1-.4-1.4 0l-3.3 3.4v-3l-3.3-3.3c-.4-.4-1-.4-1.4 0s-.4 1 0 1.4l2.7 2.7v6.2l-3.8-3.8c-.4-.4-1-.4-1.4 0s-.4 1 0 1.4l5.2 5.2v3.2c-5.6-.5-10-5.2-10-10.9 0-6.1 4.9-11 11-11s11 4.9 11 11c0 4.9-3.3 9.2-8 10.6v2.1c7-1.7 11.3-8.7 9.6-15.7z"/><path d="m0 0h36v36h-36z" fill="none"/></svg>