<svg height="36" preserveAspectRatio="xMidYMid meet" viewBox="0 0 36 36" width="36" xmlns="http://www.w3.org/2000/svg"><path d="m29 32h-22v-10h-2v10a2 2 0 0 0 2 2h22a2 2 0 0 0 2-2v-10h-2z"/><path d="m14 24a1 1 0 0 0 1 1h6a1 1 0 0 0 0-2h-6a1 1 0 0 0 -1 1z"/><path d="m15 18h-9v-4h9v-2h-9.5a1.5 1.5 0 0 0 -1.5 1.5v6.5h11.78a3 3 0 0 1 -.78-2z"/><path d="m30.5 12h-9.5v2h9v4h-9a3 3 0 0 1 -.78 2h11.78v-6.5a1.5 1.5 0 0 0 -1.5-1.5z"/><path d="m13 9.55 4-3.95v12.4a1 1 0 1 0 2 0v-12.4l4 3.95a1 1 0 1 0 1.41-1.42l-6.41-6.35-6.39 6.35a1 1 0 0 0 1.39 1.42z"/><path d="m0 0h36v36h-36z" fill="none"/></svg>