<svg height="36" preserveAspectRatio="xMidYMid meet" viewBox="0 0 36 36" width="36" xmlns="http://www.w3.org/2000/svg"><path d="m5 5-1.41 1.41 9 9-4.49 4.38a5.91 5.91 0 0 0 0 8.39 6 6 0 0 0 8.44 0l4.46-4.4 8.63 8.63 1.37-1.41zm10.13 21.76a4 4 0 0 1 -5.62 0 3.92 3.92 0 0 1 0-5.55l4.49-4.42 5.58 5.58z"/><path d="m21.53 9.22a4 4 0 0 1 5.62 0 3.92 3.92 0 0 1 0 5.55l-4.79 4.76 1.42 1.47 4.79-4.76a5.92 5.92 0 0 0 0-8.39 6 6 0 0 0 -8.44 0l-4.76 4.74 1.41 1.41z"/><path d="m0 0h36v36h-36z" fill="none"/></svg>