<svg height="36" preserveAspectRatio="xMidYMid meet" viewBox="0 0 36 36" width="36" xmlns="http://www.w3.org/2000/svg"><path d="m32.12 10h-28.24a1.88 1.88 0 0 0 -1.88 1.88v18.24a1.88 1.88 0 0 0 1.88 1.88h28.24a1.88 1.88 0 0 0 1.88-1.88v-18.24a1.88 1.88 0 0 0 -1.88-1.88zm-.12 20h-28v-18h28z"/><path d="m30.14 3a1 1 0 0 0 -1-1h-22a1 1 0 0 0 -1 1v1h24z"/><path d="m32.12 7a1 1 0 0 0 -1-1h-26a1 1 0 0 0 -1 1v1h28z"/><path d="m12.82 26.79a1.74 1.74 0 0 0 .93.28 1.68 1.68 0 0 0 .69-.15l9.77-4.36a1.69 1.69 0 0 0 0-3.1l-9.77-4.36a1.7 1.7 0 0 0 -2.39 1.55v8.72a1.7 1.7 0 0 0 .77 1.42zm.63-10.14a.29.29 0 0 1 .14-.25.3.3 0 0 1 .16 0 .27.27 0 0 1 .12 0l9.77 4.35a.29.29 0 0 1 .18.28.28.28 0 0 1 -.18.27l-9.77 4.36a.28.28 0 0 1 -.28 0 .31.31 0 0 1 -.14-.25z"/><path d="m0 0h36v36h-36z" fill="none"/></svg>