<svg height="36" preserveAspectRatio="xMidYMid meet" viewBox="0 0 36 36" width="36" xmlns="http://www.w3.org/2000/svg"><path d="m23.41 25.25a1 1 0 0 1 -.54-1.85 6.21 6.21 0 0 0 -.19-10.65 1 1 0 1 1 1-1.73 8.21 8.21 0 0 1 .24 14.06 1 1 0 0 1 -.51.17z"/><path d="m25.62 31.18a1 1 0 0 1 -.45-1.89 12.44 12.44 0 0 0 -.17-22.4 1 1 0 1 1 .87-1.8 14.44 14.44 0 0 1 .24 26 1 1 0 0 1 -.49.09z"/><path d="m18 32.06a2 2 0 0 1 -1.42-.59l-7.44-7.47h-5.14a2 2 0 0 1 -2-2v-8a2 2 0 0 1 2-2h5.22l7.33-7.39a2 2 0 0 1 3.45 1.39v24a2 2 0 0 1 -1.24 1.85 2 2 0 0 1 -.76.21zm-14-18.06v8h5.56a1 1 0 0 1 .71.3l7.73 7.76v-24.06l-7.65 7.7a1 1 0 0 1 -.71.3z"/><path d="m0 0h36v36h-36z" fill="none"/></svg>