<svg height="36" preserveAspectRatio="xMidYMid meet" viewBox="0 0 36 36" width="36" xmlns="http://www.w3.org/2000/svg"><path d="m23.41 25.11a1 1 0 0 1 -.54-1.85 6.21 6.21 0 0 0 -.19-10.65 1 1 0 1 1 1-1.73 8.21 8.21 0 0 1 .26 14.12 1 1 0 0 1 -.53.11z"/><path d="m18 32a2 2 0 0 1 -1.42-.59l-7.44-7.41h-5.14a2 2 0 0 1 -2-2v-8a2 2 0 0 1 2-2h5.22l7.33-7.41a2 2 0 0 1 3.45 1.41v24a2 2 0 0 1 -1.24 1.85 2 2 0 0 1 -.76.15zm-14-18v8h5.56a1 1 0 0 1 .71.28l7.73 7.72v-24l-7.65 7.68a1 1 0 0 1 -.71.3z"/><path d="m0 0h36v36h-36z" fill="none"/></svg>