<svg height="36" preserveAspectRatio="xMidYMid meet" viewBox="0 0 36 36" width="36" xmlns="http://www.w3.org/2000/svg"><path d="m25.88 32h-13.88a4 4 0 0 1 -4-4v-16.54l-5.69-5.69a1 1 0 0 1 -.22-1.09 1 1 0 0 1 .91-.62h25.86a1 1 0 0 1 1 1v22.94a4 4 0 0 1 -3.98 4zm-20.45-26 4.28 4.34a.75.75 0 0 1 .21.63v17a2.13 2.13 0 0 0 2.08 2.03h13.88a2.1 2.1 0 0 0 2.12-2v-22z"/><path d="m33 16a1 1 0 0 1 -1-1v-9h-3.14a.92.92 0 0 1 -1-.9 1 1 0 0 1 1-1h4.14a1 1 0 0 1 1 1v9.9a1 1 0 0 1 -1 1z"/><path d="m24 11h-6a1 1 0 1 1 0-2h6a1 1 0 1 1 0 2z"/><path d="m24 15h-3a1 1 0 1 1 0-2h3a1 1 0 1 1 0 2z"/><path d="m24 19h-6a1 1 0 1 1 0-2h6a1 1 0 1 1 0 2z"/><path d="m24 27h-6a1 1 0 1 1 0-2h6a1 1 0 1 1 0 2z"/><path d="m24 23h-3a1 1 0 1 1 0-2h3a1 1 0 1 1 0 2z"/><path d="m0 0h36v36h-36z" fill="none"/></svg>