<svg height="36" preserveAspectRatio="xMidYMid meet" viewBox="0 0 36 36" width="36" xmlns="http://www.w3.org/2000/svg"><path d="m33.55 8.2a28.1 28.1 0 0 0 -31.11.08 1 1 0 1 0 1.12 1.66 26.11 26.11 0 0 1 28.89-.07 1 1 0 0 0 1.1-1.67z"/><path d="m18.05 10.72a20.74 20.74 0 0 0 -11.82 3.68 1 1 0 0 0 1.13 1.6 18.85 18.85 0 0 1 21.28 0 1 1 0 0 0 1.12-1.65 20.75 20.75 0 0 0 -11.71-3.63z"/><path d="m18.05 17.9a13.51 13.51 0 0 0 -8 2.64 1 1 0 0 0 1.18 1.61 11.56 11.56 0 0 1 13.62-.08 1 1 0 1 0 1.15-1.61 13.52 13.52 0 0 0 -7.95-2.56z"/><path d="m18 24.42a4 4 0 1 0 4 4 4 4 0 0 0 -4-4zm0 6a2 2 0 1 1 2-2 2 2 0 0 1 -2 2z"/><path d="m0 0h36v36h-36z" fill="none"/></svg>