<svg height="36" preserveAspectRatio="xMidYMid meet" viewBox="0 0 36 36" width="36" xmlns="http://www.w3.org/2000/svg"><path d="m17.74 16-.52 2h1.63l-.53-2z"/><path d="m11.94 18h2.69l.53-2h-3.75z"/><path d="m13.29 23.1.81-3.1h-1.63z"/><path d="m21.44 18h2.69l.53-2h-3.75z"/><path d="m22.78 23.1.82-3.1h-1.63z"/><path d="m18 2a16 16 0 1 0 16 16 16 16 0 0 0 -16-16zm11 18h-2.81l-2.19 8.32a1.25 1.25 0 0 1 -2.42 0l-2.2-8.32h-2.69l-2.19 8.32a1.25 1.25 0 0 1 -2.42 0l-2.2-8.32h-2.88a1 1 0 0 1 0-2h2.35l-.53-2h-1.82a1 1 0 0 1 0-2h1.3l-1-3.68a1.25 1.25 0 0 1 2.42-.64l1.16 4.32h4.8l1.14-4.32a1.25 1.25 0 0 1 2.42 0l1.14 4.32h4.8l1.14-4.32a1.25 1.25 0 0 1 2.42.64l-1 3.68h1.26a1 1 0 0 1 0 2h-1.76l-.53 2h2.29a1 1 0 0 1 0 2z"/><path d="m0 0h36v36h-36z" fill="none"/></svg>