<svg height="36" preserveAspectRatio="xMidYMid meet" viewBox="0 0 36 36" width="36" xmlns="http://www.w3.org/2000/svg"><path d="m10.05 18a20.46 20.46 0 0 0 .62 4.93h6.48v-9.48h-6.57a20.55 20.55 0 0 0 -.53 4.55z"/><path d="m18.85 13.45v9.48h6.48a20.46 20.46 0 0 0 .67-4.93 20.55 20.55 0 0 0 -.52-4.55z"/><path d="m18 2a16 16 0 1 0 16 16 16 16 0 0 0 -16-16zm12.22 22.71h-3.62a21.8 21.8 0 0 1 -3 6 13.86 13.86 0 0 1 -3 .92 20.21 20.21 0 0 0 4.18-6.94h-5.92v7.15c-.29 0-.57 0-.86 0s-.55 0-.83 0v-7.13h-5.95a20.21 20.21 0 0 0 4.18 6.95 13.86 13.86 0 0 1 -2.94-.9 21.8 21.8 0 0 1 -3-6.05h-3.68a13.94 13.94 0 0 1 -.83-1.81h4a22.2 22.2 0 0 1 -.58-4.9 21.88 21.88 0 0 1 .48-4.55h-4.09a13.88 13.88 0 0 1 .76-1.81h3.81a22.26 22.26 0 0 1 3.28-6.64 13.86 13.86 0 0 1 2.87-.84 20.13 20.13 0 0 0 -4.4 7.45h6.09v-7.61h.83s.58 0 .86 0v7.64h6.09a20.13 20.13 0 0 0 -4.39-7.44 13.89 13.89 0 0 1 2.87.8 22.26 22.26 0 0 1 3.27 6.59h3.77a13.89 13.89 0 0 1 .76 1.81h-4.06a21.88 21.88 0 0 1 .49 4.6 22.2 22.2 0 0 1 -.57 4.93h4a13.94 13.94 0 0 1 -.87 1.78z"/><path d="m0 0h36v36h-36z" fill="none"/></svg>