<svg height="36" preserveAspectRatio="xMidYMid meet" viewBox="0 0 36 36" width="36" xmlns="http://www.w3.org/2000/svg"><path d="m33.18 26.11-12.83-12.83a9.28 9.28 0 0 0 -12.81-10.49l-1.34.59 5.38 5.38-2.82 2.83-5.38-5.38-.59 1.33a9.27 9.27 0 0 0 10.49 12.81l12.83 12.83a2 2 0 0 0 2.83 0l4.24-4.24a2 2 0 0 0 0-2.83zm-5.66 5.66-13.64-13.65-.57.16a7.27 7.27 0 0 1 -9.31-7 7.2 7.2 0 0 1 .15-1.48l4.61 4.61 5.66-5.66-4.61-4.6a7.27 7.27 0 0 1 8.47 9.16l-.16.57 13.65 13.65z"/><circle cx="27.13" cy="27.09" r="1.3" transform="matrix(.70710678 -.70710678 .70710678 .70710678 -11.21 27.12)"/><path d="m0 0h36v36h-36z" fill="none"/></svg>