<svg height="890.65" width="1001.13" xmlns="http://www.w3.org/2000/svg"><circle cx="504.59" cy="444.48" fill="#00d8ff" r="89.57"/><g fill="none" stroke="#00d8ff" stroke-miterlimit="10" stroke-width="24"><path d="m504.59 262.37c120.25 0 232 17.26 316.2 46.26 101.49 34.94 163.88 87.9 163.88 135.85 0 50-66.13 106.24-175.11 142.35-82.4 27.3-190.82 41.55-305 41.55-117 0-227.87-13.38-311.18-41.85-105.42-36-168.91-93-168.91-142 0-47.57 59.57-100.11 159.64-135 84.57-29.53 199.05-47.16 320.48-47.16z"/><path d="m346.06 354c60.07-104.17 130.83-192.32 198-250.81 81-70.46 158-98 199.56-74.1 43.29 25 59 110.36 35.83 222.81-17.52 85-59.34 186-116.37 284.95-58.44 101.33-125.39 190.66-191.68 248.6-83.87 73.32-165 99.85-207.43 75.37-41.2-23.77-57-101.63-37.2-205.74 16.71-87.97 58.62-195.93 119.29-301.08z"/><path d="m346.21 537.06c-60.21-104.06-101.29-209.4-118.39-296.83-20.61-105.33-6-185.87 35.46-209.9 43.25-25 125.08 4 210.93 80.24 64.91 57.63 131.56 144.32 188.79 243.12 58.6 101.31 102.55 203.9 119.65 290.31 21.63 109.29 4.12 192.79-38.31 217.35-41.16 23.83-116.49-1.4-196.81-70.52-67.87-58.44-140.48-148.68-201.32-253.77z"/></g></svg>