<?xml version="1.0" encoding="iso-8859-1"?>
<!-- Generator: Adobe Illustrator 18.1.1, SVG Export Plug-In . SVG Version: 6.00 Build 0)  -->
<svg version="1.1" id="Layer_1" xmlns="http://www.w3.org/2000/svg" xmlns:xlink="http://www.w3.org/1999/xlink" x="0px" y="0px"
	 width="230px" height="86px" viewBox="0 0 230 86" style="enable-background:new 0 0 230 86;" xml:space="preserve">
<g>
	<g>
		<path style="fill:#b2b2b2;" d="M104.5,75.6V48.9L93.6,69.5h-1.7L80.9,48.9v26.6H78V43.1h3l11.7,22.2l11.7-22.2h3v32.4H104.5z"/>
		<path style="fill:#b2b2b2;" d="M114.6,75.6L127,43.1h2.4l12.5,32.4h-3.1l-3.9-10.1h-13.4l-3.8,10.1H114.6z M128.3,46.9l-6.1,16
			h12.1L128.3,46.9z"/>
		<path style="fill:#b2b2b2;" d="M149,75.6V43.1h2.9v29.6h17.3v2.8H149z"/>
		<path style="fill:#b2b2b2;" d="M176.6,75.6V43.1h2.9v29.6h17.3v2.8H176.6z"/>
		<path style="fill:#b2b2b2;" d="M221.5,49.2c-0.8-1-2-1.9-3.4-2.5s-3-1-4.8-1c-2.7,0-4.6,0.5-5.8,1.6c-1.2,1.1-1.8,2.6-1.8,4.4
			c0,1,0.2,1.8,0.5,2.4c0.3,0.6,0.8,1.2,1.5,1.6c0.7,0.5,1.6,0.9,2.6,1.2s2.3,0.7,3.7,1c1.6,0.4,3,0.8,4.3,1.2
			c1.3,0.4,2.3,1,3.2,1.7c0.9,0.7,1.6,1.5,2.1,2.5c0.5,1,0.7,2.2,0.7,3.7c0,1.5-0.3,2.8-0.8,3.9c-0.5,1.1-1.3,2-2.2,2.7
			c-1,0.7-2.1,1.3-3.4,1.6c-1.3,0.4-2.7,0.5-4.3,0.5c-4.7,0-8.7-1.6-12-4.7l1.4-2.6c1.1,1.2,2.6,2.3,4.4,3.2s3.9,1.3,6.2,1.3
			c2.4,0,4.2-0.5,5.6-1.4s2-2.3,2-4.2c0-1-0.2-1.9-0.6-2.5c-0.4-0.7-0.9-1.3-1.7-1.8c-0.8-0.5-1.7-0.9-2.8-1.3s-2.4-0.7-3.9-1.1
			c-1.6-0.4-2.9-0.8-4.1-1.2s-2.2-1-3-1.6c-0.8-0.6-1.4-1.4-1.8-2.3c-0.4-0.9-0.6-2-0.6-3.3c0-1.5,0.3-2.8,0.8-4
			c0.5-1.2,1.2-2.1,2.2-2.9c0.9-0.8,2.1-1.4,3.4-1.8s2.7-0.6,4.3-0.6c2,0,3.7,0.3,5.3,1c1.6,0.7,3,1.6,4.2,2.8L221.5,49.2z"/>
	</g>
	<g>
		<path style="fill:#7A7A7A;" d="M11.9,30.5l-3.1,7H3.3L16.8,6.8h5.5l13.5,30.7h-5.5l-3.1-7H11.9z M25.1,25.7l-5.6-12.6L14,25.7
			H25.1z"/>
		<path style="fill:#7A7A7A;" d="M65.5,6.8h5.2v30.7h-5.6L47.7,15.1v22.4h-5.2V6.8h5.2l17.8,22.9V6.8z"/>
		<path style="fill:#7A7A7A;" d="M93.2,11.5v25.9h-5.2V11.5h-9.3V6.8h23.8v4.7H93.2z"/>
		<path style="fill:#7A7A7A;" d="M110.6,6.8h5.2v30.7h-5.2V6.8z"/>
		<path style="fill:#7A7A7A;" d="M141.6,37.7l-0.7,0c-4.6,0-8.4-1.5-11.5-4.5s-4.6-6.8-4.6-11.3s1.5-8.3,4.6-11.3s6.9-4.5,11.5-4.5
			c4.6,0,8.4,1.5,11.5,4.5c3.1,3,4.6,6.8,4.6,11.3c0,3.4-0.9,6.5-2.8,9.1c-1.8,2.6-4.3,4.6-7.4,5.7c1,1.3,2.3,2,3.8,2
			c1.1,0,2.2-0.3,3.3-0.9c1.1-0.6,1.9-1.3,2.4-2.3l2.9,4.1c-2.5,2.7-5.5,4-8.7,4c-1.9,0-3.7-0.5-5.4-1.6
			C143.5,41,142.3,39.6,141.6,37.7z M148.6,14c-2.1-2.2-4.7-3.2-7.7-3.2s-5.6,1.1-7.7,3.2c-2.1,2.2-3.1,4.8-3.1,7.9
			c0,3.1,1,5.7,3.1,7.9c2.1,2.2,4.7,3.2,7.7,3.2s5.6-1.1,7.7-3.2c2.1-2.2,3.1-4.8,3.1-7.9C151.7,18.8,150.7,16.2,148.6,14z"/>
		<path style="fill:#7A7A7A;" d="M172.9,30.4c1.4,1.6,3.3,2.5,5.7,2.5c2.4,0,4.3-0.8,5.7-2.5c1.4-1.6,2.1-3.9,2.1-6.7v-17h5.2V24
			c0,4.4-1.2,7.8-3.6,10.2c-2.4,2.4-5.5,3.6-9.3,3.6c-3.8,0-6.9-1.2-9.3-3.6c-2.4-2.4-3.6-5.8-3.6-10.2V6.8h5.2v17
			C170.8,26.6,171.5,28.8,172.9,30.4z"/>
		<path style="fill:#7A7A7A;" d="M223.7,6.8v4.9h-16.4v8.1H222v4.6h-14.7v8.2h16.9v4.9h-22.1V6.8H223.7z"/>
	</g>
	<g>
		<path style="fill:#232323;" d="M30.7,66.8c0.4,3-18.2,6.9-24.3,10.2c-3.4,1.9-2.5,1.3-3.4-2.3C0,62.5,0.5,54.1,3,45.4
			c0.9-3,0-3.6,3.5-2.2c6.7,2.6,24.7,8.9,24.2,11.4V66.8z"/>
		<path style="fill:#7A7A7A;" d="M38.3,67.6h-6c-0.9,0-1.6-0.7-1.6-1.6V55.2c0-0.9,0.7-1.6,1.6-1.6h6c0.9,0,1.6,0.7,1.6,1.6v10.9
			C39.9,66.9,39.2,67.6,38.3,67.6z"/>
		<path style="fill:#232323;" d="M39.5,66.8c-0.4,3,18.2,6.9,24.3,10.2c3.4,1.9,2.5,1.3,3.4-2.3c3-12.3,2.5-20.7,0-29.4
			c-0.9-3,0-3.6-3.5-2.2C57,45.8,39,52.1,39.5,54.5V66.8z"/>
	</g>
</g>
</svg>
