<svg height="512pt" viewBox="0 -31 512 512" width="512pt" xmlns="http://www.w3.org/2000/svg"><g fill="#66b0ff"><path d="m195 240h61v-30h-15c-8.289062 0-15-6.710938-15-15s6.710938-15 15-15h60c8.289062 0 15 6.710938 15 15s-6.710938 15-15 15h-15v90h15c8.289062 0 15 6.710938 15 15s-6.710938 15-15 15h-60c-8.289062 0-15-6.710938-15-15s6.710938-15 15-15h15v-30h-61v90h181v-90h-45c-8.289062 0-15-6.710938-15-15s6.710938-15 15-15h45v-30h-15c-8.289062 0-15-6.710938-15-15s6.710938-15 15-15h30c8.289062 0 15 6.710938 15 15v165h30v-210h-241zm0 0"/><path d="m497 60h-377v345c0 8.285156-6.714844 15-15 15s-15-6.714844-15-15c0-24.851562-20.148438-45-45-45s-45 20.148438-45 45 20.148438 45 45 45h452c8.285156 0 15-6.714844 15-15v-360c0-8.285156-6.714844-15-15-15zm-31 315c0 8.289062-6.710938 15-15 15h-271c-8.289062 0-15-6.710938-15-15v-240c0-8.289062 6.710938-15 15-15h271c8.289062 0 15 6.710938 15 15zm0 0"/><path d="m90 345.382812v-300.382812c0-24.851562-20.148438-45-45-45s-45 20.148438-45 45v300.382812c12.574219-9.519531 28.050781-15.382812 45-15.382812s32.425781 5.863281 45 15.382812zm0 0"/></g></svg>