<?xml version="1.0" encoding="utf-8"?>
<!-- Generator: Adobe Illustrator 19.2.1, SVG Export Plug-In . SVG Version: 6.00 Build 0)  -->
<svg version="1.1" id="Layer_1" xmlns="http://www.w3.org/2000/svg" xmlns:xlink="http://www.w3.org/1999/xlink" x="0px" y="0px"
	 viewBox="0 0 515 84" style="enable-background:new 0 0 515 84;" xml:space="preserve">
<style type="text/css">
	.st0{fill:#b2b2b2;}
	.st1{fill:#7A7A7A;}
	.st2{fill-rule:evenodd;clip-rule:evenodd;fill:#7A7A7A;}
  .st3{fill:#7A7A7A;}
</style>
<path class="st0" d="M226.5,16.6c-1.8-2.3-5.3-3.4-8.1-3.4c-3.1,0-7.5,1.4-7.5,5.2c0,9.2,23.3,3.3,23.3,21
	c0,11.3-9.1,16.6-19.5,16.6c-6.5,0-12.2-1.9-17-6.3l7.9-8.7c2.3,3,6,4.8,9.7,4.8c3.6,0,7.7-1.7,7.7-5.3c0-9.3-23.7-4.3-23.7-21.1
	c0-10.8,9.3-16.4,19.3-16.4c5.7,0,11.2,1.5,15.5,5.3L226.5,16.6z"/>
<path class="st0" d="M259.5,50.8h-0.1c-2.3,3.7-6.6,5.2-10.9,5.2c-6.4,0-12.3-3.7-12.3-10.6c0-11.9,14.4-12.1,23.3-12.1
	c0-3.8-3.1-6.2-6.8-6.2c-3.5,0-6.4,1.6-8.6,4.1l-5.7-5.8c3.9-3.7,9.6-5.5,15.2-5.5c12.4,0,15.7,6.3,15.7,17.8V56h-9.8V50.8z
	 M256.8,40.1c-3.3,0-10.5,0.3-10.5,5c0,2.5,2.7,3.8,5,3.8c4.2,0,8.1-2.2,8.1-6.4v-2.3H256.8z"/>
<path class="st0" d="M272.8,3h10.6v53h-10.6V3z"/>
<path class="st0" d="M320.5,49.2c-3.4,4.3-9,6.8-14.5,6.8c-10.6,0-19.1-7.1-19.1-18.1c0-11,8.5-18.1,19.1-18.1
	c9.9,0,16.1,7.1,16.1,18.1v3.3h-24.6c0.8,4,3.9,6.7,8,6.7c3.5,0,5.8-1.8,7.6-4.2L320.5,49.2z M311.5,34c0.1-3.5-2.7-6.5-6.5-6.5
	c-4.7,0-7.2,3.2-7.5,6.5H311.5z"/>
<path class="st1" d="M0,3.1h34.1v6.7h-27v15.8h25.1v6.7H7.2v17h28.3V56H0V3.1z"/>
<path class="st1" d="M59.7,28.6c-0.8-1-1.8-1.8-3-2.5c-1.2-0.7-2.6-1-4.3-1c-1.6,0-3,0.3-4.1,1c-1.2,0.7-1.8,1.7-1.8,3
	c0,1,0.3,1.9,1,2.5c0.7,0.6,1.5,1.2,2.4,1.6c0.9,0.4,1.9,0.7,3,0.9c1,0.2,1.9,0.4,2.7,0.5c1.4,0.3,2.8,0.8,4.1,1.3
	c1.3,0.5,2.4,1.1,3.3,1.9c0.9,0.8,1.6,1.8,2.2,2.9c0.5,1.1,0.8,2.5,0.8,4.2c0,2-0.4,3.7-1.3,5.1c-0.8,1.4-1.9,2.6-3.3,3.5
	c-1.3,0.9-2.9,1.5-4.6,1.9C55,55.8,53.3,56,51.5,56c-2.9,0-5.5-0.4-7.7-1.3c-2.2-0.9-4.2-2.5-5.9-4.9l5.1-4.2
	c1.1,1.1,2.3,2.1,3.7,2.9c1.3,0.8,3,1.3,4.9,1.3c0.8,0,1.7-0.1,2.6-0.3c0.9-0.2,1.6-0.4,2.3-0.8c0.7-0.4,1.2-0.8,1.6-1.4
	c0.4-0.6,0.6-1.2,0.6-2c0-1-0.3-1.8-0.9-2.5c-0.6-0.6-1.4-1.2-2.2-1.5c-0.9-0.4-1.8-0.7-2.8-0.9c-1-0.2-1.8-0.4-2.6-0.6
	c-1.4-0.3-2.8-0.7-4.1-1.2c-1.3-0.4-2.4-1-3.4-1.8c-1-0.7-1.8-1.7-2.4-2.8c-0.6-1.1-0.9-2.6-0.9-4.3c0-1.8,0.4-3.4,1.2-4.8
	c0.8-1.4,1.8-2.5,3.1-3.4c1.3-0.9,2.7-1.6,4.3-2c1.6-0.4,3.3-0.7,4.9-0.7c2.4,0,4.7,0.4,6.9,1.3c2.2,0.9,3.9,2.4,5.2,4.5L59.7,28.6z
	"/>
<path class="st1" d="M89.9,25.5h-9.6v16.1c0,1,0,2,0.1,3c0,1,0.2,1.8,0.6,2.6c0.3,0.8,0.8,1.4,1.5,1.9c0.7,0.5,1.7,0.7,3,0.7
	c0.8,0,1.6-0.1,2.5-0.2c0.8-0.1,1.6-0.4,2.3-0.8v6.1c-0.8,0.4-1.8,0.8-3.1,0.9c-1.3,0.2-2.3,0.3-3,0.3c-2.6,0-4.6-0.4-6-1.1
	c-1.4-0.7-2.5-1.7-3.1-2.8c-0.7-1.1-1.1-2.4-1.2-3.8c-0.1-1.4-0.2-2.9-0.2-4.3V25.5h-7.8v-5.8h7.8V9.8h6.7v9.9h9.6V25.5z"/>
<path class="st1" d="M95.5,24.1c1.9-1.7,4.1-3.1,6.6-3.9c2.5-0.9,5-1.3,7.5-1.3c2.6,0,4.8,0.3,6.7,1c1.9,0.6,3.4,1.5,4.6,2.6
	c1.2,1.1,2.1,2.4,2.7,3.8c0.6,1.4,0.9,2.9,0.9,4.4v18.1c0,1.2,0,2.4,0.1,3.4c0,1,0.1,2,0.2,3h-6c-0.1-1.8-0.2-3.6-0.2-5.4h-0.1
	c-1.5,2.3-3.3,3.9-5.3,4.9c-2,0.9-4.4,1.4-7.1,1.4c-1.6,0-3.2-0.2-4.7-0.7c-1.5-0.4-2.8-1.1-3.9-2c-1.1-0.9-2-2-2.7-3.3
	c-0.6-1.3-1-2.9-1-4.6c0-2.3,0.5-4.2,1.5-5.8c1-1.5,2.4-2.8,4.2-3.8c1.8-1,3.8-1.7,6.2-2.1c2.4-0.4,4.9-0.6,7.6-0.6h4.9v-1.5
	c0-0.9-0.2-1.8-0.5-2.7c-0.3-0.9-0.9-1.7-1.6-2.4c-0.7-0.7-1.6-1.3-2.6-1.7c-1-0.4-2.3-0.6-3.7-0.6c-1.3,0-2.4,0.1-3.4,0.4
	c-1,0.3-1.9,0.6-2.7,0.9c-0.8,0.4-1.5,0.8-2.2,1.3c-0.6,0.5-1.3,1-1.9,1.4L95.5,24.1z M114.5,38.1c-1.6,0-3.2,0.1-4.9,0.3
	c-1.7,0.2-3.2,0.5-4.6,1c-1.4,0.5-2.5,1.2-3.4,2.1c-0.9,0.9-1.3,2-1.3,3.4c0,2,0.7,3.5,2.1,4.4c1.4,0.9,3.2,1.3,5.6,1.3
	c1.8,0,3.4-0.3,4.7-0.9c1.3-0.6,2.3-1.4,3.1-2.4c0.8-1,1.4-2.1,1.7-3.3c0.3-1.2,0.5-2.4,0.5-3.6v-2.2H114.5z"/>
<path class="st1" d="M150,25.5h-9.6v16.1c0,1,0,2,0.1,3c0,1,0.2,1.8,0.6,2.6c0.3,0.8,0.8,1.4,1.5,1.9c0.7,0.5,1.7,0.7,3,0.7
	c0.8,0,1.6-0.1,2.5-0.2c0.8-0.1,1.6-0.4,2.3-0.8v6.1c-0.8,0.4-1.8,0.8-3.1,0.9c-1.3,0.2-2.3,0.3-3,0.3c-2.6,0-4.6-0.4-6-1.1
	s-2.5-1.7-3.1-2.8c-0.7-1.1-1.1-2.4-1.2-3.8c-0.1-1.4-0.2-2.9-0.2-4.3V25.5h-7.8v-5.8h7.8V9.8h6.7v9.9h9.6V25.5z"/>
<path class="st1" d="M160.6,39.9c0,1.5,0.3,3,1,4.2c0.7,1.3,1.6,2.4,2.7,3.2c1.1,0.9,2.4,1.6,3.8,2.1c1.4,0.5,2.9,0.7,4.5,0.7
	c2.1,0,3.9-0.5,5.5-1.5c1.5-1,3-2.3,4.3-3.8l5.1,3.9c-3.7,4.8-9,7.2-15.7,7.2c-2.8,0-5.3-0.5-7.6-1.4c-2.3-0.9-4.2-2.3-5.8-3.9
	c-1.6-1.7-2.8-3.6-3.6-5.9c-0.8-2.3-1.3-4.7-1.3-7.4c0-2.6,0.5-5.1,1.4-7.4c0.9-2.3,2.2-4.2,3.8-5.9c1.6-1.7,3.5-3,5.8-3.9
	c2.2-0.9,4.7-1.4,7.3-1.4c3.1,0,5.8,0.5,8,1.6c2.2,1.1,3.9,2.5,5.3,4.3c1.4,1.8,2.4,3.8,3,6c0.6,2.2,0.9,4.5,0.9,6.8v2.4H160.6z
	 M181.8,34.5c-0.1-1.5-0.3-2.9-0.7-4.1c-0.4-1.2-1.1-2.3-1.9-3.3c-0.8-0.9-1.9-1.6-3.2-2.2c-1.3-0.5-2.8-0.8-4.4-0.8
	c-1.6,0-3.2,0.3-4.5,0.9c-1.4,0.6-2.5,1.4-3.5,2.4c-0.9,1-1.7,2.1-2.2,3.3c-0.5,1.2-0.8,2.4-0.8,3.6H181.8z"/>
<g>
	<path class="st0" d="M381.1,3h9.4l29.2,43.6h0.2V3h7.2v53h-9.1l-29.5-43.6h-0.1V56h-7.2V3z"/>
	<path class="st0" d="M437.3,3h34.2v6.7h-27v15.8h25.1v6.7h-25.1v17h28.4V56h-35.6V3z"/>
	<path class="st0" d="M490.7,9.7h-17.1V3H515v6.7h-17.1V56h-7.2V9.7z"/>
</g>
<path class="st3" d="M353.7,46.2c0,1-0.3,1.8-0.5,2.6c5.2,1.1,9,2.4,9,2.4l0.3-2.9C359.1,47.4,356.2,46.7,353.7,46.2z"/>
<path class="st0" d="M342.1,45.4c0,1-0.7,1.6-1.7,2l0.1,0c0,0-1.5,0.5-1.6,1.6c0,2.6,8,4.6,9.2,4.3c2.8-1.8,4.7-4.5,4.7-8.7
	c0-13.1-17.9-8.8-17.9-13.9c0-2.1,2.1-2.8,3.9-2.8c2.5,0,4.6,1,6.2,2.9l6.5-6.4c-3.2-3.4-8.2-4.5-12.7-4.5
	c-7.2,0-14.4,3.5-14.4,11.6C324.2,44.6,342.1,39.9,342.1,45.4z"/>
<path class="st2" d="M366,49.6c-0.1,0.2-0.3,0.5-0.3,0.5c-2.3,0.7-4.5-0.2-4.5-0.2s-0.5,0.4-0.5,1.3c0,0,0,0.1,0,0.1
	c-1.9,1-6.3,2.9-11.9,2.8c-7.4-0.2-12.4-4.1-10.3-5.9c0.7-0.5,1.5-0.8,2.4-0.9c0.8-0.4,1.3-1,1.3-1.8c0-0.2,0-0.4-0.1-0.6
	c-1.8-0.1-5.6,0-6.9,2.9c-1.6,3.9,5.5,9.3,14.9,8.7c8.7-0.5,11.9-3.3,12.4-3.8c4.3,0.4,4.5-0.8,4.5-1.7C367,50,366,49.6,366,49.6z"
	/>
<g>
	<path class="st0" d="M335.1,47.8C335.2,47.7,335.2,47.7,335.1,47.8c-2.1-0.5-3.9-1.7-5.4-3.6l-6.4,7.2c3.4,3.5,8.7,4.7,13.5,4.7
		c1.8,0,3.6-0.2,5.3-0.5C337.1,53.8,334,50.4,335.1,47.8z"/>
</g>
<path class="st1" d="M376.8,43L362,44.3l-0.5,6.7c0.7,0.2,2.3,0.6,3.9,0.1c0.1-1.6,1.4-2.8,3.1-2.8c1.7,0,3.1,1.4,3.1,3.1
	c0,1.7-1.4,3.1-3.1,3.1c-0.9,0-1.7-0.4-2.3-1.1c-0.6,0.3-1.7,0.5-3.8,0.3c-0.1,0.1-0.5,0.4-1.2,0.9l-0.4,4.7L390.5,84l17.6-20
	L376.8,43z"/>
</svg>
