<svg xmlns="http://www.w3.org/2000/svg" viewBox="0 0 184.32 184.32" width="512" height="512"><path d="M51.2 0H3.413A3.413 3.413 0 0 0 0 3.413V51.2a3.413 3.413 0 0 0 3.413 3.413H51.2a3.413 3.413 0 0 0 3.413-3.413V3.413A3.413 3.413 0 0 0 51.2 0zm-3.413 47.787H6.827V6.827h40.96v40.96zM116.053 0H68.267a3.413 3.413 0 0 0-3.413 3.413V51.2a3.413 3.413 0 0 0 3.413 3.413h47.787a3.413 3.413 0 0 0 3.413-3.413V3.413A3.414 3.414 0 0 0 116.053 0zm-3.413 47.787H71.68V6.827h40.96v40.96zM180.907 0H133.12a3.413 3.413 0 0 0-3.413 3.413V51.2a3.413 3.413 0 0 0 3.413 3.413h47.787a3.413 3.413 0 0 0 3.413-3.413V3.413A3.413 3.413 0 0 0 180.907 0zm-3.414 47.787h-40.96V6.827h40.96v40.96zM51.2 64.853H3.413A3.414 3.414 0 0 0 0 68.267v47.787a3.413 3.413 0 0 0 3.413 3.413H51.2a3.413 3.413 0 0 0 3.413-3.413V68.267a3.414 3.414 0 0 0-3.413-3.414zm-3.413 47.787H6.827V71.68h40.96v40.96zM116.053 64.853H68.267a3.413 3.413 0 0 0-3.413 3.413v47.787a3.413 3.413 0 0 0 3.413 3.413h47.787a3.413 3.413 0 0 0 3.413-3.413V68.267a3.415 3.415 0 0 0-3.414-3.414zm-3.413 47.787H71.68V71.68h40.96v40.96zM180.907 64.853H133.12a3.413 3.413 0 0 0-3.413 3.413v47.787a3.413 3.413 0 0 0 3.413 3.413h47.787a3.413 3.413 0 0 0 3.413-3.413V68.267a3.414 3.414 0 0 0-3.413-3.414zm-3.414 47.787h-40.96V71.68h40.96v40.96zM51.2 129.707H3.413A3.413 3.413 0 0 0 0 133.12v47.787a3.413 3.413 0 0 0 3.413 3.413H51.2a3.413 3.413 0 0 0 3.413-3.413V133.12a3.413 3.413 0 0 0-3.413-3.413zm-3.413 47.786H6.827v-40.96h40.96v40.96zM116.053 129.707H68.267a3.413 3.413 0 0 0-3.413 3.413v47.787a3.413 3.413 0 0 0 3.413 3.413h47.787a3.413 3.413 0 0 0 3.413-3.413V133.12a3.414 3.414 0 0 0-3.414-3.413zm-3.413 47.786H71.68v-40.96h40.96v40.96zM180.907 129.707H133.12a3.413 3.413 0 0 0-3.413 3.413v47.787a3.413 3.413 0 0 0 3.413 3.413h47.787a3.413 3.413 0 0 0 3.413-3.413V133.12a3.413 3.413 0 0 0-3.413-3.413zm-3.414 47.786h-40.96v-40.96h40.96v40.96z" fill="#4e7ac7"/></svg>