<svg xmlns="http://www.w3.org/2000/svg"><path fill="#2473c6" d="M13 4c-1.52 0-2.96.31-4.27.87a11.1 11.1 0 0 0-5.86 5.86 10.87 10.87 0 0 0-.65 2.05v.01c-.07.36-.13.72-.16 1.09-.04.37-.06.74-.06 1.11V61.2a2.2 2.2 0 0 0 0 .01v1.33a2.2 2.2 0 0 0 .28 1.07 2.2 2.2 0 0 0 .01.01c.14.64.33 1.27.58 1.86.15.36.36.68.55 1.02.16.28.28.58.46.85h.01c.39.59.84 1.13 1.34 1.63.08.09.19.15.28.23.43.4.86.79 1.35 1.12.58.39 1.21.74 1.87 1.02.66.28 1.35.49 2.06.64.36.07.72.13 1.09.17.37.04.74.06 1.12.06h8.8a2.2 2.2 0 0 0 .07-.01h46.14a2.2 2.2 0 0 0 2.2-2.2v-57.2a2.2 2.2 0 0 0-2.2-2.21H23.07c-1.24-2.8-3.62-4.96-6.54-5.96-.26-.1-.53-.18-.8-.26-.34-.08-.67-.18-1.01-.23-.07-.02-.14-.02-.21-.03A10.94 10.94 0 0 0 13.02 4H13zm0 4.4c.42 0 .82.05 1.21.12.17.03.34.09.5.13.21.06.42.11.62.19.21.08.41.17.6.27a6.52 6.52 0 0 1 1.05.64c.06.04.11.09.16.13.24.2.47.4.68.62a6.61 6.61 0 0 1 1.56 2.85 2.2 2.2 0 0 0 .07.22c.1.46.16.93.16 1.42v37.49c-1.85-1.4-4.13-2.27-6.61-2.27-2.48 0-4.75.86-6.6 2.26V14.99a6.58 6.58 0 0 1 .52-2.57 6.55 6.55 0 0 1 3.5-3.5A6.65 6.65 0 0 1 13 8.4zM24.01 15h41.8v52.81H13a6.58 6.58 0 0 1-4.67-1.92c-.17-.17-.3-.36-.45-.54-.12-.15-.25-.28-.36-.44a6.56 6.56 0 0 1-.6-1.12 6.59 6.59 0 0 1-.39-1.24 6.79 6.79 0 0 1-.13-1.34v-.01a6.58 6.58 0 0 1 .22-1.6A6.54 6.54 0 0 1 13 54.61c3.67 0 6.61 2.92 6.61 6.59v1.35a2.2 2.2 0 1 0 4.4-.01V61.3a2.2 2.2 0 0 0 0-.1V15z" /></svg>