<svg height="36" preserveAspectRatio="xMidYMid meet" viewBox="0 0 36 36" width="36" xmlns="http://www.w3.org/2000/svg"><path d="m14.44 31.94a7.31 7.31 0 0 1 -5.7-11.88l-1.42-1.42a9.3 9.3 0 0 0 13.1 13.11l-1.42-1.42a7.29 7.29 0 0 1 -4.56 1.61z"/><path d="m25.36 1.67a4.12 4.12 0 1 0 4.11 4.11 4.12 4.12 0 0 0 -4.11-4.11zm0 6.23a2.12 2.12 0 1 1 2.11-2.12 2.12 2.12 0 0 1 -2.11 2.12z"/><path d="m26.56 18.18h-5a1 1 0 0 0 -.24.05l3.09-3.55a2.83 2.83 0 0 0 -.69-4.33l-8-4.6a1 1 0 0 0 -1.12.08l-4.77 3.75a1 1 0 0 0 -.17 1.42 1 1 0 0 0 .79.38 1 1 0 0 0 .61-.21l4.27-3.34 3.11 1.77-5.08 5.78a9.28 9.28 0 0 0 -4.53 1.83l1.43 1.43a7.3 7.3 0 0 1 10.16 10.17l1.42 1.43a9.27 9.27 0 0 0 .77-10.06h2.82l-.77 6.51a1 1 0 0 0 .88 1.11h.12a1 1 0 0 0 1-.88l.9-7.62a1 1 0 0 0 -.25-.78 1 1 0 0 0 -.75-.34zm-6.37-7.56 2.52 1.46a.79.79 0 0 1 .4.59.81.81 0 0 1 -.2.69l-3.16 3.64a9.17 9.17 0 0 0 -3.75-1.55z"/><path d="m0 0h36v36h-36z" fill="none"/></svg>