<svg height="36" preserveAspectRatio="xMidYMid meet" viewBox="0 0 36 36" width="36" xmlns="http://www.w3.org/2000/svg"><path d="m30.06 11h-24a1 1 0 1 0 0 2h7.94v9.65s0 0 0 0l-3.75 10a1 1 0 0 0 .58 1.29 1.13 1.13 0 0 0 .36.06 1 1 0 0 0 .93-.65l3.5-9.35h4.76l3.52 9.35a1 1 0 0 0 .93.65 1.13 1.13 0 0 0 .36-.06 1 1 0 0 0 .58-1.29l-3.77-9.97s0 0 0 0v-9.68h8.06a1 1 0 1 0 0-2zm-10.06 11h-4v-9h4z"/><path d="m18 10a4 4 0 1 0 -4-4 4 4 0 0 0 4 4zm0-6a2 2 0 1 1 -2 2 2 2 0 0 1 2-2z"/><path d="m0 0h36v36h-36z" fill="none"/></svg>