<svg height="36" preserveAspectRatio="xMidYMid meet" viewBox="0 0 36 36" width="36" xmlns="http://www.w3.org/2000/svg"><path d="m31.47 3.84a5.78 5.78 0 0 0 -7.37-.63 16.08 16.08 0 0 1 8.2 7.65 5.73 5.73 0 0 0 -.83-7.02z"/><path d="m25.33 21.54a.9.9 0 0 0 -.41-1.2l-3.2-1.56 3.17 3.22a.89.89 0 0 0 .44-.46z"/><path d="m18 8.6a.9.9 0 0 0 -.9.9v4.6l1.8 1.81v-6.41a.9.9 0 0 0 -.9-.9z"/><path d="m11.42 3.43a5.8 5.8 0 0 0 -5.81-.81l2.69 2.7a16 16 0 0 1 3.12-1.89z"/><path d="m18 4a13.91 13.91 0 0 0 -8.3 2.75l1.42 1.43a12 12 0 0 1 16.7 16.72l1.42 1.43a14 14 0 0 0 -11.24-22.33z"/><path d="m1.56 4.21 1.17 1.17a5.7 5.7 0 0 0 .67 6.1 15.78 15.78 0 0 1 2.06-3.36l1.42 1.43a13.94 13.94 0 0 0 1.23 18.33l-2.55 2.55a1 1 0 1 0 1.44 1.41l2.66-2.66a13.89 13.89 0 0 0 16.8 0l4.14 4.15 1.4-1.43-29-29.1zm23.44 23.51a11.89 11.89 0 0 1 -7 2.28 12 12 0 0 1 -12-12 11.89 11.89 0 0 1 2.29-7z"/><path d="m0 0h36v36h-36z" fill="none"/></svg>