<svg height="36" preserveAspectRatio="xMidYMid meet" viewBox="0 0 36 36" width="36" xmlns="http://www.w3.org/2000/svg"><path d="m31.47 3.84a5.78 5.78 0 0 0 -7.37-.63 16.08 16.08 0 0 1 8.2 7.65 5.73 5.73 0 0 0 -.83-7.02z"/><path d="m11.42 3.43a5.77 5.77 0 0 0 -7.64.41 5.72 5.72 0 0 0 -.38 7.64 16.08 16.08 0 0 1 8.02-8.05z"/><path d="m18 4a14 14 0 0 0 -9.89 23.88l-2.55 2.55a1 1 0 1 0 1.44 1.41l2.66-2.66a13.9 13.9 0 0 0 16.88-.08l2.74 2.74a1 1 0 0 0 1.41-1.41l-2.69-2.65a14 14 0 0 0 -10-23.78zm7.47 17.43a1 1 0 0 1 -1.33.47l-7.14-3.46v-8.75a1 1 0 0 1 2 0v7.5l6 2.91a1 1 0 0 1 .49 1.33z"/><path d="m0 0h36v36h-36z" fill="none"/></svg>