<svg height="36" preserveAspectRatio="xMidYMid meet" viewBox="0 0 36 36" width="36" xmlns="http://www.w3.org/2000/svg"><path d="m18 2.5c-8.82 0-16 6.28-16 14s7.18 14 16 14a18 18 0 0 0 4.88-.68l5.53 3.52a1 1 0 0 0 1.54-.84v-6.73a13 13 0 0 0 4-9.27c.05-7.72-7.13-14-15.95-14zm10.29 22.11a1 1 0 0 0 -.32.73v5.34l-4.38-2.79a1 1 0 0 0 -.83-.11 16 16 0 0 1 -4.76.72c-7.72 0-14-5.38-14-12s6.28-12 14-12 14 5.38 14 12a11.08 11.08 0 0 1 -3.71 8.11z"/><path d="m18 20.63a1 1 0 0 0 1-1v-11.15a1 1 0 1 0 -2 0v11.13a1 1 0 0 0 1 1.02z"/><circle cx="18" cy="24.04" r="1.33"/><path d="m0 0h36v36h-36z" fill="none"/></svg>