<svg height="36" viewBox="0 0 36 36" width="36" xmlns="http://www.w3.org/2000/svg"><path d="m10.16 31.71a4.4 4.4 0 0 1 -4.64-1 4.34 4.34 0 0 1 -1.29-3.11 4.41 4.41 0 0 1 .18-1.2 11.61 11.61 0 0 1 -1-2.56 6.4 6.4 0 0 0 9.33 8.63 11.55 11.55 0 0 1 -2.58-.76z"/><path d="m18.41 27.68a7.61 7.61 0 0 1 -9.08-1.26 7.58 7.58 0 0 1 -1.27-9.06 14.26 14.26 0 0 1 -.37-2.85 9.58 9.58 0 0 0 .22 13.33 9.63 9.63 0 0 0 13.35.22 14.46 14.46 0 0 1 -2.85-.38z"/><path d="m21.66 26.21a12.1 12.1 0 1 1 8.57-3.54 12.11 12.11 0 0 1 -8.57 3.54zm0-22.21a10.11 10.11 0 0 0 -10.12 10.11 10 10 0 0 0 3 7.14 10.12 10.12 0 0 0 14.31 0 10.11 10.11 0 0 0 -7.19-17.25z"/></svg>