<svg height="36" preserveAspectRatio="xMidYMid meet" viewBox="0 0 36 36" width="36" xmlns="http://www.w3.org/2000/svg"><path d="m19.41 20.6-1.41 1.4-1.41-1.4-.59-.6h-11v12a2 2 0 0 0 2 2h22a2 2 0 0 0 2-2v-12h-11zm2.59 3.4a1 1 0 0 1 -1 1h-6a1 1 0 0 1 0-2h6a1 1 0 0 1 1 1z"/><path d="m30.5 12h-3.84s0 .09 0 .13a3 3 0 0 1 -.88 2.12l-3.78 3.75h10v-4.5a1.5 1.5 0 0 0 -1.5-1.5z"/><path d="m10.2 14.25a3 3 0 0 1 -.88-2.12s0-.09 0-.13h-3.82a1.5 1.5 0 0 0 -1.5 1.5v4.5h10z"/><path d="m18 19.18 6.38-6.35a1 1 0 1 0 -1.38-1.42l-4 3.95v-12.36a1 1 0 1 0 -2 0v12.4l-4-3.95a1 1 0 0 0 -1.41 1.42z"/><path d="m0 0h36v36h-36z" fill="none"/></svg>