<svg height="36" preserveAspectRatio="xMidYMid meet" viewBox="0 0 36 36" width="36" xmlns="http://www.w3.org/2000/svg"><path d="m18 17a7.46 7.46 0 1 0 -7.45-7.46 7.46 7.46 0 0 0 7.45 7.46zm0-12.93a5.46 5.46 0 1 1 -5.45 5.45 5.46 5.46 0 0 1 5.45-5.45z"/><path d="m6 31.89v-6.12a16.13 16.13 0 0 1 12-5 16.61 16.61 0 0 1 8.71 2.33l1.35-1.51a18.53 18.53 0 0 0 -10.06-2.85 17.7 17.7 0 0 0 -13.79 6.06 1 1 0 0 0 -.21.6v6.49a2.06 2.06 0 0 0 2 2.11h12.39l-1.9-2z"/><path d="m30 31.89v.11h-3.15l-1.8 2h4.95a2.06 2.06 0 0 0 2-2.07v-5.73l-2 2.23z"/><path d="m34.76 18.62a1 1 0 0 0 -1.41.08l-11.62 13-5.2-5.59a1 1 0 0 0 -1.41-.11 1 1 0 0 0 -.06 1.42l6.69 7.2 13.09-14.62a1 1 0 0 0 -.08-1.38z"/><path d="m0 0h36v36h-36z" fill="none"/></svg>