<svg height="36" preserveAspectRatio="xMidYMid meet" viewBox="0 0 36 36" width="36" xmlns="http://www.w3.org/2000/svg"><circle cx="17.99" cy="10.36" r="6.81"/><path d="m12 26.65a2.8 2.8 0 0 1 4.85-1.8l3.86 4.15 6.84-7.63a16.81 16.81 0 0 0 -9.55-2.82 16.13 16.13 0 0 0 -12.5 5.45 1 1 0 0 0 -.2.61v5.39a2 2 0 0 0 1.94 2h8.57l-3.07-3.3a2.81 2.81 0 0 1 -.74-2.05z"/><path d="m28.76 32a2 2 0 0 0 1.94-2v-3.76l-5.13 5.76z"/><path d="m33.77 18.62a1 1 0 0 0 -1.42.08l-11.62 13-5.2-5.59a1 1 0 0 0 -1.41-.11 1 1 0 0 0 0 1.42l6.68 7.2 13.04-14.62a1 1 0 0 0 -.07-1.38z"/><path d="m0 0h36v36h-36z" fill="none"/></svg>