<svg height="36" preserveAspectRatio="xMidYMid meet" viewBox="0 0 36 36" width="36" xmlns="http://www.w3.org/2000/svg"><path d="m28.89 20.91-5-2.91 4.87-2.86a3.11 3.11 0 0 0 1.14-1.08 3 3 0 0 0 -4.09-4.15l-4.81 2.85v-5.76a3 3 0 0 0 -6 0v5.76l-4.85-2.85a3 3 0 1 0 -3 5.18l5 2.91-4.95 2.86a3.11 3.11 0 0 0 -1.14 1.08 3 3 0 0 0 4.09 4.14l4.85-2.84v5.66a3 3 0 0 0 2 2.94 3 3 0 0 0 4-2.84v-5.76l4.85 2.85a3 3 0 1 0 3-5.18zm-.65 3.09a1 1 0 0 1 -1.37.36l-7.87-4.61v9.25a1 1 0 0 1 -2 0v-9.25l-7.87 4.61a1 1 0 0 1 -1-1.72l7.87-4.64-7.9-4.64a1 1 0 1 1 1-1.72l7.9 4.61v-9.25a1 1 0 0 1 2 0v9.25l7.87-4.62a1 1 0 0 1 1 1.72l-7.87 4.65 7.9 4.64a1 1 0 0 1 .34 1.36z"/><path d="m0 0h36v36h-36z" fill="none"/></svg>