<svg height="36" preserveAspectRatio="xMidYMid meet" viewBox="0 0 36 36" width="36" xmlns="http://www.w3.org/2000/svg"><path d="m8.42 32.6a6.3 6.3 0 0 1 -4.42-1.81l-.13-.13a6.2 6.2 0 0 1 -1.87-4.44 6.77 6.77 0 0 1 2-4.82l15.5-15.33a8.67 8.67 0 0 1 12.15-.35 8 8 0 0 1 2.35 5.72 9 9 0 0 1 -2.7 6.36l-13.93 13.8a1 1 0 1 1 -1.37-1.42l13.89-13.8a7 7 0 0 0 2.11-4.94 6 6 0 0 0 -1.76-4.3 6.67 6.67 0 0 0 -9.34.35l-15.45 15.33a4.78 4.78 0 0 0 -1.45 3.4 4.21 4.21 0 0 0 1.24 3l.13.13a4.64 4.64 0 0 0 6.5-.21l13.35-13.2a2.7 2.7 0 0 0 .78-1.94 2.35 2.35 0 0 0 -.69-1.68 2.61 2.61 0 0 0 -3.66.13l-9.2 9.12a1 1 0 1 1 -1.41-1.42l9.24-9.15a4.62 4.62 0 0 1 6.48-.13 4.33 4.33 0 0 1 1.24 3.13 4.68 4.68 0 0 1 -1.41 3.34l-13.31 13.24a6.91 6.91 0 0 1 -4.86 2.02z"/><path d="m0 0h36v36h-36z" fill="none"/></svg>