<svg height="36" preserveAspectRatio="xMidYMid meet" viewBox="0 0 36 36" width="36" xmlns="http://www.w3.org/2000/svg"><path d="m15 17h3v2h-3z"/><path d="m26.45 14.17a22.1 22.1 0 0 0 -7.07-7.17 9.64 9.64 0 0 0 -9-.7 8.6 8.6 0 0 0 -4.82 6.4c-.08.47-.14.92-.2 1.36a4 4 0 0 0 -3.36 3.94v6.13a2 2 0 0 0 2 2v-6.13-2a2 2 0 0 1 2-2h18.73a7.28 7.28 0 0 1 7.27 7.27v.73h-2a4.53 4.53 0 1 0 .33 2h1.67a2 2 0 0 0 2-2v-.73a9.28 9.28 0 0 0 -7.55-9.1zm-15.45-.17h-4.07c0-.31.09-.63.15-1a6.52 6.52 0 0 1 3.92-5zm2 0v-6.42a8.17 8.17 0 0 1 5.36 1.16 19 19 0 0 1 5.54 5.26zm12.8 14.38a2.5 2.5 0 1 1 2.5-2.5 2.5 2.5 0 0 1 -2.5 2.5z"/><path d="m14.17 24a4.53 4.53 0 1 0 .33 2h5.3c0-.08 0-.17 0-.25a6 6 0 0 1 .2-1.75zm-4.17 4.38a2.5 2.5 0 1 1 2.5-2.5 2.5 2.5 0 0 1 -2.5 2.5z"/><path d="m0 0h36v36h-36z" fill="none"/></svg>