<svg height="36" preserveAspectRatio="xMidYMid meet" viewBox="0 0 36 36" width="36" xmlns="http://www.w3.org/2000/svg"><path d="m2 24v6a2 2 0 0 0 2 2h28a2 2 0 0 0 2-2v-6zm28 5h-4v-2h4z"/><path d="m30.84 13.37a1.94 1.94 0 0 0 -1.91-1.37h-7.93v6a3 3 0 1 1 -6 0v-6h-7.93a1.92 1.92 0 0 0 -1.9 1.32c-2.31 6.36-2.93 8.11-3.1 8.68h31.86c-.16-.57-.79-2.31-3.09-8.63z"/><path d="m13 9.92 4-3.92v12a1 1 0 1 0 2 0v-12l4 3.95a1 1 0 1 0 1.38-1.45l-6.38-6.34-6.39 6.34a1 1 0 0 0 1.39 1.42z"/><path d="m0 0h36v36h-36z" fill="none"/></svg>