<svg height="36" preserveAspectRatio="xMidYMid meet" viewBox="0 0 36 36" width="36" xmlns="http://www.w3.org/2000/svg"><path d="m18 19.84 6.38-6.35a1 1 0 1 0 -1.38-1.41l-4 3.92v-12a1 1 0 1 0 -2 0v12l-4-3.95a1 1 0 0 0 -1.41 1.42z"/><path d="m19.41 21.26-.74.74h15.26c-.17-.57-.79-2.31-3.09-8.63a1.94 1.94 0 0 0 -1.91-1.37h-2.38a3 3 0 0 1 -.76 2.92z"/><path d="m16.58 21.26-6.38-6.35a3 3 0 0 1 -.76-2.91h-2.37a1.92 1.92 0 0 0 -1.9 1.32c-2.31 6.36-2.93 8.11-3.1 8.68h15.26z"/><path d="m2 24v6a2 2 0 0 0 2 2h28a2 2 0 0 0 2-2v-6zm28 4h-4v-2h4z"/><path d="m0 0h36v36h-36z" fill="none"/></svg>