<svg height="36" preserveAspectRatio="xMidYMid meet" viewBox="0 0 36 36" width="36" xmlns="http://www.w3.org/2000/svg"><path d="m24 33h-12a1 1 0 0 1 0-2h12a1 1 0 0 1 0 2z"/><path d="m17 9h2v22.5h-2z"/><path d="m28 7h-20a1 1 0 0 1 0-2h20a1 1 0 0 1 0 2z"/><path d="m26.93 24.79a7.23 7.23 0 0 1 -5.81-2.89l-.6-.8 1.59-1.21.6.8a5.28 5.28 0 0 0 8.42 0l.6-.8 1.59 1.21-.6.8a7.23 7.23 0 0 1 -5.79 2.89z"/><path d="m30.51 19.25a.8.8 0 0 1 -.73-.48l-2.85-6.57-2.85 6.57a.8.8 0 0 1 -1.47-.64l3.59-8.26a.83.83 0 0 1 1.47 0l3.58 8.26a.8.8 0 0 1 -.73 1.12z"/><path d="m9.68 24.79a7.23 7.23 0 0 1 -5.8-2.89l-.6-.8 1.58-1.2.6.8a5.28 5.28 0 0 0 8.42 0l.6-.8 1.59 1.21-.6.8a7.23 7.23 0 0 1 -5.79 2.88z"/><path d="m13.26 19.25a.8.8 0 0 1 -.73-.48l-2.85-6.57-2.84 6.57a.8.8 0 0 1 -1.47-.64l3.58-8.26a.83.83 0 0 1 1.47 0l3.58 8.26a.8.8 0 0 1 -.73 1.12z"/><path d="m0 0h36v36h-36z" fill="none"/></svg>