<svg height="36" preserveAspectRatio="xMidYMid meet" viewBox="0 0 36 36" width="36" xmlns="http://www.w3.org/2000/svg"><path d="m3.5 13.56 14.5-8.33 14.5 8.33a1 1 0 0 0 1-1.73l-15.5-8.91-15.5 8.91a1 1 0 1 0 1 1.73z"/><path d="m4 26a1 1 0 0 0 1 1h26a1 1 0 0 0 0-2h-3v-7.37h-2v7.37h-7v-7.37h-2v7.37h-7v-7.37h-2v7.37h-3a1 1 0 0 0 -1 1z"/><path d="m5.02 14h26v2h-26z"/><path d="m33 29h-30a1 1 0 0 0 0 2h30a1 1 0 0 0 0-2z"/><path d="m22.15 11.58h3.21l-6.71-3.86a.8.8 0 0 0 -.8 0l-6.72 3.86h3.21l3.9-2.24z"/><path d="m0 0h36v36h-36z" fill="none"/></svg>