<svg height="36" preserveAspectRatio="xMidYMid meet" viewBox="0 0 36 36" width="36" xmlns="http://www.w3.org/2000/svg"><path d="m5 7a1 1 0 0 0 -1 1v22a1 1 0 0 0 2 0v-22a1 1 0 0 0 -1-1z"/><path d="m9 7a1 1 0 0 0 -1 1v18a1 1 0 0 0 2 0v-18a1 1 0 0 0 -1-1z"/><path d="m13 7a1 1 0 0 0 -1 1v18a1 1 0 0 0 2 0v-18a1 1 0 0 0 -1-1z"/><path d="m17 7a1 1 0 0 0 -1 1v18a1 1 0 0 0 2 0v-18a1 1 0 0 0 -1-1z"/><path d="m21 7a1 1 0 0 0 -1 1v18a1 1 0 0 0 2 0v-18a1 1 0 0 0 -1-1z"/><path d="m25 7a1 1 0 0 0 -1 1v18a1 1 0 0 0 2 0v-18a1 1 0 0 0 -1-1z"/><path d="m29 7a1 1 0 0 0 -1 1v18a1 1 0 0 0 2 0v-18a1 1 0 0 0 -1-1z"/><path d="m33 7a1 1 0 0 0 -1 1v22a1 1 0 0 0 2 0v-22a1 1 0 0 0 -1-1z"/><path d="m0 0h36v36h-36z" fill="none"/></svg>