<svg height="36" preserveAspectRatio="xMidYMid meet" viewBox="0 0 36 36" width="36" xmlns="http://www.w3.org/2000/svg"><path d="m18.59 11.77a1 1 0 0 0 -1.73 1l2.5 4.34-6.07-1 5.29 10.59a1 1 0 0 0 1.79-.89l-3.53-7.08 6.38 1.06z"/><path d="m25.12 4h-2.12v-.42a1.58 1.58 0 0 0 -1.58-1.58h-6.84a1.58 1.58 0 0 0 -1.58 1.58v.42h-2.12a1.88 1.88 0 0 0 -1.88 1.88v26.24a1.88 1.88 0 0 0 1.88 1.88h14.24a1.88 1.88 0 0 0 1.88-1.88v-26.24a1.88 1.88 0 0 0 -1.88-1.88zm-.12 28h-14v-26h4v-2h6v2h4z"/><path d="m0 0h36v36h-36z" fill="none"/></svg>