<svg height="36" preserveAspectRatio="xMidYMid meet" viewBox="0 0 36 36" width="36" xmlns="http://www.w3.org/2000/svg"><path d="m7.21 14.07h3a1.61 1.61 0 0 1 1.81 1.5 1.44 1.44 0 0 1 -.84 1.34 1.67 1.67 0 0 1 1.1 1.53 1.75 1.75 0 0 1 -2 1.63h-3.07zm2.71 2.42c.48 0 .82-.28.82-.67s-.34-.65-.82-.65h-1.43v1.32zm.2 2.48a.75.75 0 1 0 0-1.47h-1.63v1.5z"/><path d="m14.55 15.23v1.2h3v1.16h-3v1.32h3.33v1.16h-4.62v-6h4.62v1.16z"/><path d="m20.41 15.23h-1.87v-1.16h5v1.16h-1.84v4.84h-1.29z"/><path d="m28 19.12h-2.68l-.38.95h-1.44l2.44-6h1.44l2.45 6h-1.45zm-.45-1.12-.89-2.19-.89 2.19z"/><path d="m8.06 30a.84.84 0 0 1 -.38-.08 1 1 0 0 1 -.62-.92v-4h-4a1 1 0 0 1 -1-1v-14a1 1 0 0 1 1-1h30a1 1 0 0 1 1 1v14a1 1 0 0 1 -1 1h-19.58l-4.71 4.71a1 1 0 0 1 -.71.29zm-4-7h4a1 1 0 0 1 1 1v2.59l3.3-3.3a1 1 0 0 1 .7-.29h19v-12h-28z"/><path d="m0 0h36v36h-36z" fill="none"/></svg>