<svg height="36" preserveAspectRatio="xMidYMid meet" viewBox="0 0 36 36" width="36" xmlns="http://www.w3.org/2000/svg"><path d="m8.5 29.65a6.51 6.51 0 0 1 -6.5-6.5 6.39 6.39 0 0 1 6.5-6.36 6.39 6.39 0 0 1 6.5 6.36 6.51 6.51 0 0 1 -6.5 6.5zm0-11a4.5 4.5 0 1 0 4.5 4.5 4.51 4.51 0 0 0 -4.5-4.5z"/><path d="m27.5 29.65a6.51 6.51 0 0 1 -6.5-6.5 6.5 6.5 0 0 1 13 0 6.51 6.51 0 0 1 -6.5 6.5zm0-11a4.5 4.5 0 1 0 4.5 4.5 4.51 4.51 0 0 0 -4.5-4.5z"/><path d="m19 24.66h-11a1 1 0 0 1 -.89-1.45l5-10 1.78.9-4.27 8.62h9.38z"/><path d="m13 12.68h11v1.91h-11z"/><path d="m28 24.66a1 1 0 0 1 -.94-.66l-4.77-13.34h-2.29a1 1 0 0 1 -1-1 1 1 0 0 1 1-.93h3a.94.94 0 0 1 .94.6l5 14a1 1 0 0 1 -.6 1.27 1 1 0 0 1 -.34.06z"/><path d="m13 14.66a1 1 0 0 1 -.71-.29l-1.7-1.71h-2.59a1 1 0 0 1 -1-1 .94.94 0 0 1 1-1h3a1.08 1.08 0 0 1 .75.27l2 2a1 1 0 0 1 0 1.41 1 1 0 0 1 -.75.32z"/><path d="m0 0h36v36h-36z" fill="none"/></svg>