<svg height="36" preserveAspectRatio="xMidYMid meet" viewBox="0 0 36 36" width="36" xmlns="http://www.w3.org/2000/svg"><path d="m15 21.9c-.2-2-1.2-3.8-2.9-4.9l-2.5 4.9z"/><path d="m7.2 23.4c-.2-.3-.2-.7 0-1l3.2-6.3c-.6-.2-1.2-.2-1.8-.2-3.6 0-6.6 2.9-6.6 6.5s2.9 6.5 6.5 6.5c3 0 5.6-2.1 6.3-5h-6.8c-.3 0-.7-.2-.8-.5z"/><path d="m19 21.9h-4v.5c0 .5-.1 1-.2 1.5h4.2z"/><path d="m27.5 15.9c-.3 0-.6 0-.9.1l2.4 6.6c.2.5-.1 1.1-.6 1.3-.1 0-.2.1-.3.1-.4 0-.8-.3-.9-.7l-2.4-6.7c-3.2 1.6-4.5 5.5-3 8.7 1.6 3.2 5.5 4.5 8.7 3 3.2-1.6 4.5-5.5 3-8.7-1.3-2.3-3.5-3.7-6-3.7z"/><path d="m24.7 16.7c.6-.3 1.3-.5 1.9-.6l-2.7-7.4c-.1-.5-.5-.7-.9-.8h-3c-.6 0-1 .5-1 1.1 0 .5.4.9 1 .9h2.3l.7 2h-9.6l-1.7-1.7c-.2-.1-.4-.2-.7-.2h-3c-.6 0-1 .4-1 1s.4 1 1 1h2.6l1.2 1.2-1.5 3c.6.2 1.3.5 1.8.8l1.6-3.2h10z"/><path d="m0 0h36v36h-36z" fill="none"/></svg>