<svg height="36" preserveAspectRatio="xMidYMid meet" viewBox="0 0 36 36" width="36" xmlns="http://www.w3.org/2000/svg"><path d="m21.18 18.47h-6.68v6h6.68a2.7 2.7 0 0 0 2.63-2.77v-.48a2.71 2.71 0 0 0 -2.63-2.75z"/><path d="m23 13.75a2.24 2.24 0 0 0 -2.23-2.25h-6.27v4.5h6.3a2.22 2.22 0 0 0 2.2-2.25z"/><path d="m18 2a16 16 0 1 0 16 16 16 16 0 0 0 -16-16zm8.31 19.73a5.22 5.22 0 0 1 -5.13 5.27h-.18v1.9a1 1 0 0 1 -2 0v-1.9h-2v1.9a1 1 0 0 1 -2 0v-1.9h-1.75a1.25 1.25 0 0 1 -1.25-1.25v-8.52-7a1.25 1.25 0 0 1 1.25-1.23h1.75v-1.93a1 1 0 0 1 2 0v1.93h2v-1.93a1 1 0 0 1 2 0v1.93a4.72 4.72 0 0 1 3.2 8 5.31 5.31 0 0 1 2.11 4.24z"/><path d="m0 0h36v36h-36z" fill="none"/></svg>