<svg height="36" preserveAspectRatio="xMidYMid meet" viewBox="0 0 36 36" width="36" xmlns="http://www.w3.org/2000/svg"><path d="m11.86 16.55a4.31 4.31 0 0 0 -2.11.56 14.44 14.44 0 0 1 4.36-6 1.1 1.1 0 0 0 -1.4-1.7c-4 3.25-5.78 7.75-5.78 10.54a5.08 5.08 0 0 0 3.07 4.63 4.4 4.4 0 0 0 1.88.44 4.24 4.24 0 1 0 0-8.47z"/><path d="m23 16.55a4.29 4.29 0 0 0 -2.11.56 14.5 14.5 0 0 1 4.35-6 1.1 1.1 0 1 0 -1.39-1.7c-4 3.25-5.78 7.75-5.78 10.54a5.08 5.08 0 0 0 3 4.61 4.37 4.37 0 0 0 1.93.44 4.24 4.24 0 1 0 0-8.47z"/><path d="m0 0h36v36h-36z" fill="none"/></svg>