<svg height="36" preserveAspectRatio="xMidYMid meet" viewBox="0 0 36 36" width="36" xmlns="http://www.w3.org/2000/svg"><path d="m26.52 24.52-5.65-5.83-1.46-1.5v-12l4.38 4.51-3.6 3.71 2.24 2.29 4.09-4.22a2.54 2.54 0 0 0 0-3.56l-5.95-6.14a2.54 2.54 0 0 0 -4.37 1.77v10.31l-5.53-5.7a1.6 1.6 0 1 0 -2.3 2.23l7.38 7.61-7 7.19a1.6 1.6 0 0 0 0 2.26 1.63 1.63 0 0 0 1.12.45 1.58 1.58 0 0 0 1.15-.49l5.11-5.27v10.31a2.53 2.53 0 0 0 1.59 2.36 2.44 2.44 0 0 0 .95.19 2.56 2.56 0 0 0 1.83-.77l5.95-6.15a2.54 2.54 0 0 0 .07-3.56zm-7.12 6.31v-9.06l4.39 4.53z"/><path d="m0 0h36v36h-36z" fill="none"/></svg>