<svg height="36" preserveAspectRatio="xMidYMid meet" viewBox="0 0 36 36" width="36" xmlns="http://www.w3.org/2000/svg"><path d="m19.31 5.17 4.39 4.53-3.59 3.71 2.24 2.29 4.09-4.22a2.56 2.56 0 0 0 0-3.56l-6-6.14a2.51 2.51 0 0 0 -2.77-.59 2.54 2.54 0 0 0 -1.6 2.36v10l3.21 3.21z"/><path d="m4.5 5-1.41 1.42 12.08 12.09-6.47 6.68a1.6 1.6 0 0 0 1.15 2.71 1.57 1.57 0 0 0 1.15-.49l5.11-5.27v10.31a2.54 2.54 0 0 0 1.6 2.36 2.44 2.44 0 0 0 .95.19 2.55 2.55 0 0 0 1.82-.77l5.12-5.29 3.49 3.48 1.41-1.42zm15.31 25.83v-8.18l4 4z"/><path d="m0 0h36v36h-36z" fill="none"/></svg>