<svg height="36" preserveAspectRatio="xMidYMid meet" viewBox="0 0 36 36" width="36" xmlns="http://www.w3.org/2000/svg"><path d="m29.1 27.1c-1.1-.1-2.2.3-3.1 1.1-1.1 1.1-2.9 1.1-4.1 0-1-.7-2.1-1.1-3.3-1.1-1.2-.1-2.4.3-3.3 1.1-.6.5-1.3.8-2.1.8s-1.5-.3-2.1-.8c-1-.8-2.2-1.2-3.4-1.2s-2.4.4-3.4 1.2c-.6.5-1.5.8-2.3.8v2c1.3.1 2.6-.3 3.6-1.2.6-.5 1.5-.8 2.3-.8.7 0 1.5.3 2.1.8 1.8 1.6 4.6 1.6 6.5 0 .6-.5 1.3-.8 2.1-.8.7 0 1.4.3 2 .8 1.9 1.6 4.6 1.6 6.5 0 .5-.5 1.3-.8 2-.8s1.4.3 1.9.8c.9.7 1.9 1.1 3 1.2v-2c-1 0-1.2-.4-1.7-.8-.9-.7-2-1.1-3.2-1.1z"/><path d="m6 23c0-.6.5-1 1.1-1h24.9l-3.5 3.1h.2c.8 0 1.6.2 2.2.5l2.5-2.2.2-.2c.7-.8.6-2.1-.2-2.8-.4-.2-.8-.4-1.3-.4h-25c-1.7 0-3 1.3-3 3v3.2c.5-.5 1.2-.8 1.9-1.1z"/><path d="m8.9 19h6.1v-7.8c0-.6-.3-1.2-.8-1.6-.9-.7-2.2-.5-2.8.4l-4.1 5.9c-.4.6-.4 1.4-.1 2.1.3.6 1 1 1.7 1zm4.2-7.8-.1 5.8h-4.1z"/><path d="m26 18c.4-.6.4-1.4 0-2l-6.3-10.4c-.4-.6-1-1-1.7-1-1.1 0-2 .9-2 2v12.4h8.3c.7 0 1.4-.4 1.7-1zm-8.1-11.4 6.4 10.5h-6.4z"/><path d="m0 0h36v36h-36z" fill="none"/></svg>