<svg height="36" preserveAspectRatio="xMidYMid meet" viewBox="0 0 36 36" width="36" xmlns="http://www.w3.org/2000/svg"><path d="m32 28a0 0 0 0 1 0 0h-28v-6.68a7.1 7.1 0 0 1 -2-1.43v8.11a2 2 0 0 0 2 2h28a2 2 0 0 0 2-2v-8.11a6.74 6.74 0 0 1 -2 1.42z"/><path d="m25 22.4a1 1 0 0 0 1-1v-5.46h-2v2.06h-10v2h10v1.4a1 1 0 0 0 1 1z"/><path d="m33 6h-9v-1.62a2.42 2.42 0 0 0 -2.45-2.38h-7.1a2.42 2.42 0 0 0 -2.45 2.38v1.62h-9a1 1 0 0 0 -1 1v8a5 5 0 0 0 5 5h3v1.4a1 1 0 0 0 2 0v-5.46h-2v2.06h-3a3 3 0 0 1 -3-3v-7h28v7a3 3 0 0 1 -3 3h-1v2h1a5 5 0 0 0 5-5v-8a1 1 0 0 0 -1-1zm-11 0h-8v-1.57a.45.45 0 0 1 .45-.43h7.11a.43.43 0 0 1 .44.42z"/><path d="m0 0h36v36h-36z" fill="none"/></svg>