<svg height="36" preserveAspectRatio="xMidYMid meet" viewBox="0 0 36 36" width="36" xmlns="http://www.w3.org/2000/svg"><path d="m30.83 20h-1.83a19.29 19.29 0 0 0 -1.18-5.73l1.46-.79a1 1 0 0 0 -.95-1.76l-3 1.28h-14.55l-3.08-1.28a1 1 0 0 0 -.95 1.76l1.5.8a19.38 19.38 0 0 0 -1.18 5.72h-1.9a1 1 0 0 0 0 2h1.93a14.62 14.62 0 0 0 1.66 6.17l-1.89 1.32a1 1 0 1 0 1.13 1.63l1.84-1.29a10.29 10.29 0 0 0 7.16 3.77v-18.6h2v18.6a10.29 10.29 0 0 0 7.16-3.75l1.84 1.27a1 1 0 1 0 1.15-1.64l-1.86-1.3a14.61 14.61 0 0 0 1.65-6.18h1.89a1 1 0 0 0 0-2zm-19.92-2.26a1.95 1.95 0 1 1 1.95 1.95 1.95 1.95 0 0 1 -1.95-1.95zm3.09 9.72a1.58 1.58 0 1 1 1.58-1.58 1.58 1.58 0 0 1 -1.58 1.58zm8.43 0a1.58 1.58 0 1 1 1.57-1.58 1.58 1.58 0 0 1 -1.58 1.58zm1.13-7.77a1.95 1.95 0 1 1 1.95-1.95 1.95 1.95 0 0 1 -1.95 1.95z"/><path d="m11.23 5.26a1.67 1.67 0 0 0 .54-.32 5.9 5.9 0 0 1 .89.58 7.44 7.44 0 0 1 .95.94 18.48 18.48 0 0 0 -2.82 3.24c-.4.57.09 1.28.86 1.28h12.79c.77 0 1.26-.71.86-1.28a18.38 18.38 0 0 0 -2.88-3.28 7.28 7.28 0 0 1 .91-.9 5.9 5.9 0 0 1 .89-.58 1.69 1.69 0 1 0 -.56-1.51 7.49 7.49 0 0 0 -1.32.83 9.06 9.06 0 0 0 -1.19 1.18 5.85 5.85 0 0 0 -3.15-1.14 5.91 5.91 0 0 0 -3.17 1.19 9.2 9.2 0 0 0 -1.22-1.21 7.49 7.49 0 0 0 -1.32-.83 1.68 1.68 0 1 0 -1.11 1.83z"/><path d="m0 0h36v36h-36z" fill="none"/></svg>