<svg height="36" preserveAspectRatio="xMidYMid meet" viewBox="0 0 36 36" width="36" xmlns="http://www.w3.org/2000/svg"><circle cx="23.56" cy="17.74" r="1.95"/><circle cx="22.42" cy="25.88" r="1.58"/><circle cx="12.86" cy="17.74" r="1.95"/><circle cx="13.99" cy="25.88" r="1.58"/><path d="m30.83 20h-1.83a19.29 19.29 0 0 0 -1.18-5.73l1.46-.79a1 1 0 0 0 -.95-1.76l-3 1.64a17.65 17.65 0 0 1 1.67 7.36c0 6.28-3.2 10.51-8.2 10.9v-16.62h-1.6v16.62c-4.98-.41-8.2-4.62-8.2-10.9a17.74 17.74 0 0 1 1.73-7.34l-3.03-1.66a1 1 0 0 0 -.95 1.76l1.5.8a19.38 19.38 0 0 0 -1.18 5.72h-1.9a1 1 0 0 0 0 2h1.93a14.62 14.62 0 0 0 1.66 6.17l-1.89 1.32a1 1 0 1 0 1.13 1.63l1.84-1.29a10.38 10.38 0 0 0 8.16 3.83 10.38 10.38 0 0 0 8.14-3.81l1.86 1.27a1 1 0 1 0 1.15-1.64l-1.86-1.3a14.61 14.61 0 0 0 1.65-6.18h1.89a1 1 0 0 0 0-2z"/><path d="m11.51 5.36a1.67 1.67 0 0 0 1.07-.51 3.21 3.21 0 0 1 1.18 1.15 16.38 16.38 0 0 0 -2.65 2.89 2 2 0 0 0 1.61 3.19h10.6a2 2 0 0 0 1.78-1.08 2 2 0 0 0 -.17-2.1 16.34 16.34 0 0 0 -2.68-2.9 3.21 3.21 0 0 1 1.17-1.11 1.68 1.68 0 1 0 -.42-1.62 4.77 4.77 0 0 0 -2 1.73 5.81 5.81 0 0 0 -2.93-1 5.83 5.83 0 0 0 -3 1 4.77 4.77 0 0 0 -2.07-1.73 1.68 1.68 0 1 0 -1.49 2.09zm6.49.71c1.45 0 3.53 1.57 5.31 4h-10.6c1.78-2.44 3.85-4 5.29-4z"/><path d="m0 0h36v36h-36z" fill="none"/></svg>