<svg height="36" preserveAspectRatio="xMidYMid meet" viewBox="0 0 36 36" width="36" xmlns="http://www.w3.org/2000/svg"><path d="m31 8h-8v2h8v21h-8v2h10v-23a2 2 0 0 0 -2-2z"/><path d="m19.88 3h-13.76a2.12 2.12 0 0 0 -2.12 2.12v27.88h18v-27.88a2.12 2.12 0 0 0 -2.12-2.12zm.12 28h-3v-3h-8v3h-3v-25.88a.12.12 0 0 1 .12-.12h13.76a.12.12 0 0 1 .12.12z"/><path d="m8 8h2v2h-2z"/><path d="m12 8h2v2h-2z"/><path d="m16 8h2v2h-2z"/><path d="m8 13h2v2h-2z"/><path d="m12 13h2v2h-2z"/><path d="m16 13h2v2h-2z"/><path d="m8 18h2v2h-2z"/><path d="m12 18h2v2h-2z"/><path d="m16 18h2v2h-2z"/><path d="m8 23h2v2h-2z"/><path d="m12 23h2v2h-2z"/><path d="m16 23h2v2h-2z"/><path d="m23 13h2v2h-2z"/><path d="m27 13h2v2h-2z"/><path d="m23 18h2v2h-2z"/><path d="m27 18h2v2h-2z"/><path d="m23 23h2v2h-2z"/><path d="m27 23h2v2h-2z"/><path d="m0 0h36v36h-36z" fill="none"/></svg>