<svg height="36" preserveAspectRatio="xMidYMid meet" viewBox="0 0 36 36" width="36" xmlns="http://www.w3.org/2000/svg"><path d="m18 2a15.92 15.92 0 0 0 -4.25.59l.77 1.86a14.07 14.07 0 1 1 -10 10l-1.86-.78a16 16 0 1 0 15.34-11.67z"/><path d="m7.45 15.7a10.81 10.81 0 1 0 8.3-8.26l.62 1.56a9.24 9.24 0 1 1 -7.37 7.32z"/><path d="m18 22.09a4.08 4.08 0 0 1 -4-3.68l-1.63-.68v.27a5.69 5.69 0 1 0 5.63-5.69h-.24l.67 1.69a4.07 4.07 0 0 1 -.43 8.09z"/><path d="m8.2 13.34a.5.5 0 0 0 .35.15h3.65l5.37 5.37a1 1 0 0 0 1.43-1.42l-5.47-5.44v-3.49a.5.5 0 0 0 -.15-.35l-5.59-5.59a.5.5 0 0 0 -.85.35v4h-3.94a.5.5 0 0 0 -.35.85z"/><path d="m0 0h36v36h-36z" fill="none"/></svg>