<svg height="36" preserveAspectRatio="xMidYMid meet" viewBox="0 0 36 36" width="36" xmlns="http://www.w3.org/2000/svg"><path d="m19 18.85a1 1 0 0 1 -1.41 0l-3-3a4 4 0 0 0 -.68 2.15 4.09 4.09 0 1 0 4.09-4.09 4 4 0 0 0 -2 .55l3 3a1 1 0 0 1 0 1.39z"/><path d="m18 2a15.92 15.92 0 0 0 -4.25.59l1.6 3.89a11.89 11.89 0 1 1 -8.86 8.82l-3.88-1.62a16 16 0 1 0 15.39-11.68z"/><path d="m8 15.94a10.17 10.17 0 1 0 8-7.94l1.69 4.11h.31a5.88 5.88 0 1 1 -5.88 5.89c0-.12 0-.23 0-.35z"/><path d="m8.2 13.34a.5.5 0 0 0 .35.15h3.65l2.35 2.35a4.09 4.09 0 0 1 1.45-1.38l-2.47-2.46v-3.49a.5.5 0 0 0 -.15-.35l-5.59-5.59a.5.5 0 0 0 -.85.35v4h-3.94a.5.5 0 0 0 -.35.85z"/><path d="m0 0h36v36h-36z" fill="none"/></svg>