<svg height="36" preserveAspectRatio="xMidYMid meet" viewBox="0 0 36 36" width="36" xmlns="http://www.w3.org/2000/svg"><path d="m28 2h-20a2 2 0 0 0 -2 2v28a2 2 0 0 0 2 2h20a2 2 0 0 0 2-2v-28a2 2 0 0 0 -2-2zm-20 30v-28h20v28z"/><path d="m12 8h13.67v-2h-14.67a1 1 0 0 0 -1 1v4.67h2z"/><path d="m12 16h-2v2h4v-4h-2z"/><path d="m24 16h-2v2h4v-4h-2z"/><path d="m18 16h-2v2h4v-4h-2z"/><path d="m12 22h-2v2h4v-4h-2z"/><path d="m24 22h-2v2h4v-4h-2z"/><path d="m18 22h-2v2h4v-4h-2z"/><path d="m12 28h-2v2h4v-4h-2z"/><path d="m24 28h-2v2h4v-4h-2z"/><path d="m18 28h-2v2h4v-4h-2z"/><path d="m0 0h36v36h-36z" fill="none"/></svg>