<svg height="36" preserveAspectRatio="xMidYMid meet" viewBox="0 0 36 36" width="36" xmlns="http://www.w3.org/2000/svg"><path d="m32 8h-7.3l-1.06-2.72a2 2 0 0 0 -1.86-1.28h-7.56a2 2 0 0 0 -1.87 1.28l-1.05 2.72h-7.3a2 2 0 0 0 -2 2v20a2 2 0 0 0 2 2h28a2 2 0 0 0 2-2v-20a2 2 0 0 0 -2-2zm-25.83 5.63a.8.8 0 0 1 0-1.6h2.4a.8.8 0 0 1 0 1.6zm11.83 14.37a9 9 0 1 1 9-9 9 9 0 0 1 -9 9z"/><path d="m11.11 19.06a7.07 7.07 0 0 0 4.11 6.41l1.09-1.74a5 5 0 1 1 5.22-8.39l1.09-1.76a7.06 7.06 0 0 0 -11.51 5.48z"/><path d="m0 0h36v36h-36z" fill="none"/></svg>