<svg height="36" preserveAspectRatio="xMidYMid meet" viewBox="0 0 36 36" width="36" xmlns="http://www.w3.org/2000/svg"><path d="m9.5 24c-1.9 0-3.5 1.6-3.5 3.5 0 1.9 1.6 3.5 3.5 3.5s3.5-1.6 3.5-3.5-1.6-3.5-3.5-3.5zm0 5c-.8 0-1.5-.7-1.5-1.5s.7-1.5 1.5-1.5 1.5.7 1.5 1.5-.7 1.5-1.5 1.5z"/><path d="m23.5 24c-1.9 0-3.5 1.6-3.5 3.5 0 1.9 1.5 3.5 3.5 3.5 1.9 0 3.5-1.6 3.5-3.5s-1.6-3.5-3.5-3.5zm0 5c-.8 0-1.5-.7-1.5-1.5s.7-1.5 1.5-1.5 1.5.7 1.5 1.5-.7 1.5-1.5 1.5z"/><path d="m33 20.1v-.1h-.1l-3.5-5.5c1.6-.9 2.6-2.5 2.6-4.2v-.6c0-2.6-2.1-4.7-4.7-4.7h-8.5c-1.9 0-3.7 1.2-4.4 3h-9.4c-1.7 0-3 1.3-3 3v17h2v-17c0-.6.4-1 1-1h10.9l.1-.8c.3-1.3 1.4-2.2 2.7-2.2h8.5c1.6 0 2.8 1.2 2.8 2.7v.5c0 1.5-1.2 2.7-2.7 2.7h-3.3v9h7.8l.2.3v2.8c0 .6-.4 1-1 1h-2v2h2c1.7 0 3-1.3 3-3v-3.3zm-7-.1v-5h1.5l3.1 5z"/><path d="m19 9h8v2h-8z"/><path d="m20 22h2v-9h-7v15h2v-13h3z"/><path d="m6 20h7v-7h-7zm2-5h3v3h-3z"/><path d="m0 0h36v36h-36z" fill="none"/></svg>