<svg height="36" preserveAspectRatio="xMidYMid meet" viewBox="0 0 36 36" width="36" xmlns="http://www.w3.org/2000/svg"><path d="m26.87 14.28a22.36 22.36 0 0 0 -7.22-7.38 9.64 9.64 0 0 0 -9-.7 8.6 8.6 0 0 0 -4.82 6.4c-.08.49-.15 1-.21 1.4h-1a2.59 2.59 0 0 0 -2.62 2.59v8.55a.86.86 0 0 0 .86.86h1.73c0-.13 0-.26 0-.39a5.77 5.77 0 0 1 7.71-5.45l-1 1a4.56 4.56 0 0 0 -4.34 1.58 3 3 0 0 0 -.63.93 4.5 4.5 0 1 0 8.49 2.33h5.48c0-.13 0-.26 0-.39a5.77 5.77 0 0 1 7.7-5.45l-1 1a4.56 4.56 0 0 0 -4.34 1.58 3 3 0 0 0 -.63.93 4.5 4.5 0 1 0 8.5 2.33h2.61a.86.86 0 0 0 .86-.86v-1.78a9.39 9.39 0 0 0 -7.13-9.08zm-14.87-.28h-4c0-.35.1-.71.16-1.07a6.52 6.52 0 0 1 3.87-5zm-1.64 14.36a2.5 2.5 0 1 1 2.5-2.5 2.5 2.5 0 0 1 -2.5 2.5zm8.64-9.36h-3v-2h3zm-6-5v-6.53a8.16 8.16 0 0 1 5.4 1.15 19.15 19.15 0 0 1 5.6 5.38zm13.06 14.36a2.5 2.5 0 1 1 2.5-2.5 2.5 2.5 0 0 1 -2.5 2.5z"/><path d="m0 0h36v36h-36z" fill="none"/></svg>