<svg height="36" preserveAspectRatio="xMidYMid meet" viewBox="0 0 36 36" width="36" xmlns="http://www.w3.org/2000/svg"><path d="m18 2a16 16 0 1 0 16 16 16 16 0 0 0 -16-16zm0 30a14 14 0 1 1 14-14 14 14 0 0 1 -14 14z"/><path d="m22.33 18a4.46 4.46 0 1 0 -4.45 4.46 4.46 4.46 0 0 0 4.45-4.46zm-4.45 2.9a2.86 2.86 0 1 1 2.85-2.9 2.86 2.86 0 0 1 -2.85 2.9z"/><path d="m17.88 7.43h.12v-1.59h-.12a12.21 12.21 0 0 0 -12.2 11.91h1.6a10.61 10.61 0 0 1 10.6-10.32z"/><path d="m30.08 18h-1.59a10.61 10.61 0 0 1 -10.24 10.63v1.6a12.22 12.22 0 0 0 11.84-12.23s-.01 0-.01 0z"/><path d="m18 11v-1.56h-.12a8.62 8.62 0 0 0 -8.6 8.32h1.6a7 7 0 0 1 7-6.72z"/><path d="m18.25 25v1.6a8.61 8.61 0 0 0 8.23-8.6h-1.6a7 7 0 0 1 -6.63 7z"/><path d="m0 0h36v36h-36z" fill="none"/></svg>