<svg height="36" preserveAspectRatio="xMidYMid meet" viewBox="0 0 36 36" width="36" xmlns="http://www.w3.org/2000/svg"><path d="m18.17 1.92a16 16 0 1 0 16 16 16 16 0 0 0 -16-16zm8.06 16.08h1.54a9.61 9.61 0 0 1 -9.6 9.53h-.17v-1.53h.17a8.07 8.07 0 0 0 8.06-8zm-20.18 0h-1.6v-.08a13.72 13.72 0 0 1 13.55-13.71v1.6a12.13 12.13 0 0 0 -11.95 12.11zm4.05 0h-1.54v-.08a9.61 9.61 0 0 1 9.44-9.6v1.54a8.07 8.07 0 0 0 -7.9 8.06zm4.32-.08a3.75 3.75 0 1 1 3.75 3.75 3.75 3.75 0 0 1 -3.75-3.75zm3.75 13.71h-.17v-1.63h.17a12.13 12.13 0 0 0 12.11-12h1.6a13.73 13.73 0 0 1 -13.71 13.63z"/><path d="m0 0h36v36h-36z" fill="none"/></svg>