<svg height="36" preserveAspectRatio="xMidYMid meet" viewBox="0 0 36 36" width="36" xmlns="http://www.w3.org/2000/svg"><path d="m18 2.5c-8.82 0-16 6.28-16 14s7.18 14 16 14a18 18 0 0 0 4.88-.68l5.53 3.52a1 1 0 0 0 1.54-.84v-6.73a13 13 0 0 0 4-9.27c.05-7.72-7.13-14-15.95-14zm8 14a1 1 0 0 1 -1 1h-14a1 1 0 0 1 0-2h14a1 1 0 0 1 1 1zm-3.25 5a1 1 0 0 1 -1 1h-7.5a1 1 0 0 1 0-2h7.5a1 1 0 0 1 1 1zm-12.47-10a1 1 0 0 1 1-1h13.44a1 1 0 0 1 0 2h-13.44a1 1 0 0 1 -1-1z"/><path d="m0 0h36v36h-36z" fill="none"/></svg>