<svg height="36" preserveAspectRatio="xMidYMid meet" viewBox="0 0 36 36" width="36" xmlns="http://www.w3.org/2000/svg"><path d="m29.29 5h-2.29v2h2v25h-22v-25h2v-2h-2a1.75 1.75 0 0 0 -2 1.69v25.62a1.7 1.7 0 0 0 1.71 1.69h22.58a1.7 1.7 0 0 0 1.71-1.69v-25.62a1.7 1.7 0 0 0 -1.71-1.69z"/><path d="m26 7.33a2.34 2.34 0 0 0 -2.33-2.33h-1.8a4 4 0 0 0 -7.75 0h-1.79a2.34 2.34 0 0 0 -2.33 2.33v3.67h16zm-2 1.67h-12v-1.67a.33.33 0 0 1 .33-.33h3.67v-1a2 2 0 0 1 4 0v1h3.67a.33.33 0 0 1 .33.33z"/><path d="m11 14h14v2h-14z"/><path d="m11 18h14v2h-14z"/><path d="m11 22h14v2h-14z"/><path d="m11 26h14v2h-14z"/><path d="m0 0h36v36h-36z" fill="none"/></svg>