<svg height="36" preserveAspectRatio="xMidYMid meet" viewBox="0 0 36 36" width="36" xmlns="http://www.w3.org/2000/svg"><path d="m6.32 11.11h1.52l.16-.87a7.19 7.19 0 0 1 7.07-6.24h.07a7.15 7.15 0 0 1 4.71 1.83 11.1 11.1 0 0 1 3.09.64 9.18 9.18 0 0 0 -7.78-4.47h-.09a9.2 9.2 0 0 0 -8.94 7.11 6.15 6.15 0 0 0 -3.8 10.84 8.09 8.09 0 0 1 .67-2.24 4.12 4.12 0 0 1 -.81-2.44 4.16 4.16 0 0 1 4.13-4.16z"/><path d="m10.4 16.91h1.52l.08-.91a7.19 7.19 0 0 1 7.12-6.25h.07a7.17 7.17 0 0 1 5.7 2.92 11.05 11.05 0 0 1 2.72.77 9.2 9.2 0 0 0 -8.4-5.69h-.09a9.2 9.2 0 0 0 -8.94 7.12 6.15 6.15 0 0 0 -3.64 11 8.11 8.11 0 0 1 .79-2 4.14 4.14 0 0 1 3-7z"/><path d="m32.42 24.47v-.62a9.18 9.18 0 0 0 -18.13-2.16 6.16 6.16 0 0 0 .19 12.31h16.52a4.88 4.88 0 0 0 1.46-9.53zm-1.42 7.53h-16.52a4.16 4.16 0 1 1 0-8.32h1.52l.11-.87a7.19 7.19 0 0 1 7.12-6.25h.07a7.21 7.21 0 0 1 7.12 7.25v1 .2l-.07 1.11.94.11a2.88 2.88 0 0 1 -.29 5.77z"/><path d="m0 0h36v36h-36z" fill="none"/></svg>