<svg height="36" preserveAspectRatio="xMidYMid meet" viewBox="0 0 36 36" width="36" xmlns="http://www.w3.org/2000/svg"><path d="m30.71 15.18v-1a11.28 11.28 0 0 0 -11.15-11.35h-.11a11.28 11.28 0 0 0 -11 8.93 7.47 7.47 0 0 0 0 14.94h20.68a5.86 5.86 0 0 0 1.58-11.52zm-1.58 9.52h-20.67a5.47 5.47 0 1 1 0-10.94h1.69l.11-.87a9.27 9.27 0 0 1 18.45 1.3v1.28.27l-.07 1.15.94.11a3.86 3.86 0 0 1 -.43 7.71z"/><path d="m29.58 31.18h-10.73v-2.4h-2v2.4h-10.77a1 1 0 0 0 0 2h23.5a1 1 0 0 0 0-2z"/><path d="m0 0h36v36h-36z" fill="none"/></svg>