<svg height="36" preserveAspectRatio="xMidYMid meet" viewBox="0 0 36 36" width="36" xmlns="http://www.w3.org/2000/svg"><path d="m27.14 33h-16.52c-4.95 0-9.62-4.81-9.62-9.9a10 10 0 0 1 8-9.75 10.19 10.19 0 0 1 20.33 1.06 10.07 10.07 0 0 1 -.33 2.25 8.29 8.29 0 0 1 6 8c0 4.44-3.67 8.34-7.86 8.34zm-8.05-26.77a8.24 8.24 0 0 0 -8.19 8v.87l-.86.1a7.94 7.94 0 0 0 -7.04 7.9c0 4 3.77 7.9 7.62 7.9h16.52c3.07 0 5.86-3 5.86-6.35a6.31 6.31 0 0 0 -5.37-6.26l-1.18-.18.39-1.13a8.18 8.18 0 0 0 -7.75-10.85z"/><path d="m0 0h36v36h-36z" fill="none"/></svg>