<svg height="36" preserveAspectRatio="xMidYMid meet" viewBox="0 0 36 36" width="36" xmlns="http://www.w3.org/2000/svg"><path d="m31.36 8h-3.86v2h3.5v20h-3.5v2h5.5v-22.33a1.65 1.65 0 0 0 -1.64-1.67z"/><path d="m5 10h3.5v-2h-3.86a1.65 1.65 0 0 0 -1.64 1.67v22.33h5.5v-2h-3.5z"/><ellipse cx="18.01" cy="25.99" rx="1.8" ry="1.79"/><path d="m24.32 4h-12.64a1.68 1.68 0 0 0 -1.68 1.68v26.32h16v-26.32a1.68 1.68 0 0 0 -1.68-1.68zm-.32 26h-12v-24h12z"/><path d="m13.5 9.21h9v1.6h-9z"/><path d="m0 0h36v36h-36z" fill="none"/></svg>