<svg height="36" preserveAspectRatio="xMidYMid meet" viewBox="0 0 36 36" width="36" xmlns="http://www.w3.org/2000/svg"><path d="m21.6 29a1 1 0 0 0 -1-1h-6a1 1 0 0 0 0 2h6a1 1 0 0 0 1-1z"/><path d="m22.54 24h-6a1 1 0 0 0 0 2h6a1 1 0 0 0 0-2z"/><path d="m22 32h-6a1 1 0 0 0 0 2h6a1 1 0 0 0 0-2z"/><path d="m32.7 32h-7a1 1 0 0 0 0 2h7a1 1 0 0 0 0-2z"/><path d="m33.7 28h-7a1 1 0 0 0 0 2h7a1 1 0 0 0 0-2z"/><path d="m33.74 26a28 28 0 0 0 -2.82-10.12 20.24 20.24 0 0 0 -6.32-7.17l2.4-5.29a1 1 0 0 0 -.07-1 1 1 0 0 0 -.8-.42h-16.33a1 1 0 0 0 -.91 1.42l2.45 5.31a20.33 20.33 0 0 0 -6.28 7.15c-2.15 4-2.82 8.89-3 12.28a3.6 3.6 0 0 0 1 2.71 3.79 3.79 0 0 0 2.74 1.07h6.2v-1.94h-6.28a1.68 1.68 0 0 1 -1.21-.52 1.62 1.62 0 0 1 -.45-1.23c.14-2.61.69-7.58 2.76-11.45a18 18 0 0 1 6.26-6.8h1a30.81 30.81 0 0 0 -1.87 2.92 22.78 22.78 0 0 0 -1.47 3.34l1.37.92a24 24 0 0 1 1.49-3.47 29.1 29.1 0 0 1 2.45-3.71h1a21.45 21.45 0 0 1 1.41 5 22.54 22.54 0 0 1 .32 3.86l1.58-1.11a24.15 24.15 0 0 0 -.32-3 24.82 24.82 0 0 0 -1.28-4.75h.78l.91-2h-7.24l-1.85-4h13.21l-2.5 5.47a9.93 9.93 0 0 1 1.23.78 18.63 18.63 0 0 1 5.86 6.57 26.59 26.59 0 0 1 2.57 9.18z"/><path d="m0 0h36v36h-36z" fill="none"/></svg>