<svg height="36" preserveAspectRatio="xMidYMid meet" viewBox="0 0 36 36" width="36" xmlns="http://www.w3.org/2000/svg"><path d="m33 21h-30a1 1 0 0 0 -1 1v6a1 1 0 0 0 1 1h30a1 1 0 0 0 1-1v-6a1 1 0 0 0 -1-1zm-1 6h-28v-4h28z"/><path d="m18 20.22 5.65-5.65a.81.81 0 0 0 0-1.14.8.8 0 0 0 -1.13 0l-4.52 4.57-4.52-4.52a.8.8 0 0 0 -1.13 0 .81.81 0 0 0 0 1.14z"/><path d="m18 14.22 5.65-5.65a.81.81 0 0 0 0-1.14.8.8 0 0 0 -1.13 0l-4.52 4.57-4.52-4.57a.8.8 0 0 0 -1.13 0 .81.81 0 0 0 0 1.14z"/><path d="m0 0h36v36h-36z" fill="none"/></svg>