<svg height="36" viewBox="0 0 36 36" width="36" xmlns="http://www.w3.org/2000/svg"><path d="m32.23 14.89c-2.1-.56-4.93 1.8-6.34.3-1.71-1.82 2.27-5.53 1.86-8.92-.33-2.78-3.51-4.08-6.66-4.1a18.5 18.5 0 0 0 -13.35 5.42c-6.64 6.59-8.07 16-1.37 22.48 6.21 6 16.61 4.23 22.67-1.4a17.73 17.73 0 0 0 4.22-6.54c1.08-2.9 1.18-6.64-1.03-7.24zm-22.83-4.32a2.23 2.23 0 0 1 2.87 1.21 2.22 2.22 0 0 1 -1.81 2.53 2.22 2.22 0 0 1 -2.87-1.21 2.23 2.23 0 0 1 1.81-2.53zm-4.33 10.25a2.22 2.22 0 0 1 1.82-2.53 2.22 2.22 0 0 1 2.86 1.21 2.23 2.23 0 0 1 -1.81 2.5 2.24 2.24 0 0 1 -2.87-1.18zm7 8.33a2.22 2.22 0 0 1 -2.87-1.21 2.23 2.23 0 0 1 1.8-2.53 2.23 2.23 0 0 1 2.87 1.21 2.22 2.22 0 0 1 -1.87 2.53zm2.93-20.89a2.23 2.23 0 0 1 1.81-2.53 2.24 2.24 0 0 1 2.87 1.21 2.22 2.22 0 0 1 -1.82 2.53 2.21 2.21 0 0 1 -2.86-1.21zm5.82 22.19a2.22 2.22 0 0 1 -2.87-1.21 2.23 2.23 0 0 1 1.81-2.53 2.24 2.24 0 0 1 2.87 1.21 2.22 2.22 0 0 1 -1.85 2.53zm5-10.46a3.2 3.2 0 0 1 -1.69 1.76 3.53 3.53 0 0 1 -1.4.3 2.78 2.78 0 0 1 -2.56-1.5 2.49 2.49 0 0 1 -.07-2 3.2 3.2 0 0 1 1.69-1.76 3 3 0 0 1 4 1.2 2.54 2.54 0 0 1 0 2.01z"/></svg>