<svg height="36" preserveAspectRatio="xMidYMid meet" viewBox="0 0 36 36" width="36" xmlns="http://www.w3.org/2000/svg"><path d="m33.73 2.11a4.09 4.09 0 0 0 -5.76.1l-5.16 5.17a3.13 3.13 0 0 1 -4.3.11l-1.42 1.42 9.91 9.88 1.42-1.42a3.18 3.18 0 0 1 .04-4.37l5.17-5.17a4.08 4.08 0 0 0 .1-5.72z"/><path d="m22.18 16.79-14.72 14.72a2 2 0 1 1 -2.82-2.83l14.71-14.68-1.41-1.41-14.72 14.68a4 4 0 0 0 -.68 4.8l-1.48 1.48a1 1 0 0 0 0 1.41 1 1 0 0 0 1.41 0l1.44-1.44a3.93 3.93 0 0 0 2.09.6 4.06 4.06 0 0 0 2.88-1.2l14.72-14.71z"/><path d="m0 0h36v36h-36z" fill="none"/></svg>