<svg height="36" viewBox="0 0 36 36" width="36" xmlns="http://www.w3.org/2000/svg"><path d="m21.54 23.05a3.22 3.22 0 0 1 -3-1.77 3.05 3.05 0 0 1 -.04-2.28 3.74 3.74 0 0 1 1.95-2.06 3.4 3.4 0 0 1 4.55 1.36 3 3 0 0 1 .08 2.32 3.69 3.69 0 0 1 -2 2.07 3.85 3.85 0 0 1 -1.54.36zm.54-4.91a2.41 2.41 0 0 0 -1 .21 2.13 2.13 0 0 0 -1.08 1.16 1.37 1.37 0 0 0 0 1.09 1.81 1.81 0 0 0 2.45.63 2.1 2.1 0 0 0 1.12-1.15 1.4 1.4 0 0 0 0-1.1 1.59 1.59 0 0 0 -1.49-.84z"/><path d="m16.19 33.87a13.72 13.72 0 0 1 -9.79-3.87 13.86 13.86 0 0 1 -4.4-10c0-4.4 2-8.84 5.68-12.5a18.2 18.2 0 0 1 13.1-5.37h.12c3.33 0 6.85 1.49 7.24 4.73.21 1.77-.59 3.47-1.29 5-.55 1.17-1.11 2.39-.72 2.81s1 .12 2.09-.2a6.27 6.27 0 0 1 3.38-.36 3 3 0 0 1 1.87 1.56c.94 1.83.47 4.67-.23 6.54a17.38 17.38 0 0 1 -4.24 6.53 19.43 19.43 0 0 1 -12.81 5.13zm4.59-29.71a16.22 16.22 0 0 0 -11.69 4.84c-3.3 3.23-5.09 7.16-5.09 11a11.92 11.92 0 0 0 3.8 8.6c5.38 5.25 14.62 3.55 19.87-1.33a15.52 15.52 0 0 0 3.7-5.75c.7-1.9.84-3.92.32-4.92a1 1 0 0 0 -.61-.55 4.86 4.86 0 0 0 -2.29.35c-1.31.39-3 .89-4.12-.35-1.32-1.4-.46-3.25.37-5a7.93 7.93 0 0 0 1.11-3.9c-.24-2-2.81-2.95-5.26-3z"/><path d="m23.87 26.65a2.59 2.59 0 0 0 -1.52-1.65l-.35-.1-.46 1.53h.16a1 1 0 0 1 .6.61c.17.6-.41 1.31-1.26 1.55s-1.71-.07-1.88-.66l-1.54.43a2.83 2.83 0 0 0 2.84 1.91 4 4 0 0 0 1-.14 3 3 0 0 0 2.41-3.48z"/><path d="m15.07 25.59a2.73 2.73 0 0 0 -2.24-1.84l-.27 1.58a1.12 1.12 0 0 1 1 .7c.17.59-.41 1.3-1.26 1.54a1.92 1.92 0 0 1 -1.3-.05 1 1 0 0 1 -.6-.61s0-.09 0-.13l-1.58.16a2 2 0 0 0 .06.41 2.59 2.59 0 0 0 1.49 1.65 3.36 3.36 0 0 0 1.31.25 3.7 3.7 0 0 0 1-.14 3 3 0 0 0 2.39-3.52z"/><path d="m10.78 19.17a2.59 2.59 0 0 0 -1.52-1.65 2.91 2.91 0 0 0 -.5-.16l-.37 1.56a1.21 1.21 0 0 1 .25.08 1 1 0 0 1 .6.6c.17.6-.41 1.31-1.26 1.55s-1.71-.06-1.88-.66a.86.86 0 0 1 0-.39l-1.56-.34a2.4 2.4 0 0 0 0 1.16 2.83 2.83 0 0 0 2.86 1.91 4 4 0 0 0 1-.14 3 3 0 0 0 2.38-3.52z"/><path d="m13.45 11.4a2.59 2.59 0 0 0 -1.52-1.65 1.17 1.17 0 0 0 -.2-.06l-.52 1.51a.38.38 0 0 1 .1 0 1 1 0 0 1 .6.6c.17.6-.41 1.31-1.26 1.55a2.06 2.06 0 0 1 -1.28-.05 1 1 0 0 1 -.6-.61.85.85 0 0 1 0-.32l-1.58-.19a2.3 2.3 0 0 0 .06.94 2.56 2.56 0 0 0 1.5 1.68 3.37 3.37 0 0 0 1.31.26 4 4 0 0 0 1-.14 3 3 0 0 0 2.39-3.52z"/><path d="m21 6.78a2.56 2.56 0 0 0 -1.52-1.65l-.3-.1-.48 1.53h.15a1 1 0 0 1 .6.61c.17.6-.41 1.3-1.26 1.54s-1.71-.06-1.88-.65a.9.9 0 0 1 .06-.58l-1.48-.58a2.47 2.47 0 0 0 -.12 1.63 2.84 2.84 0 0 0 2.84 1.91 3.58 3.58 0 0 0 1-.15 3 3 0 0 0 2.39-3.51z"/></svg>