<svg height="36" preserveAspectRatio="xMidYMid meet" viewBox="0 0 36 36" width="36" xmlns="http://www.w3.org/2000/svg"><path d="m18 2a16 16 0 1 0 16 16 16 16 0 0 0 -16-16zm-11.53 17h-2.42c0-.33-.05-.66-.05-1s0-.67.05-1h2.42zm10.53-14.95c.33 0 .66-.05 1-.05s.67 0 1 .05v2.42h-2zm2 27.9c-.33 0-.66.05-1 .05s-.67 0-1-.05v-2.42h2zm8-5.58a.59.59 0 0 1 -.69.16l-10.56-6.15-6.15-10.56c-.25-.47.39-1.1.86-.84l10.37 6.33 6.33 10.37a.59.59 0 0 1 -.16.69zm2.53-7.37v-2h2.42c0 .33.05.66.05 1s0 .67-.05 1z"/><path d="m16.77 19.35 7.58 4.42-4.55-7.44z"/><path d="m0 0h36v36h-36z" fill="none"/></svg>