<svg height="36" preserveAspectRatio="xMidYMid meet" viewBox="0 0 36 36" width="36" xmlns="http://www.w3.org/2000/svg"><path d="m9.6 22.88v-12.28h14.8l1.58-1.6h-17.98v13.88z"/><path d="m6 7h24v16h2v-16.5a1.5 1.5 0 0 0 -1.5-1.5h-25a1.5 1.5 0 0 0 -1.5 1.5v16.5h2z"/><path d="m1 25v3.4a2.6 2.6 0 0 0 2.6 2.6h28.74a2.6 2.6 0 0 0 2.6-2.6v-3.4zm32 3.4a.6.6 0 0 1 -.6.6h-28.84a.6.6 0 0 1 -.6-.6v-1.87h9.95a1.64 1.64 0 0 0 1.5 1h7.13a1.64 1.64 0 0 0 1.5-1h9.96z"/><path d="m0 0h36v36h-36z" fill="none"/></svg>