<svg height="36" preserveAspectRatio="xMidYMid meet" viewBox="0 0 36 36" width="36" xmlns="http://www.w3.org/2000/svg"><path d="m20.82 15.31-10.36-6.31c-.46-.26-1.11.37-.86.84l6.15 10.56 10.56 6.15a.66.66 0 0 0 .84-.86zm-4 4 3-3 4.55 7.44z"/><path d="m18 2a16 16 0 1 0 16 16 16 16 0 0 0 -16-16zm1 29.95v-2.42h-2v2.42a14 14 0 0 1 -12.95-12.95h2.42v-2h-2.42a14 14 0 0 1 12.95-12.95v2.42h2v-2.42a14 14 0 0 1 12.95 12.95h-2.42v2h2.42a14 14 0 0 1 -12.95 12.95z"/><path d="m0 0h36v36h-36z" fill="none"/></svg>