<svg height="36" preserveAspectRatio="xMidYMid meet" viewBox="0 0 36 36" width="36" xmlns="http://www.w3.org/2000/svg"><path d="m32 30h-28a2 2 0 0 1 -2-2v-20a2 2 0 0 1 2-2h28a2 2 0 0 1 2 2v20a2 2 0 0 1 -2 2zm-28-22v20h28v-20z"/><path d="m9 25.3a.8.8 0 0 1 -.8-.8v-13a.8.8 0 0 1 1.6 0v13a.8.8 0 0 1 -.8.8z"/><path d="m14.92 25.3a.8.8 0 0 1 -.8-.8v-13a.8.8 0 0 1 1.6 0v13a.8.8 0 0 1 -.8.8z"/><path d="m21 25.3a.8.8 0 0 1 -.8-.8v-13a.8.8 0 0 1 1.6 0v13a.8.8 0 0 1 -.8.8z"/><path d="m27 25.3a.8.8 0 0 1 -.8-.8v-13a.8.8 0 0 1 1.6 0v13a.8.8 0 0 1 -.8.8z"/><path d="m0 0h36v36h-36z" fill="none"/></svg>