<svg height="36" preserveAspectRatio="xMidYMid meet" viewBox="0 0 36 36" width="36" xmlns="http://www.w3.org/2000/svg"><path d="m8 8.2002h16v1.5996h-16z"/><path d="m8 16.2002h8.0864v1.5996h-8.0864z"/><path d="m23.378 12.2h-15.378v1.6h13.779z"/><path d="m12.7935 29.0723a2.4694 2.4694 0 0 0 2.1948.8237h7.8032a.7.7 0 0 0 0-1.4h-7.8032c-.9113-.0157-.749-.8071-.6216-1.0522a3.962 3.962 0 0 0 .3872-.9151 1.1827 1.1827 0 0 0 -.6157-1.3213 1.8987 1.8987 0 0 0 -2.24.5171c-.3442.3545-.8222.8975-1.28 1.4258.2832-1.1089.65-2.5322 1.01-3.9209a1.3154 1.3154 0 0 0 -.7553-1.6255 1.4252 1.4252 0 0 0 -1.7754.793c-.4312.8315-3.8511 6.562-3.8858 6.62a.7.7 0 1 0 1.2022.7178c.1279-.2144 2.8579-4.7881 3.7187-6.315-.6472 2.5003-1.3616 5.2824-1.4036 5.5324a.8686.8686 0 0 0 .4072.9688.9192.9192 0 0 0 1.106-.2236c.1255-.1143.3618-.3858.9565-1.0767.563-.6543 1.2686-1.4645 1.7032-1.9209.2179-.229.35-.1279.2221.0982a2.291 2.291 0 0 0 -.3305 2.2744z"/><path d="m28 21.6951v10.3049h-24v-28h24v4.9926l1.33-1.33a4.3043 4.3043 0 0 1 .67-.54v-4.1226a1 1 0 0 0 -1-1h-26a1 1 0 0 0 -1 1v30a1 1 0 0 0 1 1h26a1 1 0 0 0 1-1v-11.5726a2.91 2.91 0 0 1 -2 .2677z"/><path d="m34.1282 11.8613-.5227-.5229a1.8983 1.8983 0 0 0 -.11-2.4234 1.9555 1.9555 0 0 0 -2.7513.1618l-12.5242 12.5237-.8368 3.1423a.2344.2344 0 0 0 .2958.2944l3.131-.8472 11.6921-11.6921.4943.4948a.3711.3711 0 0 1 0 .5249l-4.917 4.917a.8.8 0 0 0 1.1318 1.1318l4.917-4.917a1.9721 1.9721 0 0 0 0-2.7881z"/></svg>