<svg height="36" preserveAspectRatio="xMidYMid meet" viewBox="0 0 36 36" width="36" xmlns="http://www.w3.org/2000/svg"><path d="m8 17.58a32.35 32.35 0 0 0 6.3.92 4.13 4.13 0 0 1 .92-1.37 30.94 30.94 0 0 1 -7.22-1z"/><path d="m6 28v-19.81c.34-.76 4.31-2.11 11-2.11s10.67 1.35 11 2v.3c-.82.79-4.58 2.05-11.11 2.05a33.48 33.48 0 0 1 -8.89-.99v1.44a35.6 35.6 0 0 0 8.89 1c4.29 0 8.8-.58 11.11-1.82v5.07a5.3 5.3 0 0 1 -1.81.88h3.81v-7.89c0-3.19-8.17-4-13-4s-13 .85-13 4v19.88c0 2.63 5.39 3.68 10 4v-2c-4.87-.34-7.72-1.38-8-2z"/><path d="m8 24.28a31.3 31.3 0 0 0 6 .89v-1.4a28.93 28.93 0 0 1 -6-.93z"/><path d="m32 18h-14a2 2 0 0 0 -2 2v12a2 2 0 0 0 2 2h14a2 2 0 0 0 2-2v-12a2 2 0 0 0 -2-2zm-14 14v-12h14v12z"/><path d="m21 21.7a.7.7 0 0 0 -.7.7v7.49a.7.7 0 0 0 1.4 0v-7.49a.7.7 0 0 0 -.7-.7z"/><path d="m25 21.82a.7.7 0 0 0 -.7.7v7.48a.7.7 0 1 0 1.4 0v-7.48a.7.7 0 0 0 -.7-.7z"/><path d="m29 21.7a.7.7 0 0 0 -.7.7v7.49a.7.7 0 1 0 1.4 0v-7.49a.7.7 0 0 0 -.7-.7z"/><path d="m0 0h36v36h-36z" fill="none"/></svg>