<svg height="36" viewBox="0 0 36 36" width="36" xmlns="http://www.w3.org/2000/svg"><path d="m8 24.59a25.5 25.5 0 0 0 2.75.59l1.21-1.41a24.13 24.13 0 0 1 -4-.83z"/><path d="m6 27.53v-17.23c2.9 1.43 8.34 1.88 12 1.88s9.1-.45 12-1.88v5.11c-.91.82-5 2.13-12 2.13a34.81 34.81 0 0 1 -10-1.21v1.67a40.86 40.86 0 0 0 10 1.16c3.46 0 9.13-.45 12-1.91v3.23h2v-12.48s0 0 0-.07c0-3.35-8.8-4.25-14-4.25s-14 .9-14 4.25v19.6c0 2 3.17 3.14 6.83 3.72l-2.45-2.57c-1.38-.4-2.25-.84-2.38-1.15zm12-21.85c7.15 0 11.53 1.44 12 2.25-.46.81-4.84 2.25-12 2.25s-11.69-1.49-12-2.18c.31-.82 4.71-2.32 12-2.32z"/><path d="m32.09 22h-16.63l-5.41 6.31 5.44 5.69h16.6a2 2 0 0 0 2-2v-8.07a2 2 0 0 0 -2-1.93zm0 10h-15.75l-3.59-3.77 3.63-4.23h15.71z"/><path d="m16.11 27a1 1 0 1 0 1 1 1 1 0 0 0 -1-1z"/></svg>