<svg height="36" preserveAspectRatio="xMidYMid meet" viewBox="0 0 36 36" width="36" xmlns="http://www.w3.org/2000/svg"><path d="m23.08 23.07h-11v1.5h11.75a.75.75 0 0 0 .75-.75v-12.49h-1.5z"/><path d="m32.2 18.15a.8.8 0 1 0 0-1.6h-2.2v-5.4h2.2a.8.8 0 1 0 0-1.6h-2.2v-1.45a2.1 2.1 0 0 0 -2.1-2.1h-1.55v-2.2a.8.8 0 1 0 -1.6 0v2.2h-5.4v-2.2a.8.8 0 1 0 -1.6 0v2.2h-5.4v-2.2a.8.8 0 1 0 -1.6 0v2.2h-2.65a2.1 2.1 0 0 0 -2.1 2.1v1.45h-2.2a.8.8 0 1 0 0 1.6h2.2v5.4h-2.2a.8.8 0 1 0 0 1.6h2.2v5.4h-2.2a.8.8 0 1 0 0 1.6h2.2v2.75a2.1 2.1 0 0 0 2.1 2.1h2.65v2.2a.8.8 0 1 0 1.6 0v-2.2h5.4v2.2a.8.8 0 1 0 1.6 0v-2.2h5.4v2.2a.8.8 0 1 0 1.6 0v-2.2h1.55a2.1 2.1 0 0 0 2.1-2.1v-2.75h2.2a.8.8 0 1 0 0-1.6h-2.2v-5.4zm-4.2 9.75a.1.1 0 0 1 -.1.1h-19.8a.1.1 0 0 1 -.1-.1v-19.8a.1.1 0 0 1 .1-.1h19.8a.1.1 0 0 1 .1.1z"/><path d="m0 0h36v36h-36z" fill="none"/></svg>