<svg height="36" preserveAspectRatio="xMidYMid meet" viewBox="0 0 36 36" width="36" xmlns="http://www.w3.org/2000/svg"><path d="m18 29a11 11 0 1 1 11-11 11 11 0 0 1 -11 11zm0-20a9 9 0 1 0 9 9 9 9 0 0 0 -9-9z"/><path d="m18 23a5 5 0 1 1 5-5 5 5 0 0 1 -5 5zm0-8a3 3 0 1 0 3 3 3 3 0 0 0 -3-3z"/><path d="m18 9a1 1 0 0 1 -1-1v-5.2a1 1 0 0 1 2 0v5.2a1 1 0 0 1 -1 1z"/><path d="m18 34a1 1 0 0 1 -1-1v-5a1 1 0 0 1 2 0v5a1 1 0 0 1 -1 1z"/><path d="m8 19h-4.83a1 1 0 0 1 0-2h4.83a1 1 0 0 1 0 2z"/><path d="m33.1 19h-5.1a1 1 0 0 1 0-2h5.1a1 1 0 0 1 0 2z"/><path d="m0 0h36v36h-36z" fill="none"/></svg>