<svg height="36" viewBox="0 0 36 36" width="36" xmlns="http://www.w3.org/2000/svg"><path d="m2.6 11.93a1.4 1.4 0 1 0 1.4 1.4 1.4 1.4 0 0 0 -1.4-1.4z"/><ellipse cx="33.83" cy="13.33" rx="1.39" ry="1.39"/><path d="m18.22 6.39a1.39 1.39 0 1 0 -1.38-1.39 1.39 1.39 0 0 0 1.38 1.39z"/><path d="m31.63 16.1a18.61 18.61 0 0 0 -3.63 1.24 21.57 21.57 0 0 0 -4 2.49 19.2 19.2 0 0 1 -2.26-3.49 48.92 48.92 0 0 1 -2.52-6.58 1 1 0 0 0 -1-.71 1 1 0 0 0 -1 .71 48.42 48.42 0 0 1 -2.52 6.58 18.69 18.69 0 0 1 -2.26 3.48 22.81 22.81 0 0 0 -4-2.48 18.83 18.83 0 0 0 -3.54-1.24 1 1 0 0 0 -1 .33 1 1 0 0 0 -.13 1.07 55.9 55.9 0 0 1 4 13.5 1 1 0 0 0 1 .83h19a1 1 0 0 0 1-.83 55.9 55.9 0 0 1 4-13.5 1 1 0 0 0 -.13-1.07 1 1 0 0 0 -1.01-.33zm-20.55 12.45a1.11 1.11 0 1 1 1.1-1.11 1.11 1.11 0 0 1 -1.1 1.11zm7.15 0a1.11 1.11 0 0 1 0-2.21 1.11 1.11 0 0 1 0 2.21zm7.16 0a1.11 1.11 0 1 1 1.1-1.11 1.11 1.11 0 0 1 -1.1 1.11z"/></svg>