<svg height="36" viewBox="0 0 36 36" width="36" xmlns="http://www.w3.org/2000/svg"><path d="m4 13.33a1.39 1.39 0 1 0 -1.4 1.39 1.39 1.39 0 0 0 1.4-1.39z"/><path d="m31.81 15.84a20.35 20.35 0 0 0 -4.58 1.43 22.7 22.7 0 0 0 -3.48 2.1 17.69 17.69 0 0 1 -1.75-2.8 47.65 47.65 0 0 1 -2.8-7.69 1 1 0 0 0 -1-.74 1 1 0 0 0 -1 .74 46.71 46.71 0 0 1 -2.8 7.69 17 17 0 0 1 -1.76 2.8 22.7 22.7 0 0 0 -3.48-2.1 20.66 20.66 0 0 0 -4.58-1.43 1 1 0 0 0 -1 .39 1 1 0 0 0 -.09 1.05 50.13 50.13 0 0 1 4.33 13.89 1 1 0 0 0 1 .83h18.8a1 1 0 0 0 1-.83 50.15 50.15 0 0 1 4.26-13.89 1 1 0 0 0 -.09-1.05 1 1 0 0 0 -.98-.39zm-5.02 14.16h-17.15a55.66 55.66 0 0 0 -3.4-11.71 15.75 15.75 0 0 1 2.09.78 20 20 0 0 1 3.85 2.45 1 1 0 0 0 1.39-.09 19.28 19.28 0 0 0 2.67-4 43.46 43.46 0 0 0 2-4.89 41.74 41.74 0 0 0 2 4.89 19.92 19.92 0 0 0 2.66 4 1 1 0 0 0 1.4.09 19.21 19.21 0 0 1 3.85-2.45 14.77 14.77 0 0 1 2.09-.78 55.07 55.07 0 0 0 -3.45 11.71z"/><ellipse cx="33.83" cy="13.33" rx="1.39" ry="1.39"/><path d="m18.22 6.39a1.39 1.39 0 1 0 -1.38-1.39 1.39 1.39 0 0 0 1.38 1.39z"/><path d="m18.23 26.34a1.11 1.11 0 1 0 1.1 1.1 1.1 1.1 0 0 0 -1.1-1.1z"/><path d="m12.58 26.34a1.11 1.11 0 1 0 1.1 1.1 1.1 1.1 0 0 0 -1.1-1.1z"/><path d="m23.89 26.34a1.11 1.11 0 1 0 1.1 1.1 1.1 1.1 0 0 0 -1.1-1.1z"/></svg>