<svg height="36" preserveAspectRatio="xMidYMid meet" viewBox="0 0 36 36" width="36" xmlns="http://www.w3.org/2000/svg"><path d="m25.18 12.32-5.91 5.81a3 3 0 1 0 1.41 1.42l5.92-5.81z"/><path d="m18 4.25a16.49 16.49 0 0 0 -12.6 27.15l.3.35h24.6l.3-.35a16.49 16.49 0 0 0 -12.6-27.15zm11.34 25.5h-22.68a14.43 14.43 0 0 1 -3.11-7.84h3.45v-2h-3.45a14.41 14.41 0 0 1 3.45-8.62l2.45 2.45 1.41-1.41-2.43-2.46a14.41 14.41 0 0 1 8.57-3.58v3.5h2v-3.49a14.47 14.47 0 0 1 13.4 13.61h-3.48v2h3.53a14.43 14.43 0 0 1 -3.11 7.84z"/><path d="m0 0h36v36h-36z" fill="none"/></svg>