<svg height="36" preserveAspectRatio="xMidYMid meet" viewBox="0 0 36 36" width="36" xmlns="http://www.w3.org/2000/svg"><path d="m18 4.25a16.49 16.49 0 0 0 -12.6 27.15l.3.35h24.6l.3-.35a16.49 16.49 0 0 0 -12.6-27.15zm8.6 9.48-5.92 5.81a3 3 0 1 1 -1.41-1.42l5.91-5.81zm-23 6.17h3.4v2h-3.44c0-.39-.05-.77-.05-1.17s.02-.55.04-.83zm4.88-10 2.46 2.46-1.47 1.38-2.47-2.45a14.57 14.57 0 0 1 1.43-1.42zm10.52-.11h-2v-3.5h1s.7 0 1 .05zm13.49 10.95c0 .39 0 .79-.05 1.17h-3.52v-2h3.53c.02.27.04.55.04.83z"/><path d="m0 0h36v36h-36z" fill="none"/></svg>