<svg height="36" preserveAspectRatio="xMidYMid meet" viewBox="0 0 36 36" width="36" xmlns="http://www.w3.org/2000/svg"><path d="m26.5 4.08c-3.73 0-7.5 1.32-7.5 3.83v1.59a18.75 18.75 0 0 1 2 .2v-1.79c0-.65 2.09-1.84 5.5-1.84s5.5 1.2 5.5 1.84v10.33c0 .54-1.46 1.44-3.9 1.73v2c3.13-.32 5.9-1.6 5.9-3.75v-10.31c0-2.51-3.77-3.83-7.5-3.83z"/><path d="m4 18.24v-10.33c0-.65 2.09-1.84 5.5-1.84s5.5 1.2 5.5 1.84v1.79a18.75 18.75 0 0 1 2-.2v-1.59c0-2.52-3.77-3.84-7.5-3.84s-7.5 1.33-7.5 3.84v10.33c0 2.16 2.77 3.43 5.9 3.76v-2c-2.44-.32-3.9-1.22-3.9-1.76z"/><path d="m18 10.85c-4.93 0-8.65 1.88-8.65 4.38v12.31c0 2.5 3.72 4.38 8.65 4.38s8.65-1.88 8.65-4.38v-12.31c0-2.5-3.72-4.38-8.65-4.38zm6.65 7.67c-.85 1-3.42 2-6.65 2a14.49 14.49 0 0 1 -4-.52v1.46a16.33 16.33 0 0 0 4 .47 12.76 12.76 0 0 0 6.65-1.56v3.12c-.85 1-3.42 2-6.65 2a14.49 14.49 0 0 1 -4-.53v1.46a16.33 16.33 0 0 0 4 .47 12.76 12.76 0 0 0 6.65-1.56v2.29c0 .95-2.65 2.38-6.65 2.38s-6.65-1.43-6.65-2.38v-12.39c0-.95 2.65-2.38 6.65-2.38s6.65 1.43 6.65 2.38z"/><path d="m0 0h36v36h-36z" fill="none"/></svg>