<svg height="36" preserveAspectRatio="xMidYMid meet" viewBox="0 0 36 36" width="36" xmlns="http://www.w3.org/2000/svg"><path d="m26.5 4.08c-3.73 0-7.5 1.32-7.5 3.83v1.57c5.3.26 9 2.6 9 5.76v6.7l.05.06c3.13-.32 5.9-1.6 5.9-3.75v-10.34c.05-2.51-3.72-3.83-7.45-3.83z"/><path d="m17 9.48v-1.57c0-2.52-3.77-3.84-7.5-3.84s-7.5 1.33-7.5 3.84v10.33c0 2.16 2.77 3.43 5.9 3.76l.1-.07v-6.7c0-3.15 3.7-5.49 9-5.75z"/><path d="m18 10.85c-4.93 0-8.65 1.88-8.65 4.38v12.31c0 2.5 3.72 4.38 8.65 4.38s8.65-1.88 8.65-4.38v-2.16a13.58 13.58 0 0 1 -8.65 2.62 16.77 16.77 0 0 1 -6-1v-1.73a14.5 14.5 0 0 0 6 1.17c4.21 0 7.65-1.23 8.63-3.23v-2.74c-1.83 1.53-4.91 2.53-8.63 2.53a16.77 16.77 0 0 1 -6-1v-1.77a14.5 14.5 0 0 0 6 1.17c4.21 0 7.65-1.11 8.63-3.11v-3.06c.02-2.5-3.7-4.38-8.63-4.38z"/><path d="m0 0h36v36h-36z" fill="none"/></svg>