<svg height="36" preserveAspectRatio="xMidYMid meet" viewBox="0 0 36 36" width="36" xmlns="http://www.w3.org/2000/svg"><path d="m9 17.41v9.59h9.59l-2-2h-5.59v-5.59z"/><path d="m34.87 32.29-2.87-2.91v2.62h-28v-4.15h2v-1.6h-2v-6.65h2v-1.6h-2v-6.4h2v-1.6h-2v-5.59l15.94 15.85v-2.82l-16.23-16.15a1 1 0 0 0 -1.71.71v31a1 1 0 0 0 1 1h31.16a1 1 0 0 0 .71-1.71z"/><path d="m24 30h4a2 2 0 0 0 2-2v-19.3l-2.3-4.23a2 2 0 0 0 -1.76-1 2 2 0 0 0 -1.76 1.08l-2.18 4.17v19.28a2 2 0 0 0 2 2zm0-20.8 1.94-3.77 2.06 3.78v14.79h-4zm0 16.43h4v2.44h-4z"/><path d="m0 0h36v36h-36z" fill="none"/></svg>