<svg height="36" preserveAspectRatio="xMidYMid meet" viewBox="0 0 36 36" width="36" xmlns="http://www.w3.org/2000/svg"><path d="m17 33.9c-3.9 0-7.9-1.5-10.5-4.5-.9.7-2 1.3-3.1 1.8-.5.2-1.1 0-1.3-.5s0-1.1.5-1.3c1-.4 1.9-.9 2.7-1.5-1.2-1.9-1.9-4.3-1.9-7.1 0-5.3 2.5-8.1 4.8-8.1 1.5 0 3.2 1.2 3.2 4.7 0 4.7-1.1 8.2-3.5 10.8 2.2 2.6 5.6 3.9 9 3.9.6 0 1 .4 1 1s-.3.8-.9.8zm-8.8-19.3c-1 0-2.8 1.8-2.8 6.1 0 2.2.5 4.1 1.4 5.6 1.8-2.1 2.7-5.1 2.7-9.1 0-1.5-.5-2.6-1.3-2.6z"/><path d="m33.3 4.8c-.8-1.4-2.1-2.4-3.6-2.8-.5-.1-1.1.2-1.2.7l-.9 3.4-1.6-2.8c-.1-.2-.4-.4-.7-.5s-.6 0-.8.2c-1.1.8-1.8 1.9-2.2 3.2l-4.2 15.4c-.4 1.5-.2 3.2.6 4.6.6 1.1 1.6 1.9 2.7 2.5l-1.1 4c-.1.5.2 1.1.7 1.2h.3c.4 0 .8-.3 1-.7l1.1-3.9h.6c1 0 2-.3 3-.8 1.4-.8 2.4-2.1 2.8-3.6l1.6-5.8 1.6-5.8c.1-.4 0-.8-.4-1.1-.3-.2-.8-.3-1.1-.1l-4 2.3.6-2.1 5.7-3.2c.3-.2.5-.5.5-.8-.1-1.2-.4-2.4-1-3.5zm-9.1 2c.1-.5.3-.9.6-1.3l1.9 3.4-1.4 5.1-2.1-3.7zm-3.8 18.4c-.5-.9-.7-2-.4-3l2.5-9.2 2.1 3.7-1.4 5.3-1.3 4.7c-.6-.3-1.1-.8-1.5-1.5zm7.3-.9c-.3 1-.9 1.9-1.9 2.4-.6.4-1.3.5-2 .5l1.2-4.2 3.7-2.1zm2.6-9.2-.8 3.1-3.7 2.1.8-3.1zm-1.7-5.5.1-.4c.1-.1.1-.3.1-.4l1.2-4.5c.6.3 1.1.9 1.5 1.5.3.6.5 1.2.5 1.8z"/><path d="m0 0h36v36h-36z" fill="none"/></svg>