<svg height="36" preserveAspectRatio="xMidYMid meet" viewBox="0 0 36 36" width="36" xmlns="http://www.w3.org/2000/svg"><path d="m12.17 6a6.21 6.21 0 0 0 -6.17 5h-3.87v2h3.87a6.23 6.23 0 0 0 6.21 5h4.79v-12zm2.93 10h-2.93a4.2 4.2 0 0 1 -4.31-4 4.17 4.17 0 0 1 4.31-4h2.93z"/><path d="m33.92 23h-3.78a6.25 6.25 0 0 0 -6.21-5h-4.93v2h-5a1 1 0 1 0 0 2h5v4h-5a1 1 0 0 0 -1 1 1 1 0 0 0 1 1h5v2h4.94a6.23 6.23 0 0 0 6.22-5h3.76zm-10 5h-2.92v-8h2.94a4.17 4.17 0 0 1 4.31 4 4.17 4.17 0 0 1 -4.31 4z"/><path d="m0 0h36v36h-36z" fill="none"/></svg>