<svg height="36" preserveAspectRatio="xMidYMid meet" viewBox="0 0 36 36" width="36" xmlns="http://www.w3.org/2000/svg"><path d="m32.5 3h-29a1.5 1.5 0 0 0 -1.5 1.5v21a1.5 1.5 0 0 0 1.5 1.5h29a1.5 1.5 0 0 0 1.5-1.5v-21a1.5 1.5 0 0 0 -1.5-1.5zm-.5 22h-28v-20h28z"/><path d="m7.7 8.76h20.43l1.81-1.6h-23.84v15.84h1.6z"/><path d="m26 32h-1.74a3.61 3.61 0 0 1 -1.5-2.52v-1.35h-1.52v1.37a4.2 4.2 0 0 0 .93 2.5h-8.34a4.2 4.2 0 0 0 .93-2.52v-1.35h-1.52v1.37a3.61 3.61 0 0 1 -1.5 2.5h-1.8a1 1 0 1 0 0 2h16.12a.92.92 0 0 0 1-1 1 1 0 0 0 -1.06-1z"/><path d="m0 0h36v36h-36z" fill="none"/></svg>