<svg height="36" preserveAspectRatio="xMidYMid meet" viewBox="0 0 36 36" width="36" xmlns="http://www.w3.org/2000/svg"><path d="m8.88 13.07a.9.9 0 0 1 -.49-1.66l8.93-5.73a.9.9 0 1 1 1 1.52l-8.95 5.72a.9.9 0 0 1 -.49.15z"/><path d="m13.25 15.11a.9.9 0 0 1 -.49-1.66l5.24-3.37a.9.9 0 1 1 1 1.52l-5.26 3.4a.9.9 0 0 1 -.49.11z"/><path d="m19.72 30.23a.9.9 0 0 1 -.49-1.66l8.93-5.73a.9.9 0 0 1 1 1.52l-8.96 5.73a.9.9 0 0 1 -.48.14z"/><path d="m18.92 25.94a.9.9 0 0 1 -.49-1.66l5.25-3.37a.9.9 0 1 1 1 1.51l-5.28 3.38a.89.89 0 0 1 -.48.14z"/><path d="m21.56 5.69a3.59 3.59 0 0 1 .15 3.53l-2.88 5.78h2.25l2.43-4.87a5.61 5.61 0 0 0 -5-8.14h-5.25l-1 2h6.22a3.61 3.61 0 0 1 3.08 1.7z"/><path d="m32.91 20.78a5.53 5.53 0 0 0 -5.25-3.78h-18.35a3.54 3.54 0 0 1 -3.56-3.67 3.61 3.61 0 0 1 .42-1.54l4.26-8.49a1 1 0 1 0 -1.79-.9l-4.24 8.44a5.67 5.67 0 0 0 -.4 4.38 5.53 5.53 0 0 0 5.28 3.78h7.6l-3.44 6.87a5.64 5.64 0 0 0 1.5 6.92 5.38 5.38 0 0 0 3.47 1.21h5.25l1-2h-6.23a3.58 3.58 0 0 1 -3.22-5.21l3.9-7.79h8.54a3.42 3.42 0 0 1 2.15.71 3.57 3.57 0 0 1 1 4.43l-4.12 8.22a1 1 0 1 0 1.79.9l4.06-8.1a5.67 5.67 0 0 0 .38-4.38z"/><path d="m0 0h36v36h-36z" fill="none"/></svg>