<svg height="36" preserveAspectRatio="xMidYMid meet" viewBox="0 0 36 36" width="36" xmlns="http://www.w3.org/2000/svg"><path d="m32 8h-28a2 2 0 0 0 -2 2v16a2 2 0 0 0 2 2h28a2 2 0 0 0 2-2v-16a2 2 0 0 0 -2-2zm0 6a4.25 4.25 0 0 1 -3.9-4h3.9zm0 1.62v4.83a5.87 5.87 0 0 0 -5.51 5.55h-17a5.87 5.87 0 0 0 -5.49-5.56v-4.84a5.87 5.87 0 0 0 5.51-5.6h17a5.87 5.87 0 0 0 5.49 5.6zm-24.1-5.62a4.25 4.25 0 0 1 -3.9 4v-4zm-3.9 12.06a4.25 4.25 0 0 1 3.9 3.94h-3.9zm24.1 3.94a4.25 4.25 0 0 1 3.9-3.94v3.94z"/><path d="m18 10.85c-3.47 0-6.3 3.21-6.3 7.15s2.83 7.15 6.3 7.15 6.3-3.21 6.3-7.15-2.83-7.15-6.3-7.15zm0 12.69c-2.59 0-4.7-2.49-4.7-5.55s2.11-5.55 4.7-5.55 4.7 2.49 4.7 5.55-2.11 5.56-4.7 5.56z"/><path d="m0 0h36v36h-36z" fill="none"/></svg>