<svg height="36" preserveAspectRatio="xMidYMid meet" viewBox="0 0 36 36" width="36" xmlns="http://www.w3.org/2000/svg"><path d="m18 2a16 16 0 1 0 16 16 16 16 0 0 0 -16-16zm7.65 21.59c-1 3-3.61 3.84-5.9 4v2a1.25 1.25 0 0 1 -2.5 0v-2a11.47 11.47 0 0 1 -6.25-2.59 1.25 1.25 0 1 1 1.71-1.83 9.11 9.11 0 0 0 4.55 1.94v-6.28a9.63 9.63 0 0 1 -3.73-1.41 4.8 4.8 0 0 1 -1.91-5.84c.59-1.51 2.42-3.23 5.64-3.51v-1.82a1.25 1.25 0 0 1 2.5 0v1.86a9.67 9.67 0 0 1 4.9 2 1.25 1.25 0 0 1 -1.66 1.84 7.14 7.14 0 0 0 -3.24-1.31v6.13c.6.13 1.24.27 1.91.48a5.85 5.85 0 0 1 3.69 2.82 4.64 4.64 0 0 1 .29 3.52z"/><path d="m20.92 19.64c-.4-.12-.79-.22-1.17-.3v5.76c2-.2 3.07-.9 3.53-2.3a2.15 2.15 0 0 0 -.15-1.58 3.49 3.49 0 0 0 -2.21-1.58z"/><path d="m13.94 12.48a2.31 2.31 0 0 0 1 2.87 6.53 6.53 0 0 0 2.32.92v-5.72c-2.1.25-3.07 1.29-3.32 1.93z"/><path d="m0 0h36v36h-36z" fill="none"/></svg>