<svg height="36" preserveAspectRatio="xMidYMid meet" viewBox="0 0 36 36" width="36" xmlns="http://www.w3.org/2000/svg"><path d="m16 16h15v2h-15z"/><path d="m20 21h11v2h-11z"/><path d="m34 8h-21.07a8.35 8.35 0 0 1 .79 2h19.28v16h-30v-6.1a7.83 7.83 0 0 1 -2-1.34v8.44a1 1 0 0 0 1 1h32a1 1 0 0 0 1-1v-18a1 1 0 0 0 -1-1z"/><path d="m6.57 18.68a6.17 6.17 0 0 0 4.32-1.59 1.2 1.2 0 0 0 .36-.84 1.08 1.08 0 0 0 -1.09-1.11 1 1 0 0 0 -.71.25 4.32 4.32 0 0 1 -2.84 1 3.35 3.35 0 0 1 -3.46-3h7.53a1.29 1.29 0 0 0 1.32-1.33 5.68 5.68 0 0 0 -5.73-5.92 6 6 0 0 0 -5.87 6.26 6 6 0 0 0 6.17 6.28zm-.32-10.29c1.82 0 2.87 1.39 3 3.16h-6.12c.25-1.86 1.43-3.16 3.12-3.16z"/><path d="m0 0h36v36h-36z" fill="none"/></svg>