<svg height="36" preserveAspectRatio="xMidYMid meet" viewBox="0 0 36 36" width="36" xmlns="http://www.w3.org/2000/svg"><path d="m35.62 12a2.82 2.82 0 0 0 -.84-2l-7.29-7.35a2.9 2.9 0 0 0 -4 0l-20.66 20.63a2.84 2.84 0 0 0 0 4l4.7 4.72h-4.53a1 1 0 0 0 0 2h25a1 1 0 0 0 0-2h-11.26l18-18a2.82 2.82 0 0 0 .88-2zm-21.71 20h-3.55l-6.11-6.11a.84.84 0 0 1 0-1.19l5.51-5.52 8.49 8.48zm19.46-19.46-13.71 13.71-8.48-8.49 13.7-13.7a.86.86 0 0 1 1.19 0l7.3 7.29a.86.86 0 0 1 .25.6.82.82 0 0 1 -.25.59z"/><path d="m0 0h36v36h-36z" fill="none"/></svg>