<svg height="36" preserveAspectRatio="xMidYMid meet" viewBox="0 0 36 36" width="36" xmlns="http://www.w3.org/2000/svg"><path d="m18.37 11.17a6.79 6.79 0 0 0 -2.37.43l8.8 8.8a6.78 6.78 0 0 0 .43-2.4 6.86 6.86 0 0 0 -6.86-6.83z"/><path d="m34.29 17.53c-3.37-6.23-9.28-10-15.82-10a16.82 16.82 0 0 0 -5.24.85l1.61 1.62a14.78 14.78 0 0 1 3.63-.47c5.63 0 10.75 3.14 13.8 8.43a17.75 17.75 0 0 1 -4.37 5.1l1.42 1.42a19.93 19.93 0 0 0 5-6l.26-.48z"/><path d="m4.87 5.78 4.46 4.46a19.52 19.52 0 0 0 -6.69 7.29l-.26.47.26.48c3.37 6.23 9.28 10 15.82 10a16.93 16.93 0 0 0 7.37-1.69l5 5 1.75-1.5-26-26zm8.3 8.3a6.85 6.85 0 0 0 9.55 9.55l1.6 1.6a14.91 14.91 0 0 1 -5.86 1.2c-5.63 0-10.75-3.14-13.8-8.43a17.29 17.29 0 0 1 6.12-6.3z"/><path d="m0 0h36v36h-36z" fill="none"/></svg>