<svg height="36" viewBox="0 0 36 36" width="36" xmlns="http://www.w3.org/2000/svg"><path d="m33.47 7.37a1 1 0 0 0 -1 .06l-9.47 6.34v-5.51a1 1 0 0 0 -1.64-.77l-7.88 6.51h-3.48v-9.38a1 1 0 0 0 -.78-1l-4-.9a1 1 0 0 0 -.85.2 1 1 0 0 0 -.37.81v10.27h-1a1 1 0 0 0 -1 1v16a1 1 0 0 0 1 1h30a1 1 0 0 0 1-1v-22.74a1 1 0 0 0 -.53-.89zm-27.47-2.37 2 .44v8.56h-2zm26 25h-28v-14h9.83a1 1 0 0 0 .64-.23l6.53-5.4v5.28a1 1 0 0 0 1.56.83l9.44-6.34z"/><path d="m6 17.99h8v2h-8z"/><path d="m6 21.99h8v2h-8z"/><path d="m6 25.99h8v2h-8z"/><path d="m19 18.99h2v3h-2z"/><path d="m19 24.99h2v3h-2z"/><path d="m23 18.99h2v3h-2z"/><path d="m23 24.99h2v3h-2z"/><path d="m27 18.99h2v3h-2z"/><path d="m27 24.99h2v3h-2z"/></svg>