<svg height="36" preserveAspectRatio="xMidYMid meet" viewBox="0 0 36 36" width="36" xmlns="http://www.w3.org/2000/svg"><path d="m31 34h-18a1 1 0 0 1 -1-1v-22a1 1 0 0 1 1-1h18a1 1 0 0 1 1 1v22a1 1 0 0 1 -1 1zm-17-2h16v-20h-16z"/><path d="m16 16h12v2h-12z"/><path d="m16 20h12v2h-12z"/><path d="m16 24h12v2h-12z"/><path d="m6 24v-20h18v-1a1 1 0 0 0 -1-1h-18a1 1 0 0 0 -1 1v22a1 1 0 0 0 1 1h1z"/><path d="m10 28v-20h18v-1a1 1 0 0 0 -1-1h-18a1 1 0 0 0 -1 1v22a1 1 0 0 0 1 1h1z"/><path d="m0 0h36v36h-36z" fill="none"/></svg>