<svg height="36" preserveAspectRatio="xMidYMid meet" viewBox="0 0 36 36" width="36" xmlns="http://www.w3.org/2000/svg"><path d="m30 30.2v-18.2l-8.1-7.9h-14.1c-1 0-1.8.8-1.8 1.9v24.2c0 1 .7 1.8 1.7 1.8h.1 20.3c1 0 1.8-.7 1.8-1.7.1 0 .1-.1.1-.1zm-8-23.6 5.6 5.4h-5.6zm6 23.4h-20.1l.1-24h12v8h8z"/><path d="m12 24c0 1.7 1.3 3 3 3s3-1.3 3-3v-4h-6zm1.4 0v-2.6h3.2v2.6c.1.9-.6 1.7-1.5 1.7-.9.1-1.7-.6-1.7-1.5 0 0 0-.1 0-.2z"/><path d="m18.2 9c0-.6-.4-1-1-1h-2.2v2h2.2c.6 0 1-.4 1-1z"/><path d="m12.7 10c-.6 0-1 .4-1 1s.4 1 1 1h2.3v-2z"/><path d="m17.2 14c.6 0 1-.4 1-1s-.4-1-1-1h-2.2v2z"/><path d="m11.7 15c0 .6.4 1 1 1h2.3v-2h-2.3c-.5 0-1 .4-1 1z"/><path d="m17.2 18c.6 0 1-.4 1-1s-.4-1-1-1h-2.2v2z"/><path d="m0 0h36v36h-36z" fill="none"/></svg>