<svg height="36" preserveAspectRatio="xMidYMid meet" viewBox="0 0 36 36" width="36" xmlns="http://www.w3.org/2000/svg"><path d="m30 4h-24a2 2 0 0 0 -2 2v24a2 2 0 0 0 2 2h24a2 2 0 0 0 2-2v-24a2 2 0 0 0 -2-2zm0 26h-24v-24h24z"/><path d="m14.6 23.07a1.29 1.29 0 0 0 1.24.09l8.73-4a1.3 1.3 0 0 0 0-2.37l-8.73-4a1.3 1.3 0 0 0 -1.84 1.21v8a1.29 1.29 0 0 0 .6 1.07zm1-8.6 7.71 3.53-7.71 3.51z"/><path d="m8 7h2v3h-2z"/><path d="m14 7h2v3h-2z"/><path d="m20 7h2v3h-2z"/><path d="m26 7h2v3h-2z"/><path d="m8 26h2v3h-2z"/><path d="m14 26h2v3h-2z"/><path d="m20 26h2v3h-2z"/><path d="m26 26h2v3h-2z"/><path d="m0 0h36v36h-36z" fill="none"/></svg>