<svg height="36" viewBox="0 0 36 36" width="36" xmlns="http://www.w3.org/2000/svg"><path d="m32 6h-8.09v-1.5a2.5 2.5 0 0 0 -2.5-2.5h-7a2.5 2.5 0 0 0 -2.5 2.5v1.5h-7.91a2 2 0 0 0 -2 2v20a2 2 0 0 0 2 2h28a2 2 0 0 0 2-2v-20a2 2 0 0 0 -2-2zm-18.09-1.5a.5.5 0 0 1 .5-.5h7a.5.5 0 0 1 .5.5v1.5h-8zm-9.91 23.5v-20h28v20z"/><path d="m20.15 25.2h-3.41a1.3 1.3 0 0 1 -1.3-1.3v-2.7h-2.7a1.3 1.3 0 0 1 -1.3-1.3v-3.4a1.3 1.3 0 0 1 1.3-1.3h2.7v-2.7a1.3 1.3 0 0 1 1.3-1.3h3.41a1.3 1.3 0 0 1 1.29 1.3v2.7h2.71a1.3 1.3 0 0 1 1.29 1.3v3.4a1.3 1.3 0 0 1 -1.29 1.3h-2.71v2.7a1.3 1.3 0 0 1 -1.29 1.3zm-3.15-1.6h2.81v-4h4v-2.8h-4v-4h-2.81v4h-4v2.8h4z"/></svg>