<svg height="36" preserveAspectRatio="xMidYMid meet" viewBox="0 0 36 36" width="36" xmlns="http://www.w3.org/2000/svg"><circle cx="11.49" cy="17.5" r="1.5"/><path d="m33.48 9.29a1 1 0 0 0 -1 0c-3.37 2-5.91 5.81-6.9 7.45l-.73 1.26s-1 1.62-1 1.62c-1.76 2.49-5.1 6.36-8.79 6.36-4.65 0-8.75-6.15-9.84-7.94 1.09-1.79 5.18-7.94 9.84-7.94 3.54 0 6.77 3.58 8.58 6.07l.28-.48s.36-.51.93-1.25c-2.13-2.8-5.67-6.38-9.85-6.38-6.59 0-11.67 9.07-11.88 9.46l-.23.48.27.48c.21.39 5.29 9.46 11.88 9.46 5.06 0 9.22-5.34 11-8-.04.06 1.14-1.94 1.14-1.94l.07-.11a18.06 18.06 0 0 1 1.88-2.75s0 0 0 0a20.31 20.31 0 0 1 2.86-3v11.74a20.93 20.93 0 0 1 -3.61-4l-.16.26-1 1.59a18.74 18.74 0 0 0 5.21 4.95 1 1 0 0 0 .5.14 1.13 1.13 0 0 0 .5-.13 1 1 0 0 0 .5-.87v-15.66a1 1 0 0 0 -.45-.87z"/><path d="m0 0h36v36h-36z" fill="none"/></svg>