<svg height="36" preserveAspectRatio="xMidYMid meet" viewBox="0 0 36 36" width="36" xmlns="http://www.w3.org/2000/svg"><path d="m5.92 2a1 1 0 0 0 -1 1v30a1 1 0 0 0 2 0v-30a1 1 0 0 0 -1-1z"/><path d="m30.5 3.82a1 1 0 0 0 -1 0 14.9 14.9 0 0 1 -6.13 1.16 13.11 13.11 0 0 1 -5.18-1.49 12.78 12.78 0 0 0 -4.99-1.49 10.86 10.86 0 0 0 -4.2.85v17.15a8.8 8.8 0 0 1 4.25-1.08 11.22 11.22 0 0 1 4.2 1.28 14.84 14.84 0 0 0 6 1.66 16.79 16.79 0 0 0 7-1.37 1 1 0 0 0 .55-.89v-14.93a1 1 0 0 0 -.5-.85z"/><path d="m0 0h36v36h-36z" fill="none"/></svg>