<svg height="36" preserveAspectRatio="xMidYMid meet" viewBox="0 0 36 36" width="36" xmlns="http://www.w3.org/2000/svg"><path d="m35.32 13.74a1.71 1.71 0 0 0 -1.45-.74h-22.7a2.59 2.59 0 0 0 -2.25 1.52 1 1 0 0 0 0 .14l-2.92 10.34v-18h6.49l2.61 3.59a1 1 0 0 0 .81.41h16.09a2 2 0 0 0 -2-2h-13.58l-2.31-3.18a2 2 0 0 0 -1.62-.82h-6.49a2 2 0 0 0 -2 2v22.69a1.37 1.37 0 0 0 1.41 1.31h24.93a1 1 0 0 0 1-.72l4.19-15.1a1.64 1.64 0 0 0 -.21-1.44zm-5.77 15.26h-22.65l3.88-13.81a.66.66 0 0 1 .38-.24h22.33z"/><path d="m0 0h36v36h-36z" fill="none"/></svg>