<svg height="36" preserveAspectRatio="xMidYMid meet" viewBox="0 0 36 36" width="36" xmlns="http://www.w3.org/2000/svg"><path d="m18.37 21.71-8.07-4.83a1 1 0 0 1 -.47-.83v-9.78l2.24 3a1 1 0 0 0 1.59-1.27l-4-5.33a1 1 0 0 0 -1.66.02l-4 5.31a1 1 0 0 0 .2 1.4 1 1 0 0 0 .6.2 1 1 0 0 0 .8-.39l2.23-3v9.78a3 3 0 0 0 1.45 2.61l8.06 4.82a1.37 1.37 0 0 1 .66 1.17v8.83a1 1 0 0 0 2 0v-8.83a3.37 3.37 0 0 0 -1.63-2.88z"/><path d="m31.66 8-4-5.33a1 1 0 0 0 -1.59 0l-4.07 5.33a1 1 0 0 0 .2 1.4 1 1 0 0 0 .6.2 1 1 0 0 0 .8-.39l2.32-3.07v9.89a1 1 0 0 1 -.47.83l-.11.08-4.87 3.88a5.52 5.52 0 0 1 1.11 1.68l5-4a3 3 0 0 0 1.38-2.51v-9.61l2.15 2.85a1 1 0 1 0 1.55-1.23z"/><path d="m0 0h36v36h-36z" fill="none"/></svg>