<svg height="36" preserveAspectRatio="xMidYMid meet" viewBox="0 0 36 36" width="36" xmlns="http://www.w3.org/2000/svg"><path d="m21 12h-14a1 1 0 0 1 -1-1v-4a1 1 0 0 1 1-1h14a1 1 0 0 1 1 1v4a1 1 0 0 1 -1 1zm-13-2h12v-2.06h-12z"/><path d="m21 14.08h-14a1 1 0 0 0 -1 1v3.92a1 1 0 0 0 1 1h11.36l3.64-3.7v-1.22a1 1 0 0 0 -1-1zm-1 3.92h-12v-2h12z"/><path d="m11.06 31.51v-.06l.32-1.39h-7.38v-26.06h20v10.25l2-1.89v-9.36a1 1 0 0 0 -1-1h-22a1 1 0 0 0 -1 1v28a1 1 0 0 0 1 1h8a3.44 3.44 0 0 1 .06-.49z"/><path d="m22 19.17-.78.79a1 1 0 0 0 .78-.79z"/><path d="m6 26.94a1 1 0 0 0 1 1h4.84l.3-1.3.13-.55v-.05h-4.27v-2.04h6.34l2-2h-9.34a1 1 0 0 0 -1 1z"/><path d="m33.49 16.67-3.37-3.37a1.61 1.61 0 0 0 -2.28 0l-13.71 13.79-1.13 4.81a1.61 1.61 0 0 0 1.26 1.9 1.55 1.55 0 0 0 .31 0 1.15 1.15 0 0 0 .37 0l4.85-1.07 13.7-13.73a1.6 1.6 0 0 0 0-2.27zm-14.72 14.24-3.66.81.89-3.63 10.28-10.39 2.82 2.82zm11.46-11.52-2.82-2.82 1.59-1.57 2.84 2.84z"/><path d="m0 0h36v36h-36z" fill="none"/></svg>