<svg height="36" preserveAspectRatio="xMidYMid meet" viewBox="0 0 36 36" width="36" xmlns="http://www.w3.org/2000/svg"><path d="m20.12 34h-14.22a2.81 2.81 0 0 1 -2.9-2.81v-26.33a2.9 2.9 0 0 1 3-2.79h14.22a2.72 2.72 0 0 1 2.78 2.79v26.33a2.82 2.82 0 0 1 -2.88 2.81zm-14.22-30a.87.87 0 0 0 -.9.86v26.33a.87.87 0 0 0 .87.87h14.25a.94.94 0 0 0 .95-.87v-26.33a.94.94 0 0 0 -.95-.86z"/><path d="m29.53 34a3.5 3.5 0 0 1 -3.53-3.5v-7.5a2 2 0 0 0 -2-2h-1.43a1 1 0 0 1 0-2h1.43a4 4 0 0 1 4 4v7.5a1.5 1.5 0 0 0 3 0v-13.2l-3.13-7a2.29 2.29 0 0 0 -2.07-1.3h-.73a1 1 0 1 1 0-2h.73a4.3 4.3 0 0 1 3.93 2.55l3.21 7.16a1 1 0 0 1 .09.41v13.38a3.5 3.5 0 0 1 -3.5 3.5z"/><path d="m18 9h-10a1 1 0 1 1 0-2h10a1 1 0 0 1 0 2z"/><path d="m18 13h-10a1 1 0 1 1 0-2h10a1 1 0 1 1 0 2z"/><path d="m25 12.08a1 1 0 0 1 -1-1v-6a1 1 0 0 1 2 0v6a1 1 0 0 1 -1 1z"/><path d="m0 0h36v36h-36z" fill="none"/></svg>