<svg height="36" preserveAspectRatio="xMidYMid meet" viewBox="0 0 36 36" width="36" xmlns="http://www.w3.org/2000/svg"><path d="m15 17h-11a2 2 0 0 1 -2-2v-7a2 2 0 0 1 2-2h11a2 2 0 0 1 2 2v7a2 2 0 0 1 -2 2zm-11-9v7h11v-7z"/><path d="m32 17h-11a2 2 0 0 1 -2-2v-7a2 2 0 0 1 2-2h11a2 2 0 0 1 2 2v7a2 2 0 0 1 -2 2zm-11-9v7h11v-7z"/><path d="m15 30h-11a2 2 0 0 1 -2-2v-7a2 2 0 0 1 2-2h11a2 2 0 0 1 2 2v7a2 2 0 0 1 -2 2zm-11-9v7h11v-7z"/><path d="m32 30h-11a2 2 0 0 1 -2-2v-7a2 2 0 0 1 2-2h11a2 2 0 0 1 2 2v7a2 2 0 0 1 -2 2zm-11-9v7h11v-7z"/><path d="m0 0h36v36h-36z" fill="none"/></svg>