<svg height="36" preserveAspectRatio="xMidYMid meet" viewBox="0 0 36 36" width="36" xmlns="http://www.w3.org/2000/svg"><path d="m12 16.14q-.43 0-.87 0a8.67 8.67 0 0 0 -6.43 2.52l-.24.28v8.28h4.08v-4.7l.55-.62.25-.29a11 11 0 0 1 4.71-2.86 6.59 6.59 0 0 1 -2.05-2.61z"/><path d="m31.34 18.63a8.67 8.67 0 0 0 -6.43-2.52 10.47 10.47 0 0 0 -1.09.06 6.59 6.59 0 0 1 -2 2.45 10.91 10.91 0 0 1 5 3l.25.28.54.62v4.71h3.94v-8.32z"/><path d="m11.1 14.19h.31a6.45 6.45 0 0 1 3.11-6.29 4.09 4.09 0 1 0 -3.42 6.33z"/><path d="m24.43 13.44a6.54 6.54 0 0 1 0 .69 4.09 4.09 0 0 0 .58.05h.19a4.09 4.09 0 1 0 -3.73-6.18 6.53 6.53 0 0 1 2.96 5.44z"/><circle cx="17.87" cy="13.45" r="4.47"/><path d="m18.11 20.3a9.69 9.69 0 0 0 -7.11 2.7l-.25.28v6.33a1.57 1.57 0 0 0 1.6 1.54h11.49a1.57 1.57 0 0 0 1.6-1.54v-6.31l-.24-.3a9.58 9.58 0 0 0 -7.09-2.7z"/><path d="m0 0h36v36h-36z" fill="none"/></svg>