<svg height="36" preserveAspectRatio="xMidYMid meet" viewBox="0 0 36 36" width="36" xmlns="http://www.w3.org/2000/svg"><path d="m26 5.74a1.74 1.74 0 0 0 -1.74-1.74h-20.52a1.74 1.74 0 0 0 -1.74 1.74v14.52a1.74 1.74 0 0 0 1.74 1.74h.26v-16h22z"/><path d="m30 9.74a1.74 1.74 0 0 0 -1.74-1.74h-20.52a1.74 1.74 0 0 0 -1.74 1.74v14.52a1.74 1.74 0 0 0 1.74 1.74h.26v-16h22z"/><path d="m32.26 12h-20.52a1.74 1.74 0 0 0 -1.74 1.74v14.52a1.74 1.74 0 0 0 1.74 1.74h20.52a1.74 1.74 0 0 0 1.74-1.74v-14.52a1.74 1.74 0 0 0 -1.74-1.74zm-.26 16h-20v-14h20z"/><path d="m19.94 23.68a2.64 2.64 0 1 0 -2.7-2.63 2.67 2.67 0 0 0 2.7 2.63zm0-3.87a1.24 1.24 0 1 1 -1.29 1.24 1.27 1.27 0 0 1 1.29-1.24z"/><path d="m19.94 16.22a4.93 4.93 0 0 1 4.95 4.35h-1.18v1.43h4.41a.7.7 0 0 0 0-1.4h-1.81a6.33 6.33 0 0 0 -6.37-5.75 6.58 6.58 0 0 0 -1.48.17l.35 1.37a4.73 4.73 0 0 1 1.13-.17z"/><path d="m19.94 27.27a6.42 6.42 0 0 0 5.67-3.35h-1.68a5 5 0 0 1 -4 1.95 4.91 4.91 0 0 1 -5-4.82 5.16 5.16 0 0 1 .08-.79l-1.38-.26a7 7 0 0 0 -.09 1 6.32 6.32 0 0 0 6.4 6.27z"/><path d="m0 0h36v36h-36z" fill="none"/></svg>