<svg height="36" preserveAspectRatio="xMidYMid meet" viewBox="0 0 36 36" width="36" xmlns="http://www.w3.org/2000/svg"><path d="m34 8a2 2 0 0 0 -2-2h-28a2 2 0 0 0 -2 2v20a2 2 0 0 0 2 2h28a2 2 0 0 0 2-2zm-2 20h-28v-20h28z"/><circle cx="6.21" cy="10.25" r="1.25"/><circle cx="29.81" cy="10.25" r="1.25"/><circle cx="6.21" cy="25.42" r="1.25"/><circle cx="29.81" cy="25.42" r="1.25"/><path d="m11.88 18.08a3.59 3.59 0 1 0 3.59-3.59 3.84 3.84 0 0 0 -.91.13l.44 1.54a2.08 2.08 0 0 1 .5-.07 2 2 0 1 1 -2 2 1.64 1.64 0 0 1 .08-.5l-1.58-.43a3.53 3.53 0 0 0 -.12.92z"/><path d="m15.47 25.73a7.66 7.66 0 0 1 -7.65-7.65 7.55 7.55 0 0 1 .27-2l-1.55-.38a9.24 9.24 0 0 0 17.8 4.95h-1.68a7.64 7.64 0 0 1 -7.19 5.08z"/><path d="m28.22 17.83a.8.8 0 0 0 -.8-.8h-2.76a9.26 9.26 0 0 0 -9.19-8.2 9.36 9.36 0 0 0 -2.38.32l.42 1.54a7.86 7.86 0 0 1 2-.26 7.66 7.66 0 0 1 7.49 6.57h-2.08a.8.8 0 0 0 0 1.6h6.5a.8.8 0 0 0 .8-.77z"/><path d="m0 0h36v36h-36z" fill="none"/></svg>