<svg height="36" preserveAspectRatio="xMidYMid meet" viewBox="0 0 36 36" width="36" xmlns="http://www.w3.org/2000/svg"><path d="m26 5.74a1.74 1.74 0 0 0 -1.74-1.74h-20.52a1.74 1.74 0 0 0 -1.74 1.74v14.52a1.74 1.74 0 0 0 1.74 1.74h.26v-16h22z"/><path d="m30 9.74a1.74 1.74 0 0 0 -1.74-1.74h-20.52a1.74 1.74 0 0 0 -1.74 1.74v14.52a1.74 1.74 0 0 0 1.74 1.74h.26v-16h22z"/><path d="m19.62 22.6a1.55 1.55 0 1 0 -1.62-1.55 1.6 1.6 0 0 0 1.62 1.55z"/><path d="m32.26 12h-20.52a1.74 1.74 0 0 0 -1.74 1.74v14.52a1.74 1.74 0 0 0 1.74 1.74h20.52a1.74 1.74 0 0 0 1.74-1.74v-14.52a1.74 1.74 0 0 0 -1.74-1.74zm-12.64 5.74a3.31 3.31 0 1 1 -3.38 3.31 3.35 3.35 0 0 1 3.38-3.31zm0 11.13a7.94 7.94 0 0 1 -8-7.82 7.83 7.83 0 0 1 .11-1.29l1.75.3a5.36 5.36 0 0 0 -.11 1 6.18 6.18 0 0 0 6.28 6.06 6.35 6.35 0 0 0 5-2.46h2.1a8.06 8.06 0 0 1 -7.13 4.21zm10.27-6.67h-5.53v-1.76h1.48a6.19 6.19 0 0 0 -6.22-5.44 6.48 6.48 0 0 0 -1.41.16l-.45-1.7a8.16 8.16 0 0 1 1.86-.22 8 8 0 0 1 8 7.21h2.26a.88.88 0 0 1 0 1.76z"/><path d="m0 0h36v36h-36z" fill="none"/></svg>