<svg height="36" viewBox="0 0 36 36" width="36" xmlns="http://www.w3.org/2000/svg"><path d="m31.87 10h-5.55l1-4.83a1 1 0 0 0 -.97-1.17h-2a1 1 0 0 0 -1 .78l-1.02 5.22h-5.4l1-4.83a1 1 0 0 0 -.93-1.17h-2a1 1 0 0 0 -1 .78l-1 5.22h-6a1 1 0 0 0 -1 .8l-.41 2a1 1 0 0 0 1 1.2h5.55l-1.64 8h-6a1 1 0 0 0 -1 .8l-.41 2a1 1 0 0 0 1 1.2h5.59l-1 4.83a1 1 0 0 0 1 1.17h2a1 1 0 0 0 .95-.78l1.04-5.22h5.4l-1 4.83a1 1 0 0 0 .93 1.17h2a1 1 0 0 0 1-.78l1.05-5.22h6a1 1 0 0 0 1-.8l.4-2a1 1 0 0 0 -1-1.2h-5.58l1.63-8h6a1 1 0 0 0 1-.8l.41-2a1 1 0 0 0 -1.04-1.2zm-12 12h-5.4l1.64-8h5.4z"/></svg>