<svg height="36" preserveAspectRatio="xMidYMid meet" viewBox="0 0 36 36" width="36" xmlns="http://www.w3.org/2000/svg"><path d="m18 3a14.27 14.27 0 0 0 -14 14.5v13.5h5.2a2.74 2.74 0 0 0 2.8-2.67v-6.66a2.74 2.74 0 0 0 -2.8-2.67h-3.2v-1.5a12.27 12.27 0 0 1 12-12.5 12.27 12.27 0 0 1 12 12.5v1.5h-3.2a2.74 2.74 0 0 0 -2.8 2.67v6.67a2.74 2.74 0 0 0 2.8 2.66h5.2v-13.5a14.27 14.27 0 0 0 -14-14.5zm-8.8 18a.75.75 0 0 1 .8.67v6.67a.75.75 0 0 1 -.8.67h-3.2v-8.01zm16.8 7.33v-6.66a.75.75 0 0 1 .8-.67h3.2v8h-3.2a.75.75 0 0 1 -.8-.67z"/><path d="m0 0h36v36h-36z" fill="none"/></svg>