<svg height="36" preserveAspectRatio="xMidYMid meet" viewBox="0 0 36 36" width="36" xmlns="http://www.w3.org/2000/svg"><path d="m33 7.64c-1.34-2.75-5.09-5-9.69-3.69a9.87 9.87 0 0 0 -6 4.84 18.9 18.9 0 0 0 -2.23 5.33l5.28 2.34-4.6 4.37 3.49 4.1 1.52-1.3-2.23-2.63 5.4-5.13-6.36-2.87a16.23 16.23 0 0 1 2.17-4.1 7.68 7.68 0 0 1 4.11-3c3.34-.89 6.34.6 7.34 2.65 1.55 3.18.85 6.72-2.14 10.81a57.16 57.16 0 0 1 -11.06 10.8 57.16 57.16 0 0 1 -11.06-10.83c-3-4.1-3.69-7.64-2.14-10.81a5.9 5.9 0 0 1 5.33-2.93 7.31 7.31 0 0 1 2 .29 7.7 7.7 0 0 1 3.38 2l.15-.3a10.66 10.66 0 0 1 1-1.41 9.64 9.64 0 0 0 -3.94-2.22c-4.52-1.29-8.38.94-9.72 3.69-1.88 3.85-1.1 8.18 2.32 12.87 2.68 3.67 6.51 7.39 12.07 11.71a1 1 0 0 0 1.23 0c5.55-4.31 9.39-8 12.07-11.71 3.41-4.69 4.19-9.02 2.31-12.87z"/><path d="m0 0h36v36h-36z" fill="none"/></svg>