<svg height="36" preserveAspectRatio="xMidYMid meet" viewBox="0 0 36 36" width="36" xmlns="http://www.w3.org/2000/svg"><path d="m15.82 26.06a1 1 0 0 1 -.71-.29l-6.44-6.44a1 1 0 0 1 -.29-.71 1 1 0 0 1 .29-.71l14.33-14.37a5.55 5.55 0 1 1 7.85 7.86l-14.32 14.37a1 1 0 0 1 -.71.29zm-5-7.44 5 5 13.66-13.62a3.54 3.54 0 0 0 0-5 3.63 3.63 0 0 0 -5 0z"/><path d="m10.38 28.28a1 1 0 0 1 -.71-.28l-3.22-3.23a1 1 0 0 1 -.22-1.09l2.22-5.44a1 1 0 0 1 1.63-.33l6.45 6.44a1 1 0 0 1 -.33 1.65l-5.44 2.22a1.33 1.33 0 0 1 -.38.06zm-2.05-4.46 2.29 2.28 3.43-1.4-4.31-4.31z"/><path d="m8.94 30h-5a1 1 0 0 1 -.84-1.55l3.22-4.94a1 1 0 0 1 1.55-.16l3.21 3.22a1 1 0 0 1 .06 1.35l-1.44 1.72a1 1 0 0 1 -.76.36zm-3.16-2h2.69l.53-.66-1.7-1.7z"/><path d="m3.06 31h30v3h-30z"/><path d="m0 0h36v36h-36z" fill="none"/></svg>