<svg height="36" preserveAspectRatio="xMidYMid meet" viewBox="0 0 36 36" width="36" xmlns="http://www.w3.org/2000/svg"><path d="m21.08 34h-14a1.08 1.08 0 0 1 -1.08-1v-21a1.08 1.08 0 0 1 1.08-1.08h14a1.08 1.08 0 0 1 1.08 1.08v21a1.08 1.08 0 0 1 -1.08 1zm-12.92-2.12h11.84v-18.88h-11.84z"/><path d="m10.08 14.96h8v2h-8z"/><path d="m26.1 27.81h-2v-18.81h-12v-2h13a1 1 0 0 1 1 1z"/><path d="m30.08 23h-2v-18h-11v-2h12a1 1 0 0 1 1 1z"/><path d="m13.08 27.88h2v2.16h-2z"/><path d="m0 0h36v36h-36z" fill="none"/></svg>