<svg height="36" preserveAspectRatio="xMidYMid meet" viewBox="0 0 36 36" width="36" xmlns="http://www.w3.org/2000/svg"><path d="m15.08 31h-14c-.5665728.0015564-1.03803362-.4349814-1.08-1v-21c0-.59646753.48353247-1.08 1.08-1.08h14c.5964675 0 1.08.48353247 1.08 1.08v21c-.0419664.5650186-.5134272 1.0015564-1.08 1zm-11-19.04v2h8v-2zm3 12.92v2.16h2v-2.16z"/><path d="m20.1 24.81h-2v-18.81h-12v-2h13c.5522847 0 1 .44771525 1 1z"/><path d="m24.08 20h-2v-18h-11v-2h12c.5522847 0 1 .44771525 1 1z"/><path d="m0 0h36v36h-36z" fill="none"/></svg>