<svg height="36" preserveAspectRatio="xMidYMid meet" viewBox="0 0 36 36" width="36" xmlns="http://www.w3.org/2000/svg"><path d="m6.67 4h22a1 1 0 0 0 0-2h-22a1 1 0 1 0 0 2z"/><path d="m28.67 32h-22a1 1 0 0 0 0 2h22a1 1 0 1 0 0-2z"/><path d="m22.55 15.67a6.07 6.07 0 0 0 2.45-4.55v-5.12h-14.94v5.12a6.07 6.07 0 0 0 2.45 4.55 11.48 11.48 0 0 0 2.91 1.72v1.16a11.48 11.48 0 0 0 -2.91 1.72 6.07 6.07 0 0 0 -2.45 4.55v5.12h14.94v-5.12a6.07 6.07 0 0 0 -2.45-4.55 11.48 11.48 0 0 0 -2.91-1.72v-1.16a11.48 11.48 0 0 0 2.91-1.72z"/><path d="m0 0h36v36h-36z" fill="none"/></svg>