<svg height="36" preserveAspectRatio="xMidYMid meet" viewBox="0 0 36 36" width="36" xmlns="http://www.w3.org/2000/svg"><path d="m29 32h-3v-7.09a6.67 6.67 0 0 0 -2.69-5.33l-1.28-1a6.36 6.36 0 0 0 -1.03-.58 6.29 6.29 0 0 0 1-.62l1.28-1a6.67 6.67 0 0 0 2.72-5.29v-7.09h3a1 1 0 0 0 0-2h-22a1 1 0 0 0 0 2h3v7.09a6.67 6.67 0 0 0 2.69 5.33l1.28 1a6.36 6.36 0 0 0 1.03.58 6.27 6.27 0 0 0 -1 .62l-1.28 1a6.67 6.67 0 0 0 -2.72 5.29v7.09h-3a1 1 0 0 0 0 2h22a1 1 0 0 0 0-2zm-17-7.09a4.66 4.66 0 0 1 1.88-3.72l1.28-1a4.66 4.66 0 0 1 1.18-.63 1 1 0 0 0 .65-.94v-1.29a1 1 0 0 0 -.65-.94 4.67 4.67 0 0 1 -1.19-.63l-1.28-1a4.66 4.66 0 0 1 -1.87-3.67v-7.09h12v7.09a4.66 4.66 0 0 1 -1.88 3.72l-1.28 1a4.66 4.66 0 0 1 -1.18.63 1 1 0 0 0 -.65.94v1.34a1 1 0 0 0 .65.94 4.67 4.67 0 0 1 1.19.63l1.28 1a4.66 4.66 0 0 1 1.87 3.62v7.09h-12z"/><path d="m0 0h36v36h-36z" fill="none"/></svg>