<svg height="36" preserveAspectRatio="xMidYMid meet" viewBox="0 0 36 36" width="36" xmlns="http://www.w3.org/2000/svg"><path d="m32.12 10h-28.24a1.88 1.88 0 0 0 -1.88 1.88v18.24a1.88 1.88 0 0 0 1.88 1.88h28.24a1.88 1.88 0 0 0 1.88-1.88v-18.24a1.88 1.88 0 0 0 -1.88-1.88zm-.12 20h-28v-18h28z"/><path d="m8.56 19.45a3 3 0 1 0 -3-3 3 3 0 0 0 3 3zm0-4.6a1.6 1.6 0 1 1 -1.56 1.6 1.6 1.6 0 0 1 1.56-1.6z"/><path d="m7.9 28 6-6 3.18 3.18-2.82 2.82h2l7.46-7.46 6.28 6.23v-2l-5.8-5.77a.71.71 0 0 0 -1 0l-5.16 5.16-3.67-3.66a.71.71 0 0 0 -1 0l-7.45 7.5z"/><path d="m30.14 3a1 1 0 0 0 -1-1h-22a1 1 0 0 0 -1 1v1h24z"/><path d="m32.12 7a1 1 0 0 0 -1-1h-26a1 1 0 0 0 -1 1v1h28z"/><path d="m0 0h36v36h-36z" fill="none"/></svg>