<svg height="36" preserveAspectRatio="xMidYMid meet" viewBox="0 0 36 36" width="36" xmlns="http://www.w3.org/2000/svg"><path d="m32 4h-28a2 2 0 0 0 -2 2v24a2 2 0 0 0 2 2h28a2 2 0 0 0 2-2v-24a2 2 0 0 0 -2-2zm-28 26v-24h28v24z"/><path d="m8.92 14a3 3 0 1 0 -3-3 3 3 0 0 0 3 3zm0-4.6a1.6 1.6 0 1 1 -1.59 1.6 1.6 1.6 0 0 1 1.59-1.59z"/><path d="m22.78 15.37-5.4 5.4-4-4a1 1 0 0 0 -1.41 0l-6.05 6.13v2.83l6.79-6.79 3.29 3.24-3.75 3.75h2.75l8.45-8.45 6.55 6.52v-2.82l-5.81-5.81a1 1 0 0 0 -1.41 0z"/><path d="m0 0h36v36h-36z" fill="none"/></svg>