<svg height="36" preserveAspectRatio="xMidYMid meet" viewBox="0 0 36 36" width="36" xmlns="http://www.w3.org/2000/svg"><path d="m30.14 3a1 1 0 0 0 -1-1h-22a1 1 0 0 0 -1 1v1h24z"/><path d="m32.12 7a1 1 0 0 0 -1-1h-26a1 1 0 0 0 -1 1v1h28z"/><path d="m32.12 10h-28.24a1.88 1.88 0 0 0 -1.88 1.88v18.24a1.88 1.88 0 0 0 1.88 1.88h28.24a1.88 1.88 0 0 0 1.88-1.88v-18.24a1.88 1.88 0 0 0 -1.88-1.88zm-23.56 3.45a3 3 0 1 1 -3 3 3 3 0 0 1 3-3zm21.44 14.55h-24l7.46-7.47a.71.71 0 0 1 1 0l3.68 3.68 5.07-5.21a.71.71 0 0 1 1 0l5.79 5.79z"/><path d="m0 0h36v36h-36z" fill="none"/></svg>