<svg height="36" preserveAspectRatio="xMidYMid meet" viewBox="0 0 36 36" width="36" xmlns="http://www.w3.org/2000/svg"><path d="m30.86 20.94a4.74 4.74 0 0 1 1.86.64h.05a15.12 15.12 0 0 0 -.61-8.37 1 1 0 1 0 -1.87.69 13.19 13.19 0 0 1 .57 7.04z"/><path d="m26.33 28.58a13 13 0 0 1 -6.07 2.82 1 1 0 1 0 .17 2h.18a15.16 15.16 0 0 0 7.21-3.4v-.07a4.7 4.7 0 0 1 -1.49-1.35z"/><path d="m15.62 31.34a13.27 13.27 0 0 1 -4.29-1.61 15.09 15.09 0 0 1 -1.63-1.11 4.69 4.69 0 0 1 -1.46 1.38 15.9 15.9 0 0 0 2.07 1.48 15.4 15.4 0 0 0 4.94 1.86h.19a1 1 0 0 0 .18-2z"/><path d="m4.56 21.15q.3 0 .6-.09a13 13 0 0 1 .54-7.06 1 1 0 0 0 -1.88-.69 15 15 0 0 0 -.56 8.43 4.77 4.77 0 0 1 1.3-.59z"/><path d="m31.9 23a3.2 3.2 0 0 0 -2.43-.42 3.33 3.33 0 0 0 -1.4.77l-3.87-2.24a6.87 6.87 0 0 0 -2.77-8.43l-.11-.07a6.73 6.73 0 0 0 -2.42-.81v-3.8a3.23 3.23 0 0 0 1.88-1.5 3.3 3.3 0 0 0 -1.13-4.5 3.15 3.15 0 0 0 -2.42-.32 3.24 3.24 0 0 0 -2 1.51 3.3 3.3 0 0 0 1.13 4.46 3 3 0 0 0 .74.35v3.8a6.63 6.63 0 0 0 -4.86 3.28 6.85 6.85 0 0 0 -.42 6l-4 2.29a3.79 3.79 0 0 0 -.45-.37 3.2 3.2 0 0 0 -4.37 1.21 3.3 3.3 0 0 0 1.1 4.46 3.21 3.21 0 0 0 1.65.46 2.93 2.93 0 0 0 .78-.1 3.25 3.25 0 0 0 2.34-3.94v-.17l3.88-2.24a7 7 0 0 0 1.89 1.71 6.49 6.49 0 0 0 8.73-1.7l3.83 2.21a3.29 3.29 0 0 0 1.45 3.64 3.18 3.18 0 0 0 4.35-1.13 3.3 3.3 0 0 0 -1.1-4.41z"/><path d="m8.05 10a13 13 0 0 1 5.35-3.77 5 5 0 0 1 -.17-2.07 15.15 15.15 0 0 0 -6.7 4.51 1 1 0 0 0 1.52 1.33z"/><path d="m24.67 7.23a13.11 13.11 0 0 1 3.26 2.77 1 1 0 1 0 1.52-1.3 15 15 0 0 0 -3.76-3.2 15.87 15.87 0 0 0 -2.94-1.33 4.79 4.79 0 0 1 -.15 2.06 14.1 14.1 0 0 1 2.07 1z"/><path d="m0 0h36v36h-36z" fill="none"/></svg>