<svg height="36" preserveAspectRatio="xMidYMid meet" viewBox="0 0 36 36" width="36" xmlns="http://www.w3.org/2000/svg"><rect height="2.57" rx="1" transform="matrix(.70710678 -.70710678 .70710678 .70710678 -5.21 11.43)" width="9.71" x="6.33" y="10.71"/><path d="m23.35 16.8.63-.63a5 5 0 0 0 .02-7.07l-5.29-5.26a5 5 0 0 0 -7.07 0l-8.55 8.55a5 5 0 0 0 0 7.07l5.26 5.26a5 5 0 0 0 7.07 0l.4-.4 2.18 2.16h3.44v3h3.69v1.63l2.87 2.89h6v-6.55zm8.65 15.2h-3.14l-1.77-1.76v-2.8h-3.68v-3h-4.61l-3-3-1.8 1.87a3 3 0 0 1 -4.24 0l-5.26-5.31a3 3 0 0 1 0-4.24l8.56-8.56a3 3 0 0 1 4.24 0l5.26 5.26a3 3 0 0 1 0 4.24l-2 2 11.44 11.58z"/><path d="m0 0h36v36h-36z" fill="none"/></svg>