<svg height="36" preserveAspectRatio="xMidYMid meet" viewBox="0 0 36 36" width="36" xmlns="http://www.w3.org/2000/svg"><path d="m32 8h-28a2 2 0 0 0 -2 2v16a2 2 0 0 0 2 2h28a2 2 0 0 0 2-2v-16a2 2 0 0 0 -2-2zm0 18h-28v-16h28z"/><path d="m7 13h2v2h-2z"/><path d="m11 13h2v2h-2z"/><path d="m15 13h2v2h-2z"/><path d="m19 13h2v2h-2z"/><path d="m23 13h2v2h-2z"/><path d="m27 13h2v2h-2z"/><path d="m7 17h2v2h-2z"/><path d="m11 17h2v2h-2z"/><path d="m15 17h2v2h-2z"/><path d="m19 17h2v2h-2z"/><path d="m23 17h2v2h-2z"/><path d="m27 17h2v2h-2z"/><path d="m27 22h1.94v2h-1.94z"/><path d="m7 22h2v2h-2z"/><path d="m11.13 22h13.75v2h-13.75z"/><path d="m0 0h36v36h-36z" fill="none"/></svg>