<svg height="36" preserveAspectRatio="xMidYMid meet" viewBox="0 0 36 36" width="36" xmlns="http://www.w3.org/2000/svg"><path d="m32 6h-28a2 2 0 0 0 -2 2v20a2 2 0 0 0 2 2h28a2 2 0 0 0 2-2v-20a2 2 0 0 0 -2-2zm0 22h-28v-20h28z"/><path d="m9 22a.82.82 0 0 0 .55-.21.8.8 0 0 0 0-1.13l-1.72-1.86h20.34l-1.72 1.86a.8.8 0 0 0 0 1.13.82.82 0 0 0 .55.21.78.78 0 0 0 .58-.26l3.51-3.74-3.47-3.74a.79.79 0 0 0 -1.13 0 .8.8 0 0 0 0 1.13l1.72 1.86h-20.38l1.72-1.86a.8.8 0 0 0 0-1.13.79.79 0 0 0 -1.13 0l-3.51 3.74 3.47 3.74a.78.78 0 0 0 .62.26z"/><path d="m0 0h36v36h-36z" fill="none"/></svg>