<svg height="36" viewBox="0 0 36 36" width="36" xmlns="http://www.w3.org/2000/svg"><path d="m28 34h-20a1 1 0 0 0 0 2h20a1 1 0 0 0 0-2z"/><path d="m18 9.53a2.75 2.75 0 1 0 2.75 2.75 2.75 2.75 0 0 0 -2.75-2.75zm0 3.89a1.15 1.15 0 0 1 0-2.29 1.15 1.15 0 1 1 0 2.29z"/><path d="m28.75 22.45a15.46 15.46 0 0 0 -2.85-5.52l-.28-.35c0-.34 0-.68-.05-1-.68-11.22-6.78-14.98-7.03-15.14a1 1 0 0 0 -1 0c-.26.16-6.35 3.92-7 15.1 0 .32 0 .65-.05 1l-.33.41a15.6 15.6 0 0 0 -3.44 11.14 1 1 0 0 0 1 .91h4.43a16.31 16.31 0 0 0 1 2.5 1 1 0 0 0 .87.51h7.98a1 1 0 0 0 .87-.51 16 16 0 0 0 1-2.5h4.39a1 1 0 0 0 1-.91 15.55 15.55 0 0 0 -.51-5.64zm-7.38 7.55h-6.69a25.46 25.46 0 0 1 -1.59-5.23l-2 .4c.14.65.28 1.25.43 1.82h-2.86a13.18 13.18 0 0 1 1.8-7c0 .55.07 1.1.13 1.66l2-.21a33.88 33.88 0 0 1 -.11-5.77c.52-8.32 4.17-12.03 5.52-13.14 1.38 1.12 5.05 4.82 5.56 13.15a32.86 32.86 0 0 1 -2.19 14.32zm3.12-3a37.19 37.19 0 0 0 1.09-6.94 13.17 13.17 0 0 1 1.76 6.94z"/></svg>