<svg height="36" preserveAspectRatio="xMidYMid meet" viewBox="0 0 36 36" width="36" xmlns="http://www.w3.org/2000/svg"><path d="m33.48 29.63-6.74-17.81a2 2 0 0 0 -2.58-1.16l-3.16 1.19v-2.93a1.92 1.92 0 0 0 -1.92-1.92h-5.08v-2.08a1.92 1.92 0 0 0 -1.92-1.92h-7.08a2 2 0 0 0 -2 2v27a1 1 0 0 0 1 1h16a1 1 0 0 0 1-1v-12.73l5 13.21a1 1 0 0 0 1.29.58l5.61-2.14a1 1 0 0 0 .58-1.29zm-21.48-20.8v22.17h-7v-26h7zm7 22.17h-5v-22h5zm8.51-.25-6.38-16.83 3.74-1.42 6.39 16.83z"/><path d="m0 0h36v36h-36z" fill="none"/></svg>