<svg height="36" preserveAspectRatio="xMidYMid meet" viewBox="0 0 36 36" width="36" xmlns="http://www.w3.org/2000/svg"><path d="m19 30h-15a2 2 0 0 1 -2-2v-20a2 2 0 0 1 2-2h28a2 2 0 0 1 2 2v10.37a8.34 8.34 0 0 0 -13.49 9.79l-.93 1.14zm-12-18v1.6h17v-1.6zm0 5.6h11v-1.6h-11zm0 7h10v-1.6h-10z"/><path d="m33.83 23.59a6.37 6.37 0 1 0 -10.77 4.59l-1.94 2.37.9 3.61 3.66-4.46a6.26 6.26 0 0 0 3.55 0l3.66 4.46.9-3.61-1.94-2.37a6.34 6.34 0 0 0 1.98-4.59zm-10.74 0a4.37 4.37 0 1 1 4.37 4.31 4.35 4.35 0 0 1 -4.36-4.31z"/><path d="m0 0h36v36h-36z" fill="none"/></svg>