<svg height="36" preserveAspectRatio="xMidYMid meet" viewBox="0 0 36 36" width="36" xmlns="http://www.w3.org/2000/svg"><path d="m32 6h-28a2 2 0 0 0 -2 2v20a2 2 0 0 0 2 2h15l.57-.7.93-1.14-.09-.16h-16.41v-20h28v8.56a8.41 8.41 0 0 1 2 1.81v-10.37a2 2 0 0 0 -2-2z"/><path d="m7 12h17v1.6h-17z"/><path d="m7 16h11v1.6h-11z"/><path d="m7 23h10v1.6h-10z"/><path d="m27.46 17.23a6.36 6.36 0 0 0 -4.4 11l-1.94 2.37.9 3.61 3.66-4.46a6.26 6.26 0 0 0 3.55 0l3.66 4.46.9-3.61-1.94-2.37a6.36 6.36 0 0 0 -4.4-11zm0 10.68a4.31 4.31 0 1 1 4.37-4.31 4.35 4.35 0 0 1 -4.37 4.31z"/><path d="m0 0h36v36h-36z" fill="none"/></svg>