<svg height="36" preserveAspectRatio="xMidYMid meet" viewBox="0 0 36 36" width="36" xmlns="http://www.w3.org/2000/svg"><path d="m23.86 29.15h-11.75a.8.8 0 1 0 0 1.6h11.75a.8.8 0 0 0 0-1.6z"/><path d="m22 32.15h-8a.8.8 0 1 0 0 1.6h8a.8.8 0 1 0 0-1.6z"/><path d="m18 2.25a11 11 0 0 0 -11 11 10.68 10.68 0 0 0 1 4.63 16.36 16.36 0 0 0 1.12 1.78 17 17 0 0 1 2 3.47 16.19 16.19 0 0 1 .59 4h5.69v-5.52l-2.86-3.13 3-3a.8.8 0 0 1 1.13 1.13l-1.89 1.89 2.22 2.5v6.17h5.3a16.19 16.19 0 0 1 .59-4 17 17 0 0 1 2-3.47 16.31 16.31 0 0 0 1.11-1.84 10.68 10.68 0 0 0 1-4.63 11 11 0 0 0 -11-10.98zm.45 9.75-2.73 2.73a.8.8 0 1 1 -1.13-1.13l2.73-2.73a.8.8 0 1 1 1.13 1.13z"/><path d="m0 0h36v36h-36z" fill="none"/></svg>