<svg height="36" preserveAspectRatio="xMidYMid meet" viewBox="0 0 36 36" width="36" xmlns="http://www.w3.org/2000/svg"><path d="m15 8h9v2h-9z"/><path d="m15 12h9v2h-9z"/><path d="m15 16h9v2h-9z"/><path d="m15 20h9v2h-9z"/><path d="m15 24h9v2h-9z"/><path d="m11 8h2v2h-2z"/><path d="m11 12h2v2h-2z"/><path d="m11 16h2v2h-2z"/><path d="m11 20h2v2h-2z"/><path d="m11 24h2v2h-2z"/><path d="m28 2h-20a2 2 0 0 0 -2 2v28a2 2 0 0 0 2 2h20a2 2 0 0 0 2-2v-28a2 2 0 0 0 -2-2zm0 30h-20v-28h20z"/><path d="m0 0h36v36h-36z" fill="none"/></svg>