<svg height="36" preserveAspectRatio="xMidYMid meet" viewBox="0 0 36 36" width="36" xmlns="http://www.w3.org/2000/svg"><path d="m18 6.72a5.73 5.73 0 1 0 5.73 5.73 5.73 5.73 0 0 0 -5.73-5.73zm0 9.46a3.73 3.73 0 1 1 3.73-3.73 3.73 3.73 0 0 1 -3.73 3.72z"/><path d="m18 2a11.79 11.79 0 0 0 -11.78 11.73c0 4.67 2.62 8.58 4.54 11.43l.35.52a99.61 99.61 0 0 0 6.14 8l.76.89.76-.89a99.82 99.82 0 0 0 6.14-8l.35-.53c1.91-2.85 4.53-6.75 4.53-11.42a11.79 11.79 0 0 0 -11.79-11.73zm5.59 22-.36.53c-1.72 2.58-4 5.47-5.23 6.9-1.18-1.43-3.51-4.32-5.23-6.9l-.35-.53c-1.77-2.64-4.2-6.25-4.2-10.31a9.78 9.78 0 1 1 19.56 0c0 4.1-2.42 7.71-4.19 10.31z"/><path d="m0 0h36v36h-36z" fill="none"/></svg>