<svg height="36" preserveAspectRatio="xMidYMid meet" viewBox="0 0 36 36" width="36" xmlns="http://www.w3.org/2000/svg"><path d="m30 17h-2c0 1.8-.5 3.5-1.4 5l1.5 1.5c1.2-2 1.8-4.2 1.9-6.5z"/><path d="m25 17v-8c0-3.9-3.2-7-7.1-6.9-2.9 0-5.6 1.9-6.5 4.7l13 13c.4-.9.6-1.9.6-2.8z"/><path d="m25.2 26.6 6.9 6.9 1.4-1.4-29.5-29.5-1.4 1.4 8.4 8.4v4.6c0 3.9 3.1 7 7 7 1.3 0 2.5-.3 3.6-1l2.2 2.2c-1.7 1.2-3.7 1.8-5.8 1.8-5.4.2-9.8-4.1-10-9.4 0-.2 0-.4 0-.6h-2c.1 6.2 4.8 11.4 11 12v3h-3c-.6 0-1 .4-1 1s.4 1 1 1h8c.6 0 1-.4 1-1s-.4-1-1-1h-3v-3c2.2-.2 4.4-1 6.2-2.4z"/><path d="m0 0h36v36h-36z" fill="none"/></svg>