<svg height="36" preserveAspectRatio="xMidYMid meet" viewBox="0 0 36 36" width="36" xmlns="http://www.w3.org/2000/svg"><path d="m31.68 6.16c-1.92-3.3-10.6-4-11.58-4.09l-1.1-.07v20.29a5.88 5.88 0 0 0 -.81-.55 8.33 8.33 0 0 0 -6.53-.41c-4.12 1.33-6.77 5.13-5.91 8.47a5.33 5.33 0 0 0 2.66 3.32 7.48 7.48 0 0 0 3.61.88 9.54 9.54 0 0 0 2.98-.48c3.7-1.19 6.2-4.37 6.06-7.42v-17.61c1 .12 2.37.33 3.82.64a11.17 11.17 0 0 1 4.06 1.46c1 .66.38 1.9.33 2a11.8 11.8 0 0 1 -1.66 2 1 1 0 0 0 1.33 1.49c.21-.23 5.56-5.08 2.74-9.92z"/><path d="m0 0h36v36h-36z" fill="none"/></svg>