<svg height="36" preserveAspectRatio="xMidYMid meet" viewBox="0 0 36 36" width="36" xmlns="http://www.w3.org/2000/svg"><path d="m26.58 32h-18a1 1 0 1 0 0 2h18a1 1 0 0 0 0-2z"/><path d="m17.75 2a14 14 0 0 0 -14 14c0 .45 0 .89.07 1.33a14 14 0 1 0 13.93-15.33zm0 2a12 12 0 0 1 8.44 3.48v1a18.51 18.51 0 0 0 -12.19.05 2.33 2.33 0 0 0 -1.14-.61h-.25c-.12-.42-.23-.84-.32-1.27s-.14-.81-.19-1.22a11.92 11.92 0 0 1 5.65-1.43zm-3 5.87a17 17 0 0 1 11.17.13 16.9 16.9 0 0 1 -3.11 7 2.28 2.28 0 0 0 -2.58.57c-.35-.2-.7-.4-1-.63a16 16 0 0 1 -4.93-5.23 2.25 2.25 0 0 0 .47-1.77zm-4-3.6c0 .21.06.43.1.64.09.44.21.87.33 1.3a2.28 2.28 0 0 0 -1.1 2.25 18.32 18.32 0 0 0 -4.18 3.76 12 12 0 0 1 4.86-7.95zm0 15.71a2.34 2.34 0 0 0 -1.55 1.76h-.64a11.94 11.94 0 0 1 -2.76-6.82l.11-.19a16.9 16.9 0 0 1 4.81-4.89 2.31 2.31 0 0 0 2.28.63 17.53 17.53 0 0 0 5.35 5.65c.41.27.83.52 1.25.76a2.32 2.32 0 0 0 .18 1.12 16.94 16.94 0 0 1 -6.2 3.11 2.34 2.34 0 0 0 -2.82-1.11zm7 6a11.92 11.92 0 0 1 -5.81-1.51l.28-.06a2.34 2.34 0 0 0 1.57-1.79 18.43 18.43 0 0 0 7-3.5 2.29 2.29 0 0 0 3-.62 17.41 17.41 0 0 0 4.32.56h.53a12 12 0 0 1 -10.89 6.94zm6.51-8.9a2.33 2.33 0 0 0 -.33-1.19 18.4 18.4 0 0 0 3.39-7.37q.75.35 1.48.78a12 12 0 0 1 .42 8.2 16 16 0 0 1 -4.95-.39z"/><path d="m0 0h36v36h-36z" fill="none"/></svg>