<svg height="36" preserveAspectRatio="xMidYMid meet" viewBox="0 0 36 36" width="36" xmlns="http://www.w3.org/2000/svg"><path d="m34.59 23-4.08-5 4-4.9a1.82 1.82 0 0 0 .23-1.94 1.93 1.93 0 0 0 -1.8-1.16h-31a1.91 1.91 0 0 0 -1.94 1.88v12.25a1.91 1.91 0 0 0 1.94 1.87h31.11a1.93 1.93 0 0 0 1.77-1.09 1.82 1.82 0 0 0 -.23-1.91zm-32.59 1v-12h30.78l-4.84 5.93 4.91 6.07z"/><path d="m9.39 19.35-3.26-4.35h-1.13v6.18h1.13v-4.34l3.26 4.34h1.12v-6.18h-1.12z"/><path d="m12.18 21.18h4.66v-1.02h-3.53v-1.61h3.19v-1.03h-3.19v-1.49h3.53v-1.03h-4.66z"/><path d="m24.52 19.43-1.46-4.43h-1.22l-1.47 4.43-1.32-4.43h-1.23l1.96 6.18h1.11l1.56-4.59 1.55 4.59h1.13l1.95-6.18h-1.23z"/><path d="m0 0h36v36h-36z" fill="none"/></svg>