<svg height="36" preserveAspectRatio="xMidYMid meet" viewBox="0 0 36 36" width="36" xmlns="http://www.w3.org/2000/svg"><path d="m10.5 34.29-8.5-4.9v-9.81l8.5-4.9 8.5 4.9v9.81zm-6.5-6.06 6.5 3.77 6.5-3.77v-7.49l-6.5-3.74-6.5 3.74z"/><path d="m25.5 34.29-8.5-4.9v-9.81l8.5-4.9 8.5 4.9v9.81zm-6.5-6.06 6.5 3.77 6.5-3.77v-7.49l-6.5-3.74-6.5 3.74z"/><path d="m18 21.32-8.5-4.9v-9.81l8.5-4.9 8.5 4.9v9.81zm-6.5-6.06 6.5 3.74 6.5-3.75v-7.48l-6.5-3.77-6.5 3.77z"/><path d="m0 0h36v36h-36z" fill="none"/></svg>