<svg height="36" preserveAspectRatio="xMidYMid meet" viewBox="0 0 36 36" width="36" xmlns="http://www.w3.org/2000/svg"><path d="m33.53 21.58-4.94-2.83v-5.66a1 1 0 0 0 -.51-.87l-5.44-3.12a1 1 0 0 0 -1 0l-5.44 3.12a1 1 0 0 0 -.51.87v5.66l-4.94 2.83a1 1 0 0 0 -.5.87v6.24a1 1 0 0 0 .5.86l5.45 3.12a1 1 0 0 0 1 0l4.95-2.83 4.95 2.83a1 1 0 0 0 .5.14 1 1 0 0 0 .49-.14l5.45-3.12a1 1 0 0 0 .5-.86v-6.24a1 1 0 0 0 -.51-.87zm-11.39-10.46 4.45 2.55v5.33l-4.46 2.56-4.44-2.6v-5.29zm-5.45 19.53-4.44-2.54v-5.11l4.68-2.68 4.4 2.57v5.11zm15.31-2.54-4.44 2.54-4.63-2.65v-5.07l4.46-2.57 4.61 2.64z"/><path d="m7 27.43a1 1 0 0 1 -1-1v-6.53a1 1 0 0 1 .5-.9l4.95-2.83v-5.63a1 1 0 0 1 .5-.87l5.21-3a1 1 0 0 1 1.37.37 1 1 0 0 1 -.38 1.37l-4.7 2.68v5.66a1 1 0 0 1 -.51.87l-4.94 2.86v5.95a1 1 0 0 1 -1 1z"/><path d="m3 25.05a1 1 0 0 1 -1-1v-6.52a1 1 0 0 1 .5-.86l5-2.84v-5.66a1 1 0 0 1 .5-.86l5.25-3a1 1 0 0 1 1 1.74l-4.8 2.7v5.66a1 1 0 0 1 -.51.87l-4.94 2.83v5.94a1 1 0 0 1 -1 1z"/><path d="m0 0h36v36h-36z" fill="none"/></svg>