<svg height="36" preserveAspectRatio="xMidYMid meet" viewBox="0 0 36 36" width="36" xmlns="http://www.w3.org/2000/svg"><path d="m5.46 7.41v4.15h1.19v-5.51h-.95l-1.65 1.11.47.84z"/><path d="m5.57 14.82a.76.76 0 0 1 .83.73c0 .38-.21.74-.87 1.27l-2 1.57v1h4.14v-1.11h-2.34l1-.77c1-.7 1.28-1.27 1.28-2a1.83 1.83 0 0 0 -2-1.76 2.63 2.63 0 0 0 -2.14 1.08l.76.73a1.75 1.75 0 0 1 1.34-.74z"/><path d="m6.56 24.64a1.32 1.32 0 0 0 1-1.27c0-.87-.78-1.51-2-1.51a2.61 2.61 0 0 0 -2.1 1l.69.72a1.78 1.78 0 0 1 1.3-.64c.54 0 .92.26.92.66s-.36.62-1 .62h-.58v1h.64c.74 0 1.07.21 1.07.63s-.35.68-1 .68a2 2 0 0 1 -1.46-.65l-.7.78a2.85 2.85 0 0 0 2.21.93c1.29 0 2.13-.69 2.13-1.64a1.33 1.33 0 0 0 -1.12-1.31z"/><path d="m32.42 9a1 1 0 0 0 -1-1h-21.42v2h21.42a1 1 0 0 0 1-1z"/><path d="m31.42 16h-21.42v2h21.42a1 1 0 0 0 0-2z"/><path d="m31.42 24h-21.42v2h21.42a1 1 0 0 0 0-2z"/><path d="m0 0h36v36h-36z" fill="none"/></svg>