<svg height="36" preserveAspectRatio="xMidYMid meet" viewBox="0 0 36 36" width="36" xmlns="http://www.w3.org/2000/svg"><path d="m16.08 14.9a10.41 10.41 0 0 1 1.87-.71l-4-10.77a2 2 0 0 0 -3.75 0l-8.2 21.84a2 2 0 0 0 1.92 2.74h6.94a10 10 0 0 1 -.52-2h-6.42l8.14-21.88z"/><path d="m32 9h-10a2 2 0 0 0 -2 2v2.85h.69a10.51 10.51 0 0 1 1.31.05v-2.9h10v10h-1.35a10.42 10.42 0 0 1 .45 2h.9a2 2 0 0 0 2-2v-10a2 2 0 0 0 -2-2z"/><path d="m20.69 15.81a8.5 8.5 0 1 0 8.5 8.5 8.51 8.51 0 0 0 -8.5-8.5zm0 15a6.5 6.5 0 1 1 6.5-6.5 6.51 6.51 0 0 1 -6.5 6.5z"/><path d="m0 0h36v36h-36z" fill="none"/></svg>