<svg height="36" viewBox="0 0 36 36" width="36" xmlns="http://www.w3.org/2000/svg"><path d="m18.08 2.34c-8.82 0-16 6.28-16 14s7.18 14 16 14a17.91 17.91 0 0 0 4.92-.68l5.53 3.52a1 1 0 0 0 1.38-.3 1 1 0 0 0 .16-.54v-6.73a13 13 0 0 0 4-9.27c.01-7.72-7.17-14-15.99-14zm10.29 22.11a1 1 0 0 0 -.32.73v5.34l-4.38-2.79a1 1 0 0 0 -.83-.11 16 16 0 0 1 -4.76.72c-7.72 0-14-5.38-14-12s6.28-12 14-12 14 5.38 14 12a11.1 11.1 0 0 1 -3.71 8.11z"/><path d="m31.1 15.82-.1-.15-2.5-2.23a3.25 3.25 0 0 0 -2.39-.84l-5.38.34-3.59-3a.81.81 0 0 0 -.52-.19h-3.06a.78.78 0 0 0 -.69.4.77.77 0 0 0 0 .79l1.36 2.44-4.71.29 1.31 1.52 15.39-1a1.65 1.65 0 0 1 1.22.43l2.36 2.13a.11.11 0 0 1 0 .07c0 .06-.09.05-.1.06h-7.88l-.35.37-5.19 5.53h-1.64l2.73-5.9h-8.83l-1.41-2.72-.62-1.16a.8.8 0 0 0 -1-.2.81.81 0 0 0 -.31 1.1l2 3.94a1.21 1.21 0 0 0 1.08.65h6.57l-1.94 4.18a1.2 1.2 0 0 0 .09 1.16 1.22 1.22 0 0 0 1 .56h2.43a1.17 1.17 0 0 0 .88-.39l5.18-5.51h7.16a1.65 1.65 0 0 0 1.52-.91 1.74 1.74 0 0 0 -.07-1.76zm-16.18-4.51h1.41l2.09 1.77-2.42.15z"/></svg>