<svg height="36" viewBox="0 0 36 36" width="36" xmlns="http://www.w3.org/2000/svg"><path d="m18 2.5c-8.82 0-16 6.28-16 14s7.18 14 16 14a17.91 17.91 0 0 0 4.88-.68l5.53 3.52a1 1 0 0 0 1.38-.3 1 1 0 0 0 .21-.54v-6.73a13 13 0 0 0 4-9.27c0-7.72-7.18-14-16-14zm11.84 15.5h-8.33a.42.42 0 0 0 -.3.13l-5.3 5.64a.39.39 0 0 1 -.29.13h-2.43a.41.41 0 0 1 -.37-.58l2.47-5.32h-7.83a.42.42 0 0 1 -.36-.22l-2.7-5h1.84a.53.53 0 0 1 .39.18l1.56 1.69a.38.38 0 0 0 .33.14l6.18-.38-2-3.55h2.89a.47.47 0 0 1 .31.11l3.73 3.03 6.69-.35a2.44 2.44 0 0 1 1.81.63l2.47 2.23a.92.92 0 0 1 -.76 1.49z"/></svg>