<svg height="36" preserveAspectRatio="xMidYMid meet" viewBox="0 0 36 36" width="36" xmlns="http://www.w3.org/2000/svg"><path d="m9.8 18.8h16.4v3.08h1.6v-4.68h-9v-3.2h-1.6v3.2h-9v4.68h1.6z"/><path d="m14 23h-10a2 2 0 0 0 -2 2v6a2 2 0 0 0 2 2h10a2 2 0 0 0 2-2v-6a2 2 0 0 0 -2-2zm-10 8v-6h10v6z"/><path d="m32 23h-10a2 2 0 0 0 -2 2v6a2 2 0 0 0 2 2h10a2 2 0 0 0 2-2v-6a2 2 0 0 0 -2-2zm-10 8v-6h10v6z"/><path d="m13 13h10a2 2 0 0 0 2-2v-6a2 2 0 0 0 -2-2h-10a2 2 0 0 0 -2 2v6a2 2 0 0 0 2 2zm0-8h10v6h-10z"/><path d="m0 0h36v36h-36z" fill="none"/></svg>