<svg height="36" preserveAspectRatio="xMidYMid meet" viewBox="0 0 36 36" width="36" xmlns="http://www.w3.org/2000/svg"><path d="m12.93 32h-6.86a2.07 2.07 0 0 1 -2.07-2.07v-23.86a2.07 2.07 0 0 1 2.07-2.07h6.87a2.07 2.07 0 0 1 2.06 2.07v23.86a2.07 2.07 0 0 1 -2.07 2.07zm.07-26h-7v24h7z"/><path d="m29.93 32h-6.86a2.07 2.07 0 0 1 -2.07-2.07v-23.86a2.07 2.07 0 0 1 2.07-2.07h6.87a2.07 2.07 0 0 1 2.06 2.07v23.86a2.07 2.07 0 0 1 -2.07 2.07zm.07-26h-7v24h7z"/><path d="m0 0h36v36h-36z" fill="none"/></svg>