<svg height="36" preserveAspectRatio="xMidYMid meet" viewBox="0 0 36 36" width="36" xmlns="http://www.w3.org/2000/svg"><path d="m31 13.2h-3.11a6.81 6.81 0 0 0 .11-1.2 7.85 7.85 0 0 0 -.1-1.19h2.93a.8.8 0 0 0 0-1.6h-3.37a8.44 8.44 0 0 0 -7.89-5.21h-8.57a1 1 0 0 0 -1 1v4.2h-3a.8.8 0 0 0 0 1.6h3v2.4h-3a.8.8 0 0 0 0 1.6h3v16.2a1 1 0 0 0 2 0v-11h7.57a8.45 8.45 0 0 0 7.89-5.2h3.54a.8.8 0 0 0 0-1.6zm-19-7.2h7.57a6.51 6.51 0 0 1 5.68 3.2h-13.25zm0 4.8h13.87a5.6 5.6 0 0 1 0 2.4h-13.87zm7.57 7.2h-7.57v-3.2h13.25a6.51 6.51 0 0 1 -5.68 3.2z"/><path d="m0 0h36v36h-36z" fill="none"/></svg>