<svg height="36" preserveAspectRatio="xMidYMid meet" viewBox="0 0 36 36" width="36" xmlns="http://www.w3.org/2000/svg"><path d="m14.18 13.8v2.2h9.45a5.26 5.26 0 0 0 .08-.89 4.72 4.72 0 0 0 -.2-1.31z"/><path d="m14.18 19.7h5.19a4.28 4.28 0 0 0 3.5-1.9h-8.69z"/><path d="m19.37 10.51h-5.19v1.49h8.37a4.21 4.21 0 0 0 -3.18-1.49z"/><path d="m17.67 2a16 16 0 1 0 16 16 16 16 0 0 0 -16-16zm10.5 15.8h-2.47a6.87 6.87 0 0 1 -6.33 4.4h-5.19v6.54a1.25 1.25 0 1 1 -2.5 0v-10.94h-2.92a.9.9 0 1 1 0-1.8h2.92v-2.2h-2.92a.9.9 0 1 1 0-1.8h2.92v-2.74a1.25 1.25 0 0 1 1.25-1.26h6.44a6.84 6.84 0 0 1 6.15 4h2.65a.9.9 0 0 1 0 1.8h-2.08a6.91 6.91 0 0 1 .12 1.3 6.8 6.8 0 0 1 -.06.9h2a.9.9 0 0 1 0 1.8z"/><path d="m0 0h36v36h-36z" fill="none"/></svg>