<svg height="36" preserveAspectRatio="xMidYMid meet" viewBox="0 0 36 36" width="36" xmlns="http://www.w3.org/2000/svg"><path d="m27.73 35.44a4.72 4.72 0 0 1 -1-.11 33.91 33.91 0 0 1 -16.62-8.75 32.71 32.71 0 0 1 -9-16.25 4.58 4.58 0 0 1 1.35-4.28l4-3.85a2 2 0 0 1 1.54-.54 2 2 0 0 1 1.45.87l5 7.39a1.6 1.6 0 0 1 -.11 1.9l-2.51 3a18.94 18.94 0 0 0 4.17 5.89 19.26 19.26 0 0 0 6.07 4.09l3.11-2.47a1.64 1.64 0 0 1 1.86-.12l7.55 4.88a2 2 0 0 1 .41 3.11l-3.9 3.86a4.74 4.74 0 0 1 -3.37 1.38zm-19.89-31.8-4 3.85a2.54 2.54 0 0 0 -.75 2.4 30.7 30.7 0 0 0 8.41 15.26 31.9 31.9 0 0 0 15.64 8.23 2.75 2.75 0 0 0 2.5-.74l3.9-3.86-7.29-4.71-3.34 2.66a1 1 0 0 1 -.92.17 20.06 20.06 0 0 1 -7.36-4.75 19.49 19.49 0 0 1 -4.87-7.2 1 1 0 0 1 .24-.95l2.7-3.23z"/><path d="m0 0h36v36h-36z" fill="none"/></svg>