<svg height="36" preserveAspectRatio="xMidYMid meet" viewBox="0 0 36 36" width="36" xmlns="http://www.w3.org/2000/svg"><path d="m19.72 10.47a11.65 11.65 0 0 0 -6.31.52.8.8 0 1 0 .59 1.49 10.11 10.11 0 0 1 5.44-.48.8.8 0 1 0 .28-1.57z"/><circle cx="25.38" cy="16.71" r="1.36"/><path d="m35.51 18.63a1 1 0 0 0 -.84-.44 3.42 3.42 0 0 1 -2.09-1.12 17.35 17.35 0 0 1 -2.63-3.78l2.88-4.5a1.89 1.89 0 0 0 .17-1.79 1.77 1.77 0 0 0 -1.33-1 10.12 10.12 0 0 0 -5.39.75 12.72 12.72 0 0 0 -2.72 1.63 16.94 16.94 0 0 0 -5.16-1.39c-7.09-.69-13.57 3.91-14.4 10.01a2.56 2.56 0 0 1 -1.38-1.53 1.81 1.81 0 0 1 .14-1.4 1.19 1.19 0 0 1 .43-.43 1.08 1.08 0 0 0 -1.12-1.85 3.31 3.31 0 0 0 -1.16 1.21 4 4 0 0 0 -.33 3.08 4.76 4.76 0 0 0 2.42 2.87l.92.46a17.58 17.58 0 0 0 1.82 7l.17.38a23 23 0 0 0 3.29 5.09 1 1 0 0 0 .75.34h4.52a1 1 0 0 0 .92-1.38l-.39-.9 1.18.13a20.33 20.33 0 0 0 4 0c.37.6.77 1.2 1.21 1.79a1 1 0 0 0 .8.41h4.34a1 1 0 0 0 .92-1.39c-.17-.4-.34-.83-.47-1.2-.18-.53-.32-1-.43-1.45a13.18 13.18 0 0 0 3.01-2.23 12.5 12.5 0 0 0 3 0 1 1 0 0 0 .78-.62l2.26-5.81a1 1 0 0 0 -.09-.94zm-3.78 5.44a11.37 11.37 0 0 1 -2.35-.11 8.2 8.2 0 0 1 -2.53-.87 1 1 0 0 0 -.93 1.77 11.72 11.72 0 0 0 1.29.58 8 8 0 0 1 -1.8 1.16l-1.06.48s.49 2.19.82 3.16h-2.38c-.24-.34-1.45-2.36-1.45-2.36l-.67.09a18.53 18.53 0 0 1 -4.25.12c-.66-.06-1.76-.2-2.62-.35l-1.55-.27s.63 2.43.75 2.74h-2.58a20.57 20.57 0 0 1 -2.66-4.21l-.18-.39a14.62 14.62 0 0 1 -1.58-8.13c.54-5.19 6.12-9.11 12.19-8.54a15.47 15.47 0 0 1 5.08 1.48l.62.29.5-.47a10.29 10.29 0 0 1 2.61-1.7 8.25 8.25 0 0 1 4-.65l-3.38 5.29.25.5a21.16 21.16 0 0 0 3.31 4.84 6.49 6.49 0 0 0 2.14 1.39z"/><path d="m0 0h36v36h-36z" fill="none"/></svg>