<svg height="36" preserveAspectRatio="xMidYMid meet" viewBox="0 0 36 36" width="36" xmlns="http://www.w3.org/2000/svg"><path d="m33 16.59a1 1 0 0 1 -.71-.29l-12.59-12.59a1 1 0 0 1 1.41-1.41l12.6 12.59a1 1 0 0 1 -.71 1.7z"/><path d="m28.52 15.56-1.41-1.41-7.2 7.2a1 1 0 0 0 -.25 1 9 9 0 0 1 -1.53 8.09l-12.55-12.57a9 9 0 0 1 8.09-1.53 1 1 0 0 0 1-.25l7.2-7.2-1.43-1.41-6.79 6.79a10.94 10.94 0 0 0 -10.24 2.84 1 1 0 0 0 0 1.42l6.33 6.33-7.45 7.43a1 1 0 1 0 1.41 1.41l7.44-7.44 6.33 6.33a1 1 0 0 0 .71.29 1 1 0 0 0 .71-.3 11 11 0 0 0 2.84-10.24z"/><path d="m0 0h36v36h-36z" fill="none"/></svg>