<svg height="36" preserveAspectRatio="xMidYMid meet" viewBox="0 0 36 36" width="36" xmlns="http://www.w3.org/2000/svg"><path d="m26 32h-16a6 6 0 0 1 -6-6v-16a6 6 0 0 1 6-6h16a6 6 0 0 1 6 6v16a6 6 0 0 1 -6 6zm-16-26a4 4 0 0 0 -4 4v16a4 4 0 0 0 4 4h16a4 4 0 0 0 4-4v-16a4 4 0 0 0 -4-4z"/><path d="m26.56 15h-11.12a1.43 1.43 0 0 0 -1.44 1.44v8.12a1.43 1.43 0 0 0 1.44 1.44h11.12a1.43 1.43 0 0 0 1.44-1.44v-8.12a1.43 1.43 0 0 0 -1.44-1.44zm-.56 9h-10v-7h10z"/><path d="m12.4 19h-2.4v-7h10v1.4h2v-2a1.43 1.43 0 0 0 -1.44-1.4h-11.12a1.43 1.43 0 0 0 -1.44 1.44v8.12a1.43 1.43 0 0 0 1.44 1.44h3z"/><path d="m0 0h36v36h-36z" fill="none"/></svg>