<svg height="36" preserveAspectRatio="xMidYMid meet" viewBox="0 0 36 36" width="36" xmlns="http://www.w3.org/2000/svg"><path d="m18 2a16 16 0 1 0 16 16 16 16 0 0 0 -16-16zm6.5 25.92h-12.76a1.25 1.25 0 0 1 -.22-2.48c.15 0 1.72-.49 1.72-3.54v-2.9h-2.5a1 1 0 0 1 0-2h2.5v-5.12a5.85 5.85 0 0 1 5.72-6 5.63 5.63 0 0 1 4.21 1.94 1.25 1.25 0 1 1 -1.87 1.69 3.08 3.08 0 0 0 -2.3-1.09 3.35 3.35 0 0 0 -3.22 3.46v5.12h3a1 1 0 0 1 0 2h-3v2.9a7.65 7.65 0 0 1 -.78 3.52h9.5a1.25 1.25 0 0 1 0 2.5z"/><path d="m0 0h36v36h-36z" fill="none"/></svg>