<svg height="36" preserveAspectRatio="xMidYMid meet" viewBox="0 0 36 36" width="36" xmlns="http://www.w3.org/2000/svg"><path d="m5.6 4a1.6 1.6 0 0 0 -1.6 1.6v6.4h8v-8zm4.4 6h-4v-4h4z"/><path d="m4 30.4a1.6 1.6 0 0 0 1.6 1.6h6.4v-8h-8zm2-4.4h4v4h-4z"/><path d="m24 32h6.4a1.6 1.6 0 0 0 1.6-1.6v-6.4h-8zm2-6h4v4h-4z"/><path d="m30.4 4h-6.4v8h8v-6.4a1.6 1.6 0 0 0 -1.6-1.6zm-.4 6h-4v-4h4z"/><path d="m20 10v-2h-4v4h2v-2z"/><path d="m12 12h2v2h-2z"/><path d="m14 14h4v2h-4z"/><path d="m20 6v2h2v-4h-8v4h2v-2z"/><path d="m4 14h2v4h-2z"/><path d="m12 16v2h-2v-4h-2v4h-2v2h-2v2h4v-2h2v2h2v-2h2v-4z"/><path d="m20 16h2v2h2v-2h2v-2h-4v-4h-2v2h-2v2h2z"/><path d="m18 30h-4v2h8v-2h-2v-2h-2z"/><path d="m22 20v-2h-2v-2h-2v2h-2v2h2v2h2v-2z"/><path d="m30 20h2v2h-2z"/><path d="m22 20h6v2h-6z"/><path d="m30 14h-2v2h-2v2h2v2h2v-2h2v-2h-2z"/><path d="m20 22h2v6h-2z"/><path d="m14 28h2v-2h2v-2h-2v-4h-2z"/><path d="m0 0h36v36h-36z" fill="none"/></svg>