<svg height="36" preserveAspectRatio="xMidYMid meet" viewBox="0 0 36 36" width="36" xmlns="http://www.w3.org/2000/svg"><path d="m6 14.15a3.17 3.17 0 0 1 3.17-3.15h19.23l-4.28 4.54a1 1 0 1 0 1.46 1.37l6.51-6.91-6.51-6.91a1 1 0 1 0 -1.46 1.37l4.28 4.54h-19.23a5.17 5.17 0 0 0 -5.17 5.15v6.1l2-2.12z"/><path d="m30 21.85a3.17 3.17 0 0 1 -3.17 3.15h-19.23l4.28-4.54a1 1 0 1 0 -1.46-1.37l-6.51 6.91 6.51 6.91a1 1 0 1 0 1.46-1.37l-4.28-4.54h19.23a5.17 5.17 0 0 0 5.17-5.15v-6.1l-2 2.12z"/><path d="m0 0h36v36h-36z" fill="none"/></svg>