<svg height="36" preserveAspectRatio="xMidYMid meet" viewBox="0 0 36 36" width="36" xmlns="http://www.w3.org/2000/svg"><path d="m19 27.27a1 1 0 0 0 1-1v-12.27a1 1 0 0 0 -1-1 3.8 3.8 0 0 0 -1.1.23l-2 .62a.92.92 0 0 0 -.72.86.88.88 0 0 0 .88.86 1.46 1.46 0 0 0 .43-.08l1.51-.42v11.2a1 1 0 0 0 1 1z"/><path d="m18.06 5h-6.7l2.92-2.64a1 1 0 0 0 -1.34-1.48l-5.62 5.12 5.62 5a1 1 0 0 0 .67.26 1 1 0 0 0 .74-.33 1 1 0 0 0 -.07-1.42l-2.82-2.51h6.6a11.78 11.78 0 1 1 -10.35 17.41 1 1 0 0 0 -1.71.95 13.78 13.78 0 1 0 12.06-20.36z"/><path d="m0 0h36v36h-36z" fill="none"/></svg>