<svg height="36" preserveAspectRatio="xMidYMid meet" viewBox="0 0 36 36" width="36" xmlns="http://www.w3.org/2000/svg"><path d="m18 1.67a16 16 0 1 0 16 16 16 16 0 0 0 -16-16zm-4.14 8.25a.8.8 0 0 1 1.13 0l2.21 2.19v-6.18a.8.8 0 0 1 1.6 0v6.18l2.2-2.19a.8.8 0 1 1 1.13 1.14l-4.13 4.09-4.14-4.1a.8.8 0 0 1 0-1.13zm-3.54 11.82a.8.8 0 0 1 -1.13 0l-4.19-4.07 4.19-4.09a.8.8 0 1 1 1.12 1.14l-2.2 2.14h6.27a.8.8 0 0 1 0 1.6h-6.27l2.2 2.15a.8.8 0 0 1 .01 1.13zm11.82 3.67a.8.8 0 0 1 -1.13 0l-2.21-2.18v6.17a.8.8 0 0 1 -1.6 0v-6.17l-2.2 2.19a.8.8 0 1 1 -1.13-1.14l4.13-4.1 4.14 4.1a.8.8 0 0 1 0 1.13zm4.67-3.66a.8.8 0 1 1 -1.12-1.14l2.2-2.15h-6.26a.8.8 0 0 1 0-1.6h6.27l-2.2-2.14a.8.8 0 1 1 1.12-1.14l4.18 4.09z"/><path d="m0 0h36v36h-36z" fill="none"/></svg>