<svg height="36" preserveAspectRatio="xMidYMid meet" viewBox="0 0 36 36" width="36" xmlns="http://www.w3.org/2000/svg"><path d="m20.75 9.25h-5.75v8.81h5.79a4.66 4.66 0 0 0 4.86-4.4 4.65 4.65 0 0 0 -4.9-4.41z"/><path d="m18 2a16 16 0 1 0 16 16 16 16 0 0 0 -16-16zm2.75 18.56h-5.75v1.44h8.29a1 1 0 0 1 0 2h-8.29v5a1.25 1.25 0 0 1 -2.5 0v-5h-1.25a1 1 0 0 1 0-2h1.21v-1.44h-1.21a1.25 1.25 0 0 1 0-2.5h1.21v-10.06a1.25 1.25 0 0 1 1.25-1.25h7a7.14 7.14 0 0 1 7.36 6.9 7.15 7.15 0 0 1 -7.32 6.91z"/><path d="m0 0h36v36h-36z" fill="none"/></svg>