<svg height="36" preserveAspectRatio="xMidYMid meet" viewBox="0 0 36 36" width="36" xmlns="http://www.w3.org/2000/svg"><path d="m34 7v22c0 1.105-.895 2-2 2h-28c-1.104 0-2-.895-2-2v-22c0-1.104.896-2 2-2h28c1.105 0 2 .896 2 2zm-24.899 8.8c.312.311.818.311 1.13 0l1.16-1.16 1.16 1.16c.413.456 1.166.294 1.354-.293.097-.299.009-.626-.224-.837l-1.15-1.13 1.16-1.16c.456-.414.294-1.166-.292-1.355-.299-.096-.627-.008-.838.225l-1.16 1.16-1.17-1.19c-.414-.457-1.166-.294-1.354.292-.097.299-.009.627.224.838l1.16 1.19-1.16 1.13c-.312.312-.312.817 0 1.13zm6.075 9.736c.312.311.818.311 1.13 0l1.16-1.16 1.16 1.16c.413.456 1.166.294 1.354-.293.097-.299.009-.626-.224-.837l-1.15-1.13 1.16-1.16c.456-.414.294-1.166-.292-1.355-.299-.096-.627-.008-.838.225l-1.16 1.16-1.17-1.19c-.414-.457-1.166-.294-1.354.292-.097.299-.009.627.224.838l1.16 1.19-1.16 1.13c-.312.312-.312.817 0 1.13zm7.736-5.193c.312.311.818.311 1.13 0l1.16-1.16 1.16 1.16c.413.456 1.166.294 1.354-.293.097-.299.009-.626-.224-.837l-1.15-1.13 1.16-1.16c.456-.414.294-1.166-.292-1.355-.299-.096-.627-.008-.838.225l-1.16 1.16-1.17-1.19c-.414-.457-1.166-.294-1.354.292-.097.299-.009.627.224.838l1.16 1.19-1.16 1.13c-.312.312-.312.817 0 1.13z"/><path d="m0 0h36v36h-36z" fill="none"/></svg>