<svg height="36" preserveAspectRatio="xMidYMid meet" viewBox="0 0 36 36" width="36" xmlns="http://www.w3.org/2000/svg"><path d="m33.81 8.13-2.18-1.65a1.92 1.92 0 0 0 -2.36 0l-19.27 15.58a5.46 5.46 0 1 0 2 1.81l3.9-3.12 13.37 10.77a1.92 1.92 0 0 0 2.36 0l2.18-1.64-12.87-10.88zm-26.36 21.62a2.86 2.86 0 1 1 2.86-2.86 2.87 2.87 0 0 1 -2.86 2.86z"/><path d="m14.3 15.24-2.3-1.86a5.46 5.46 0 1 0 -2 1.81l2.16 1.81zm-6.85-2a2.86 2.86 0 1 1 2.86-2.86 2.86 2.86 0 0 1 -2.86 2.85z"/><path d="m0 0h36v36h-36z" fill="none"/></svg>