<svg height="36" preserveAspectRatio="xMidYMid meet" viewBox="0 0 36 36" width="36" xmlns="http://www.w3.org/2000/svg"><path d="m18 24.3a2.48 2.48 0 1 0 2.48 2.47 2.48 2.48 0 0 0 -2.48-2.47zm0 3.6a1.13 1.13 0 1 1 1.13-1.12 1.13 1.13 0 0 1 -1.13 1.12z"/><path d="m25.65 3.6h-15.3a1.35 1.35 0 0 0 -1.35 1.35v27.45h18v-27.45a1.35 1.35 0 0 0 -1.35-1.35zm-.45 27h-14.4v-25.2h14.4z"/><path d="m12.6 7.2h10.8v1.44h-10.8z"/><path d="m12.6 10.8h10.8v1.44h-10.8z"/><path d="m0 0h36v36h-36z" fill="none"/></svg>