<svg height="36" preserveAspectRatio="xMidYMid meet" viewBox="0 0 36 36" width="36" xmlns="http://www.w3.org/2000/svg"><circle cx="13.33" cy="29.75" r="2.25"/><circle cx="27" cy="29.75" r="2.25"/><path d="m33.08 5.37a1 1 0 0 0 -.77-.37h-20.82l.65 2h18.86l-2.67 12h-15l-4.57-14.47a1 1 0 0 0 -.66-.65l-4.1-1.26a1 1 0 1 0 -.59 1.92l3.59 1.1 4.59 14.5-1.64 1.34-.13.13a2.66 2.66 0 0 0 -.08 3.39 2.75 2.75 0 0 0 2.26 1h16.69a1 1 0 0 0 0-2h-16.85a.67.67 0 0 1 -.56-1l2.41-2h15.44a1 1 0 0 0 1-.78l3.17-14a1 1 0 0 0 -.22-.85z"/><path d="m0 0h36v36h-36z" fill="none"/></svg>