<svg height="36" preserveAspectRatio="xMidYMid meet" viewBox="0 0 36 36" width="36" xmlns="http://www.w3.org/2000/svg"><circle cx="13.5" cy="29.5" r="2.5"/><circle cx="26.5" cy="29.5" r="2.5"/><path d="m33.1 6.39a1 1 0 0 0 -.79-.39h-23.1l-.45-1.43a1 1 0 0 0 -.66-.65l-4.1-1.26a1 1 0 1 0 -.59 1.92l3.59 1.1 4.58 14.47-1.63 1.34-.13.13a2.66 2.66 0 0 0 -.08 3.38 2.75 2.75 0 0 0 2.26 1h16.69a1 1 0 0 0 0-2h-16.85a.67.67 0 0 1 -.56-1l2.41-2h15.43a1 1 0 0 0 1-.76l3.2-13a1 1 0 0 0 -.22-.85z"/><path d="m0 0h36v36h-36z" fill="none"/></svg>