<svg height="36" preserveAspectRatio="xMidYMid meet" viewBox="0 0 36 36" width="36" xmlns="http://www.w3.org/2000/svg"><path d="m21.61 11h8.62l-3.3 3.3a1 1 0 1 0 1.41 1.42l5.66-5.64-.71-.71-4.95-4.94a1 1 0 0 0 -1.41 1.42l3.18 3.15h-9.11a1 1 0 0 0 -.86.5l-2.64 4.59 1.16 2z"/><path d="m11.07 25.07h-8.07a1 1 0 0 0 0 2h8.65a1 1 0 0 0 .86-.5l2.67-4.57-1.18-2z"/><path d="m28.34 20.17a1 1 0 0 0 -1.41 1.42l3.5 3.5h-8.82l-9.1-15.56a1 1 0 0 0 -.86-.5h-8.65a1 1 0 1 0 0 2h8.07l9.1 15.55a1 1 0 0 0 .86.5h8.87l-3 3a1 1 0 0 0 1.41 1.42l4.95-4.94.71-.71z"/><path d="m0 0h36v36h-36z" fill="none"/></svg>