<svg height="36" preserveAspectRatio="xMidYMid meet" viewBox="0 0 36 36" width="36" xmlns="http://www.w3.org/2000/svg"><path d="m9 9.29v-4.29a1 1 0 1 0 -2 0v4.3a3.22 3.22 0 0 0 0 6.11v15.59a1 1 0 1 0 2 0v-15.57a3.22 3.22 0 0 0 0-6.14z"/><path d="m19 21.45v-16.45a1 1 0 1 0 -2 0v16.47a3.22 3.22 0 0 0 0 6.11v3.42a1 1 0 1 0 2 0v-3.4a3.22 3.22 0 0 0 0-6.14z"/><path d="m29 12.75v-7.75a1 1 0 1 0 -2 0v7.76a3.22 3.22 0 0 0 0 6.11v12.13a1 1 0 1 0 2 0v-12.11a3.22 3.22 0 0 0 0-6.14z"/><path d="m0 0h36v36h-36z" fill="none"/></svg>