<svg height="36" preserveAspectRatio="xMidYMid meet" viewBox="0 0 36 36" width="36" xmlns="http://www.w3.org/2000/svg"><path d="m12 12.37a4 4 0 0 0 -3-3.89v-3.48a1 1 0 1 0 -2 0v3.48a4 4 0 0 0 0 7.78v14.74a1 1 0 1 0 2 0v-14.74a4 4 0 0 0 3-3.89zm-4 2a2 2 0 1 1 2-2 2 2 0 0 1 -2 2.03z"/><path d="m32 15.83a4 4 0 0 0 -3-3.89v-6.94a1 1 0 1 0 -2 0v6.94a4 4 0 0 0 0 7.78v11.28a1 1 0 1 0 2 0v-11.28a4 4 0 0 0 3-3.89zm-4 2a2 2 0 1 1 2-2 2 2 0 0 1 -2 2.04z"/><path d="m22 24.5a4 4 0 0 0 -3-3.89v-15.61a1 1 0 1 0 -2 0v15.61a4 4 0 0 0 0 7.78v2.61a1 1 0 1 0 2 0v-2.61a4 4 0 0 0 3-3.89zm-4 2a2 2 0 1 1 2-2 2 2 0 0 1 -2 2.03z"/><path d="m0 0h36v36h-36z" fill="none"/></svg>