<svg height="36" preserveAspectRatio="xMidYMid meet" viewBox="0 0 36 36" width="36" xmlns="http://www.w3.org/2000/svg"><path d="m18 7a1 1 0 0 1 -1-1v-2.81a1 1 0 0 1 2 0v2.81a1 1 0 0 1 -1 1z"/><path d="m18 34a1 1 0 0 1 -1-1v-3a1 1 0 0 1 2 0v3a1 1 0 0 1 -1 1z"/><path d="m7.41 18 1.78-1.77a1 1 0 1 0 -1.42-1.42l-1.77 1.78-1.77-1.78a1 1 0 1 0 -1.42 1.42l1.78 1.77-1.78 1.77a1 1 0 0 0 0 1.42 1 1 0 0 0 .71.29 1 1 0 0 0 .71-.29l1.77-1.78 1.77 1.78a1 1 0 0 0 1.42 0 1 1 0 0 0 0-1.42z"/><path d="m6 13.76.36-.36a3 3 0 0 1 2.11-.88 11 11 0 0 1 19 0 3 3 0 0 1 2.12.88l.36.36.2-.2a13 13 0 0 0 -24.4 0z"/><path d="m30 22.24-.36.36a3 3 0 0 1 -2.12.88 11 11 0 0 1 -19 0 3 3 0 0 1 -2.12-.88l-.4-.36-.2.2a13 13 0 0 0 24.4 0z"/><path d="m31.41 18 1.78-1.77a1 1 0 0 0 -1.42-1.42l-1.77 1.78-1.77-1.78a1 1 0 1 0 -1.42 1.42l1.78 1.77-1.78 1.77a1 1 0 0 0 0 1.42 1 1 0 0 0 .71.29 1 1 0 0 0 .71-.29l1.77-1.78 1.77 1.78a1 1 0 0 0 1.42 0 1 1 0 0 0 0-1.42z"/><path d="m0 0h36v36h-36z" fill="none"/></svg>