<svg height="36" preserveAspectRatio="xMidYMid meet" viewBox="0 0 36 36" width="36" xmlns="http://www.w3.org/2000/svg"><path d="m32 6h-28a2 2 0 0 0 -2 2v20a2 2 0 0 0 2 2h28a2 2 0 0 0 2-2v-20a2 2 0 0 0 -2-2zm0 22h-28v-20h28z"/><circle cx="6.21" cy="10.25" r="1.25"/><circle cx="29.81" cy="10.25" r="1.25"/><circle cx="6.21" cy="25.42" r="1.25"/><circle cx="29.81" cy="25.42" r="1.25"/><path d="m10 18.62c1.32.31 1.91.54 1.91 1.22s-.53 1.09-1.55 1.09a4 4 0 0 1 -2.71-1.11l-.86 1.06a5 5 0 0 0 3.52 1.34c2 0 3.1-1 3.1-2.52s-1.15-2.05-2.87-2.44c-1.31-.3-1.92-.54-1.92-1.21a1.25 1.25 0 0 1 1.38-1.05 3.68 3.68 0 0 1 2.37 1l.81-1.1a4.58 4.58 0 0 0 -3.18-1.21c-1.74 0-3 1.05-3 2.49s1.26 2.04 3 2.44z"/><path d="m17.83 20.93a4 4 0 0 1 -2.71-1.11l-.86 1.06a5 5 0 0 0 3.52 1.34c2 0 3.1-1 3.1-2.52s-1.15-2.05-2.88-2.44c-1.31-.3-1.92-.54-1.92-1.21a1.25 1.25 0 0 1 1.4-1.05 3.68 3.68 0 0 1 2.37 1l.81-1.1a4.56 4.56 0 0 0 -3.12-1.15c-1.73 0-3 1.05-3 2.49s1.19 2 2.89 2.44c1.32.31 1.91.54 1.91 1.22s-.49 1.03-1.51 1.03z"/><path d="m29.9 18c0-2.41-1.92-4.12-4.64-4.12h-2.9v8.24h2.9c2.74-.04 4.64-1.75 4.64-4.12zm-6-2.76h1.56a2.77 2.77 0 1 1 0 5.53h-1.6z"/><path d="m0 0h36v36h-36z" fill="none"/></svg>