<svg height="36" preserveAspectRatio="xMidYMid meet" viewBox="0 0 36 36" width="36" xmlns="http://www.w3.org/2000/svg"><path d="m28 30h-12v-8h-2v8h-6v-8h-2v8a2 2 0 0 0 2 2h20a2 2 0 0 0 2-2v-8h-2z"/><path d="m33.79 13.27-4.08-8.16a2 2 0 0 0 -1.79-1.11h-19.84a2 2 0 0 0 -1.79 1.11l-4.08 8.16a2 2 0 0 0 -.21.9v3.08a2 2 0 0 0 .46 1.28 4.67 4.67 0 0 0 3.54 1.6 4.72 4.72 0 0 0 3-1.07 4.73 4.73 0 0 0 6 0 4.73 4.73 0 0 0 6 0 4.73 4.73 0 0 0 6 0 4.72 4.72 0 0 0 6.53-.52 2 2 0 0 0 .47-1.28v-3.09a2 2 0 0 0 -.21-.9zm-18.79 1.13v1.52l-.82 1.08a2.71 2.71 0 0 1 -4.37 0l-.81-1.12v-1.48l2.59-8.4h4.41zm12 1.48-.81 1.12a2.71 2.71 0 0 1 -4.37 0l-.82-1.12v-1.48l-1-8.4h4.45l2.55 8.4z"/><path d="m0 0h36v36h-36z" fill="none"/></svg>