<svg height="36" preserveAspectRatio="xMidYMid meet" viewBox="0 0 36 36" width="36" xmlns="http://www.w3.org/2000/svg"><path d="m17.91 18.28c8.08 0 14.66-1.74 15.09-3.94v-5.75c-.43 2.2-7 3.94-15.09 3.94a39.4 39.4 0 0 1 -11.66-1.53v-2a39.4 39.4 0 0 0 11.66 1.51c8.09.02 14.61-1.72 15.09-3.9-.2-3.41-9.48-4.33-15-4.33s-15 .93-15 4.43v22.58c0 3.49 9.43 4.43 15 4.43s15-.93 15-4.43v-5.2c-.43 2.19-7 3.91-15.09 3.91a39.4 39.4 0 0 1 -11.66-1.48v-2a39.4 39.4 0 0 0 11.66 1.48c8.09 0 14.66-1.72 15.09-3.91v-5.75c-.43 2.2-7 3.94-15.09 3.94a39.4 39.4 0 0 1 -11.66-1.51v-2a39.4 39.4 0 0 0 11.66 1.51z"/><path d="m0 0h36v36h-36z" fill="none"/></svg>