<svg height="36" preserveAspectRatio="xMidYMid meet" viewBox="0 0 36 36" width="36" xmlns="http://www.w3.org/2000/svg"><path d="m33 6.69c-.18-3.41-9.47-4.33-15-4.33s-15 .93-15 4.42v22.59c0 3.49 9.43 4.43 15 4.43s15-.93 15-4.43v-22.59s0 0 0 0 0-.08 0-.09zm-2 7.56c-.33.86-5.06 2.45-13 2.45a37.45 37.45 0 0 1 -11-1.36v2.08a43.32 43.32 0 0 0 11 1.28c4 0 9.93-.48 13-2v5.17c-.33.86-5.06 2.45-13 2.45a37.45 37.45 0 0 1 -11-1.4v2.08a43.32 43.32 0 0 0 11 1.28c4 0 9.93-.48 13-2v5.1c-.35.86-5.08 2.45-13 2.45s-12.7-1.63-13-2.46v-22.55c.3-.82 5-2.46 13-2.46 7.77 0 12.46 1.53 13 2.37-.52.87-5.21 2.39-13 2.39a37.6 37.6 0 0 1 -11-1.36v2.09a43.53 43.53 0 0 0 11 1.27c4 0 9.93-.48 13-2z"/><path d="m0 0h36v36h-36z" fill="none"/></svg>