<svg height="36" preserveAspectRatio="xMidYMid meet" viewBox="0 0 36 36" width="36" xmlns="http://www.w3.org/2000/svg"><path d="m14.55 18 6.8 8.6a1.17 1.17 0 0 1 -.92 1.9 1.17 1.17 0 0 1 -.92-.44l-6.51-8.15-6.4 8.09a1.17 1.17 0 0 1 -.92.44 1.17 1.17 0 0 1 -.92-1.9l6.79-8.54-6.8-8.6a1.17 1.17 0 0 1 .92-1.9 1.17 1.17 0 0 1 .96.5l6.44 8.13 6.43-8.13a1.17 1.17 0 0 1 .92-.44 1.17 1.17 0 0 1 .92 1.9z"/><path d="m23 31.8 4.49-3.8a9.9 9.9 0 0 0 1.88-2.05 3.44 3.44 0 0 0 .63-1.95 2.35 2.35 0 0 0 -.35-1.27 2.44 2.44 0 0 0 -1-.84 2.9 2.9 0 0 0 -1.26-.28 3.36 3.36 0 0 0 -1.83.5 5.64 5.64 0 0 0 -1.48 1.42l-1-.81a5.11 5.11 0 0 1 4.36-2.37 4.35 4.35 0 0 1 2 .45 3.43 3.43 0 0 1 2 3.18 4.45 4.45 0 0 1 -.68 2.35 10.9 10.9 0 0 1 -2.24 2.46l-3.24 2.81h6.22v1.4h-8.5z"/><path d="m0 0h36v36h-36z" fill="none"/></svg>