<svg height="36" preserveAspectRatio="xMidYMid meet" viewBox="0 0 36 36" width="36" xmlns="http://www.w3.org/2000/svg"><path d="m18 6.31a1 1 0 0 0 1-1v-3.4a1 1 0 0 0 -2 0v3.4a1 1 0 0 0 1 1z"/><path d="m18 29.69a1 1 0 0 0 -1 1v3.4a1 1 0 0 0 2 0v-3.4a1 1 0 0 0 -1-1z"/><path d="m8.32 9.74a1 1 0 0 0 .68.26 1 1 0 0 0 .71-.29 1 1 0 0 0 0-1.42l-2.38-2.37a1 1 0 0 0 -1.41 1.41z"/><path d="m27.68 26.26a1 1 0 1 0 -1.42 1.42l2.41 2.4a1 1 0 0 0 .71.3 1 1 0 0 0 .7-.3 1 1 0 0 0 0-1.41z"/><path d="m6.31 18a1 1 0 0 0 -1-1h-3.4a1 1 0 0 0 0 2h3.4a1 1 0 0 0 1-1z"/><path d="m34.09 17h-3.4a1 1 0 1 0 0 2h3.4a1 1 0 0 0 0-2z"/><path d="m8.32 26.26-2.4 2.41a1 1 0 0 0 .7 1.71 1 1 0 0 0 .71-.3l2.41-2.4a1 1 0 1 0 -1.42-1.42z"/><path d="m27 10a1 1 0 0 0 .71-.29l2.4-2.41a1 1 0 0 0 0-1.41 1 1 0 0 0 -1.41 0l-2.41 2.4a1 1 0 0 0 0 1.42 1 1 0 0 0 .71.29z"/><path d="m18.13 7.75a10.13 10.13 0 1 0 10 10.13 10.08 10.08 0 0 0 -10-10.13zm0 18.25a8.13 8.13 0 1 1 8-8.12 8.08 8.08 0 0 1 -8 8.12z"/><path d="m0 0h36v36h-36z" fill="none"/></svg>