<svg height="36" preserveAspectRatio="xMidYMid meet" viewBox="0 0 36 36" width="36" xmlns="http://www.w3.org/2000/svg"><path d="m18 6.42a1 1 0 0 0 1-1v-3.51a1 1 0 0 0 -2 0v3.51a1 1 0 0 0 1 1z"/><path d="m18 29.58a1 1 0 0 0 -1 1v3.51a1 1 0 0 0 2 0v-3.51a1 1 0 0 0 -1-1z"/><path d="m8.4 9.81a1 1 0 0 0 1.41-1.41l-2.48-2.48a1 1 0 0 0 -1.41 1.41z"/><path d="m27.6 26.19a1 1 0 0 0 -1.41 1.41l2.48 2.48a1 1 0 0 0 1.41-1.41z"/><path d="m6.42 18a1 1 0 0 0 -1-1h-3.51a1 1 0 0 0 0 2h3.51a1 1 0 0 0 1-1z"/><path d="m34.09 17h-3.51a1 1 0 0 0 0 2h3.51a1 1 0 0 0 0-2z"/><path d="m8.4 26.19-2.48 2.48a1 1 0 0 0 1.41 1.41l2.48-2.48a1 1 0 0 0 -1.41-1.41z"/><path d="m27.6 9.81 2.48-2.48a1 1 0 0 0 -1.41-1.41l-2.48 2.48a1 1 0 0 0 1.41 1.41z"/><circle cx="18" cy="18" r="10"/><path d="m0 0h36v36h-36z" fill="none"/></svg>