<svg height="36" preserveAspectRatio="xMidYMid meet" viewBox="0 0 36 36" width="36" xmlns="http://www.w3.org/2000/svg"><path d="m32.84 15.72a1 1 0 1 0 -2 .29 13.15 13.15 0 0 1 .16 1.93 13 13 0 0 1 -22.3 9.06h5.36a1 1 0 0 0 0-2h-9v9a1 1 0 1 0 2 0v-5.8a15 15 0 0 0 25.78-12.48z"/><path d="m30.06 1a1.05 1.05 0 0 0 -1.06 1v5.83a14.94 14.94 0 0 0 -26 10.11 15.16 15.16 0 0 0 .2 2.48 1 1 0 0 0 1 .84h.16a1 1 0 0 0 .82-1.15 13.23 13.23 0 0 1 -.18-2.17 13 13 0 0 1 13-13 12.87 12.87 0 0 1 9.44 4.06h-5.38a1 1 0 0 0 0 2h8.94v-9a1 1 0 0 0 -.94-1z"/><path d="m0 0h36v36h-36z" fill="none"/></svg>