<svg height="36" preserveAspectRatio="xMidYMid meet" viewBox="0 0 36 36" width="36" xmlns="http://www.w3.org/2000/svg"><path d="m8 34a1 1 0 0 1 -1-1v-30.08a1 1 0 0 1 2 0v30.08a1 1 0 0 1 -1 1z"/><path d="m17 33.92a1 1 0 0 1 -1-1v-23.82a1 1 0 1 1 2 0v23.82a1 1 0 0 1 -1 1z"/><path d="m26 34a1 1 0 0 1 -1-1v-24a1 1 0 0 1 2 0v24a1 1 0 0 1 -1 1z"/><path d="m33.11 18h-25a1 1 0 1 1 0-2h25a1 1 0 1 1 0 2z"/><path d="m33.1 26.94h-25a1 1 0 1 1 0-1.94h25a1 1 0 1 1 0 1.92z"/><path d="m33 8.92h-30a1 1 0 1 1 0-1.92h30a1 1 0 1 1 0 1.94z"/><path d="m0 0h36v36h-36z" fill="none"/></svg>