<svg height="36" preserveAspectRatio="xMidYMid meet" viewBox="0 0 36 36" width="36" xmlns="http://www.w3.org/2000/svg"><path d="m33.16 19.13-13.58-13.58a1.92 1.92 0 0 0 -1.37-.55h-2.09l15.63 15.45-10.53 10.62a1.93 1.93 0 0 0 2.73 0l9.21-9.21a1.93 1.93 0 0 0 0-2.73z"/><path d="m27.78 19.17-13.58-13.59a1.92 1.92 0 0 0 -1.37-.58h-9.22a1.93 1.93 0 0 0 -1.93 1.93v9.22a1.92 1.92 0 0 0 .57 1.36l13.59 13.59a1.93 1.93 0 0 0 2.73 0l9.21-9.21a1.93 1.93 0 0 0 0-2.72zm-21.11-7.45a1.73 1.73 0 1 1 1.73-1.72 1.73 1.73 0 0 1 -1.73 1.72z"/><path d="m0 0h36v36h-36z" fill="none"/></svg>