<svg height="36" preserveAspectRatio="xMidYMid meet" viewBox="0 0 36 36" width="36" xmlns="http://www.w3.org/2000/svg"><path d="m13 30h-8a1 1 0 0 1 -1-1v-25a2 2 0 0 1 2-2h6a2 2 0 0 1 2 2v25a1 1 0 0 1 -1 1zm-7-2h6v-24h-6z"/><circle cx="9" cy="7.42" r="1.5"/><path d="m15 34h-12a1 1 0 0 1 0-2h12a1 1 0 0 1 0 2z"/><path d="m7.55 12.2h3v1.6h-3z"/><path d="m7.55 15.2h3v1.6h-3z"/><path d="m7.55 18.2h3v1.6h-3z"/><path d="m16 8h2v1.6h-2z"/><path d="m20 8h2v1.6h-2z"/><path d="m33 11.8h-8a.8.8 0 0 1 -.8-.8v-6a.8.8 0 0 1 .8-.8h8a.8.8 0 0 1 .8.8v6a.8.8 0 0 1 -.8.8zm-7.2-1.6h6.4v-4.4h-6.4z"/><path d="m16 20h2v1.6h-2z"/><path d="m20 20h2v1.6h-2z"/><path d="m33 23.8h-8a.8.8 0 0 1 -.8-.8v-6a.8.8 0 0 1 .8-.8h8a.8.8 0 0 1 .8.8v6a.8.8 0 0 1 -.8.8zm-7.2-1.6h6.4v-4.4h-6.4z"/><path d="m0 0h36v36h-36z" fill="none"/></svg>