<svg height="36" preserveAspectRatio="xMidYMid meet" viewBox="0 0 36 36" width="36" xmlns="http://www.w3.org/2000/svg"><path d="m12 10c2.92-1.82 7.3-4 9.37-4h6a16.68 16.68 0 0 1 3.31 6.08 26.71 26.71 0 0 1 1.32 7.92h-9v10a2.05 2.05 0 0 1 -1.26 1.69c-.77-2-2.62-6.57-4.23-8.72a11.39 11.39 0 0 0 -5.51-3.88v2.13a9.13 9.13 0 0 1 3.91 3c1.88 2.51 4.29 9.11 4.31 9.17a1 1 0 0 0 1.19.63c1.34-.4 3.59-1.62 3.59-4.02v-8h8a1 1 0 0 0 1-1 29 29 0 0 0 -1.4-9.62c-1.89-5.4-4.1-7.14-4.2-7.22a1 1 0 0 0 -.61-.16h-6.42c-2.43 0-6.54 2-9.37 3.63z"/><path d="m2 5h7a1 1 0 0 1 1 1v16a1 1 0 0 1 -1 1h-7zm6 2h-4v14h4z"/><path d="m0 0h36v36h-36z" fill="none"/></svg>