<svg height="36" preserveAspectRatio="xMidYMid meet" viewBox="0 0 36 36" width="36" xmlns="http://www.w3.org/2000/svg"><path d="m16.4 15.4h3.2v5.2h-3.2z"/><path d="m21 21a1 1 0 0 1 -1 1h-4a1 1 0 0 1 -1-1v-2h-13v9a2 2 0 0 0 2 2h28a2 2 0 0 0 2-2v-9h-13z"/><path d="m33.71 12.38-4.09-4.09a1 1 0 0 0 -.7-.29h-5v-1.95a2 2 0 0 0 -1.92-2.05h-8.16a1.92 1.92 0 0 0 -1.84 2.05v1.95h-4.92a1 1 0 0 0 -.71.29l-4.08 4.09a1 1 0 0 0 -.29.71v3.91h13v-2a1 1 0 0 1 1-1h4a1 1 0 0 1 1 1v2h13v-3.92a1 1 0 0 0 -.29-.7zm-11.71-4.38h-8v-2h8z"/><path d="m0 0h36v36h-36z" fill="none"/></svg>