<svg height="36" preserveAspectRatio="xMidYMid meet" viewBox="0 0 36 36" width="36" xmlns="http://www.w3.org/2000/svg"><path d="m18 2c-7.2-.3-13.2 5.3-13.5 12.5s5.3 13.2 12.5 13.5v-5.2l-5.2-5.2c-.4-.4-.4-1 0-1.4s1-.4 1.4 0l3.8 3.8v-6.2l-2.7-2.7c-.4-.4-.4-1 0-1.4s1-.4 1.4 0l3.3 3.3v3l3.3-3.3c.4-.4 1-.4 1.4 0 .4.4.4 1 0 1.4l-4.7 4.7v9.2c7.2-.3 12.8-6.3 12.5-13.5s-6.3-12.8-13.5-12.5z"/><path d="m18 28c-.3 0-.6 0-1 0v5c0 .6.4 1 1 1s1-.4 1-1v-5c-.3 0-.7 0-1 0z"/><path d="m0 0h36v36h-36z" fill="none"/></svg>