<svg height="36" preserveAspectRatio="xMidYMid meet" viewBox="0 0 36 36" width="36" xmlns="http://www.w3.org/2000/svg"><rect height="6" rx="1" width="6" x="10" y="26"/><path d="m15 16h-4a1 1 0 0 0 -1 1v1.2h-4.2v-6.2h1.2a1 1 0 0 0 1-1v-4a1 1 0 0 0 -1-1h-4a1 1 0 0 0 -1 1v4a1 1 0 0 0 1 1h1.2v17.8h6.8a.8.8 0 1 0 0-1.6h-5.2v-8.4h4.2v1.2a1 1 0 0 0 1 1h4a1 1 0 0 0 1-1v-4a1 1 0 0 0 -1-1z"/><path d="m33 8h-23v2h23a1 1 0 0 0 0-2z"/><path d="m33 18h-15v2h15a1 1 0 0 0 0-2z"/><path d="m33 28h-15v2h15a1 1 0 0 0 0-2z"/><path d="m0 0h36v36h-36z" fill="none"/></svg>