<svg height="36" preserveAspectRatio="xMidYMid meet" viewBox="0 0 36 36" width="36" xmlns="http://www.w3.org/2000/svg"><path d="m30 12h-4v-5a1 1 0 0 0 -1-1h-22a1 1 0 0 0 -1 1v18a1 1 0 0 0 1 1h1v-18h20v11.7a6.45 6.45 0 0 1 1.56-.2h.44v-5.5h4a2 2 0 0 1 2 2v1h-4v2h4v5h-2.4a4.54 4.54 0 0 0 -8.34 0h-6.83a4.5 4.5 0 0 0 -4.17-2.76 4.38 4.38 0 1 0 4.46 4.76h6.28a4.49 4.49 0 0 0 8.92 0h3.08a1 1 0 0 0 1-1v-9a4 4 0 0 0 -4-4zm-19.74 16a2.38 2.38 0 1 1 0-4.75 2.38 2.38 0 1 1 0 4.75zm15.17 0a2.38 2.38 0 1 1 2.5-2.37 2.44 2.44 0 0 1 -2.5 2.37z"/><path d="m0 0h36v36h-36z" fill="none"/></svg>