<svg height="36" preserveAspectRatio="xMidYMid meet" viewBox="0 0 36 36" width="36" xmlns="http://www.w3.org/2000/svg"><path d="m30 12h-4v-5a1 1 0 0 0 -1-1h-22a1 1 0 0 0 -1 1v18a1 1 0 0 0 1 1h1v-18h20v13.49a4.45 4.45 0 0 0 -2.75 2.51h-6.82a4.5 4.5 0 0 0 -4.17-2.76 4.38 4.38 0 1 0 4.46 4.76h6.28a4.48 4.48 0 0 0 8.91 0h4.09v-10a4 4 0 0 0 -4-4zm-19.74 16a2.38 2.38 0 1 1 0-4.75 2.38 2.38 0 1 1 0 4.75zm15.17 0a2.38 2.38 0 1 1 2.5-2.37 2.44 2.44 0 0 1 -2.51 2.37zm6.57-11h-6v-3h4a2 2 0 0 1 2 2z"/><path d="m0 0h36v36h-36z" fill="none"/></svg>