<svg height="36" preserveAspectRatio="xMidYMid meet" viewBox="0 0 36 36" width="36" xmlns="http://www.w3.org/2000/svg"><path d="m18 21a3 3 0 0 1 -2.22-1h-10.78v12a2 2 0 0 0 2 2h22a2 2 0 0 0 2-2v-12h-10.79a3 3 0 0 1 -2.21 1zm4 3a1 1 0 0 1 -1 1h-6a1 1 0 0 1 0-2h6a1 1 0 0 1 1 1z"/><path d="m15 12h-9.5a1.5 1.5 0 0 0 -1.5 1.5v4.5h11z"/><path d="m30.5 12h-9.5v6h11v-4.5a1.5 1.5 0 0 0 -1.5-1.5z"/><path d="m13 9.55 4-3.95v12.4a1 1 0 1 0 2 0v-12.4l4 3.95a1 1 0 1 0 1.41-1.42l-6.41-6.35-6.39 6.35a1 1 0 0 0 1.39 1.42z"/><path d="m0 0h36v36h-36z" fill="none"/></svg>