<svg height="36" preserveAspectRatio="xMidYMid meet" viewBox="0 0 36 36" width="36" xmlns="http://www.w3.org/2000/svg"><path d="m11.29 26.72a1 1 0 0 0 1.41 0l5.3-5.23 5.3 5.23a1 1 0 0 0 1.4-1.42l-5.28-5.21 5.28-5.21a1 1 0 0 0 -1.41-1.42l-5.29 5.22-5.3-5.23a1 1 0 0 0 -1.41 1.42l5.28 5.21-5.27 5.22a1 1 0 0 0 -.01 1.42z"/><path d="m30.92 8h-4.37a1 1 0 0 0 0 2h4.45v20h-26v-20h4.38a1 1 0 0 0 0-2h-4.3a2 2 0 0 0 -2.08 2v20a2 2 0 0 0 2.08 2h25.84a2 2 0 0 0 2.08-2v-20a2 2 0 0 0 -2.08-2z"/><path d="m0 0h36v36h-36z" fill="none"/></svg>