<svg height="36" preserveAspectRatio="xMidYMid meet" viewBox="0 0 36 36" width="36" xmlns="http://www.w3.org/2000/svg"><path d="m14.29 11.4a1.49 1.49 0 0 1 1.28-.72h1a2.89 2.89 0 0 0 2.75 2.09 3 3 0 0 0 0-5.91 2.9 2.9 0 0 0 -2.67 1.82h-1.08a3.49 3.49 0 0 0 -3 1.66l-3 4.83h2.36zm5-2.94a1.36 1.36 0 1 1 -1.29 1.35 1.32 1.32 0 0 1 1.33-1.35z"/><path d="m34.3 17.37-6.11-3.66a.7.7 0 0 0 -.7 0 .71.71 0 0 0 -.36.61v2.68h-20.21a2.33 2.33 0 0 1 .32 1.17 2.47 2.47 0 1 1 -2.47-2.46 2.37 2.37 0 0 1 1.15.3l.93-1.76a4.44 4.44 0 1 0 2.3 4.75h3.58l4.17 6.65a3.49 3.49 0 0 0 3 1.66h1.66v1.28a.79.79 0 0 0 .8.79h4.49a.79.79 0 0 0 .8-.79v-4.4a.79.79 0 0 0 -.8-.8h-4.51a.8.8 0 0 0 -.8.8v1.12h-1.66a1.51 1.51 0 0 1 -1.28-.72l-3.51-5.59h12v2.66a.69.69 0 0 0 .36.61.67.67 0 0 0 .34.09.65.65 0 0 0 .36-.1l6.11-3.66a.69.69 0 0 0 .34-.6.71.71 0 0 0 -.3-.63zm-11.16 7.63h2.86v2.8h-2.86zm5.39-4.56v-4.89l4 2.42z"/><path d="m0 0h36v36h-36z" fill="none"/></svg>