<svg height="36" preserveAspectRatio="xMidYMid meet" viewBox="0 0 36 36" width="36" xmlns="http://www.w3.org/2000/svg"><path d="m34.72 17.37-5.51-3.31a.71.71 0 0 0 -1.07.6v2.34h-16.37l3.52-5.6a1.49 1.49 0 0 1 1.28-.72h1.64a2.41 2.41 0 0 0 2.25 1.61 2.48 2.48 0 0 0 0-4.95 2.38 2.38 0 0 0 -2.13 1.34h-1.76a3.49 3.49 0 0 0 -3 1.66l-4.16 6.66h-1.41a3.46 3.46 0 1 0 .08 2h5.64l4.15 6.62a3.49 3.49 0 0 0 3 1.66h2.59v.92h4.4v-4.4h-4.4v1.48h-2.58a1.51 1.51 0 0 1 -1.28-.72l-3.49-5.56h12v2.28a.7.7 0 0 0 .36.61.72.72 0 0 0 .34.09.65.65 0 0 0 .36-.1l5.52-3.31a.7.7 0 0 0 0-1.2z"/><path d="m0 0h36v36h-36z" fill="none"/></svg>