<svg height="36" preserveAspectRatio="xMidYMid meet" viewBox="0 0 36 36" width="36" xmlns="http://www.w3.org/2000/svg"><path d="m32.12 10h-28.24a1.88 1.88 0 0 0 -1.88 1.88v18.24a1.88 1.88 0 0 0 1.88 1.88h28.24a1.88 1.88 0 0 0 1.88-1.88v-18.24a1.88 1.88 0 0 0 -1.88-1.88zm-7.94 11.83-9.77 4.36a1 1 0 0 1 -1.41-.91v-8.72a1 1 0 0 1 1.41-.91l9.77 4.35a1 1 0 0 1 0 1.83z"/><path d="m30.14 3a1 1 0 0 0 -1-1h-22a1 1 0 0 0 -1 1v1h24z"/><path d="m32.12 7a1 1 0 0 0 -1-1h-26a1 1 0 0 0 -1 1v1h28z"/><path d="m0 0h36v36h-36z" fill="none"/></svg>