<svg height="36" preserveAspectRatio="xMidYMid meet" viewBox="0 0 36 36" width="36" xmlns="http://www.w3.org/2000/svg"><path d="m34 10.34a2.11 2.11 0 0 0 -1.16-1.9 2 2 0 0 0 -2.13.15l-4.71 3.01v-3.6a2 2 0 0 0 -2-2h-18a4 4 0 0 0 -4 4v16a4 4 0 0 0 4 4h18a2 2 0 0 0 2-2v-3.6l4.64 3a2.07 2.07 0 0 0 2.2.2 2.11 2.11 0 0 0 1.16-1.94zm-2.07 15.43c-.06 0-.11 0-.19-.06l-7.74-4.94v7.23h-18a2 2 0 0 1 -2-2v-16a2 2 0 0 1 2-2h18v7.23l7.8-5a.11.11 0 0 1 .13 0 .11.11 0 0 1 .07.11v15.32a.11.11 0 0 1 -.07.11z"/><path d="m0 0h36v36h-36z" fill="none"/></svg>