<svg height="36" preserveAspectRatio="xMidYMid meet" viewBox="0 0 36 36" width="36" xmlns="http://www.w3.org/2000/svg"><path d="m24.87 6.69a12.42 12.42 0 0 1 3.88 19.61l1.42 1.42a14.43 14.43 0 0 0 -4.43-22.84 1 1 0 0 0 -.87 1.8z"/><path d="m27.3 27.67-3.84-3.84-.57-.57-18.26-18.26-1.42 1.41 5.59 5.59h-5.8a1 1 0 0 0 -1 1v10a1 1 0 0 0 1 1h5.83l9.51 8.3a1 1 0 0 0 1.66-.75v-8.35l5.59 5.59c-.17.1-.34.2-.51.29a1 1 0 0 0 .9 1.79c.37-.19.72-.4 1.08-.62l2.14 2.14 1.41-1.39-3.25-3.25z"/><path d="m22.69 12.62a6.27 6.27 0 0 1 3.11 5.38 6.17 6.17 0 0 1 -1.42 3.92l1.42 1.42a8.16 8.16 0 0 0 2-5.34 8.28 8.28 0 0 0 -4.1-7.11 1 1 0 1 0 -1 1.73z"/><path d="m20 4.62a1 1 0 0 0 -1.66-.75l-6.42 5.6 8.08 8.07z"/><path d="m0 0h36v36h-36z" fill="none"/></svg>