<svg height="36" preserveAspectRatio="xMidYMid meet" viewBox="0 0 36 36" width="36" xmlns="http://www.w3.org/2000/svg"><path d="m3.61 6.41 5.58 5.59h-5.19a2 2 0 0 0 -2 2v8a2 2 0 0 0 2 2h5.14l7.41 7.47a2 2 0 0 0 1.45.53 2 2 0 0 0 .76-.15 2 2 0 0 0 1.24-1.85v-7.23l5.89 5.89c-.25.15-.49.29-.75.42a1 1 0 0 0 .9 1.79 14.4 14.4 0 0 0 1.31-.75l2.28 2.28 1.37-1.4-26-26zm14.39 23.59-7.73-7.77a1 1 0 0 0 -.71-.23h-5.56v-8h5.64a1 1 0 0 0 .71-.3l.26-.26 7.39 7.37z"/><path d="m24.89 6.69a12.42 12.42 0 0 1 4.11 19.41l1.42 1.42a14.42 14.42 0 0 0 -4.66-22.64 1 1 0 1 0 -.87 1.8z"/><path d="m22.69 12.62a6.27 6.27 0 0 1 3.11 5.38 6.17 6.17 0 0 1 -1.24 3.71l1.44 1.42a8.15 8.15 0 0 0 1.8-5.13 8.28 8.28 0 0 0 -4.1-7.11 1 1 0 1 0 -1 1.73z"/><path d="m18 6v9.15l2 2v-11.15a2 2 0 0 0 -3.42-1.41l-4.58 4.58 1.41 1.41z"/><path d="m0 0h36v36h-36z" fill="none"/></svg>