<svg height="36" preserveAspectRatio="xMidYMid meet" viewBox="0 0 36 36" width="36" xmlns="http://www.w3.org/2000/svg"><path d="m23.41 25.25a1 1 0 0 1 -.54-1.85 6.21 6.21 0 0 0 -.19-10.65 1 1 0 1 1 1-1.73 8.21 8.21 0 0 1 .24 14.06 1 1 0 0 1 -.51.17z"/><path d="m25.62 31.18a1 1 0 0 1 -.45-1.89 12.44 12.44 0 0 0 -.17-22.4 1 1 0 1 1 .87-1.8 14.44 14.44 0 0 1 .24 26 1 1 0 0 1 -.49.09z"/><path d="m18.33 4-9.26 8h-6a1 1 0 0 0 -1 1v9.92a1 1 0 0 0 1 1h5.81l9.46 8.24a1 1 0 0 0 1.66-.73v-26.71a1 1 0 0 0 -1.67-.72z"/><path d="m0 0h36v36h-36z" fill="none"/></svg>