<svg height="36" preserveAspectRatio="xMidYMid meet" viewBox="0 0 36 36" width="36" xmlns="http://www.w3.org/2000/svg"><path d="m32.94 14h-1.94v-5a1 1 0 0 0 -1-1h-24a1 1 0 0 1 -1-1 1 1 0 0 1 1-1h23.6a1 1 0 1 0 0-2h-23.6a2.94 2.94 0 0 0 -3 2.88v21a4.13 4.13 0 0 0 4.15 4.12h22.85a1 1 0 0 0 1-1v-5h1.94a.93.93 0 0 0 1-.91v-10a1.08 1.08 0 0 0 -1-1.09zm-.94 10h-8.58a3.87 3.87 0 0 1 -3.73-4 3.87 3.87 0 0 1 3.73-4h8.58z"/><circle cx="24.04" cy="19.92" r="1.5"/><path d="m0 0h36v36h-36z" fill="none"/></svg>