<svg height="36" preserveAspectRatio="xMidYMid meet" viewBox="0 0 36 36" width="36" xmlns="http://www.w3.org/2000/svg"><path d="m32 15h-1v-6a1 1 0 0 0 -1-1h-24a1 1 0 0 1 -1-.82v-.36a1 1 0 0 1 1-.82h23.58a1 1 0 0 0 0-2h-23.58a3 3 0 0 0 -3 3 3.08 3.08 0 0 0 0 .36v20.57a4.1 4.1 0 0 0 4.13 4.07h22.87a1 1 0 0 0 1-1v-6h1a1 1 0 0 0 1-1v-8a1 1 0 0 0 -1-1zm-3 15h-21.87a2.11 2.11 0 0 1 -2.13-2.07v-18.05a3.11 3.11 0 0 0 1 .12h23v5h-7a5 5 0 0 0 0 10h7zm2-7h-9a3 3 0 0 1 0-6h9z"/><circle cx="23.01" cy="20" r="1.5"/><path d="m0 0h36v36h-36z" fill="none"/></svg>