<svg height="36" preserveAspectRatio="xMidYMid meet" viewBox="0 0 36 36" width="36" xmlns="http://www.w3.org/2000/svg"><path d="m34.1 4-2.39-2.4a1.83 1.83 0 0 0 -1.31-.54 2.05 2.05 0 0 0 -1.45.62l-27.19 27.55a2 2 0 0 0 -.08 2.77l2.4 2.43a1.83 1.83 0 0 0 1.31.57 2.05 2.05 0 0 0 1.45-.62l27.16-27.59a2 2 0 0 0 .1-2.79zm-28.68 28.93-2.26-2.28 20.95-21.22 2.25 2.28zm27.19-27.54-5.12 5.18-2.25-2.28 5.13-5.2 2.25 2.28z"/><path d="m32.53 20.47 2.09-2.09a.8.8 0 0 0 -1.13-1.13l-2.09 2.09-2.09-2.09a.8.8 0 0 0 -1.13 1.13l2.09 2.09-2.09 2.09a.8.8 0 0 0 1.13 1.13l2.09-2.09 2.09 2.09a.8.8 0 0 0 1.13-1.13z"/><path d="m14.78 6.51a.8.8 0 0 0 1.13 0l1.49-1.51 1.49 1.49a.8.8 0 0 0 1.11-1.11l-1.46-1.49 1.46-1.49a.8.8 0 0 0 -1.13-1.13l-1.47 1.49-1.49-1.49a.8.8 0 1 0 -1.13 1.13l1.49 1.49-1.49 1.49a.8.8 0 0 0 0 1.13z"/><path d="m8.33 15.26a.8.8 0 0 0 1.13 0l1.16-1.16 1.16 1.16a.8.8 0 1 0 1.13-1.13l-1.15-1.13 1.16-1.16a.8.8 0 1 0 -1.13-1.13l-1.16 1.16-1.17-1.19a.8.8 0 1 0 -1.13 1.13l1.16 1.19-1.16 1.13a.8.8 0 0 0 0 1.13z"/><path d="m0 0h36v36h-36z" fill="none"/></svg>