<svg height="36" preserveAspectRatio="xMidYMid meet" viewBox="0 0 36 36" width="36" xmlns="http://www.w3.org/2000/svg"><circle cx="18" cy="26.06" r="1.33"/><path d="m18 22.61a1 1 0 0 1 -1-1v-12a1 1 0 1 1 2 0v12a1 1 0 0 1 -1 1z"/><path d="m15.0620782 1.681196c.5678037-1.03192965 1.6488309-1.67097406 2.8229218-1.67097406s2.2551181.63904441 2.8236433 1.67229935l13.8900007 25.56000121c.5421306.9976172.5187905 2.2070148-.0614279 3.1829718-.5802184.9759571-1.6315451 1.5742041-2.7672161 1.5745057l-27.74760677-.0002508c-1.14830314.0257207-2.2233648-.5621739-2.82132988-1.5428366s-.62828545-2.2055947-.07898517-3.2157166zm-12.18357053 26.5165322c-.20789801.3823094-.19641017.8464141.03014803 1.2179695.2265582.3715555.6338797.5942982 1.0913443.5843023h27.7697344c.4301847-.0001142.8285134-.2267792 1.0483477-.5965518.2198343-.3697725.2286774-.8279915.0232746-1.2059695l-13.8874828-25.55539675c-.2144503-.38973759-.624032-.63186001-1.0688739-.63186001-.4443111 0-.8534462.24154498-1.0681054.63046559z"/><path d="m0 0h36v36h-36z" fill="none"/></svg>