<svg height="36" preserveAspectRatio="xMidYMid meet" viewBox="0 0 36 36" width="36" xmlns="http://www.w3.org/2000/svg"><path d="m33 18h-4.25l.5-2h3.75a1 1 0 0 0 0-2h-3.26l2.17-8.76a1 1 0 0 0 -1.91-.48l-2.32 9.24h-6.37l-2.31-9.24a1 1 0 0 0 -1.94 0l-2.27 9.24h-6.37l-2.29-9.24a1 1 0 0 0 -1.94.48l2.17 8.76h-3.36a1 1 0 0 0 0 2h3.85l.5 2h-4.35a1 1 0 0 0 0 2h4.84l2.79 11.24a1 1 0 0 0 1.94 0l2.79-11.24h5.38l2.79 11.24a1 1 0 0 0 1.94 0l2.78-11.24h4.75a1 1 0 0 0 0-2zm-5.82-2-.5 2h-4.38l-.5-2zm-9.18-6.84 1.25 4.84h-2.4zm-9.09 6.84h5.38l-.5 2h-4.38zm2.69 10.84-1.69-6.84h3.39zm4.25-8.84.5-2h3.39l.5 2zm8.64 8.84-1.69-6.84h3.39z"/><path d="m0 0h36v36h-36z" fill="none"/></svg>