<svg height="36" preserveAspectRatio="xMidYMid meet" viewBox="0 0 36 36" width="36" xmlns="http://www.w3.org/2000/svg"><path d="m26.54 18a19.38 19.38 0 0 0 -.43-4h3.6a12.3 12.3 0 0 0 -.67-1.6h-3.35a19.72 19.72 0 0 0 -2.89-5.87 12.3 12.3 0 0 0 -2.55-.76 17.83 17.83 0 0 1 3.89 6.59h-5.39v-6.76c-.25 0-.51 0-.77 0s-.49 0-.73 0v6.77h-5.39a17.83 17.83 0 0 1 3.9-6.6 12.28 12.28 0 0 0 -2.54.75 19.72 19.72 0 0 0 -2.91 5.85h-3.37a12.3 12.3 0 0 0 -.68 1.63h3.63a19.38 19.38 0 0 0 -.43 4 19.67 19.67 0 0 0 .5 4.37h-3.54a12.34 12.34 0 0 0 .74 1.63h3.23a19.32 19.32 0 0 0 2.69 5.36 12.28 12.28 0 0 0 2.61.79 17.91 17.91 0 0 1 -3.69-6.15h5.26v6.34h.73s.51 0 .77 0v-6.34h5.24a17.9 17.9 0 0 1 -3.7 6.15 12.28 12.28 0 0 0 2.62-.81 19.32 19.32 0 0 0 2.69-5.34h3.2a12.34 12.34 0 0 0 .74-1.6h-3.55a19.67 19.67 0 0 0 .54-4.4zm-9.29 4.37h-5.74a17.69 17.69 0 0 1 -.09-8.4h5.83zm7.24 0h-5.74v-8.37h5.83a18.21 18.21 0 0 1 .42 4 18.12 18.12 0 0 1 -.51 4.37z"/><path d="m18 2a16 16 0 1 0 16 16 16 16 0 0 0 -16-16zm0 30a14 14 0 1 1 14-14 14 14 0 0 1 -14 14z"/><path d="m0 0h36v36h-36z" fill="none"/></svg>